<svg width="45" height="50" viewBox="0 0 45 50" fill="none" xmlns="http://www.w3.org/2000/svg">
<g opacity="0.9" clip-path="url(#clip0_2967_10597)">
<path d="M44.9362 18.5265C44.8402 18.2222 44.6738 18.1968 44.3859 18.2665C43.5285 18.4821 42.6775 18.7294 41.8201 18.9513C41.4362 19.0528 41.0395 19.1415 40.6428 19.1542C40.4573 19.1542 40.2461 19.1542 40.099 19.0401C39.9774 18.9386 39.9134 18.7865 39.7662 18.7104C39.5807 18.6153 39.4079 18.6914 39.3759 18.4377C39.3567 18.2729 39.3887 18.1271 39.3247 17.9622C39.2032 17.6515 38.928 17.4486 38.6529 17.2901C38.2498 17.0619 37.9043 16.8527 37.578 16.5166C37.2901 16.225 37.0149 15.9143 36.7398 15.6099C36.6118 15.1027 36.5798 14.5955 36.4967 14.0819C36.4647 13.8854 36.4007 13.6825 36.2599 13.5366C36.1895 13.4606 36.1063 13.4162 36.0232 13.3528C35.844 13.2133 35.8248 13.1435 35.812 12.928C35.7736 12.4334 35.4345 12.1798 35.089 11.8755C34.8395 11.6599 34.6603 11.4507 34.7371 11.102C34.7883 10.8737 34.8587 10.6962 34.8075 10.4552C34.7051 9.97337 34.2956 9.59929 34.0333 9.19985C33.7197 8.73066 33.4702 8.22343 33.2463 7.70987C33.1247 7.43089 33.0159 7.15192 32.9007 6.87294C32.8496 6.74613 32.8048 6.60665 32.7536 6.46716C32.7664 6.46716 32.7792 6.46082 32.792 6.45448C32.9263 6.39741 33.0095 6.25793 33.0287 6.11844C33.0799 5.67461 32.6384 5.34492 32.3953 5.04058C32.2865 4.90109 32.3377 4.69186 32.2097 4.54603C32.0945 4.41922 31.9218 4.41288 31.7618 4.42556C31.5571 4.44459 31.3651 4.50799 31.1924 4.62212C31.0132 4.73624 30.8789 4.90743 30.6805 4.98352C30.463 4.86939 30.303 4.66016 30.0854 4.53335C29.8743 4.41288 29.6248 4.3685 29.3816 4.37484C28.8314 4.38752 28.2747 4.65382 27.7244 4.54603C27.1358 4.42556 26.8734 3.76617 26.2976 3.60132C26.0928 3.54426 25.8561 3.54426 25.6641 3.65204C25.5554 3.71545 25.485 3.80421 25.4018 3.89298C25.3762 3.92468 25.3378 3.98174 25.3058 4.0071C25.1651 4.11489 25.1331 4.04514 25.0115 3.98174C24.602 3.75983 24.2309 4.00076 24.2309 4.46995C24.2309 4.58407 24.2629 4.67918 24.3013 4.78062C24.3397 4.87573 24.5188 5.13568 24.4868 5.22445C24.4101 5.43368 24.1605 5.23079 24.0454 5.18007C23.8982 5.11032 23.751 5.04058 23.5911 5.01522C23.3287 4.96449 23.0664 5.01522 22.7977 5.01522C22.401 5.01522 22.2986 4.79331 22.081 4.52067C21.7227 4.07685 21.1533 4.29876 20.6926 4.05148C20.1935 3.78519 19.8416 3.32234 19.3553 3.03703C19.2593 2.97996 19.1506 2.92924 19.0418 2.88486C18.8946 2.8278 18.6643 2.84048 18.5363 2.76439C18.2868 2.61856 18.5235 2.55516 18.6579 2.48542C18.7667 2.42835 18.8434 2.35861 18.9074 2.25082C18.9586 2.16206 18.9266 2.05427 18.8434 2.00355C18.7219 1.92747 18.6643 1.76896 18.7347 1.63581C18.7923 1.53436 18.9266 1.48364 19.0098 1.40122C19.1186 1.29343 19.189 1.15394 19.1698 1.00178C19.1506 0.881309 19.0802 0.786203 18.965 0.72914C18.933 0.71646 18.8051 0.71646 18.7795 0.691098C18.7219 0.640375 18.7347 0.519909 18.7027 0.450165C18.5875 0.152168 18.2356 0 17.9157 0C17.6725 0 17.4358 0.0824246 17.2055 0.139488C16.9047 0.215572 16.604 0.259954 16.2969 0.285316C15.2347 0.380421 14.1854 0.35506 13.1361 0.583312C12.6946 0.678418 12.1635 0.741821 11.7668 0.970074C11.5749 1.07786 11.4469 1.24905 11.2869 1.38854C11.0502 1.60411 10.7687 1.72458 10.4487 1.75628C10.372 1.76262 10.3208 1.807 10.2952 1.86406C9.50817 2.12402 8.66358 2.00355 7.98535 1.51534C7.86378 1.42658 7.71662 1.54705 7.71022 1.67385C7.64623 2.5932 6.66088 2.87852 6.02744 3.36039C5.70752 3.60766 5.40039 3.87395 5.09967 4.14659C4.89492 4.33046 4.67737 4.55237 4.78615 4.84403C4.83093 4.97083 4.9845 5.06594 4.9525 5.21177C4.93331 5.31321 4.81814 5.40832 4.75415 5.47806C4.59419 5.65559 4.41504 5.83312 4.38305 6.0804C4.36385 6.2072 4.40224 6.32133 4.42144 6.44814C4.47262 6.70809 4.1719 6.76515 3.97995 6.8666C3.66003 7.02511 3.24413 7.15192 2.99459 7.41821C2.77705 7.64646 2.79624 7.99518 2.61709 8.2488C2.40594 8.54679 2.09881 8.76236 1.85568 9.035C1.41419 9.53589 1.23503 10.1826 0.902313 10.7532C0.639978 11.2034 -0.153424 11.6789 0.134504 12.2939C0.179293 12.3827 0.243277 12.4651 0.332855 12.5159C0.460823 12.5919 0.63358 12.5729 0.748751 12.668C1.01748 12.8963 0.723157 13.4542 0.825532 13.7712C0.876719 13.9171 0.972695 14.0375 1.07507 14.158C1.27342 14.3989 1.32461 14.5891 1.18384 14.8871C1.00469 15.2612 0.729556 15.5529 0.435229 15.8445C0.204886 16.0728 -0.00626104 16.3327 0.0129342 16.6751C0.025731 16.8844 0.115309 17.0555 0.275269 17.1697C0.23048 17.2458 0.23048 17.3599 0.326456 17.4233C0.697564 17.6769 0.947102 18.0193 1.11986 18.4314C1.17105 18.5582 1.22863 18.6787 1.3374 18.7611C1.49097 18.8879 1.79169 18.8372 1.89407 19.0084C1.96445 19.1352 1.95805 19.3254 2.01564 19.4649C2.09242 19.6424 2.20759 19.7946 2.32276 19.9404C2.63628 20.3272 2.9754 20.6886 3.30172 21.0626C3.85198 21.6903 4.38944 22.4131 5.12526 22.8379C5.82909 23.2437 6.71207 23.2881 7.45428 22.9457C7.55026 22.9013 7.64623 22.8316 7.75501 22.7999C7.90857 22.7555 7.97895 22.8126 8.10052 22.895C8.24129 22.9965 8.38205 23.0599 8.56121 23.0789C8.9835 23.1106 9.3866 22.895 9.8089 22.876C10.2312 22.857 10.6215 22.8189 11.031 22.6858C11.4277 22.559 11.8116 22.3878 12.2019 22.2356C12.5922 22.0898 12.9953 21.9566 13.4176 21.963C13.6095 21.963 13.8079 21.9883 13.9871 22.0708C14.2302 22.1785 14.3006 22.3434 14.3902 22.578C14.6461 23.2374 15.4203 23.1803 15.9834 23.0218C16.2073 22.9584 16.4376 22.8823 16.6744 22.8823C16.9943 22.8823 17.1799 23.0472 17.3462 23.3071C17.4806 23.51 17.6533 23.7763 17.6214 24.0299C17.5894 24.2455 17.3846 24.3406 17.2886 24.5181C17.2183 24.6513 17.2246 24.7908 17.2886 24.9239C17.3526 25.0507 17.4038 25.1268 17.3846 25.279C17.3654 25.4121 17.295 25.5389 17.2374 25.6594C17.1223 25.913 17.0391 26.173 17.1095 26.4202C17.1095 26.4456 17.1223 26.4773 17.1351 26.5027V26.5153C17.1671 26.5661 17.1991 26.6168 17.2374 26.6675C17.2438 26.6802 17.2566 26.6865 17.263 26.6992C17.8325 27.5108 18.5555 28.2082 19.0866 29.0451C19.3745 29.4953 19.5921 29.9835 19.6752 30.5098C19.7072 30.7253 19.72 30.9536 19.7968 31.1565C19.88 31.3657 20.0399 31.4355 20.1615 31.6003C20.2959 31.7778 20.1615 32.1266 20.1807 32.3421C20.2063 32.5957 20.3023 32.8367 20.3791 33.0776C20.5582 33.6482 20.4494 34.1555 20.1295 34.6564C19.8224 35.1382 19.3873 35.5123 19.029 35.9561C18.7475 36.2985 18.6579 36.6219 18.9394 36.9959C19.2721 37.4398 19.6944 37.7568 19.7136 38.3464C19.7328 38.9107 20.0336 39.4116 20.2831 39.9062C20.2639 39.9505 20.2575 40.0076 20.2895 40.0647C20.4175 40.2929 20.5454 40.5212 20.667 40.7558C20.8078 41.0094 21.1277 41.3961 21.0445 41.6941C20.9933 41.878 20.8653 42.0112 20.8589 42.2141C20.8589 42.4106 20.9485 42.5881 21.0509 42.7466C21.1789 42.9622 21.294 43.1461 21.3324 43.3934C21.3644 43.6216 21.3516 43.8499 21.3836 44.0781C21.4476 44.5473 21.7163 44.8009 22.0618 45.0989C22.4521 45.4349 22.6377 45.8915 22.8488 46.348C22.9704 46.6016 23.092 46.8552 23.2072 47.1088C23.3415 47.3941 23.5207 47.7238 23.4183 48.0408C23.3607 48.2247 23.2456 48.3642 23.2519 48.5607C23.2519 48.751 23.3607 48.9095 23.4823 49.049C23.7574 49.385 24.0901 49.721 24.4932 49.8986C24.8643 50.0571 25.2355 50.019 25.5938 49.8605C25.8049 49.7718 25.9969 49.6513 26.208 49.5689C26.4831 49.4611 26.7711 49.4421 27.059 49.4357C27.5581 49.4294 28.0124 49.3786 28.473 49.1758C28.9145 48.9855 29.3048 48.7066 29.6696 48.3959C30.079 48.0472 30.4438 47.6604 30.8277 47.2863C31.1796 46.9503 31.5571 46.6333 31.8834 46.2655C32.4657 45.6188 32.9327 44.7312 32.6768 43.8499C32.6384 43.7167 32.536 43.5836 32.6 43.4568C32.6576 43.3426 32.7984 43.33 32.9135 43.2729C33.1119 43.1778 33.2911 43.051 33.4446 42.8988C33.5982 42.7466 33.7197 42.5628 33.8093 42.3662C33.9373 42.0872 34.0077 41.9034 34.27 41.7195C34.6667 41.4279 34.7435 41.0601 34.6411 40.5909C34.5707 40.2993 34.4684 40.0203 34.4364 39.716C34.4044 39.3863 34.4236 39.0629 34.4876 38.7395C34.5195 38.7332 34.5451 38.7205 34.5707 38.6952C34.961 38.3274 35.3897 38.0041 35.8632 37.7378C36.2343 37.5285 36.631 37.3573 36.9829 37.1101C37.3284 36.8628 37.578 36.5521 37.7507 36.159C37.9363 35.7279 38.0323 35.2714 38.3202 34.8909C38.6145 34.5042 38.5761 34.1555 38.4418 33.7053C38.3074 33.2488 38.0771 32.8494 37.8275 32.4436C37.546 31.9807 37.4308 31.5306 37.3668 30.998C37.3093 30.4907 37.2389 29.9645 37.2645 29.4509C37.2837 29.172 37.354 28.9247 37.5716 28.7408C37.7507 28.595 37.9043 28.4809 37.9939 28.2589C38.1538 27.8849 37.9619 26.7753 38.6017 26.8577C38.6785 26.8704 38.7297 26.8324 38.7553 26.788C38.7809 26.7753 38.8001 26.7563 38.8193 26.7309C39.152 26.2173 39.7151 25.9384 40.1501 25.5199C40.3293 25.3487 40.4893 25.1522 40.5916 24.9239C40.7388 24.6069 40.7196 24.1821 40.9819 23.9348C41.2123 23.7129 41.577 23.6495 41.8713 23.5354C42.172 23.4149 42.4344 23.2437 42.6839 23.0408C43.215 22.6033 43.778 22.1025 44.1364 21.5065C44.3283 21.1895 44.4499 20.8344 44.5842 20.492C44.7186 20.137 44.8786 19.7819 44.9554 19.4078C45.0129 19.1162 45.0257 18.8118 44.9298 18.5265H44.9362Z" fill="#F75847"/>
<path d="M44.3089 36.0256C44.2449 35.7911 44.1426 35.6262 44.181 35.3726C44.2065 35.1824 44.2129 35.0112 44.1426 34.859C44.1554 34.8083 44.1426 34.7512 44.1042 34.7005C43.893 34.4596 43.6819 34.2186 43.4771 33.9777C43.4259 33.9143 43.3428 33.9143 43.2724 33.9397C43.2212 33.9524 43.1764 33.9904 43.1572 34.0665C43.042 34.5991 42.5877 34.9922 42.0311 34.9985C41.9223 34.9985 41.8071 35.1126 41.8583 35.2268C41.8967 35.3155 41.9351 35.4043 41.9735 35.4931C41.692 35.5691 41.4104 35.6516 41.1353 35.7277C40.9498 35.7784 40.9753 36.013 41.1353 36.0764C41.2889 36.1398 40.873 36.3427 40.8282 36.3553C40.7322 36.387 40.6298 36.4251 40.5339 36.4631C40.3163 36.5582 40.1244 36.6977 39.9516 36.8562C39.6125 37.1669 39.3821 37.579 39.2862 38.0229C39.2606 38.137 39.3374 38.2511 39.4589 38.2511C39.6637 38.2511 39.99 38.2321 40.0732 38.4667C40.15 38.6823 40.0348 39.0563 40.0092 39.2719C39.9772 39.5509 39.9964 39.9123 39.7788 40.1088C39.6509 40.2293 39.5037 40.2737 39.4269 40.4449C39.2862 40.7556 39.4845 41.0726 39.5933 41.3642C39.6765 41.5861 39.6381 41.7129 39.6253 41.9412C39.6125 42.1187 39.6829 42.2392 39.8172 42.3533C40.4571 42.8923 41.4616 43.2663 42.1015 42.5372C42.3958 42.2012 42.5813 41.77 42.7797 41.3769C43.0164 40.9141 43.234 40.4449 43.4067 39.9567C43.7842 38.8725 43.8226 37.7185 43.893 36.5836C44.0722 36.609 44.2257 36.5836 44.3089 36.3617C44.3473 36.2539 44.3473 36.1334 44.3153 36.0256H44.3089Z" fill="#F75847"/>
</g>
<defs>
<clipPath id="clip0_2967_10597">
<rect width="45" height="50" fill="white"/>
</clipPath>
</defs>
</svg>
