<svg width="43" height="63" viewBox="0 0 43 63" fill="none" xmlns="http://www.w3.org/2000/svg">
<g opacity="0.9" clip-path="url(#clip0_249_25896)">
<path d="M30.5672 27.7848C30.632 27.6651 30.6657 27.535 30.6631 27.3944C30.6631 27.3346 30.6165 27.2955 30.5595 27.2903C30.3003 27.2669 30.0566 27.0353 29.8493 26.8947C29.6678 26.7698 29.4838 26.6475 29.3024 26.5226C29.362 26.4731 29.4086 26.4029 29.432 26.3274C29.489 26.1192 29.3749 25.9084 29.2868 25.7288C29.0795 25.3124 28.828 24.9194 28.5455 24.5524C28.5041 24.5004 28.4133 24.5212 28.3848 24.5733C28.25 24.8101 28.1179 25.0469 27.9831 25.2838C27.9157 25.4035 27.8509 25.5206 27.7835 25.6403C27.7446 25.708 27.7368 25.7496 27.6617 25.7054C27.615 25.6794 27.5813 25.6091 27.5528 25.5674C27.2859 25.1771 26.9982 24.706 27.1277 24.2141C27.1485 24.1334 27.0759 24.0736 27.0007 24.0866C26.739 24.1334 26.5705 23.855 26.4513 23.6676C26.3528 23.5114 26.218 23.285 26.0158 23.2616C25.824 23.2382 25.697 23.4438 25.5104 23.4724C25.3082 23.5036 25.1112 23.4229 24.9868 23.2616C24.9246 23.1835 24.8287 23.246 24.8183 23.3292C24.7846 23.3345 24.7561 23.3579 24.7484 23.4021C24.7121 23.6572 24.7121 23.9096 24.7561 24.1595C24.7017 24.1751 24.6551 24.2063 24.6136 24.2506C24.5799 24.2844 24.5747 24.3338 24.598 24.3755C24.6706 24.5186 24.9453 24.5056 24.9039 24.693C24.8598 24.8778 24.668 24.9819 24.5695 25.1354C24.3181 25.5362 24.8028 25.773 25.005 26.0437C25.2305 26.3482 25.3186 26.9026 24.8961 27.0977C24.7432 27.168 24.5643 27.1446 24.4192 27.2331C24.2714 27.3242 24.2455 27.4959 24.3155 27.6469C24.3648 27.751 24.4347 27.8369 24.4736 27.9462C24.5073 28.0477 24.5255 28.1518 24.5255 28.2585C24.5255 28.4563 24.4632 28.6489 24.3466 28.8076C24.2792 28.7322 24.1963 28.6697 24.1004 28.6254C23.9526 28.5578 23.7427 28.5812 23.6287 28.4511C23.385 28.17 23.6261 27.7224 23.6027 27.3996C23.5924 27.2669 23.5457 27.1238 23.4368 27.0405C23.2839 26.926 23.1025 27.0301 22.9392 26.952C22.7448 26.8583 22.5608 26.7282 22.3742 26.6189L21.8065 26.2779C21.6588 26.1895 21.4566 26.0151 21.2726 26.0593C21.1896 26.0801 21.1508 26.14 21.0912 26.1921C21.0212 26.2519 20.9201 26.2571 20.8423 26.2103C20.819 25.8771 20.7283 25.557 20.5728 25.2603C20.5391 25.1979 20.4587 25.1979 20.4121 25.2395C20.3525 25.2916 20.2825 25.3228 20.2099 25.328C20.2591 25.0235 20.3188 24.7216 20.3913 24.4223C20.4302 24.261 20.4717 24.0996 20.5183 23.9408C20.5598 23.8003 20.5909 23.6416 20.6661 23.514C20.749 23.3735 20.8657 23.3995 21.0056 23.3709C21.1145 23.3475 21.2078 23.2772 21.2389 23.1653C21.2933 22.9805 21.2 22.8374 21.073 22.7281C21.524 22.5563 21.8921 22.1893 22.0735 21.7365C22.1253 21.609 22.1616 21.4762 22.1772 21.3383C22.1849 21.2706 22.1772 21.1665 22.2212 21.1093C22.2575 21.0624 22.3275 21.0416 22.3793 21.0208C22.4882 20.9791 22.5997 20.9349 22.6696 20.836C22.7137 20.7735 22.7293 20.7007 22.75 20.6304C22.7552 20.6122 22.7863 20.4977 22.8277 20.4769C22.8381 20.797 23.2269 20.9531 23.5042 20.797C23.8386 20.607 23.9915 20.1359 23.8282 19.7898C23.7608 19.6466 23.5509 19.428 23.6623 19.2667C23.7557 19.1339 23.9034 19.0559 23.8593 18.8633C23.8205 18.6941 23.6572 18.5848 23.512 18.5093C23.2943 18.4 23.074 18.2959 22.8563 18.1892C22.8044 18.1632 22.7474 18.1762 22.7163 18.2256C22.5504 18.4937 22.7526 18.754 22.75 19.0324C22.75 19.2042 22.6282 19.3656 22.5478 19.5113C22.4649 19.6596 22.3845 19.8106 22.3016 19.9589C22.115 19.8574 22.172 19.5035 22.1668 19.3265C22.159 19.0845 22.089 18.8112 21.8273 18.7409C21.7806 18.7279 21.7365 18.7514 21.7106 18.7878L21.511 19.0767C21.4592 18.7982 21.3063 18.5432 21.086 18.361C21.2311 18.1554 21.0601 17.8066 20.9667 17.6088C20.7801 17.2106 20.552 16.8333 20.2903 16.4793C20.2566 16.4325 20.2021 16.4143 20.1503 16.4429C19.733 16.6693 19.6889 17.2054 19.6812 17.6297C19.676 17.8717 19.7019 18.1293 19.873 18.3115C20.0077 18.4547 20.1969 18.5197 20.3862 18.5588C20.3188 18.7462 20.4458 18.9882 20.368 19.1886C20.3369 19.2693 20.2591 19.3265 20.2073 19.3942C20.1555 19.4619 20.1218 19.5295 20.1114 19.6128C20.0984 19.7117 20.1244 19.8028 20.1321 19.9017C20.1373 19.9563 20.1399 20.0058 20.1036 20.05C20.0959 20.0578 20.0907 20.0656 20.0829 20.0709C20.1658 19.6596 19.7667 19.2484 19.3494 19.3135C19.2587 19.3265 19.2561 19.4593 19.3261 19.5009C19.2872 19.4775 19.2924 19.5061 19.2509 19.5321C19.2224 19.5503 19.1887 19.5581 19.155 19.566C19.0772 19.5894 18.9995 19.6102 18.9217 19.631C18.761 19.6727 18.5977 19.7065 18.4318 19.7143C18.2711 19.7221 18.1104 19.7091 17.9575 19.657C17.802 19.6024 17.675 19.4957 17.5247 19.4306C17.1359 19.2641 16.6901 19.5009 16.5527 19.8783C16.3842 19.7559 16.1639 19.7221 15.954 19.7429C15.6248 19.7742 15.1686 20.0214 14.8628 19.8002C14.7617 19.7273 14.6554 19.5816 14.6969 19.4488C14.7202 19.3734 14.7954 19.3343 14.842 19.2745C14.8835 19.2224 14.9068 19.16 14.9068 19.0923C14.9068 18.9596 14.8135 18.8346 14.6995 18.7722C14.5543 18.6889 14.3807 18.7149 14.2226 18.7383C13.7975 18.806 13.3854 18.7253 13.0329 18.4755C12.8825 18.1736 12.5067 18.0825 12.219 18.2439C12.1516 18.2803 12.0894 18.3323 12.0402 18.3896C11.9702 18.4703 11.9443 18.577 11.8276 18.4885C11.7473 18.4286 11.6825 18.3245 11.6203 18.2465C11.5451 18.1502 11.4751 18.0539 11.4051 17.9524C11.3533 17.8769 11.2496 17.8925 11.2185 17.9758C11.2082 18.0018 11.0578 17.8977 11.0449 17.8899C10.9878 17.8587 10.9256 17.8379 10.8582 17.8301C10.7131 17.817 10.5705 17.8743 10.4461 17.9472C10.3139 18.0226 10.2025 18.1267 10.0677 18.1944C9.98217 18.2361 9.90182 18.2543 9.80592 18.2413C9.74372 18.2334 9.6867 18.2282 9.62967 18.2543C9.526 18.2985 9.50008 18.4 9.43269 18.4781C9.34197 18.5822 9.1709 18.5145 9.04908 18.5406C8.95318 18.5614 8.84432 18.6264 8.82358 18.7331C8.81063 18.8008 8.85728 18.8424 8.89357 18.8945L8.95837 18.983C8.60846 18.9596 8.29742 18.8216 8.00972 18.603C7.86198 18.4911 7.71165 18.3792 7.53021 18.3271C7.32545 18.2699 7.11551 18.2959 6.9237 18.1918C6.75523 18.1007 6.61267 17.9706 6.44679 17.8769C6.27572 17.778 6.08651 17.7077 5.89212 17.6739C5.68995 17.6349 5.49296 17.6427 5.2882 17.6583C5.10158 17.6713 4.83202 17.6687 4.79055 17.4345C4.78278 17.3902 4.73353 17.359 4.69206 17.359C4.29809 17.3538 3.90411 17.3226 3.51533 17.2679C3.52051 17.1794 3.50755 17.0909 3.4583 17.0155C3.37536 16.8957 3.22503 16.8905 3.1058 16.9582C2.93992 17.0493 2.79996 17.2132 2.6574 17.3382C2.51744 17.4605 2.3671 17.6583 2.1753 17.6817C1.84094 17.726 1.65173 17.981 1.52991 18.2777C1.45734 18.4521 1.4055 18.6473 1.28627 18.793C1.18778 18.9153 1.00634 19.0246 0.848237 18.9518C0.817134 18.9387 0.786031 18.9387 0.760112 18.9518C0.697905 18.9153 0.586453 18.97 0.602004 19.0689C0.614964 19.1521 0.570901 19.2198 0.500919 19.2589C0.428345 19.2979 0.441305 19.3942 0.500919 19.4358C0.705681 19.5842 0.884524 19.769 1.0193 19.9824C1.12557 20.1489 1.19555 20.404 1.42364 20.43C1.54028 20.443 1.65173 20.3649 1.73467 20.4742C1.7917 20.5497 1.87723 20.7163 1.84613 20.8126C1.77355 21.0468 1.21111 20.9557 1.29664 20.6668C1.32256 20.581 1.22147 20.5029 1.14631 20.5497C0.780847 20.7787 0.415386 21.0078 0.0499246 21.2368C0.00327002 21.268 -0.0148734 21.3279 0.0136377 21.3773C0.0473327 21.4372 0.0965793 21.4762 0.161377 21.5023C0.223584 21.5283 0.303933 21.5231 0.363547 21.5569C0.438713 21.5986 0.363547 21.7287 0.371323 21.8068C0.376507 21.877 0.410202 21.9421 0.46204 21.9915C0.573493 22.1008 0.75752 22.1243 0.905259 22.1139C1.05041 22.1034 1.29146 22.0436 1.36662 22.2102C1.39772 22.2778 1.51177 22.2778 1.54287 22.2102C1.61545 22.0566 1.76059 21.9603 1.92129 21.9577C1.90574 21.9915 1.88501 22.0228 1.86168 22.054C1.82021 22.1113 1.86686 22.1867 1.92389 22.2049C2.03015 22.2414 2.03015 22.3949 1.98609 22.4808C1.92129 22.6057 1.758 22.6448 1.631 22.6552C1.5014 22.6682 1.36144 22.6396 1.23962 22.6864C1.11002 22.7385 1.03745 22.8686 0.964873 22.9805C0.86638 23.1263 0.767887 23.2746 0.671986 23.4203C0.59682 23.5322 0.495735 23.6572 0.498327 23.8003C0.500919 23.9174 0.576085 24.0033 0.669394 24.0658C0.713457 24.0944 0.767887 24.1152 0.809358 24.1491C0.837869 24.1725 0.843053 24.1803 0.858605 24.2115C0.868972 24.2323 0.850829 24.2584 0.87934 24.2558C0.804174 24.2636 0.747152 24.339 0.791215 24.4119C0.915627 24.6175 1.0841 24.8517 1.33033 24.9116C1.38477 24.9246 1.4392 24.9272 1.49363 24.9194C1.55842 24.9116 1.63877 24.8622 1.66728 24.9376C1.6932 25.0053 1.67765 25.1068 1.67506 25.1771C1.67506 25.2682 1.66469 25.3566 1.65433 25.4477C1.65173 25.4816 1.67765 25.5206 1.70616 25.5362C1.84872 25.6143 2.01719 25.6117 2.1442 25.5076C2.18826 25.4712 2.25565 25.3592 2.31267 25.354C2.39302 25.3436 2.42413 25.4868 2.43968 25.544C2.45782 25.6143 2.5304 25.6299 2.59001 25.6065C2.74812 25.5388 2.90882 25.4738 3.06692 25.4113C2.99694 25.4712 2.90363 25.5284 2.87512 25.5805C2.787 25.7366 2.89586 25.9292 2.76885 26.0645C2.63407 26.2077 2.47856 26.3326 2.336 26.4627C2.17271 26.6111 2.00942 26.7594 1.84613 26.9078C1.77096 26.978 1.84872 27.1108 1.94721 27.0795C2.38266 26.9468 2.79477 26.736 3.14727 26.4419C3.22244 26.3794 3.29242 26.3092 3.34167 26.2233C3.39869 26.1218 3.42461 26.0229 3.52051 25.95C3.67084 25.8355 3.86264 25.7913 3.98965 25.6429C4.09073 25.5258 4.16331 25.354 4.09332 25.2031C4.07777 25.1719 4.02853 25.1302 4.02075 25.099C4.01038 25.0521 4.08037 24.9715 4.1011 24.9324C4.1659 24.8179 4.2307 24.7034 4.2955 24.5889C4.36029 24.4744 4.42509 24.3599 4.48989 24.2453C4.5495 24.1386 4.59616 24.045 4.72835 24.0293C4.82425 24.0189 4.92274 24.0241 5.01087 24.0007C5.01605 24.0423 5.02123 24.084 5.02383 24.123C4.75427 24.2584 4.55469 24.49 4.44323 24.7711C4.42509 24.8127 4.45619 24.8648 4.48989 24.8882C4.55987 24.9324 4.58061 25.0573 4.50803 25.112C4.44323 25.1614 4.43805 25.276 4.53136 25.2994C4.8087 25.3697 4.98235 25.1484 5.13787 24.9558C5.17934 24.9064 5.2234 24.8517 5.27783 24.8153C5.33745 24.7763 5.40225 24.7737 5.46445 24.7554C5.57331 24.7216 5.6407 24.6331 5.64589 24.516C5.64589 24.4588 5.63293 24.4015 5.61997 24.3468C5.61219 24.3182 5.60442 24.2922 5.60701 24.2636L5.61478 24.2297C5.62774 24.1985 5.63034 24.1907 5.62515 24.2115C5.62515 24.2115 5.68736 24.326 5.7055 24.3416C5.74438 24.3781 5.78844 24.3989 5.84028 24.4067C5.9621 24.4301 6.08133 24.3703 6.20315 24.3911C6.33534 24.4145 6.42865 24.5394 6.509 24.6409C6.51159 24.667 6.52714 24.6904 6.56084 24.706C7.04034 24.9168 7.61834 24.706 8.03564 25.0756C8.44516 25.4373 8.81581 25.8641 9.04649 26.3612C9.14498 26.5746 9.25125 26.7906 9.44565 26.9338C9.53377 26.9988 9.63227 27.0431 9.74113 27.0587C9.83184 27.0717 10.0133 27.0171 10.0833 27.0925C10.1481 27.1628 10.1377 27.2695 10.2284 27.3294C10.3295 27.397 10.4824 27.3398 10.5446 27.4621C10.5965 27.5688 10.5705 27.6911 10.5628 27.803C10.555 27.9358 10.5679 28.0633 10.6379 28.1778C10.7649 28.3834 10.9697 28.5187 11.0889 28.7348C11.1485 28.8441 11.1926 28.9586 11.2211 29.0783C11.2496 29.1954 11.2496 29.3255 11.3274 29.4218C11.4622 29.5884 11.7421 29.5624 11.9313 29.6222C12.0998 29.6769 12.346 29.8643 12.2086 30.0725C12.1801 30.1167 12.1361 30.1167 12.0998 30.1505C12.0687 30.1818 12.0661 30.2286 12.0609 30.2677C12.0428 30.4082 12.0661 30.5487 12.0972 30.6841C12.1698 30.9938 12.2086 31.2827 12.1853 31.6002C12.162 31.9047 12.1101 32.2066 12.0661 32.5085C12.0453 32.6464 12.0272 32.7843 12.0065 32.9223C11.9857 33.0576 11.9494 33.2007 11.9702 33.3387C12.0091 33.6015 12.2968 33.6666 12.3771 33.9008C12.416 34.0179 12.4238 34.1429 12.4704 34.2574C12.5223 34.3849 12.6156 34.45 12.7115 34.5384C12.9059 34.7154 12.8592 35.0173 12.9992 35.2281C13.0562 35.314 13.1365 35.3843 13.2376 35.4129C13.3698 35.4493 13.5046 35.3973 13.6368 35.4025C13.7768 35.5717 13.9167 35.7382 14.0593 35.9074C14.1785 36.0505 14.3884 36.2223 14.3962 36.4227C14.4014 36.6049 14.3884 36.7454 14.4921 36.9042C14.5647 37.0135 14.7798 37.2243 14.6502 37.3596C14.5958 37.4169 14.6217 37.508 14.6943 37.5314C15.0416 37.6433 15.3293 37.9088 15.4563 38.2549C15.5211 38.4267 15.5574 38.614 15.6844 38.7546C15.7959 38.8769 15.9488 38.9368 16.1121 38.9003C16.1717 38.8873 16.2132 38.8014 16.1743 38.7494C15.8477 38.3017 15.5211 37.8541 15.1919 37.4091C15.0468 37.2087 14.8809 37.0135 14.7617 36.7975C14.6761 36.6361 14.6191 36.3498 14.8032 36.2379C15.1297 36.493 15.2878 36.899 15.4796 37.2555C15.7025 37.6745 16.0188 37.9972 16.3479 38.333C16.5138 38.5021 16.6953 38.6791 16.8171 38.8873C16.8922 39.0148 16.8611 39.1268 16.8534 39.2673C16.8456 39.3688 16.8611 39.4703 16.8974 39.5666C17.0478 39.9674 17.4702 40.2068 17.8098 40.4254C18.2167 40.6857 18.6547 40.9355 19.1317 41.037C19.3598 41.0865 19.5904 41.0969 19.8211 41.0656C20.0648 41.0318 20.3058 40.972 20.5313 41.0969C20.8371 41.266 21.0367 41.5914 21.3737 41.7085C21.4463 41.7345 21.5266 41.7475 21.6044 41.7449C21.6666 41.7449 21.7262 41.7267 21.7884 41.7423C21.861 41.7605 21.9128 41.8178 21.9672 41.8672C22.1746 42.0598 22.3819 42.2498 22.5893 42.4424C22.7915 42.6298 22.9884 42.8562 23.2217 43.0046C23.3228 43.0696 23.4291 43.0904 23.5457 43.1034C23.6053 43.1113 23.6701 43.1139 23.722 43.1451C23.7738 43.1789 23.7971 43.2336 23.8334 43.283C23.9526 43.4496 24.2015 43.4756 24.2585 43.244C24.2896 43.1269 24.3362 43.0228 24.4684 42.9941C24.6032 42.9629 24.7328 43.054 24.7743 43.1815C24.808 43.2882 24.979 43.2752 24.9764 43.1529C24.9635 42.7651 24.5125 42.7261 24.2248 42.7833C24.0952 42.8094 23.9578 42.851 23.8256 42.8172C23.7168 42.7885 23.6416 42.7079 23.5846 42.6168C23.4731 42.4424 23.3902 42.2264 23.3409 42.026C23.3098 41.8933 23.3073 41.7683 23.3513 41.6382C23.3824 41.5419 23.4239 41.456 23.4161 41.3519C23.4032 41.1567 23.2295 41.0292 23.061 40.9641C22.68 40.8132 22.2705 40.9173 21.8765 40.9824C21.9543 40.8054 22.0191 40.6232 22.0865 40.441C22.1772 40.1964 22.2757 39.9544 22.3586 39.7045C22.426 39.5041 22.3586 39.3454 22.1487 39.2985C21.9335 39.2491 21.6899 39.2152 21.4825 39.3089C21.3089 39.387 21.1922 39.5406 21.1845 39.7331C21.1793 39.8346 21.2182 39.9674 21.1067 40.0194C21.0082 40.0663 20.876 40.0767 20.7698 40.0949C20.5313 40.1339 20.2695 40.1365 20.0673 39.983C19.9066 39.8633 19.8082 39.6707 19.7382 39.4859C19.6604 39.2803 19.5982 39.0643 19.5619 38.8483C19.523 38.6219 19.523 38.3694 19.7019 38.2028C19.7641 38.1456 19.7252 38.0571 19.6578 38.0311C19.5334 37.9816 19.5153 37.8125 19.5541 37.7032C19.606 37.56 19.7304 37.4559 19.8419 37.3622C19.9611 37.2607 20.0829 37.1592 20.2047 37.0603C20.2721 37.0057 20.3395 36.9406 20.4198 36.9094C20.5261 36.8703 20.6272 36.9094 20.7283 36.9432C21.0056 37.0395 21.3141 37.1176 21.6044 37.0343C21.848 36.964 22.0813 36.6543 22.3456 36.7897C22.5245 36.8833 22.6748 37.0681 22.8925 37.0655C22.947 37.0655 22.9962 37.0499 23.0429 37.0265C23.0714 37.0135 23.0999 36.9874 23.1284 36.977C23.2114 36.9484 23.2347 36.9848 23.2761 37.0473C23.3591 37.1722 23.4006 37.3154 23.442 37.4585C23.5094 37.6979 23.5613 38.005 23.7686 38.1664C23.9397 38.2991 24.23 38.2731 24.23 38.0024C24.23 37.8567 24.1341 37.7136 24.0848 37.5808C24.0278 37.4299 23.9786 37.2737 23.95 37.1124C23.8853 36.7819 23.9112 36.4409 24.1133 36.1598C24.1289 36.1364 24.1341 36.1156 24.1315 36.0948C24.1859 36.0167 24.2844 35.9855 24.3648 35.9412C24.4477 35.897 24.5203 35.8423 24.5773 35.7669C24.6369 35.6836 24.668 35.5951 24.6784 35.4936C24.6939 35.3583 24.8183 35.4363 24.9168 35.4415C25.1164 35.4545 25.1942 35.3036 25.3471 35.2099C25.4326 35.1579 25.5441 35.1683 25.6218 35.0928C25.6529 35.0642 25.6737 35.0303 25.684 34.9939C25.7255 34.9679 25.754 34.9132 25.7255 34.8534C25.6374 34.6686 25.5544 34.4838 25.4767 34.2964C25.4378 34.2053 25.4015 34.1142 25.3678 34.0231C25.3393 33.9477 25.2564 33.8175 25.3549 33.7707C25.4482 33.7238 25.57 33.7421 25.6711 33.7056C25.7903 33.6588 25.8551 33.5651 25.8681 33.4376C25.8758 33.3491 25.8551 33.2684 25.9303 33.2059C25.9925 33.1565 26.0962 33.1383 26.1687 33.1149C26.3735 33.0524 26.5834 32.9951 26.7882 32.9249C26.9256 32.878 26.98 32.7947 26.98 32.6516C26.98 32.4694 27.0163 32.3211 27.1226 32.1701C27.3325 31.8734 27.6798 31.7329 28.0038 31.6002C28.1023 31.5611 28.2138 31.5247 28.3123 31.4752C28.2578 31.5429 28.2034 31.608 28.1256 31.6444C27.9857 31.7095 27.895 31.8006 27.9598 31.9619C28.009 32.0894 28.0919 32.2638 28.2526 32.2144C28.3356 32.1909 28.4133 32.1363 28.4755 32.079C28.5533 32.0062 28.5974 31.9047 28.6777 31.837C28.8047 31.7329 29.6601 31.4987 29.3672 31.2228C29.3127 31.1733 29.2505 31.1812 29.1831 31.1916C29.0743 31.2098 28.9551 31.2384 28.8488 31.1994C28.7658 31.1707 28.701 31.1057 28.6181 31.0771C28.5818 31.064 28.5455 31.0588 28.5092 31.0562C28.5092 31.038 28.5066 31.0172 28.5092 30.999C28.5248 30.8767 28.5766 30.7752 28.4859 30.6632C28.4548 30.6268 28.3563 30.58 28.346 30.5331C28.3278 30.4446 28.4678 30.3692 28.5222 30.3249C28.7503 30.1427 28.7425 29.8565 28.4755 29.7159C28.1645 29.552 27.869 29.6847 27.5891 29.8851C27.6721 29.794 27.755 29.7029 27.8431 29.617C28.1723 29.2891 28.6077 29.5572 29.0043 29.5155C29.3853 29.4765 29.6808 29.2188 30.0359 29.1017C30.2095 29.0445 30.3936 29.0262 30.5543 28.9404C30.702 28.8623 30.8135 28.7243 30.8705 28.5682C30.9845 28.2533 30.8446 27.9254 30.575 27.7588L30.5672 27.7848ZM28.1982 32.0244C28.1982 32.0244 28.2215 32.0296 28.2345 32.0296C28.2267 32.0322 28.2164 32.0374 28.2086 32.0374C28.206 32.0322 28.2034 32.0296 28.1982 32.0244Z" fill="#F96254"/>
<path d="M42.6142 3.73457C42.088 3.36241 41.3675 3.60965 41.1394 4.18221L40.8361 3.9662C40.7765 3.92456 40.7091 3.97141 40.6858 4.02866C40.6029 4.22646 40.4758 4.39562 40.3151 4.53096C40.5095 4.10934 40.5666 3.63047 40.4733 3.16982C40.4603 3.10215 40.3774 3.07873 40.3229 3.10736C40.0508 3.2505 39.7786 3.39104 39.5039 3.53418C39.395 3.33899 39.1514 3.26351 38.9285 3.26351C38.6719 3.26351 38.3893 3.40926 38.1276 3.39104C38.8533 3.06051 39.5765 2.72999 40.3022 2.39947C40.3825 2.36303 40.3592 2.2303 40.2789 2.21208C40.0145 2.14702 39.789 1.98045 39.6594 1.73581C39.5609 1.54843 39.5376 1.28557 39.338 1.17106C39.2343 1.1112 39.1177 1.12682 39.0114 1.17106C38.8766 1.22571 38.7522 1.28817 38.6097 1.3168C38.3712 1.36625 38.125 1.35584 37.8917 1.28557C38.1327 1.17627 38.379 1.08778 38.6356 1.02271C38.7263 0.999292 38.7289 0.882177 38.6589 0.835331C38.4438 0.68178 38.3038 0.457961 38.2494 0.197705C38.2416 0.163872 38.2105 0.132642 38.1768 0.124834C37.9824 0.083193 37.788 0.0441547 37.5936 0.00251387C37.5185 -0.0131014 37.4692 0.0467573 37.4666 0.106616C37.1375 0.109219 36.8057 0.114424 36.4765 0.117026C36.2095 0.119629 35.8907 0.0883981 35.6626 0.257564C35.5797 0.317423 35.5201 0.40591 35.5149 0.512614C35.5071 0.663562 35.6238 0.757254 35.6471 0.897792C35.6704 1.03833 35.5693 1.19709 35.4294 1.22571C35.2739 1.25694 35.1132 1.12161 35.1002 0.968061C35.095 0.900395 35.0406 0.850946 34.9706 0.869164C34.4211 1.00189 33.8742 1.15024 33.3325 1.3168C33.2703 1.33502 33.234 1.41049 33.2703 1.46775C33.4284 1.7202 33.7317 1.74622 34.0038 1.73061C34.1827 1.7202 34.5844 1.68116 34.6881 1.88936C34.4341 1.9258 34.1775 1.9206 33.9235 1.87375C33.8431 1.85813 33.7835 1.9206 33.7965 2.00127C33.9027 2.57123 33.8379 3.16201 33.6202 3.69814C33.2884 3.17242 32.7415 2.79505 32.1273 2.68575C32.0806 2.67794 32.0365 2.69095 32.0106 2.73259C31.8447 3.02148 31.9147 3.39624 32.161 3.60705C32.0832 3.67211 31.9847 3.70074 31.8836 3.69554C31.8966 3.54719 31.7825 3.40926 31.6555 3.32077C31.5467 3.24529 31.0387 3.09955 31.1579 2.89916C31.2227 2.79245 31.0827 2.70396 30.9972 2.77423C30.6265 3.07613 30.2066 3.31036 29.7557 3.46651C29.7064 3.48213 29.6623 3.53938 29.6831 3.59404C29.8386 3.99483 30.0434 4.3722 30.2922 4.72094C30.2274 4.76258 30.09 4.66889 30.0459 4.63766C29.9423 4.55698 29.8878 4.43206 29.8075 4.33056C29.652 4.14057 29.4187 3.98182 29.1958 4.15879C29.1699 4.17961 29.1569 4.22906 29.1699 4.26029C29.2347 4.43206 29.3176 4.63246 29.271 4.81984C29.2347 4.97079 29.0869 5.10091 28.9314 5.03845C28.8822 5.02024 28.8122 5.05927 28.8044 5.11132C28.7863 5.22584 28.7681 5.34035 28.75 5.45746C28.6826 5.43925 28.61 5.42623 28.5582 5.43925C28.4986 5.45486 28.4364 5.52513 28.3871 5.56677C28.2601 5.67868 28.1461 5.8036 28.0476 5.94154C27.8454 6.22001 27.7054 6.54013 27.6432 6.87846C27.6329 6.94092 27.6717 7.01379 27.7417 7.00859C27.9465 6.99557 28.1513 6.99818 28.356 7.01639C28.2757 7.3339 28.1979 7.65402 28.1124 7.96893C28.0709 8.12248 28.0242 8.28123 27.8843 8.37232C27.7521 8.45821 27.5888 8.48944 27.4437 8.54409C26.8838 8.7523 26.4043 9.12186 26.044 9.59813C26.0207 9.62675 26.0285 9.671 26.044 9.70223C26.2384 10.0952 26.4717 10.5455 26.9071 10.7042C27.2026 10.8135 27.581 10.7641 27.7884 10.5246C27.8299 10.6001 27.8532 10.6834 27.8584 10.7693C27.7003 10.8317 27.5422 10.8916 27.3815 10.9541C27.2389 11.0087 27.073 11.0504 26.9512 11.1492C26.8527 11.2273 26.806 11.347 26.8423 11.4694C26.8786 11.5917 27.0212 11.6828 27.0289 11.8129C27.0341 11.891 26.9797 11.9717 26.9616 12.0471C26.9434 12.1096 26.9356 12.1747 26.9486 12.2397C26.9693 12.3568 27.0445 12.4557 27.1404 12.5234C27.3892 12.6952 27.6769 12.6379 27.9283 12.5104C28.0839 12.4323 28.229 12.3282 28.3923 12.2631C28.5426 12.2059 28.7059 12.1773 28.8666 12.1799C29.2036 12.1851 29.5224 12.3204 29.7608 12.5572C30.0045 12.7993 30.1652 13.1142 30.3207 13.4161C30.4918 13.7492 30.6525 14.0875 30.7795 14.4389C31.0594 15.2066 31.1968 16.042 30.9194 16.8306C30.9065 16.8697 30.9272 16.9295 30.9661 16.9477C31.0723 16.9998 31.1812 17.0492 31.2875 17.1013C31.3523 17.1325 31.4482 17.0961 31.443 17.0128C31.4404 16.9607 31.4611 16.9217 31.5 16.9087C31.7437 17.2705 31.9225 17.666 32.0314 18.0877C31.8525 18.0356 31.6892 17.9445 31.5519 17.8118C31.513 17.7753 31.4456 17.7701 31.4067 17.8118C31.1631 18.0798 31.4896 18.3713 31.6581 18.5717C31.8836 18.8424 31.9666 19.212 31.8966 19.5529C31.6141 19.6075 31.1838 19.8105 31.3704 20.1437C31.4197 20.2296 31.5026 20.279 31.5778 20.3363C31.6737 20.4117 31.7229 20.508 31.7488 20.6251C31.7955 20.8307 31.7722 21.0494 31.7929 21.2576C31.8188 21.5126 31.9147 21.7416 32.0236 21.9681C32.1221 22.1763 32.2232 22.3845 32.3268 22.5901C32.5394 23.0117 32.7675 23.4255 33.0474 23.8081C33.3558 24.2297 33.7187 24.6018 34.1619 24.8829C34.2008 24.9063 34.2552 24.8985 34.2863 24.8673C34.8695 24.2947 34.8462 23.4333 34.9525 22.6786C34.981 22.473 35.0198 22.2674 35.0821 22.0696C35.1132 21.9733 35.1469 21.877 35.1935 21.7885C35.2531 21.674 35.3387 21.6115 35.4501 21.5516C35.8259 21.346 36.1629 21.0728 36.4402 20.7475C36.7253 20.4117 36.9431 20.0266 37.0882 19.6127C37.5211 19.8288 38.0317 19.5555 38.3893 19.2848C38.6408 19.0922 38.874 18.8762 39.1151 18.6706C39.3821 18.4416 39.649 18.21 39.916 17.9809C39.9756 17.9289 39.9393 17.83 39.8719 17.8092C39.6127 17.7337 39.3639 17.6348 39.1229 17.5151C39.1903 17.2835 39.2343 17.0466 39.255 16.8072C39.3639 16.8566 39.4624 16.9269 39.5428 17.018C39.5842 17.0648 39.6179 17.1481 39.6801 17.169C39.7294 17.1846 39.7968 17.169 39.8382 17.1455C40.0819 17.0206 40.0404 16.6953 39.8927 16.5157C39.7968 16.3986 39.6646 16.3153 39.5765 16.1904C39.4987 16.0811 39.4546 15.9484 39.4417 15.8156C39.4183 15.5658 39.4961 15.3211 39.6672 15.1416C39.8642 15.2847 40.1104 15.4148 40.3488 15.3003C40.5614 15.1988 40.6702 14.949 40.5199 14.746C40.4525 14.6549 40.3488 14.595 40.3022 14.4909C40.2633 14.3998 40.2607 14.2983 40.2815 14.202C40.3255 14.0042 40.4758 13.8195 40.6884 13.8065C40.7687 13.8012 40.8128 13.7232 40.7765 13.6503C40.634 13.364 40.8595 13.0049 40.875 12.7082C40.8828 12.5468 40.8387 12.3959 40.7428 12.2683C40.6391 12.1304 40.4733 12.0315 40.3903 11.8806C40.3437 11.7973 40.3048 11.5891 40.4292 11.55C40.5458 11.5136 40.7091 11.6307 40.8154 11.6646C41.1161 11.7582 41.2249 11.4537 41.0772 11.2221C40.9787 11.0686 40.8076 10.9931 40.6988 10.8526C40.6573 10.7979 40.5562 10.5402 40.6884 10.535C40.761 10.535 40.7972 10.4726 40.7869 10.4049C40.7532 10.1551 40.5406 9.96248 40.297 9.93906C40.2192 9.63456 40.2685 9.30924 40.4422 9.04638C40.6106 8.79133 40.8931 8.64039 40.8491 8.29164C40.8258 8.10686 40.7661 7.93509 40.761 7.74771C40.7558 7.56293 40.7791 7.38075 40.8335 7.20378C40.8594 7.11529 40.8906 7.0268 40.9346 6.94612C40.9968 6.83421 41.0564 6.84202 41.1757 6.86284C41.2897 6.88106 41.4038 6.87325 41.4945 6.79257C41.6681 6.63642 41.6474 6.35014 41.6837 6.13673C41.707 5.98839 41.764 5.87127 41.8651 5.75676C42.0077 5.5954 42.158 5.44185 42.3057 5.28309C42.4327 5.14776 42.5598 5.00983 42.6868 4.87449C42.8008 4.75478 42.9434 4.62985 42.9874 4.46329C43.0626 4.18221 42.8319 3.89073 42.6168 3.73718L42.6142 3.73457Z" fill="#F96254"/>
<path d="M29.2616 20.5003C29.062 20.4118 28.8884 20.2791 28.7588 20.1021C28.637 19.9381 28.5929 19.7195 28.4374 19.5816C28.2896 19.4515 28.0953 19.4098 27.919 19.3265C27.7661 19.2537 27.6287 19.1522 27.5147 19.0299C27.6857 18.9986 27.8438 18.9153 27.9734 18.7904C28.0253 18.741 28.0045 18.6317 27.9294 18.6187C27.7453 18.5874 27.5846 18.5041 27.4551 18.3792C27.5198 18.3402 27.5872 18.3037 27.652 18.2647C27.7091 18.2309 27.7194 18.1502 27.6728 18.1033C27.5976 18.0253 27.5432 17.9394 27.4991 17.8379C27.4706 17.7702 27.3825 17.7806 27.3384 17.8171C27.2632 17.8769 27.1777 17.916 27.0844 17.9342L27.2788 17.7364C27.3255 17.6895 27.3151 17.6089 27.2581 17.575C27.1051 17.4839 26.9548 17.3902 26.8019 17.2992C26.7708 17.2809 26.7293 17.2809 26.6982 17.2992C26.6619 17.3226 26.6256 17.3408 26.5868 17.3616C26.5945 17.3512 26.5997 17.3408 26.6049 17.3304C26.6308 17.2783 26.6464 17.2263 26.6438 17.1664C26.6386 17.0441 26.5505 16.9218 26.4623 16.8437C26.2887 16.6876 26.0425 16.6251 25.817 16.685C25.7496 16.5678 25.791 16.3831 25.7573 16.2581C25.7392 16.1931 25.7107 16.1332 25.6563 16.089C25.5707 16.0213 25.4826 16.0369 25.3815 16.0291C25.3012 16.0239 25.3089 15.9849 25.283 15.925C25.2675 15.8886 25.2467 15.8573 25.2156 15.8313C25.1431 15.7663 25.042 15.7558 24.9513 15.7715C24.8605 15.7871 24.7776 15.8287 24.6998 15.8782C24.6454 15.912 24.5884 15.9536 24.5236 15.9693C24.4251 15.9953 24.3836 15.9406 24.3655 15.8495C24.3422 15.735 24.3292 15.6283 24.2825 15.519C24.2359 15.4071 24.1711 15.3056 24.0985 15.2093C24.0259 15.1156 23.9482 15.0271 23.8678 14.9412C23.7901 14.858 23.7097 14.7643 23.5905 14.7409C23.3572 14.6966 23.1525 14.9386 23.0073 15.087C22.9192 15.1781 22.8362 15.2718 22.7559 15.3707C22.6755 15.4696 22.5667 15.5841 22.5252 15.709C22.5071 15.7663 22.5071 15.8235 22.5278 15.8782C22.5434 15.9146 22.6185 15.9797 22.603 16.0239C22.5693 16.1254 22.4578 16.0161 22.4397 15.9667C22.4138 15.8938 22.4319 15.8157 22.4578 15.7428C22.5097 15.5919 22.5952 15.4487 22.6678 15.3056C22.7481 15.1495 22.8311 14.9985 22.927 14.8502C22.9632 14.7955 22.927 14.7122 22.8648 14.6992C22.6574 14.6524 22.4526 14.642 22.2453 14.6654C22.2194 14.655 22.1883 14.6576 22.1598 14.6784H22.1546C22.1053 14.6862 22.082 14.7226 22.0794 14.7617C21.7399 15.1442 21.4936 15.6101 21.3796 16.1098C21.3252 16.3414 21.2655 16.6303 21.4133 16.8411C21.5066 16.9738 21.6673 17.0311 21.8098 16.9895C21.8565 17.0988 21.9032 17.2081 21.9524 17.3174C21.9109 17.3018 21.8695 17.2835 21.828 17.2601C21.7632 17.2237 21.6699 17.2705 21.6725 17.3486C21.6802 17.575 21.7191 17.8431 21.9602 17.9342C22.0509 17.968 22.1546 17.968 22.2375 17.9134C22.2582 17.9003 22.2764 17.8769 22.2971 17.8639C22.3334 17.8457 22.3101 17.8431 22.3464 17.8561C22.3827 17.8691 22.4293 17.9498 22.4604 17.9732C22.5615 18.0487 22.6911 18.0721 22.8103 18.0981C22.9736 18.132 23.1369 18.1606 23.3028 18.184C23.6242 18.2283 23.9508 18.2517 24.2748 18.2517C24.3577 18.2517 24.3966 18.1658 24.3629 18.0955C24.3422 18.0539 24.2981 17.8873 24.3707 17.8717C24.4329 17.8587 24.5443 18.0279 24.6143 18.0513C24.718 18.0877 24.8398 18.0487 24.8916 17.968C25.0316 18.0461 25.0446 18.3792 25.112 18.4937C25.1664 18.5822 25.2415 18.6291 25.3349 18.6681C25.3997 18.6941 25.4722 18.728 25.4645 18.8112C25.4593 18.8893 25.3841 18.9206 25.3141 18.9179C25.2804 18.9179 25.2415 18.9388 25.226 18.97C25.1716 19.0741 25.2338 19.1886 25.3504 19.2068C25.423 19.2172 25.4904 19.1522 25.5578 19.173C25.6252 19.1938 25.6951 19.2797 25.7418 19.3291C25.9673 19.5608 26.1124 19.8757 26.1435 20.1984C26.1513 20.2765 26.1539 20.3546 26.1461 20.4326C26.1358 20.5393 26.045 20.555 25.9725 20.6096C25.8818 20.6773 25.8195 20.7762 25.791 20.8829C25.7444 21.0468 25.7729 21.2212 25.8662 21.3539C25.6744 21.432 25.493 21.5283 25.3634 21.6923C25.3193 21.6558 25.2182 21.5335 25.1793 21.5153C25.042 21.4554 24.9357 21.5673 24.889 21.6897C24.7802 21.9759 25.0057 22.3351 25.3323 22.2596C25.4126 22.2414 25.4722 22.1894 25.5448 22.1529C25.6588 22.0957 25.7547 22.1581 25.8455 22.231C25.9984 22.3533 26.128 22.5017 26.2628 22.6448C26.5323 22.9285 26.8408 23.1497 27.1829 23.3371C27.3436 23.423 27.9683 23.8394 28.0486 23.4516C28.0616 23.3917 28.0305 23.3475 27.976 23.3241C27.6935 23.2044 27.4706 22.9805 27.3384 22.7099C27.4887 22.7958 27.6391 22.879 27.7894 22.9649C27.9397 23.0508 28.1626 23.1861 28.2611 22.9597C28.3026 22.8634 28.3208 22.7541 28.3493 22.6552C28.3804 22.5459 28.4244 22.4262 28.4037 22.3117C28.3881 22.2232 28.3337 22.1581 28.2767 22.0957C28.1808 21.9916 28.0823 21.8927 27.9838 21.7912C27.8231 21.6246 27.6157 21.458 27.5095 21.2498C27.4628 21.1587 27.4421 21.0598 27.4887 20.9636C27.5406 20.8568 27.6313 20.8282 27.7324 20.8881C27.9242 21.0026 28.0849 21.2212 28.1989 21.406C28.2845 21.5465 28.3441 21.8198 28.554 21.7938C28.7588 21.7677 28.935 21.4684 29.0335 21.3097C29.1631 21.0989 29.2513 20.8673 29.3031 20.6252C29.3109 20.5836 29.2979 20.5289 29.2564 20.5081L29.2616 20.5003Z" fill="#F96254"/>
<path d="M24.2849 15.0766C24.3678 15.1443 24.4767 15.1417 24.5441 15.2328C24.5907 15.2979 24.5907 15.3864 24.6452 15.4488C24.7566 15.5789 24.9951 15.5841 25.1454 15.5581C25.2802 15.5347 25.5109 15.4566 25.5316 15.2953C25.5446 15.2016 25.4746 15.1365 25.4357 15.061C25.3839 14.9569 25.3761 14.858 25.3735 14.7435C25.3735 14.5613 25.2776 14.4442 25.0962 14.4156C24.9925 14.3974 24.8836 14.4234 24.7851 14.3844C24.6996 14.3505 24.627 14.3167 24.5311 14.3427C24.3912 14.3792 24.3108 14.4885 24.2719 14.616C24.2719 14.6212 24.2694 14.6264 24.2668 14.6316C24.2564 14.668 24.2486 14.7045 24.2434 14.7435C24.2434 14.7539 24.2434 14.7617 24.2434 14.7721C24.2253 14.8164 24.202 14.8606 24.1994 14.9101C24.1968 14.9804 24.2279 15.0402 24.2797 15.0819L24.2849 15.0766Z" fill="#F96254"/>
<path d="M18.4908 18.0018L18.4104 18.007C18.4027 17.9029 18.3353 17.804 18.2316 17.7467C18.1279 17.6921 17.9983 17.6869 17.905 17.6114C17.8428 17.5151 17.7936 17.4188 17.7599 17.3147C17.7547 17.2288 17.7728 17.1455 17.8169 17.0727C17.8713 16.979 17.9413 16.8879 17.9335 16.7734C17.9258 16.6745 17.8454 16.5886 17.7573 16.5652C17.7573 16.5157 17.7469 16.4663 17.7314 16.4168C17.7003 16.3231 17.6329 16.2581 17.5914 16.1722C17.5862 16.1514 17.5784 16.1332 17.5733 16.1123C17.5629 16.016 17.6277 15.9067 17.6458 15.813C17.6692 15.7089 17.6795 15.6022 17.6769 15.4955C17.6769 15.3055 17.6458 15.0687 17.524 14.9152C17.4126 14.7746 17.2259 14.7434 17.086 14.8631C17.0575 14.8865 17.0523 14.9282 17.0601 14.9646C17.0756 15.0427 17.0601 15.1104 17.029 15.1754C17.0134 15.1702 16.9978 15.1624 16.9823 15.1598C16.8397 15.1208 16.6557 15.1572 16.5702 15.2873C16.5183 15.3654 16.5158 15.4539 16.5209 15.545C16.5287 15.6881 16.5417 15.8287 16.552 15.9692L16.5806 16.37C16.5857 16.4324 16.6376 16.7135 16.565 16.7161C16.4432 16.7239 16.4691 16.4507 16.4639 16.3804C16.4561 16.2529 16.438 16.1253 16.4095 16.003C16.3758 15.8729 16.3291 15.7454 16.2721 15.6257C16.2099 15.5007 16.0985 15.4955 15.9714 15.4591C15.8963 15.4383 15.8237 15.5111 15.8444 15.5866C15.9352 15.9015 15.6241 16.1384 15.3649 16.0265C15.4427 15.9302 15.4531 15.7792 15.3572 15.6751C15.2794 15.5918 15.1861 15.5632 15.0928 15.5684C15.1265 15.5294 15.1628 15.4903 15.1991 15.4539C15.2664 15.3888 15.212 15.2821 15.1265 15.2769C15.0358 15.2717 14.9554 15.2457 14.8777 15.2014C14.8258 15.1702 14.7766 15.191 14.7481 15.2275C14.5718 15.3029 14.4137 15.407 14.266 15.5268C14.0845 15.6335 13.9005 15.7428 13.7268 15.8599C13.6335 15.9223 13.5402 16.0082 13.5454 16.1332C13.5454 16.18 13.561 16.219 13.5843 16.2503C13.535 16.3127 13.4884 16.3804 13.4573 16.4559C13.3666 16.6693 13.421 16.9556 13.6646 17.031C13.8461 17.0857 14.0664 16.9608 14.2452 17.005C14.1882 17.0597 14.0664 17.0961 14.0171 17.1299C13.942 17.1846 13.872 17.2679 13.8642 17.3642C13.8564 17.4553 13.9057 17.5411 13.9886 17.5802C14.0897 17.627 14.2089 17.575 14.3022 17.6322C14.393 17.6895 14.4474 17.7519 14.564 17.7467C14.6833 17.7415 14.7973 17.6869 14.9191 17.6791C15.1213 17.6687 15.3235 17.7181 15.4945 17.8196C15.3572 17.8743 15.2146 17.9107 15.0669 17.9211C14.958 17.9289 14.8491 17.9263 14.7403 17.9107H14.7247C14.7092 17.8795 14.6807 17.8612 14.6392 17.8612C14.4474 17.8612 14.1416 17.9081 14.0275 18.0851C13.9809 18.1553 13.9834 18.249 14.0456 18.3115C14.0742 18.3401 14.113 18.3557 14.1519 18.3661C14.1623 18.3661 14.1727 18.3687 14.1804 18.3713C14.1727 18.3896 14.1649 18.4026 14.1623 18.413C14.1493 18.465 14.1519 18.5275 14.1778 18.577C14.2504 18.7071 14.4111 18.6524 14.5277 18.6316C14.5666 18.6238 14.6055 18.6186 14.6444 18.6108C14.7247 18.6056 14.8025 18.6108 14.8777 18.6342C14.8828 18.6446 14.888 18.6576 14.8958 18.668C14.9347 18.7175 14.9839 18.7201 15.0332 18.7513C15.1006 18.793 15.0902 18.8815 15.0798 18.9543C15.0721 19.0038 15.085 19.0402 15.1265 19.0714C15.1809 19.1131 15.2042 19.1886 15.1757 19.2536C15.1498 19.3135 15.1809 19.3707 15.2276 19.3968C15.3649 19.4957 15.5127 19.4826 15.6682 19.4176C15.7693 19.3759 15.86 19.3187 15.9585 19.2744C16.0622 19.2276 16.1762 19.2016 16.2851 19.1729C16.5546 19.1001 16.8657 18.9725 16.9901 18.7175C17.2363 18.9751 17.6173 19.074 17.9646 19.1313C18.0554 19.1469 18.1513 19.1573 18.2264 19.0923C18.2964 19.0298 18.3068 18.9309 18.2653 18.8476C18.2186 18.7539 18.1383 18.7149 18.0502 18.6732C17.9983 18.6498 17.9595 18.6238 17.9491 18.5874C17.9595 18.5822 17.9672 18.5743 17.9776 18.5665C18.0787 18.4546 18.2394 18.4052 18.3819 18.4702C18.4467 18.4989 18.5064 18.4755 18.5323 18.4078C18.5711 18.3115 18.5867 18.2178 18.5867 18.1137C18.5867 18.059 18.54 18.007 18.483 18.0096L18.4908 18.0018Z" fill="#F96254"/>
<path d="M13.6215 15.7403C13.7485 15.6545 13.8729 15.5686 13.9999 15.4827C14.1113 15.4072 14.2254 15.3317 14.3368 15.2537C14.4198 15.1964 14.5079 15.1366 14.4949 15.0246C14.482 14.9205 14.3939 14.8243 14.3342 14.7436C14.2591 14.6421 14.1813 14.5432 14.0932 14.4521C14.0154 14.3714 13.9014 14.2179 13.7925 14.184C13.7018 14.1554 13.6059 14.2205 13.5281 14.2569C13.4452 14.2933 13.4374 14.2621 13.383 14.2022C13.3441 14.158 13.2975 14.1242 13.2456 14.0981C13.1705 14.0617 13.0927 14.0487 13.0124 14.0539C12.9527 13.942 12.8154 13.8977 12.6754 13.9186C12.437 13.9576 12.2011 14.0383 11.9678 14.0981C11.9108 14.1138 11.8901 14.158 11.8952 14.2022C11.8693 14.3089 11.8745 14.4235 11.9263 14.5224C11.9523 14.5744 11.9885 14.6186 12.0326 14.6551C12.0896 14.7045 12.1 14.7071 12.0482 14.7644C11.9834 14.8373 11.9523 14.9231 11.9782 15.0194C12.0015 15.1105 12.1026 15.2016 12.1026 15.2927C12.1026 15.3578 12.0378 15.3994 11.9989 15.4437C11.9626 15.4853 11.9315 15.5321 11.9056 15.579C11.8538 15.6727 11.8175 15.7794 11.7864 15.8835C11.719 16.1229 11.6853 16.3754 11.535 16.5784C11.4728 16.6591 11.5738 16.7423 11.6516 16.7293C11.763 16.7137 11.8797 16.7527 11.9574 16.8334C12.0248 16.9011 12.0508 16.9974 12.1104 17.0703C12.2374 17.2238 12.4058 17.19 12.5588 17.1041C12.6521 17.052 12.691 17.0312 12.7972 17.0468C12.8957 17.0624 12.9709 17.0156 13.0046 16.9219C13.0409 16.8178 13.0046 16.7033 12.9864 16.5992C12.9787 16.5497 12.9683 16.4821 12.9942 16.4352C13.0305 16.3728 13.0953 16.3962 13.1549 16.3858C13.3752 16.3441 13.313 16.1333 13.3623 15.9772C13.396 15.8653 13.5281 15.8028 13.6163 15.7403H13.6215Z" fill="#F96254"/>
<path d="M20.9851 4.47127C21.208 4.63783 21.2313 4.96055 21.2857 5.21039C21.3428 5.46804 21.4361 5.71008 21.6512 5.87664C21.8534 6.0328 22.1177 6.10567 22.3692 6.06663C22.4365 6.05622 22.4988 6.04061 22.561 6.01458C22.6128 5.99376 22.675 5.94691 22.732 5.93911C22.8227 5.9287 22.8487 6.038 22.9083 6.08745C22.9627 6.13169 23.0301 6.15512 23.1001 6.15772C23.2245 6.16293 23.3463 6.11087 23.4552 6.05622C23.6055 5.98075 23.7532 5.90267 23.8984 5.81679C24.1809 5.65282 24.4557 5.46284 24.6708 5.2156C24.7148 5.16615 24.7511 5.11149 24.7952 5.06205C24.8574 4.99698 24.9714 4.95274 24.8704 5.07246C24.7822 5.17656 24.6371 5.21039 24.5878 5.35353C24.5619 5.4264 24.5878 5.47845 24.593 5.54872C24.6034 5.65022 24.5593 5.66063 24.4738 5.69707C24.3157 5.76734 24.1654 5.85322 24.0254 5.95472C23.8828 6.05622 23.7507 6.17334 23.634 6.30346C23.5303 6.41798 23.3904 6.56372 23.3489 6.71727C23.3256 6.79795 23.3385 6.87602 23.3696 6.94629C23.2841 6.80836 23.1856 6.67823 23.0457 6.59235C22.7735 6.42318 22.307 6.5403 22.2992 6.90726C22.2992 6.95931 22.3484 7.01656 22.4029 7.01136C22.5221 7.00095 22.4184 7.34188 22.421 7.40434C22.4236 7.55789 22.5195 7.64638 22.6543 7.69843C22.9523 7.81294 23.1182 8.12785 23.0042 8.43756C22.9912 8.47399 23.0068 8.51303 23.0301 8.53906C23.1182 8.63795 23.2426 8.65877 23.367 8.66918C23.4474 8.67439 23.7558 8.66918 23.6133 8.82794C23.4681 8.98669 23.183 8.80191 23.0171 8.77589C22.8461 8.74726 22.6776 8.7889 22.5221 8.86438C22.2318 9.00752 21.8637 9.32503 21.8585 9.67897C21.856 9.89759 22.0659 10.1188 22.2784 10.098C22.281 10.1422 22.2862 10.1865 22.294 10.2333C22.3044 10.301 22.3925 10.3244 22.4443 10.2958C22.5428 10.2359 22.6413 10.1787 22.7398 10.1188C22.7372 10.1292 22.732 10.1396 22.7268 10.1526C22.7035 10.1995 22.7113 10.2672 22.7631 10.2932C22.8383 10.3322 22.9212 10.3973 22.9161 10.4936C22.9083 10.6107 22.8072 10.6263 22.7217 10.5795C22.5998 10.5118 22.5247 10.3973 22.3821 10.366C22.1488 10.3114 21.9415 10.504 22.0737 10.7356C22.1022 10.7825 22.1411 10.8241 22.1722 10.8683C22.2214 10.936 22.2318 10.9646 22.154 11.0193C21.9985 11.126 21.8274 11.2171 21.6667 11.316C21.5527 11.3862 21.4413 11.4747 21.462 11.6231C21.4724 11.7038 21.5242 11.7766 21.5449 11.8547C21.5734 11.9562 21.5734 12.0603 21.5501 12.1618C21.5423 12.2008 21.5553 12.2607 21.5968 12.2789C21.9363 12.4247 22.3303 12.3336 22.5636 12.0577C22.662 12.1514 22.7787 12.2321 22.9212 12.2295C23.0456 12.2295 23.1545 12.167 23.2115 12.0629C23.3748 12.0291 23.5381 11.9952 23.704 11.9614C23.7558 11.951 23.9425 11.8859 23.9839 11.925C24.0254 11.964 23.9865 12.0811 23.9762 12.1254C23.958 12.1904 24.0098 12.2555 24.0746 12.2555C24.3857 12.2555 24.5853 11.99 24.72 11.7376C24.7926 11.6049 24.8626 11.4461 24.7719 11.303C24.7148 11.2145 24.6164 11.1702 24.5205 11.1338C24.466 11.113 24.2924 11.0791 24.3079 10.9959C24.3235 10.91 24.5438 10.8631 24.6086 10.8267C24.8548 10.694 24.8652 10.4441 24.8004 10.2099C24.9533 10.2099 25.1166 10.1891 25.2306 10.085C25.4017 9.93142 25.3473 9.72322 25.3576 9.52282C25.3628 9.38749 25.438 9.37708 25.5469 9.33284C25.6324 9.299 25.7076 9.23914 25.7231 9.14285C25.7568 8.94766 25.6039 8.85397 25.4432 8.81753L25.4639 8.78109C25.4872 8.73945 25.4795 8.69261 25.4484 8.65617C25.3654 8.56248 25.2903 8.46618 25.2229 8.35948C25.1944 8.31524 25.0492 8.12005 25.0985 8.06799C25.1347 8.02896 25.3343 8.06799 25.3862 8.06799C25.4743 8.06799 25.5676 8.05498 25.6531 8.02896C25.9097 7.95348 26.1249 7.70364 26.0963 7.44338C26.1793 7.42516 26.2596 7.37051 26.327 7.30545C26.5033 7.13888 26.6718 6.99574 26.9024 6.90986C26.9724 6.88383 27.0061 6.79535 26.9465 6.73809C26.9102 6.70165 26.8791 6.66262 26.861 6.61577C26.8376 6.55851 26.8402 6.5481 26.9024 6.55071C26.9906 6.55591 27.0709 6.55071 27.1331 6.48564C27.1901 6.42839 27.2109 6.34771 27.2238 6.26963C27.2472 6.14731 27.2601 6.05102 27.3379 5.94952C27.693 5.48106 28.0947 5.04122 28.4705 4.59098C28.5094 4.54414 28.512 4.46086 28.4498 4.42962C28.3746 4.39059 28.2943 4.37497 28.2139 4.37757C28.2217 4.36977 28.2321 4.36456 28.2399 4.35675C28.3435 4.28128 28.4472 4.21101 28.5483 4.13293C28.7453 3.98199 28.9371 3.81802 29.1056 3.63845C29.3803 3.34696 29.5721 2.89672 29.2689 2.55058C29.2481 2.52456 29.2015 2.51154 29.1678 2.52456C29.1367 2.53757 29.103 2.55058 29.0719 2.56359C29.0252 2.17061 28.8334 1.80365 28.525 1.5486C28.4783 1.50956 28.3954 1.50436 28.3643 1.56942C28.2476 1.80105 28.0429 1.93898 27.8096 2.03007C27.9418 1.93378 28.0325 1.81146 28.0092 1.61366C27.9988 1.53298 27.9288 1.48614 27.8537 1.52518C27.6437 1.62928 27.413 1.56421 27.2653 1.39505C27.1927 1.31177 27.1202 1.23889 27.0113 1.20246C26.8947 1.16342 26.7625 1.16082 26.6406 1.14781C26.4955 1.13219 26.1585 1.02549 26.0704 1.21027C26.0264 1.30396 26.0756 1.39245 26.1274 1.47052C26.1845 1.55901 26.2415 1.6501 26.2985 1.73858C26.2545 1.73858 26.2052 1.72817 26.1663 1.72817C26.1119 1.72817 26.0575 1.74119 26.0082 1.76721C25.9901 1.77762 25.9719 1.78803 25.9564 1.80365C25.7646 1.61887 25.5987 1.41066 25.4613 1.18164C25.4354 1.1374 25.3654 1.11137 25.3214 1.1452C25.228 1.21287 25.1036 1.18684 25 1.22848C24.9196 1.25972 24.8393 1.32478 24.8159 1.41327C24.7926 1.49394 24.8263 1.57723 24.8859 1.63448C24.9403 1.68914 25.0959 1.77502 24.9766 1.8609C24.9559 1.81146 24.93 1.76721 24.8911 1.72557C24.7485 1.57723 24.523 1.53559 24.3261 1.57983C24.1032 1.63188 23.9321 1.80885 23.8284 2.00665C23.7714 2.11595 23.7325 2.23567 23.7014 2.35539C23.6755 2.45168 23.6055 2.71975 23.4552 2.60784C23.3904 2.55839 23.2997 2.62606 23.2997 2.69632C23.2997 2.85508 23.4059 2.96959 23.5459 3.03466C23.6081 3.06328 24.0098 3.16999 23.8621 3.30012C23.7999 3.35477 23.8414 3.44846 23.9062 3.47189C23.9243 3.47969 23.945 3.4875 23.9632 3.49531C23.8543 3.4823 23.7455 3.45106 23.647 3.39641C23.4707 3.30272 23.3619 3.14657 23.2297 3.00082C23.0171 2.76139 22.6128 2.60263 22.408 2.94096C22.3355 3.05808 22.3199 3.19601 22.2681 3.32354C22.1799 3.54215 21.9959 3.45367 21.8067 3.4823C21.5657 3.51873 21.4387 3.7894 21.5268 3.995C21.3168 4.07047 21.125 4.18238 20.9488 4.32552C20.8918 4.37237 20.9229 4.45305 20.9695 4.48688L20.9851 4.47127Z" fill="#F96254"/>
<path d="M19.9413 6.88101C20.0009 6.89142 20.1124 6.90183 20.1098 6.98772C20.1046 7.11264 19.9594 7.04237 19.8895 7.05018C19.778 7.06059 19.7002 7.15168 19.6769 7.25838C19.6406 7.41974 19.7469 7.53686 19.8221 7.66438C19.8402 7.69561 19.8583 7.72684 19.8635 7.76328C19.8739 7.82574 19.8454 7.83094 19.8195 7.88039C19.7936 7.93244 19.7858 7.98449 19.8169 8.03655C19.8895 8.15887 20.0657 8.18749 20.1927 8.17448C20.2523 8.16928 20.3119 8.15366 20.369 8.13544C20.4104 8.12243 20.5193 8.05476 20.5582 8.07038C20.5789 8.07819 20.6048 8.12503 20.623 8.14065C20.6463 8.15887 20.6722 8.17448 20.6981 8.18229C20.7759 8.20571 20.8562 8.18229 20.9288 8.15366C20.9625 8.14065 21.048 8.0886 21.0817 8.11983C21.0636 8.10421 20.8744 8.18229 20.8433 8.1953C20.7085 8.24215 20.5685 8.32022 20.5193 8.46337C20.5011 8.51281 20.4986 8.56486 20.5063 8.61692C20.5193 8.7002 20.5789 8.75745 20.4804 8.79389C20.3741 8.83293 20.2731 8.91361 20.3042 9.04373C20.3327 9.15564 20.4467 9.19989 20.5297 9.26235C20.6515 9.35344 20.6826 9.5226 20.8122 9.60849C21.0688 9.77765 21.3694 9.57726 21.499 9.34563C21.5846 9.18948 21.6234 9.0125 21.7168 8.85895C21.8178 8.69239 21.9604 8.67417 22.1211 8.59609C22.23 8.54404 22.3155 8.45035 22.3077 8.32022C22.2999 8.15106 22.0693 8.01052 22.2144 7.84396C22.2377 7.81793 22.2533 7.77889 22.2403 7.74246C22.1678 7.54206 22.1081 7.33906 22.0693 7.12825C22.0382 6.9669 22.0382 6.80294 21.8878 6.70924C21.8101 6.6598 21.7738 6.63898 21.7764 6.53748C21.7764 6.4568 21.7816 6.37872 21.7427 6.30325C21.6753 6.17572 21.5353 6.12627 21.4213 6.0534C21.1154 5.86341 21.0429 5.49645 20.9599 5.17374C20.8873 4.89526 20.6541 4.54652 20.3171 4.68446C20.2445 4.71569 20.2342 4.80157 20.2653 4.85102C20.2627 4.88485 20.2756 4.92129 20.3068 4.94732C20.3379 4.97074 20.3741 4.98635 20.4104 4.99676C20.426 5.00197 20.496 5.00717 20.5193 5.02019C20.496 5.01498 20.4441 5.11908 20.4338 5.1347C20.4078 5.17634 20.3845 5.21798 20.3586 5.25962C20.2497 5.22579 20.1279 5.21538 20.0398 5.30386C19.9646 5.37934 19.9413 5.51207 20.0139 5.59795L20.0268 5.61097C20.0268 5.61097 20.0035 5.63179 20.0035 5.63439C19.962 5.68124 19.9439 5.73849 19.9465 5.80095C19.9517 5.86081 19.9802 5.92067 20.0139 5.96752C20.0398 6.00395 20.1124 6.06121 20.1461 6.11326C20.0864 6.11326 20.032 6.08984 19.9854 6.04039C19.962 6.01696 19.918 6.00135 19.8843 6.01436C19.7521 6.06641 19.721 6.18873 19.7547 6.31886C19.7702 6.37872 19.8324 6.45159 19.8272 6.51405C19.8247 6.5583 19.848 6.52706 19.7961 6.54008C19.7521 6.55049 19.7236 6.55049 19.6847 6.57391C19.638 6.60254 19.6199 6.6676 19.6484 6.71445C19.7106 6.82115 19.8143 6.84718 19.9283 6.8706L19.9413 6.88101Z" fill="#F96254"/>
<path d="M21.7764 14.0955L22.7924 14.0851C22.9194 14.0851 23.062 14.0981 23.176 14.033C23.2253 14.0044 23.2616 13.9627 23.2953 13.9211C23.2979 13.9549 23.3056 13.9888 23.3238 14.02C23.3678 14.0981 23.4508 14.1319 23.5363 14.1371C23.7618 14.1527 24.0158 14.0382 24.2128 13.9367C24.2724 13.9055 24.2776 13.8196 24.2335 13.7754C24.2413 13.7832 24.3554 13.7441 24.3683 13.7415C24.415 13.7285 24.4565 13.7129 24.4953 13.6843C24.529 13.6582 24.5601 13.6114 24.542 13.5672C24.5109 13.4891 24.459 13.4526 24.3735 13.4578C24.345 13.4578 24.3035 13.4813 24.2724 13.4813C24.3165 13.4813 24.3761 13.4136 24.3994 13.3798C24.5083 13.234 24.472 13.018 24.3424 12.8983C24.2698 12.8332 24.1869 12.8202 24.0936 12.815C23.9484 12.8072 23.8966 12.7213 23.7903 12.6406C23.7126 12.5834 23.627 12.5548 23.5311 12.5704C23.4145 12.5886 23.329 12.6745 23.2175 12.7031C23.0983 12.7343 22.9791 12.6615 22.8598 12.7213C22.7536 12.776 22.7302 12.9243 22.624 12.9608C22.3985 13.0388 22.1419 12.6849 21.9345 12.8749C21.9034 12.9035 21.8853 12.9399 21.8645 12.9738C21.8282 13.0336 21.8205 13.0545 21.7686 12.9894C21.6805 12.8775 21.6313 12.7057 21.5716 12.5756C21.5198 12.4663 21.4783 12.3231 21.3954 12.2346C21.3565 12.1956 21.3099 12.1722 21.258 12.154C21.1854 12.1305 21.1543 12.1149 21.1336 12.0343C21.1051 11.9223 21.0792 11.8182 20.9651 11.7688C20.8589 11.7219 20.7552 11.7688 20.6463 11.7662C20.5167 11.7662 20.5634 11.6074 20.5582 11.5137C20.553 11.4096 20.5193 11.3316 20.4364 11.2691C20.3949 11.2379 20.3197 11.2587 20.2964 11.3055C20.286 11.3264 20.1487 11.1598 20.1357 11.1494C20.0813 11.0973 20.0191 11.0713 19.9439 11.0739C19.8584 11.0739 19.8247 11.1572 19.8558 11.2301C19.8584 11.2379 19.5733 11.2743 19.5474 11.2847C19.4592 11.3159 19.3944 11.3914 19.3892 11.4877C19.3789 11.6647 19.5111 11.748 19.6588 11.774C19.6588 11.8026 19.6744 11.8313 19.7055 11.8521C19.7495 11.8807 19.7936 11.9015 19.8428 11.9171C19.8428 11.9692 19.8532 12.0186 19.8973 12.0629C19.9465 12.1123 20.0113 12.1436 20.0787 12.1592C20.2109 12.1904 20.3405 12.154 20.4623 12.1045C20.5012 12.1904 20.5582 12.2633 20.6256 12.3335C20.7241 12.435 20.8874 12.5496 20.8951 12.7057C20.9029 12.841 20.7578 12.9373 20.7474 13.0779C20.737 13.2392 20.7941 13.4188 20.8252 13.5776C20.8485 13.6973 20.8926 13.8222 21.017 13.8691C21.0636 13.8847 21.1181 13.8899 21.1647 13.8743C21.1932 13.8638 21.2114 13.843 21.2373 13.8326C21.2839 13.8144 21.2373 13.804 21.2917 13.843C21.385 13.9081 21.4576 13.9575 21.5768 13.9575C21.6157 13.9575 21.6546 13.9497 21.6909 13.9393C21.6598 14.0122 21.6961 14.1007 21.779 14.0981L21.7764 14.0955Z" fill="#F96254"/>
<path d="M12.3895 12.2999C12.3973 12.4951 12.6435 12.5966 12.8094 12.5705C12.8534 12.5627 12.8975 12.5497 12.9364 12.5289C12.9519 12.5211 12.9675 12.5029 12.983 12.4951C12.983 12.4977 12.9856 12.5029 12.9908 12.5081C13.0375 12.5809 13.0997 12.6356 13.1904 12.633C13.4055 12.6304 13.4548 12.4326 13.4444 12.2556C13.5299 12.227 13.6025 12.1619 13.6336 12.0708C13.6595 11.998 13.6491 11.9199 13.6751 11.847C13.6958 11.7872 13.7347 11.7377 13.7839 11.7013C13.8228 11.8782 13.8876 12.0995 14.095 12.0214C14.1131 12.0162 14.1287 12.0058 14.1442 11.998C14.0794 12.1099 14.1701 12.1984 14.279 12.2686C14.2712 12.2686 14.2634 12.2712 14.2583 12.2738C14.2012 12.2894 14.1442 12.3207 14.1053 12.3675C14.069 12.4118 14.0535 12.4664 14.0639 12.5237C14.0716 12.5783 14.1364 12.633 14.1287 12.6798C14.1235 12.7033 14.069 12.7449 14.0509 12.7657C14.0276 12.7943 14.0068 12.823 13.9861 12.8542C13.942 12.9193 13.9083 12.9921 13.8798 13.065C13.8306 13.1951 13.7943 13.3565 13.9369 13.4372C14.0664 13.5126 14.2686 13.4918 14.4138 13.5048C14.5771 13.5205 14.717 13.5387 14.8466 13.4242C14.9244 13.3565 14.9607 13.3201 15.0695 13.3565C15.1343 13.3773 15.1939 13.4138 15.2587 13.4346C14.9969 13.5205 14.7507 13.6662 14.9192 13.9629C15.0073 14.1138 15.1732 14.1815 15.3417 14.1581C15.4505 14.1425 15.5516 14.0956 15.6397 14.0332C15.7279 13.9707 15.8004 13.89 15.9093 13.8666C16.1193 13.8198 16.324 13.8848 16.5262 13.7807C16.6013 13.7417 16.6687 13.6844 16.7387 13.6402C16.8372 13.5751 16.9279 13.5829 17.0342 13.5517C17.2079 13.5022 17.2416 13.3227 17.2364 13.1665C17.2286 12.9037 17.2105 12.6408 17.1975 12.3779C17.1949 12.3207 17.1534 12.2764 17.0938 12.2738C16.959 12.2738 16.8294 12.3051 16.7128 12.3675C16.5754 12.0995 16.5262 11.795 16.578 11.4931C16.591 11.4124 16.534 11.3499 16.451 11.3655C16.2514 11.4046 15.7719 11.5998 15.9378 11.8756C15.9534 11.9017 16.0285 11.9771 16.0259 11.9876C16.0259 12.0058 15.9819 12.037 15.9715 12.0526C15.9534 12.0812 15.943 12.1125 15.9352 12.1463C15.9067 12.3051 16.0311 12.4066 16.0674 12.5471C16.07 12.5627 16.0881 12.6278 16.0674 12.6408C16.0441 12.659 15.9715 12.5913 15.9611 12.5809C15.8963 12.5237 15.8445 12.456 15.803 12.3805C15.7434 12.2712 15.7279 12.1177 15.5775 12.1021C15.5076 12.0943 15.4479 12.1333 15.378 12.1125C15.3158 12.0917 15.2587 12.0474 15.2017 12.0162C15.1421 11.985 15.0799 11.9563 15.0151 11.9485C14.9788 11.9433 14.8311 11.9693 14.7974 11.9537C14.8103 11.9043 14.7922 11.8522 14.7274 11.8392C14.603 11.8184 14.4241 11.8132 14.2894 11.8704C14.3956 11.7585 14.4812 11.6102 14.5408 11.4983C14.5615 11.4592 14.5589 11.4046 14.5252 11.3734C14.4812 11.3343 14.4345 11.2979 14.3853 11.264C14.4656 11.1365 14.4267 10.9517 14.5174 10.8216C14.5485 10.78 14.5278 10.7019 14.4812 10.6811C14.3697 10.629 14.2634 10.5666 14.1624 10.4937C14.0924 10.4442 14.025 10.4989 14.0146 10.5666C14.0094 10.5744 14.0042 10.5822 13.9991 10.5926C13.9861 10.6316 13.9809 10.6681 13.9835 10.7019C13.9239 10.7227 13.8669 10.7253 13.7995 10.7149C13.7269 10.7045 13.6673 10.6889 13.6025 10.7357C13.4729 10.8268 13.364 11.0168 13.2785 11.1469C13.1437 11.3499 12.9208 11.9641 12.5787 11.8028C12.5346 11.782 12.4906 11.7872 12.4543 11.8184C12.3921 11.873 12.3843 11.9485 12.3998 12.0266C12.4102 12.076 12.4361 12.1203 12.4232 12.1697C12.4128 12.2166 12.3843 12.24 12.3869 12.2947L12.3895 12.2999Z" fill="#F96254"/>
<path d="M15.1203 10.59C15.1618 10.6265 15.2447 10.6473 15.294 10.6863C15.2862 10.7071 15.2759 10.7306 15.2784 10.7566C15.2836 10.8138 15.3199 10.8503 15.3718 10.8711C15.4806 10.9153 15.6361 10.8529 15.7372 10.8112C15.8564 10.7592 16.0249 10.6707 16.0897 10.551C16.1519 10.4391 16.0664 10.3402 15.9627 10.3037C15.9549 10.3011 15.8798 10.2881 15.8772 10.2803C15.8668 10.2465 15.929 10.2387 15.9523 10.2283C16.0068 10.2048 16.0586 10.1762 16.0949 10.1268C16.1649 10.0253 16.1286 9.88994 16.0353 9.81707C15.8072 9.64009 15.4003 9.8561 15.2059 9.99924C15.1929 10.0097 15.1851 10.0201 15.1774 10.0305C15.1514 10.0461 15.1307 10.0747 15.1307 10.1138C15.1307 10.1684 15.0659 10.2205 15.0426 10.2673C15.0167 10.3194 15.0063 10.3792 15.0193 10.4339C15.0322 10.4963 15.0737 10.5484 15.1203 10.5874V10.59Z" fill="#F96254"/>
<path d="M15.3682 9.64794C15.4356 9.62712 15.4096 9.60109 15.4563 9.65575C15.4926 9.69739 15.5315 9.72602 15.5859 9.73643C15.7284 9.76245 15.8243 9.62972 15.9617 9.62712C16.0732 9.62712 16.2157 9.65835 16.2546 9.51521C16.2805 9.42152 16.2546 9.27838 16.2157 9.18989C16.1587 9.07278 16.0498 9.05196 15.9591 8.97128C15.8658 8.888 15.7621 8.85937 15.6429 8.91662C15.5988 8.93744 15.5626 8.96868 15.5263 8.99991L15.3889 9.02853C15.3345 9.03894 15.28 9.04675 15.236 9.08839C15.1764 9.14305 15.1686 9.22112 15.179 9.2966L15.0468 9.41371C15.0053 9.45015 15.0105 9.52302 15.0468 9.55945C15.1323 9.64274 15.2489 9.68177 15.3656 9.64534L15.3682 9.64794Z" fill="#F96254"/>
<path d="M17.3227 8.67438C17.2708 8.71341 17.2553 8.78368 17.3045 8.83573C17.4108 8.94504 17.5248 8.87477 17.6311 8.80971C17.7011 8.76807 17.6441 8.79149 17.6674 8.82532C17.6855 8.84875 17.7011 8.86957 17.7244 8.88779C17.7425 8.9034 17.7996 8.92162 17.8462 8.94244C17.784 8.97887 17.7296 9.02832 17.6907 9.09078C17.6596 9.14284 17.6596 9.20269 17.5896 9.2131C17.5093 9.22612 17.4212 9.15064 17.3615 9.1064C17.2916 9.05435 17.2164 9.12722 17.206 9.19489C17.1464 9.65814 17.6674 9.9262 18.0147 9.68417C18.0147 9.73622 17.9784 9.80128 17.9603 9.83772C17.9214 9.91059 17.9862 10.0199 18.0769 9.98867C18.165 9.95743 18.2739 9.91319 18.3672 9.94702C18.4553 9.98086 18.5201 10.0876 18.5901 10.15C18.6808 10.2307 18.813 10.3504 18.9348 10.2619C19.0618 10.1682 19.0437 9.97565 18.9919 9.84813C18.9245 9.67896 18.756 9.53062 18.8312 9.33803C18.883 9.2079 18.9089 9.07777 18.7819 8.98148C18.7275 8.93984 18.6523 8.92943 18.6031 8.88258C18.5486 8.83053 18.5305 8.73684 18.5046 8.66657C18.4216 8.46617 18.2117 8.35686 18.0251 8.42193C17.9473 8.35686 17.9369 8.28399 17.9007 8.1929C17.8747 8.12784 17.8073 8.09661 17.7451 8.07319C17.613 8.02113 17.473 8.02894 17.3486 8.0836C17.2786 8.06798 17.1879 8.14866 17.2293 8.23975C17.2112 8.20071 17.1283 8.35686 17.1257 8.36988C17.1101 8.43494 17.1231 8.5 17.1568 8.55466C17.1982 8.62232 17.2579 8.65616 17.3252 8.67177L17.3227 8.67438Z" fill="#F96254"/>
<path d="M19.2845 9.67625C19.3338 9.73611 19.2949 9.80638 19.3338 9.87144C19.3597 9.91308 19.4038 9.93911 19.4504 9.94952C19.4452 9.95472 19.4401 9.95993 19.4349 9.96253C19.3986 10.0016 19.3934 10.0692 19.4349 10.1083C19.5308 10.1968 19.6863 10.3009 19.8211 10.2332C19.8988 10.1942 19.961 10.1135 20.0284 10.0562C20.1165 9.98075 20.2124 9.91308 20.3083 9.85062C20.3757 9.80638 20.3705 9.71789 20.3083 9.67365C20.2513 9.632 20.1787 9.58256 20.1606 9.51229C20.1451 9.45763 20.158 9.40558 20.1243 9.35613C20.0621 9.25724 19.9377 9.19217 19.8314 9.15313C19.8055 9.14272 19.7511 9.13492 19.7329 9.1141C19.7044 9.08287 19.72 9.06205 19.7174 9.02561C19.7122 8.97616 19.7096 8.93712 19.6707 8.90069C19.58 8.8148 19.3701 8.83042 19.2534 8.81741C19.1731 8.807 19.1446 8.87987 19.1601 8.94233C19.1498 9.02301 19.1601 9.08547 19.1834 9.16355C19.1938 9.19478 19.2171 9.24422 19.2146 9.27806C19.2094 9.33011 19.1834 9.32751 19.1549 9.36394C19.0435 9.50708 19.2068 9.58256 19.2845 9.67625Z" fill="#F96254"/>
<path d="M19.4618 12.7423C19.4903 12.6408 19.4747 12.5393 19.4281 12.4456C19.3736 12.3337 19.2752 12.2478 19.3063 12.1151C19.3322 12.0032 19.3503 11.9069 19.2907 11.8028C19.2363 11.7065 19.1352 11.6362 19.0289 11.6102C18.8656 11.5685 18.4457 11.5789 18.4069 11.8028C18.3913 11.8965 18.4483 11.9641 18.5131 12.024C18.5468 12.0552 18.5961 12.0812 18.6013 12.1333C18.609 12.2244 18.5079 12.2608 18.4457 12.2036C18.3965 12.1567 18.412 12.089 18.3887 12.0344C18.368 11.9875 18.3317 11.9537 18.2824 11.9381C18.2332 11.9225 18.1762 11.9511 18.1321 11.9381C18.1269 11.9381 18.1243 11.9381 18.1217 11.9381C18.1192 11.9329 18.114 11.9251 18.1088 11.9173C18.0932 11.8939 18.0906 11.8652 18.0751 11.8418C18.0077 11.7429 17.8937 11.7611 17.8081 11.6961C17.7563 11.657 17.7459 11.592 17.6733 11.5763C17.6215 11.5659 17.5671 11.5815 17.536 11.6258C17.5023 11.67 17.5075 11.7195 17.5308 11.7585C17.4608 11.9095 17.523 12.0838 17.6656 12.1593C17.6319 12.1984 17.5956 12.2556 17.593 12.2764C17.58 12.3675 17.6293 12.443 17.6967 12.495C17.7692 12.5523 17.8911 12.5575 17.8859 12.6694C17.8807 12.7605 17.8418 12.8308 17.8574 12.9271C17.8626 12.9609 17.8988 12.9921 17.9299 12.9999C18.0544 13.0312 18.1606 12.9999 18.2747 12.9505C18.3732 12.9062 18.7153 12.7657 18.666 12.9947C18.6531 13.0624 18.5935 13.1197 18.5701 13.1873C18.5494 13.2446 18.539 13.3096 18.5546 13.3695C18.5779 13.4658 18.6583 13.5413 18.749 13.5751C18.8656 13.6167 18.9849 13.5907 19.0937 13.5465C19.1844 13.51 19.2959 13.4684 19.3322 13.3643C19.3711 13.2498 19.27 13.1561 19.3114 13.0416C19.3503 12.9401 19.4255 12.8568 19.4566 12.7501L19.4618 12.7423Z" fill="#F96254"/>
<path d="M20.5554 13.9499C20.6409 13.9161 20.6539 13.8146 20.5787 13.7625C20.4595 13.674 20.5294 13.5569 20.5476 13.4424C20.5606 13.3591 20.5424 13.2863 20.5087 13.2108C20.4776 13.1405 20.4621 13.0442 20.4128 12.9844C20.348 12.9063 20.2262 12.8594 20.1407 12.8074C20.094 12.7788 20.0499 12.7918 20.0214 12.823C20.0111 12.8282 20.0007 12.836 19.9929 12.8464L19.7311 13.1431C19.6586 13.2264 19.5393 13.3201 19.4979 13.4216C19.4305 13.5829 19.6301 13.6532 19.7752 13.6818C19.8141 13.8094 19.8815 13.9057 20.0214 13.9473C20.1899 13.9968 20.3921 14.015 20.558 13.9525L20.5554 13.9499Z" fill="#F96254"/>
<path d="M18.8719 14.6107C18.8719 14.6107 18.8486 14.6107 18.8383 14.6159C18.7138 14.655 18.4754 14.6784 18.4184 14.8215C18.3899 14.8892 18.408 14.9543 18.4469 15.0089C18.4417 15.0089 18.4365 15.0063 18.4313 15.0037C18.3484 14.9751 18.2654 15.0818 18.3147 15.1547C18.3976 15.2744 18.5169 15.3472 18.6516 15.3655C18.6128 15.4357 18.5661 15.5008 18.5583 15.5867C18.5557 15.6361 18.5609 15.6856 18.5817 15.7272C18.5298 15.7532 18.478 15.7532 18.4443 15.6778C18.421 15.6257 18.4054 15.5737 18.3717 15.5268C18.3121 15.4409 18.2032 15.3681 18.0944 15.4019C17.9933 15.4357 17.9466 15.5398 17.9648 15.6413C17.9855 15.7663 18.0996 15.8339 18.141 15.951C18.1799 16.0577 18.1851 16.1723 18.2499 16.2685C18.3199 16.3726 18.4287 16.4013 18.5428 16.4273C18.8279 16.4924 18.9575 16.7682 19.0689 17.0129C19.0923 17.0623 19.1674 17.0779 19.2089 17.0493C19.3618 16.9504 19.5199 16.8333 19.5562 16.6407C19.5692 16.5678 19.551 16.4976 19.5484 16.4273C19.5484 16.3987 19.5458 16.37 19.5407 16.344C19.6262 16.3206 19.6936 16.2712 19.6703 16.1514C19.6547 16.0812 19.5847 16.0395 19.6184 15.9693C19.6495 15.9094 19.6962 15.8756 19.7014 15.8001C19.7117 15.6491 19.5744 15.5789 19.4577 15.5242C19.3515 15.4722 19.3851 15.4071 19.4551 15.3342C19.5096 15.277 19.5692 15.2301 19.6106 15.1625C19.6469 15.1026 19.6651 15.0375 19.6547 14.9673C19.6495 14.9334 19.6366 14.9048 19.621 14.8762C19.5951 14.8241 19.5847 14.8449 19.6158 14.8059C19.6547 14.7513 19.704 14.7356 19.7169 14.6602C19.7273 14.5951 19.7091 14.5326 19.6703 14.4832C19.4811 14.2386 19.0689 14.4442 18.8771 14.6133L18.8719 14.6107Z" fill="#F96254"/>
<path d="M21.431 15.0872C21.4414 15.0013 21.4103 14.9284 21.4051 14.8451C21.4051 14.8009 21.3973 14.8113 21.4232 14.7801C21.4388 14.7592 21.4725 14.7488 21.488 14.728C21.5658 14.6265 21.5088 14.4912 21.4051 14.4365C21.2677 14.3636 21.0656 14.3662 20.9126 14.3506C20.7182 14.3298 20.5238 14.3246 20.332 14.3506C20.2984 14.3558 20.275 14.3714 20.2595 14.3923C20.1662 14.4183 20.0832 14.4677 20.0443 14.5692C20.021 14.6291 20.0184 14.689 20.0443 14.7462C20.0599 14.7879 20.0936 14.8217 20.1247 14.8555C20.0988 14.8633 20.0703 14.8685 20.0392 14.8659C20.0055 14.8659 19.964 14.8842 19.951 14.918C19.8992 15.0377 19.9458 15.134 20.0469 15.2121C20.1273 15.2745 20.0988 15.2823 20.0469 15.3474C20.0055 15.4021 19.9821 15.4619 19.977 15.5296C19.9536 15.8185 20.1869 16.0787 20.4072 16.2297C20.4798 16.2791 20.5524 16.2115 20.5627 16.1412C20.5757 16.0475 20.5835 15.9538 20.599 15.8601C20.599 15.8419 20.6042 15.8237 20.6094 15.8081C20.6275 15.8237 20.6431 15.8419 20.6638 15.8549C20.7753 15.9226 20.9075 15.8653 20.9852 15.7742C21.0863 15.6519 21.0682 15.4879 21.2055 15.3917C21.317 15.311 21.4181 15.2407 21.4336 15.0924L21.431 15.0872Z" fill="#F96254"/>
<path d="M31.8156 30.1478C31.8079 30.0697 31.7327 30.0202 31.6601 30.0593C31.585 30.0983 31.5642 29.8745 31.5539 29.8407C31.5409 29.7912 31.5202 29.7392 31.4787 29.7053C31.4009 29.6403 31.2869 29.6663 31.1832 29.7001C31.1884 29.6819 31.1962 29.6637 31.1962 29.6507C31.2014 29.6064 31.2014 29.5622 31.1832 29.5206C31.1495 29.4373 31.0718 29.4008 30.9862 29.4112C30.9836 29.4112 30.9681 29.4165 30.9525 29.4191C30.9629 29.4034 30.9707 29.38 30.9707 29.3748C30.9888 29.3306 30.9992 29.2681 30.9992 29.2187C30.9992 29.1224 30.9603 29.0417 30.8774 28.9922C30.8411 28.9688 30.8048 28.974 30.7789 28.9922C30.7219 28.9766 30.6467 29.0105 30.6441 29.0885C30.6337 29.3124 30.5612 29.5258 30.429 29.7079C30.359 29.8016 30.2942 29.8615 30.1827 29.9005C30.1024 29.9292 30.0272 29.9552 29.978 30.0333C29.9287 30.1139 29.9572 30.1634 29.9728 30.2441C29.978 30.2701 29.9909 30.2571 29.9806 30.2779C29.9728 30.2935 29.9443 30.3013 29.9287 30.3117C29.8976 30.3352 29.8717 30.3586 29.851 30.3924C29.7654 30.5356 29.8847 30.6527 30.0298 30.6501C30.1128 30.6501 30.1957 30.6162 30.2631 30.5642C30.276 30.5538 30.289 30.5382 30.302 30.5329H30.3046C30.3046 30.5329 30.3071 30.5382 30.3123 30.5408C30.3486 30.572 30.3849 30.598 30.4316 30.6188C30.5041 30.6501 30.5845 30.6631 30.6622 30.6501C30.7089 30.6423 30.7504 30.6266 30.7944 30.611C30.8178 30.6032 30.8463 30.5824 30.8722 30.598C30.9033 30.6162 30.8774 30.624 30.8644 30.6605C30.81 30.8192 30.937 30.9337 31.0899 30.8791C31.1625 30.8531 31.2299 30.8062 31.2817 30.749C31.2921 30.7359 31.3491 30.6501 31.3698 30.6501C31.3854 30.6501 31.3958 30.7151 31.4009 30.7359C31.4528 30.8843 31.6187 30.9546 31.7327 30.8192C31.8701 30.6579 31.8338 30.3456 31.8156 30.153V30.1478Z" fill="#F96254"/>
<path d="M24.6366 39.6889C24.6833 39.7227 24.7273 39.7201 24.774 39.7175C24.761 39.754 24.7532 39.7904 24.7481 39.832C24.7429 39.8711 24.7869 39.9127 24.8258 39.9101C25.0124 39.8971 25.1965 39.8841 25.3831 39.8711C25.536 39.8607 25.6915 39.8503 25.8367 39.793C25.8833 39.7748 25.9222 39.7045 25.8704 39.6629C25.7589 39.5718 25.6371 39.5171 25.5023 39.4885C25.5023 39.4807 25.5023 39.4729 25.5023 39.4651C25.5023 39.4104 25.4505 39.3818 25.4038 39.3896C25.3261 39.4026 25.2405 39.4208 25.1628 39.4C25.085 39.3818 25.0513 39.3349 25.0098 39.2725C24.9606 39.2022 24.9062 39.1892 24.8258 39.197C24.5692 39.2204 24.4474 38.9003 24.2193 38.8301C24.1105 38.7962 23.9912 38.8066 23.8798 38.8118C23.7528 38.817 23.6284 38.8248 23.5039 38.8483C23.3899 38.8691 23.2655 38.9003 23.1566 38.9472C23.1203 38.9628 23.0866 38.9836 23.0607 39.0148C23.0529 39.0226 23.0244 39.0851 23.0141 39.1189C22.9882 39.1398 22.9622 39.1606 22.9363 39.184C22.8871 39.2308 22.9259 39.3167 22.9907 39.3167C23.2214 39.3141 23.4158 39.1502 23.6361 39.1189C23.6309 39.1814 23.662 39.2361 23.7502 39.2491C23.8124 39.2569 23.872 39.2282 23.9342 39.2465C24.0016 39.2673 24.0586 39.3271 24.113 39.3662C24.1623 39.4026 24.2115 39.4364 24.2686 39.4521C24.3359 39.4703 24.4007 39.4443 24.4526 39.4833C24.5252 39.5353 24.5614 39.6342 24.6392 39.6889H24.6366Z" fill="#F96254"/>
<path d="M27.3741 40.1677C27.273 40.087 27.1668 40.0349 27.0527 39.9751C26.9672 39.9282 26.9439 39.8319 26.8428 39.7955C26.7521 39.7617 26.6769 39.7903 26.5888 39.7955C26.511 39.8033 26.4566 39.7617 26.384 39.7539C26.3322 39.7487 26.2829 39.7539 26.2337 39.7721C26.1041 39.7669 25.99 39.8476 25.9538 39.9829C25.9382 40.0349 25.9797 40.0766 26.0289 40.0818C26.0808 40.087 26.1248 40.1 26.1663 40.1208C26.0341 40.1416 25.9019 40.1625 25.7697 40.1833C25.6972 40.1937 25.7023 40.29 25.7516 40.3238C25.8915 40.4201 26.0497 40.3889 26.2078 40.3759C26.3037 40.3681 26.3814 40.3759 26.4644 40.4305C26.5318 40.4748 26.581 40.5112 26.6639 40.5164C26.7158 40.5164 26.7495 40.4644 26.7391 40.4175C26.7106 40.2952 26.8687 40.3655 26.905 40.3733C26.9413 40.3811 26.9776 40.3863 27.0139 40.3811C27.1279 40.3629 27.1746 40.2588 27.3041 40.3004C27.3741 40.3238 27.4389 40.2197 27.3793 40.1703L27.3741 40.1677Z" fill="#F96254"/>
<path d="M25.4124 40.3056C25.4124 40.3056 25.3969 40.2874 25.3813 40.2796C25.2439 40.2171 25.0884 40.1078 24.9329 40.1338C24.8474 40.1468 24.6789 40.1546 24.6089 40.2275C24.5778 40.2405 24.5545 40.2613 24.5467 40.3004C24.526 40.4253 24.6918 40.4461 24.7774 40.4565C24.8111 40.4617 24.8655 40.4565 24.9018 40.4669C24.9018 40.4721 24.9044 40.4852 24.9122 40.5034C24.9277 40.545 24.964 40.5762 25.0081 40.5893C25.1403 40.6309 25.3113 40.4956 25.4202 40.4409C25.4772 40.4123 25.4642 40.3264 25.4124 40.303V40.3056Z" fill="#F96254"/>
<path d="M36.5038 46.7524C36.3534 46.6613 36.1772 46.6327 36.0035 46.6197C35.8143 46.6067 35.6951 46.3907 35.5396 46.2944C35.3892 46.2007 35.2259 46.1616 35.0497 46.1616C34.9356 46.1616 34.8216 46.1747 34.7076 46.1616C34.5857 46.1486 34.508 46.0784 34.3991 46.0393C34.241 45.9821 34.127 46.081 33.9974 46.1486C33.9689 46.0419 33.9403 45.9248 33.8885 45.8363C33.8237 45.7296 33.7071 45.7739 33.6215 45.701C33.536 45.6281 33.4634 45.5657 33.3468 45.55C33.2379 45.5344 33.1291 45.5578 33.0306 45.6047C32.9191 45.6567 32.8258 45.7374 32.7325 45.8207C32.6936 45.8545 32.6288 45.943 32.577 45.9352C32.5329 45.93 32.5537 45.9144 32.5511 45.8702C32.5511 45.8441 32.5459 45.8207 32.5381 45.7947C32.5381 45.7895 32.5329 45.7843 32.5329 45.7791C32.6185 45.7713 32.6988 45.7348 32.7455 45.6463C32.8103 45.5266 32.7688 45.3731 32.6288 45.3392C32.4863 45.3054 32.2608 45.4069 32.1752 45.524C32.1545 45.55 32.1416 45.5813 32.1338 45.6125C32.069 45.6385 31.9938 45.6515 31.9316 45.6828C31.929 45.5995 32.1208 45.5292 32.1649 45.4746C32.1934 45.4407 32.2089 45.3991 32.2245 45.3601C32.2556 45.2846 32.2867 45.2455 32.3515 45.1935C32.4474 45.118 32.5303 44.9619 32.4396 44.8656C32.463 44.5689 32.3308 44.28 32.069 44.1212C31.9394 44.0432 31.7761 44.0041 31.662 43.8974C31.605 43.8454 31.5869 43.7621 31.5247 43.7152C31.4702 43.6762 31.4288 43.6892 31.3666 43.697C31.3147 43.7022 31.3095 43.71 31.2759 43.6736C31.2499 43.6476 31.237 43.6163 31.2033 43.5955C31.1488 43.5617 31.0815 43.5565 31.0193 43.5669C30.9363 43.5799 30.8689 43.6294 30.7886 43.6554C30.6616 43.6944 30.5527 43.6007 30.4568 43.5305C30.2754 43.4003 30.1069 43.2572 29.9436 43.1088C29.884 43.0568 29.8296 43.0073 29.7492 42.9943C29.7051 42.9865 29.6403 43.0021 29.5833 42.9995C29.6092 42.9475 29.6118 42.885 29.5859 42.8252C29.5315 42.6976 29.4045 42.6716 29.2827 42.6404L29.2904 42.6352C29.3267 42.6092 29.3397 42.5701 29.319 42.5285C29.2153 42.3281 28.9742 42.3593 28.8057 42.4452C28.6632 42.5155 28.5414 42.5831 28.3781 42.5727C28.2148 42.5623 28.093 42.4842 27.9452 42.427C27.9012 42.4088 27.8545 42.3957 27.8053 42.3983C27.7379 42.3983 27.6653 42.4504 27.6005 42.4348C27.4968 42.4114 27.4268 42.276 27.3284 42.2292C27.2247 42.1797 27.108 42.1901 26.9966 42.2084C26.8644 42.2318 26.7478 42.2604 26.6208 42.2552C26.6311 42.198 26.6285 42.1381 26.6104 42.0808C26.5922 42.0184 26.5223 42.0158 26.486 42.0444C26.4704 42.0496 26.4575 42.06 26.4497 42.0756C26.2994 42.3255 25.9469 42.2734 25.711 42.3749C25.6281 42.4114 25.5425 42.4712 25.5166 42.5623C25.5114 42.5753 25.5218 42.6794 25.5244 42.6768C25.5088 42.695 25.4103 42.695 25.3844 42.7081C25.3092 42.7471 25.2989 42.8148 25.2755 42.8876C25.2522 42.9579 25.2315 42.9683 25.1745 43.0021C25.133 43.0282 25.1045 43.0594 25.0837 43.1036C25.0656 43.1427 25.063 43.1869 25.0552 43.2286C25.0397 43.3066 25.006 43.2988 24.936 43.3353C24.8583 43.3769 24.8194 43.442 24.8142 43.5305C24.8064 43.632 24.8427 43.7309 24.8686 43.8271C24.8997 43.9495 24.9127 44.077 24.8997 44.2045C24.8868 44.3373 24.8427 44.4674 24.7546 44.5663C24.682 44.647 24.5835 44.7068 24.5731 44.8265C24.568 44.8812 24.6017 44.941 24.5835 44.9931C24.5654 45.0451 24.5057 45.0816 24.4643 45.1128C24.3839 45.1701 24.2984 45.2221 24.2414 45.3054C24.1766 45.4017 24.161 45.5214 24.1014 45.6203C24.0418 45.7192 23.9355 45.7791 23.9537 45.9092C23.9692 46.0185 24.0599 46.0914 24.1481 46.1408C24.2466 46.1981 24.3165 46.2293 24.2051 46.3412C24.1532 46.3933 24.0755 46.4271 24.0133 46.4635C23.9303 46.513 23.7852 46.5546 23.7774 46.6743C23.7748 46.7498 23.8396 46.8279 23.9044 46.893C23.8992 46.8956 23.8941 46.8982 23.8915 46.9008C23.8604 46.9242 23.8448 46.958 23.8396 46.9971C23.8241 47.0986 23.8941 47.1688 23.9822 47.2027C24.0625 47.2339 24.1325 47.2495 24.1947 47.3172C24.2388 47.364 24.2725 47.4239 24.301 47.4811C24.3865 47.6399 24.4617 47.8038 24.542 47.9652C24.7027 48.2879 24.8764 48.608 25.0164 48.9412C25.1097 49.1598 25.1511 49.4903 25.4155 49.5684H25.4207C25.6825 49.761 25.895 50.0134 26.1568 50.2086C26.2786 50.2997 26.416 50.3778 26.5611 50.422C26.6182 50.4402 26.7141 50.4428 26.7529 50.4949C26.7789 50.5287 26.7737 50.586 26.7737 50.625C26.7737 50.7083 26.7607 50.7916 26.7633 50.8775C26.7659 50.9581 26.7789 51.0362 26.8074 51.1091C26.8385 51.1872 26.924 51.26 26.9318 51.3407C26.9447 51.4734 26.7633 51.601 26.7167 51.7207C26.6493 51.8925 26.7218 52.0798 26.7633 52.249L26.854 52.6108C26.6881 52.6732 26.6337 52.832 26.6259 53.0011C26.6208 53.1261 26.6182 53.2406 26.5871 53.3629C26.5586 53.4722 26.5223 53.5763 26.5041 53.6882C26.486 53.7949 26.4834 53.8964 26.4963 54.0031C26.5119 54.1307 26.5456 54.266 26.5067 54.3935C26.4808 54.4768 26.4315 54.5471 26.4186 54.6355C26.403 54.7501 26.4601 54.8412 26.486 54.9505C26.5171 55.0884 26.473 55.2341 26.4393 55.3695C26.4082 55.4996 26.3771 55.6297 26.346 55.7599C26.3175 55.877 26.2942 55.9941 26.2631 56.1112C26.232 56.2309 26.1957 56.3064 26.079 56.3532C25.9287 56.4157 25.9287 56.5432 25.9909 56.6786C26.0428 56.7931 26.0868 56.8894 26.0739 57.0195C26.0609 57.1418 25.9961 57.2355 25.9417 57.3422C25.8976 57.4307 25.8587 57.527 25.8795 57.6285C25.8924 57.6883 25.9287 57.7378 25.9209 57.8029C25.9158 57.8549 25.8898 57.8939 25.895 57.946C25.9002 58.0111 25.9339 58.0761 25.9961 58.0995C26.0272 58.11 26.0583 58.1074 26.0894 58.0995C26.1024 58.0943 26.1205 58.0787 26.1335 58.0761L26.1594 58.0579C26.1931 58.0969 26.2009 58.1386 26.1827 58.1828C26.1775 58.2167 26.1905 58.2427 26.2112 58.2609C26.206 58.2687 26.2035 58.2791 26.2035 58.2895C26.1672 58.6383 26.0402 58.9324 25.908 59.2525C25.8535 59.3878 25.8121 59.5283 25.8328 59.6741C25.8354 59.6975 25.8535 59.7313 25.8458 59.7496C25.8328 59.7808 25.8095 59.7183 25.7939 59.6975C25.7576 59.6507 25.7291 59.6116 25.6747 59.5856C25.6306 59.5648 25.5762 59.5804 25.5607 59.6325C25.5322 59.7366 25.4803 59.8198 25.3948 59.8875C25.3689 59.9057 25.3455 59.9422 25.3585 59.976C25.3844 60.0384 25.4207 60.0723 25.4881 60.0775C25.5322 60.0827 25.5736 60.0645 25.6177 60.0671C25.6954 60.0697 25.6903 60.1165 25.7006 60.1894C25.7162 60.2857 25.781 60.382 25.8639 60.3976C25.8665 60.4184 25.8717 60.4418 25.8743 60.4627C25.8043 60.4965 25.7343 60.5277 25.6643 60.5616C25.5969 60.5928 25.6281 60.6813 25.6825 60.7021C25.908 60.7932 25.6695 60.9806 25.6436 61.1029C25.6306 61.1601 25.6462 61.207 25.6825 61.2512C25.7136 61.2903 25.7421 61.2877 25.7317 61.3475C25.7265 61.3762 25.6903 61.4126 25.6773 61.436C25.5995 61.5687 25.6099 61.7041 25.7006 61.829C25.7888 61.9513 25.9313 62.0112 26.0324 62.1179C25.9857 62.1595 25.952 62.2116 25.9313 62.2792C25.9158 62.3261 25.9572 62.3781 26.0065 62.3781C26.1749 62.3729 26.1231 62.5889 26.2657 62.6358C26.3123 62.6514 26.3616 62.641 26.4056 62.628C26.3953 62.6488 26.3823 62.6696 26.3745 62.6931C26.3538 62.7425 26.4056 62.7867 26.4497 62.7919C26.5508 62.7998 26.6337 62.8622 26.67 62.9585C26.6959 63.0262 26.7996 63.0392 26.8177 62.9585C26.8359 62.8856 26.8203 62.8284 26.7944 62.7581C26.7685 62.6904 26.7426 62.6462 26.7918 62.5759C26.8203 62.5369 26.867 62.5109 26.9059 62.4822C26.9888 62.4224 27.0692 62.3495 27.0951 62.2558C27.1651 62.2845 27.235 62.3079 27.3102 62.3235C27.3776 62.3391 27.4268 62.2714 27.3983 62.209C27.2998 62.0164 27.1858 61.79 27.2558 61.5688C27.2869 61.4699 27.3413 61.4074 27.4294 61.3579C27.4916 61.3241 27.5539 61.2955 27.585 61.2278C27.6238 61.1445 27.572 61.0691 27.5901 60.9884C27.6109 60.8947 27.7508 60.8348 27.8182 60.7776C27.9712 60.65 28.0878 60.4861 28.1707 60.3039C28.1889 60.2649 28.1811 60.2206 28.1422 60.1972C27.9426 60.0749 27.6601 59.9005 27.7223 59.6246C27.7845 59.354 28.0956 59.5153 28.2459 59.3436C28.3573 59.216 28.3003 59.0365 28.2848 58.8881C28.2744 58.7736 28.2977 58.7346 28.3962 58.6825C28.4662 58.6461 28.531 58.5966 28.5206 58.5081C28.5155 58.4639 28.4895 58.4353 28.4429 58.4301C28.4299 58.4301 28.4869 58.3051 28.4895 58.2895C28.4947 58.2219 28.4507 58.1698 28.4196 58.1152C28.3418 57.9824 28.3237 57.8211 28.3625 57.6753C28.5362 57.7846 28.7409 57.8341 28.9509 57.8003C29.039 57.7872 29.1349 57.7612 29.1427 57.6571C29.1505 57.5608 29.109 57.4437 29.0753 57.337C29.1297 57.3318 29.1842 57.3136 29.236 57.2849C29.2853 57.2589 29.2801 57.2017 29.2516 57.1678C29.5807 57.2173 29.9151 57.0793 30.1847 56.8763C30.2702 56.8113 30.3531 56.741 30.4309 56.6681C30.5009 56.6031 30.5968 56.5354 30.646 56.4521C30.6849 56.3871 30.6797 56.3142 30.6486 56.2491C30.6331 56.2127 30.602 56.1815 30.589 56.1424C30.5631 56.0774 30.6097 56.0435 30.6512 55.9941C30.6901 55.9446 30.6693 55.8614 30.5968 55.8614C30.5605 55.8614 30.5035 55.6714 30.4749 55.6401C30.4464 55.6089 30.4179 55.5959 30.3816 55.5777C30.3531 55.5647 30.3298 55.5516 30.3142 55.536C30.5683 55.6349 30.8326 55.6948 31.1074 55.7156C31.1592 55.7182 31.1825 55.6792 31.18 55.6375C31.1955 55.6584 31.2214 55.6688 31.2551 55.6584C31.3743 55.6193 31.4832 55.5569 31.5687 55.4632C31.6672 55.3565 31.6957 55.2367 31.7605 55.1092C31.7891 55.052 31.8383 55.0103 31.872 54.9557C31.9109 54.8932 31.9135 54.8125 31.9575 54.7527C32.0275 54.659 32.1208 54.6173 32.1545 54.5002C32.1571 54.4872 32.1597 54.4742 32.1545 54.4638C32.2815 54.3258 32.4137 54.1879 32.5303 54.0396C32.6288 53.9172 32.6962 53.7845 32.6884 53.6258C32.6884 53.5997 32.6755 53.5477 32.6833 53.5243C32.7014 53.4618 32.7481 53.4644 32.7895 53.4384C32.8362 53.4097 32.8699 53.3681 32.8906 53.3187C32.9502 53.1729 32.8803 53.0324 32.8517 52.8866C32.8051 52.6524 33.0124 52.6524 33.1524 52.5457C33.1991 52.5119 33.2328 52.4702 33.2561 52.4182C33.282 52.3609 33.2846 52.2933 33.339 52.2516C33.3701 52.2282 33.4194 52.2204 33.4557 52.2126C33.6475 52.1709 33.8159 52.0981 34.0026 52.0356C34.2203 51.9627 34.4484 51.9341 34.6765 51.9419C34.7309 51.9419 34.7775 51.8716 34.7438 51.8248C34.6635 51.7207 34.7438 51.7884 34.819 51.7597C34.8553 51.7467 34.8838 51.7233 34.8994 51.6921C34.9097 51.6843 34.9175 51.6738 34.9253 51.6582C34.9719 51.5359 35.0445 51.4058 35.0549 51.2731C35.0626 51.1898 35.073 51.1716 35.1482 51.1377C35.1897 51.1195 35.2337 51.1013 35.2674 51.0701C35.3322 51.005 35.3348 50.9217 35.3089 50.8358C35.2856 50.7577 35.2596 50.7161 35.3322 50.651C35.3737 50.6146 35.4126 50.5886 35.4411 50.5391C35.5707 50.3101 35.397 50.0056 35.4696 49.7584C35.5007 49.6517 35.5914 49.5814 35.5473 49.4643C35.5188 49.3914 35.454 49.3472 35.4514 49.2613C35.4488 49.152 35.524 49.0661 35.6303 49.0531C35.6718 49.0479 35.6951 49.0166 35.7029 48.9828C35.8091 48.9308 35.8713 48.8293 35.918 48.7173C35.9595 48.6158 35.9906 48.5169 36.0813 48.4519C36.1539 48.3998 36.2264 48.3556 36.2886 48.2879C36.4053 48.1578 36.5038 47.999 36.5297 47.8247C36.5634 47.6165 36.5556 47.3979 36.5634 47.187C36.5686 47.0647 36.6308 46.8357 36.5038 46.7576V46.7524Z" fill="#F96254"/>
</g>
<defs>
<clipPath id="clip0_249_25896">
<rect width="43" height="63" fill="white"/>
</clipPath>
</defs>
</svg>
