<svg width="168" height="47" viewBox="0 0 168 47" fill="none" xmlns="http://www.w3.org/2000/svg">
<path d="M168 40.648C168 44.1555 164.676 47 160.575 47H7.42645C3.32564 47.0003 0 44.1557 0 40.648V6.35147C0 2.84425 3.32564 0 7.42645 0H160.575C164.675 0 168 2.84425 168 6.35147V40.648H168Z" fill="#F4F8FF"/>
<path d="M44.5398 22.295C44.5105 19.1366 47.2098 17.6 47.3333 17.5285C45.8045 15.3697 43.435 15.0747 42.6023 15.0512C40.6122 14.8483 38.6818 16.2046 37.668 16.2046C36.634 16.2046 35.0729 15.0708 33.3903 15.1041C31.2252 15.1364 29.1996 16.3506 28.0887 18.236C25.7961 22.0803 27.506 27.7297 29.7025 30.8372C30.8012 32.36 32.0852 34.0582 33.7657 33.9985C35.4098 33.9338 36.0239 32.9842 38.0079 32.9842C39.9738 32.9842 40.5505 33.9985 42.2644 33.9602C44.0289 33.9338 45.1398 32.4315 46.2001 30.896C47.4698 29.1526 47.9798 27.4338 48 27.3456C47.9595 27.3319 44.5742 26.0795 44.5398 22.295ZM41.3022 13.007C42.1865 11.9359 42.7915 10.4787 42.6236 9C41.3437 9.05488 39.7431 9.85745 38.8214 10.905C38.0059 11.8281 37.2775 13.3412 37.4656 14.7641C38.9033 14.8679 40.3795 14.0614 41.3022 13.007Z" fill="#0E123D"/>
<path d="M66.9915 33.9739H64.7698L63.5527 29.9292H59.3224L58.1631 33.9739H56L60.1921 20.2038H62.7808L66.9915 33.9739ZM63.1858 28.2322L62.0852 24.6366C61.9688 24.2693 61.7496 23.4042 61.4288 22.0425H61.3896C61.2605 22.6282 61.0541 23.4932 60.7713 24.6366L59.6893 28.2322H63.1858ZM77.7512 28.8872C77.7512 30.5759 77.3178 31.9107 76.45 32.8906C75.6732 33.7628 74.7076 34.1984 73.5561 34.1984C72.3127 34.1984 71.4185 33.7297 70.8755 32.7902V38H68.7897V27.3082C68.7897 26.2476 68.7633 25.1602 68.7124 24.0447H70.5468L70.6632 25.6185H70.7023C71.3979 24.4327 72.4536 23.8398 73.8702 23.8398C74.9776 23.8398 75.9022 24.3024 76.6418 25.2284C77.3804 26.1566 77.7512 27.3755 77.7512 28.8872ZM75.6263 28.9679C75.6263 28.0015 75.4208 27.2048 75.008 26.5767C74.557 25.9238 73.9514 25.5968 73.1922 25.5968C72.6776 25.5968 72.2099 25.7789 71.7922 26.138C71.3735 26.5001 71.0995 26.973 70.9714 27.5586C70.9142 27.7777 70.8817 28.0031 70.8745 28.2302V29.8868C70.8745 30.608 71.0839 31.2174 71.5026 31.7161C71.9213 32.2128 72.4653 32.4622 73.1345 32.4622C73.9201 32.4622 74.5315 32.1404 74.9688 31.502C75.4071 30.8615 75.6263 30.0171 75.6263 28.9679ZM88.549 28.8872C88.549 30.5759 88.1156 31.9107 87.2479 32.8906C86.4701 33.7628 85.5055 34.1984 84.353 34.1984C83.1095 34.1984 82.2153 33.7297 81.6724 32.7902V38H79.5866V27.3082C79.5866 26.2476 79.5601 25.1602 79.5093 24.0447H81.3436L81.4601 25.6185H81.4992C82.1938 24.4327 83.2494 23.8398 84.667 23.8398C85.7735 23.8398 86.698 24.3024 87.4396 25.2284C88.1773 26.1566 88.549 27.3755 88.549 28.8872ZM86.4231 28.9679C86.4231 28.0015 86.2167 27.2048 85.8038 26.5767C85.3528 25.9238 84.7492 25.5968 83.99 25.5968C83.4754 25.5968 83.0078 25.7789 82.5881 26.138C82.1694 26.5001 81.8964 26.973 81.7682 27.5586C81.7046 27.8318 81.6704 28.0543 81.6704 28.2302V29.8868C81.6704 30.608 81.8807 31.2174 82.2975 31.7161C82.7162 32.2118 83.2602 32.4622 83.9313 32.4622C84.7179 32.4622 85.3294 32.1404 85.7657 31.502C86.204 30.8615 86.4231 30.0171 86.4231 28.9679ZM100.622 30.1113C100.622 31.2836 100.234 32.2366 99.4643 32.9723C98.617 33.7752 97.4342 34.1777 95.9178 34.1777C94.5169 34.1777 93.3937 33.8922 92.5465 33.32L93.0288 31.4813C93.9436 32.0545 94.9483 32.3401 96.0421 32.3401C96.8287 32.3401 97.4401 32.1518 97.8764 31.7782C98.3138 31.4037 98.5349 30.9029 98.5349 30.2779C98.5349 29.7181 98.3519 29.2494 97.9929 28.8676C97.6319 28.4868 97.0351 28.1319 96.1966 27.8059C93.9171 26.9068 92.7764 25.5916 92.7764 23.8616C92.7764 22.7317 93.1795 21.8066 93.9837 21.0834C94.7878 20.3611 95.8542 20 97.1809 20C98.3656 20 99.3527 20.2183 100.136 20.6539L99.613 22.4523C98.8753 22.0301 98.0428 21.819 97.1114 21.819C96.3757 21.819 95.7985 22.0105 95.3856 22.3912C95.0383 22.7317 94.8622 23.1466 94.8622 23.6391C94.8622 24.1823 95.0628 24.6335 95.4619 24.9874C95.8083 25.3133 96.4402 25.6682 97.354 26.049C98.4752 26.527 99.2989 27.0837 99.8262 27.7232C100.357 28.3626 100.622 29.1604 100.622 30.1113ZM107.535 25.7003H105.236V30.521C105.236 31.7472 105.641 32.3587 106.453 32.3587C106.826 32.3587 107.135 32.3256 107.38 32.2563L107.438 33.9315C107.027 34.0939 106.486 34.1757 105.816 34.1757C104.992 34.1757 104.348 33.9097 103.883 33.3779C103.421 32.8461 103.188 31.9552 103.188 30.7011V25.6961H101.818V24.0406H103.188V22.2226L105.236 21.5686V24.0406H107.535V25.7003ZM117.888 28.9276C117.888 30.4538 117.475 31.7068 116.652 32.6867C115.79 33.6956 114.643 34.1984 113.214 34.1984C111.834 34.1984 110.738 33.7152 109.92 32.7498C109.102 31.7824 108.693 30.5635 108.693 29.0931C108.693 27.5545 109.115 26.2942 109.958 25.3143C110.802 24.3334 111.939 23.843 113.368 23.843C114.746 23.843 115.852 24.3272 116.69 25.2936C117.49 26.2311 117.888 27.4417 117.888 28.9276ZM115.726 28.9783C115.726 28.0688 115.54 27.2886 115.167 26.6357C114.73 25.8472 114.104 25.453 113.293 25.453C112.457 25.453 111.817 25.8472 111.38 26.6357C111.007 27.2886 110.821 28.0822 110.821 29.0197C110.821 29.9302 111.007 30.7125 111.38 31.3633C111.831 32.1518 112.46 32.546 113.275 32.546C114.073 32.546 114.698 32.1435 115.15 31.3436C115.533 30.6752 115.726 29.8899 115.726 28.9783ZM124.671 25.9848C124.454 25.9434 124.234 25.923 124.014 25.9238C123.28 25.9238 122.712 26.2156 122.313 26.8033C121.967 27.3206 121.793 27.9746 121.793 28.7641V33.9739H119.707V27.1716C119.709 26.1293 119.689 25.0871 119.646 24.0458H121.463L121.539 25.9455H121.597C121.818 25.2926 122.164 24.7659 122.64 24.3717C123.075 24.0272 123.604 23.8407 124.148 23.8398C124.34 23.8398 124.514 23.8543 124.669 23.8802L124.671 25.9848ZM133.999 28.5395C134.005 28.8749 133.979 29.21 133.923 29.5401H127.666C127.689 30.521 127.992 31.2722 128.574 31.7896C129.101 32.2511 129.783 32.4829 130.62 32.4829C131.547 32.4829 132.392 32.3277 133.152 32.0141L133.479 33.5445C132.591 33.9542 131.542 34.1581 130.332 34.1581C128.876 34.1581 127.733 33.7049 126.902 32.8005C126.072 31.8951 125.656 30.6783 125.656 29.1542C125.656 27.658 126.043 26.4111 126.816 25.4168C127.626 24.3551 128.721 23.8243 130.099 23.8243C131.452 23.8243 132.476 24.3551 133.172 25.4168C133.722 26.258 133.999 27.301 133.999 28.5395ZM132.01 27.9673C132.025 27.3124 131.888 26.7484 131.605 26.2714C131.244 25.6568 130.689 25.3505 129.944 25.3505C129.262 25.3505 128.707 25.6496 128.284 26.2497C127.937 26.7267 127.73 27.3 127.667 27.9653L132.01 27.9673Z" fill="#0E123D"/>
<path d="M58.612 16.0898C58.0338 16.0898 57.5336 16.0615 57.1172 16.0138V9.74146C57.6995 9.65153 58.288 9.6072 58.8773 9.60888C61.2615 9.60888 62.3595 10.7816 62.3595 12.6934C62.3595 14.8985 61.0625 16.0898 58.612 16.0898ZM58.9611 10.4131C58.6394 10.4131 58.3653 10.4326 58.1381 10.4794V15.2475C58.261 15.267 58.497 15.2758 58.8285 15.2758C60.3907 15.2758 61.28 14.3867 61.28 12.7216C61.28 11.2369 60.4755 10.4131 58.9611 10.4131ZM65.7812 16.1376C64.4374 16.1376 63.5667 15.1344 63.5667 13.7725C63.5667 12.3531 64.456 11.3412 65.8572 11.3412C67.1814 11.3412 68.0717 12.2966 68.0717 13.6975C68.0717 15.1344 67.1541 16.1376 65.7812 16.1376ZM65.8202 12.088C65.082 12.088 64.6091 12.7782 64.6091 13.7433C64.6091 14.6899 65.0917 15.3801 65.8104 15.3801C66.5291 15.3801 67.0118 14.6421 67.0118 13.7238C67.0118 12.7879 66.5388 12.088 65.8202 12.088ZM75.7343 11.4358L74.2959 16.0332H73.3589L72.763 14.0367C72.6149 13.5484 72.4916 13.0528 72.3935 12.552H72.374C72.2989 13.0531 72.1565 13.5551 72.0054 14.0367L71.3715 16.0332H70.4247L69.0712 11.4358H70.1214L70.6422 13.6214C70.765 14.142 70.8684 14.6333 70.9542 15.0974H70.9737C71.0488 14.7104 71.1716 14.2268 71.352 13.6312L72.0054 11.4368H72.8381L73.4632 13.5844C73.6143 14.105 73.7372 14.6158 73.8328 15.0984H73.8601C73.9264 14.6255 74.0307 14.1235 74.1721 13.5844L74.7309 11.4368L75.7343 11.4358ZM81.0292 16.0332H80.0072V13.3933C80.0072 12.5803 79.6952 12.1728 79.0799 12.1728C78.4743 12.1728 78.058 12.6934 78.058 13.2987V16.0332H77.036V12.7499C77.036 12.3434 77.0263 11.9076 76.998 11.4348H77.8971L77.9449 12.1445H77.9731C78.2481 11.6532 78.8059 11.3412 79.4309 11.3412C80.3963 11.3412 81.0301 12.0792 81.0301 13.2802L81.0292 16.0332ZM83.8473 16.0332H82.8244V9.32617H83.8473V16.0332ZM87.5732 16.1376C86.2305 16.1376 85.3587 15.1344 85.3587 13.7725C85.3587 12.3531 86.248 11.3412 87.6483 11.3412C88.9735 11.3412 89.8628 12.2966 89.8628 13.6975C89.8638 15.1344 88.9452 16.1376 87.5732 16.1376ZM87.6113 12.088C86.8731 12.088 86.4002 12.7782 86.4002 13.7433C86.4002 14.6899 86.8838 15.3801 87.6005 15.3801C88.3202 15.3801 88.8019 14.6421 88.8019 13.7238C88.8029 12.7879 88.3309 12.088 87.6113 12.088ZM93.892 16.0332L93.8179 15.5039H93.7906C93.4786 15.9299 93.0232 16.1376 92.4459 16.1376C91.6219 16.1376 91.0369 15.5604 91.0369 14.7844C91.0369 13.6497 92.0208 13.0628 93.7243 13.0628V12.978C93.7243 12.3726 93.4035 12.0694 92.7697 12.0694C92.3162 12.0694 91.9184 12.1835 91.5683 12.4106L91.3606 11.739C91.7858 11.4738 92.3162 11.3412 92.9393 11.3412C94.1407 11.3412 94.7472 11.9749 94.7472 13.2432V14.9365C94.7472 15.4006 94.7677 15.7603 94.8135 16.0342L93.892 16.0332ZM93.7516 13.7433C92.6166 13.7433 92.0471 14.0182 92.0471 14.6704C92.0471 15.1529 92.3406 15.3889 92.7482 15.3889C93.268 15.3889 93.7516 14.9921 93.7516 14.453V13.7433ZM99.7096 16.0332L99.6618 15.2953H99.6336C99.3401 15.8529 98.8466 16.1376 98.1572 16.1376C97.0485 16.1376 96.2275 15.1627 96.2275 13.7911C96.2275 12.3531 97.0787 11.3402 98.2411 11.3402C98.8564 11.3402 99.2923 11.5479 99.538 11.9651H99.5585V9.32617H100.581V14.7942C100.581 15.2387 100.592 15.655 100.619 16.0332H99.7096ZM99.5585 13.328C99.5585 12.6846 99.1324 12.1357 98.4819 12.1357C97.7243 12.1357 97.2611 12.8074 97.2611 13.753C97.2611 14.6801 97.7418 15.3148 98.4615 15.3148C99.1041 15.3148 99.5585 14.7562 99.5585 14.0942V13.328ZM107.067 16.1376C105.724 16.1376 104.853 15.1344 104.853 13.7725C104.853 12.3531 105.743 11.3412 107.143 11.3412C108.468 11.3412 109.358 12.2966 109.358 13.6975C109.358 15.1344 108.441 16.1376 107.067 16.1376ZM107.105 12.088C106.368 12.088 105.895 12.7782 105.895 13.7433C105.895 14.6899 106.378 15.3801 107.095 15.3801C107.815 15.3801 108.297 14.6421 108.297 13.7238C108.299 12.7879 107.826 12.088 107.105 12.088ZM114.853 16.0332H113.83V13.3933C113.83 12.5803 113.518 12.1728 112.903 12.1728C112.298 12.1728 111.882 12.6934 111.882 13.2987V16.0332H110.859V12.7499C110.859 12.3434 110.849 11.9076 110.821 11.4348H111.72L111.768 12.1445H111.796C112.07 11.6532 112.629 11.3402 113.253 11.3402C114.218 11.3402 114.853 12.0782 114.853 13.2793V16.0332ZM121.729 12.202H120.605V14.4345C120.605 15.0028 120.802 15.2865 121.199 15.2865C121.38 15.2865 121.531 15.267 121.653 15.2387L121.681 16.0147C121.483 16.0908 121.218 16.1288 120.888 16.1288C120.083 16.1288 119.601 15.6842 119.601 14.5203V12.202H118.93V11.4358H119.601V10.5935L120.605 10.2903V11.4348H121.729V12.202ZM127.139 16.0332H126.118V13.4128C126.118 12.59 125.807 12.1738 125.191 12.1738C124.661 12.1738 124.168 12.5335 124.168 13.2617V16.0332H123.147V9.32617H124.168V12.088H124.188C124.51 11.5869 124.976 11.3402 125.571 11.3402C126.544 11.3402 127.139 12.0967 127.139 13.2987V16.0332ZM132.681 13.9802H129.615C129.634 14.8507 130.211 15.3421 131.064 15.3421C131.517 15.3421 131.935 15.266 132.303 15.1247L132.462 15.8344C132.027 16.0235 131.515 16.1181 130.919 16.1181C129.481 16.1181 128.63 15.2095 128.63 13.8008C128.63 12.3911 129.502 11.3315 130.804 11.3315C131.979 11.3315 132.717 12.202 132.717 13.5171C132.723 13.6723 132.711 13.8278 132.681 13.9802ZM131.744 13.252C131.744 12.5423 131.387 12.0412 130.733 12.0412C130.146 12.0412 129.682 12.552 129.616 13.252H131.744Z" fill="#0E123D"/>
</svg>
