<svg width="46" height="18" viewBox="0 0 46 18" fill="none" xmlns="http://www.w3.org/2000/svg">
<g clip-path="url(#clip0_7069_25259)">
<path d="M38.5 5.75L42.25 9.5L38.5 13.25" stroke="#3944B3" stroke-width="1.2" stroke-linecap="round" stroke-linejoin="round"/>
</g>
<path d="M9.684 4.66V13H8.316V7.288L5.772 13H4.824L2.268 7.288V13H0.9V4.66H2.376L5.304 11.2L8.22 4.66H9.684ZM14.35 13.108C13.726 13.108 13.162 12.968 12.658 12.688C12.154 12.4 11.758 12 11.47 11.488C11.182 10.968 11.038 10.368 11.038 9.688C11.038 9.016 11.186 8.42 11.482 7.9C11.778 7.38 12.182 6.98 12.694 6.7C13.206 6.42 13.778 6.28 14.41 6.28C15.042 6.28 15.614 6.42 16.126 6.7C16.638 6.98 17.042 7.38 17.338 7.9C17.634 8.42 17.782 9.016 17.782 9.688C17.782 10.36 17.63 10.956 17.326 11.476C17.022 11.996 16.606 12.4 16.078 12.688C15.558 12.968 14.982 13.108 14.35 13.108ZM14.35 11.92C14.702 11.92 15.03 11.836 15.334 11.668C15.646 11.5 15.898 11.248 16.09 10.912C16.282 10.576 16.378 10.168 16.378 9.688C16.378 9.208 16.286 8.804 16.102 8.476C15.918 8.14 15.674 7.888 15.37 7.72C15.066 7.552 14.738 7.468 14.386 7.468C14.034 7.468 13.706 7.552 13.402 7.72C13.106 7.888 12.87 8.14 12.694 8.476C12.518 8.804 12.43 9.208 12.43 9.688C12.43 10.4 12.61 10.952 12.97 11.344C13.338 11.728 13.798 11.92 14.35 11.92ZM20.5024 7.348C20.7024 7.012 20.9664 6.752 21.2944 6.568C21.6304 6.376 22.0264 6.28 22.4824 6.28V7.696H22.1344C21.5984 7.696 21.1904 7.832 20.9104 8.104C20.6384 8.376 20.5024 8.848 20.5024 9.52V13H19.1344V6.388H20.5024V7.348ZM29.7998 9.532C29.7998 9.78 29.7838 10.004 29.7518 10.204H24.6998C24.7398 10.732 24.9358 11.156 25.2878 11.476C25.6398 11.796 26.0718 11.956 26.5838 11.956C27.3198 11.956 27.8398 11.648 28.1438 11.032H29.6198C29.4198 11.64 29.0558 12.14 28.5278 12.532C28.0078 12.916 27.3598 13.108 26.5838 13.108C25.9518 13.108 25.3838 12.968 24.8798 12.688C24.3838 12.4 23.9918 12 23.7038 11.488C23.4238 10.968 23.2838 10.368 23.2838 9.688C23.2838 9.008 23.4198 8.412 23.6918 7.9C23.9718 7.38 24.3598 6.98 24.8558 6.7C25.3598 6.42 25.9358 6.28 26.5838 6.28C27.2078 6.28 27.7638 6.416 28.2518 6.688C28.7398 6.96 29.1198 7.344 29.3918 7.84C29.6638 8.328 29.7998 8.892 29.7998 9.532ZM28.3718 9.1C28.3638 8.596 28.1838 8.192 27.8318 7.888C27.4798 7.584 27.0438 7.432 26.5238 7.432C26.0518 7.432 25.6478 7.584 25.3118 7.888C24.9758 8.184 24.7758 8.588 24.7118 9.1H28.3718Z" fill="#3944B3"/>
<defs>
<clipPath id="clip0_7069_25259">
<rect width="12" height="12" fill="white" transform="translate(34 3.5)"/>
</clipPath>
</defs>
</svg>
