<svg width="62" height="50" viewBox="0 0 62 50" fill="none" xmlns="http://www.w3.org/2000/svg">
<g opacity="0.9">
<path d="M20.6795 2.50999C20.6295 2.94999 20.1895 3.48999 20.1695 3.89999C20.1495 4.31999 20.3095 4.67999 20.7295 4.81999C20.8395 4.85999 20.9995 4.79999 21.0495 4.68999C21.3795 4.02999 22.2095 5.04999 22.4895 5.27999C22.8895 5.60999 23.3695 5.79999 23.8595 5.94999C24.8095 6.24999 26.7095 6.65999 26.4795 8.03999C26.4395 8.28999 26.6595 8.47999 26.8995 8.35999C27.4995 8.04999 28.3195 8.89999 28.8495 9.11999C29.1295 9.23999 29.4395 9.30999 29.7395 9.22999C30.0495 9.14999 30.3295 8.76999 30.6195 8.63999C30.7995 9.06999 31.3295 9.27999 31.8095 9.20999C32.1995 9.15999 32.5395 8.91999 32.8995 8.75999C33.4495 8.52999 33.9395 8.70999 34.4095 9.03999C35.1795 9.59999 35.7895 10.32 36.6395 10.78C37.4295 11.21 38.3095 11.4 39.1795 11.12C39.4295 11.04 39.4395 10.75 39.2495 10.6C38.6895 10.17 38.1595 9.68999 37.6795 9.15999C37.4295 8.88999 37.2095 8.61999 36.9195 8.44999C37.1095 8.26999 37.2995 8.09999 37.5195 7.93999C37.6795 7.81999 37.7195 7.55999 37.5195 7.44999C36.8195 7.06999 36.1195 6.67999 35.4195 6.29999C35.4195 6.00999 35.3095 5.73999 35.0695 5.53999C34.8395 5.33999 34.5495 5.26999 34.2595 5.24999C34.3195 5.02999 34.3095 4.78999 34.2095 4.55999C33.9895 3.99999 33.3895 3.76999 32.8595 3.58999C32.1595 3.34999 31.4695 3.09999 30.7695 2.84999H30.7595C30.4295 2.33999 30.1095 1.93999 29.5195 1.77999C28.9095 1.60999 28.2695 1.69999 27.6595 1.79999H27.6395C27.0295 1.59999 26.3295 1.47999 25.7595 1.83999C25.2295 2.16999 25.0095 2.77999 24.6795 3.27999C24.5095 3.53999 24.2795 3.74999 23.9795 3.82999C23.5395 3.94999 23.4495 3.70999 23.3395 3.33999C23.1595 2.73999 22.6795 2.71999 22.1495 2.66999C21.3895 2.60999 21.9495 1.72999 21.6295 1.25999C21.2495 0.679994 20.1495 1.15999 19.6895 1.38999C19.5895 1.43999 19.5495 1.51999 19.5495 1.59999C19.4595 1.65999 19.4095 1.75999 19.4495 1.89999C19.6095 2.45999 20.2295 2.68999 20.7195 2.48999L20.6795 2.50999Z" fill="#F75847"/>
<path d="M40.2696 25.5998C39.1096 24.7498 39.1196 23.1898 38.0796 22.2698C37.6196 21.8598 37.0496 21.6298 36.5096 21.3498C35.7796 20.9598 35.4496 20.4698 35.2596 19.6698C35.0896 18.9298 34.8596 18.2898 34.3796 17.6898C33.9096 17.0998 33.3396 16.6098 32.7896 16.0998C32.1996 15.5398 31.6896 14.9298 31.3496 14.1898C30.9496 13.3298 30.7496 12.3998 30.5396 11.4798C30.5096 11.3398 30.3296 11.2298 30.1896 11.2798C29.1996 11.6698 29.5196 12.9598 29.5196 13.7898C29.5196 15.1598 29.3096 16.5198 28.8896 17.8198C27.0396 17.7898 25.2996 16.9998 24.0496 15.6298C24.3496 15.2798 24.6096 14.8798 24.5696 14.3998C24.5496 14.1598 24.4396 13.9198 24.2796 13.7498L24.5096 13.6098C24.6796 13.5098 24.7096 13.2098 24.5096 13.1198C24.0096 12.8898 23.5196 12.6598 23.0196 12.4398C22.6396 12.2598 22.2596 12.0498 21.8396 11.9798C21.2996 11.8898 20.7096 12.0398 20.6596 12.6598C20.6596 12.7498 20.6796 12.8198 20.7296 12.8598L20.6396 13.0098C20.0196 12.8298 19.4096 12.9998 18.8196 13.2998C18.2196 13.6098 17.4996 13.9998 17.4696 14.7498C17.4496 15.1998 17.5596 15.5998 17.1696 15.9298C16.8196 16.2198 16.2796 16.1498 15.9896 15.7998C15.7796 15.5398 15.7896 15.1598 15.5296 14.9198C15.3096 14.7198 15.0096 14.6998 14.7396 14.7698C13.1696 15.1598 12.3096 17.0498 11.3696 18.1898C10.2396 19.5598 8.87958 20.7298 7.28958 21.5198C5.38958 22.4698 3.26958 22.8398 1.19958 23.1998C0.949579 23.2398 0.929579 23.5998 1.12958 23.7198C2.06958 24.2698 1.52958 25.0998 1.30958 25.8798C1.11958 26.5598 1.12958 27.2798 1.24958 27.9798C1.51958 29.5598 2.35958 30.9298 2.94958 32.3998C3.23958 33.1398 3.49958 33.9098 3.54958 34.7098C3.57958 35.1098 3.55958 35.4998 3.46958 35.8898C3.38958 36.2298 3.19958 36.5298 3.13958 36.8698C3.05958 37.2798 3.29958 37.5998 3.62958 37.8198C3.85958 37.9698 4.52958 38.1498 4.49958 38.4998C4.47958 38.6898 4.69958 38.8198 4.85958 38.7698C5.65958 38.5498 6.46958 38.3398 7.26958 38.1198C7.64958 38.0198 8.03958 37.9098 8.41958 37.8098C8.95958 37.6698 9.34958 37.7298 9.88958 37.8298C10.4396 37.9298 10.8796 37.7898 11.1796 37.3098C11.3196 37.0898 11.3996 36.8298 11.5396 36.6098C11.7396 36.2798 12.0496 36.1598 12.4196 36.0898C13.0796 35.9698 13.6796 35.8898 14.2996 35.6098C15.0396 35.2798 15.7396 34.8898 16.5196 34.6398C17.9396 34.1798 19.5196 34.0398 20.9496 34.5498C22.3696 35.0498 23.5696 36.1598 23.9596 37.6298C24.0196 37.8398 24.2796 37.8998 24.4396 37.7598C24.7996 37.4198 25.4196 36.5998 25.9596 36.6298C26.6196 36.6598 26.2596 37.5598 26.0796 37.9098C26.0196 38.0198 26.0296 38.1698 26.1196 38.2598C26.7196 38.8098 27.2396 39.4298 27.7496 40.0598C28.0096 40.3898 28.2696 40.7098 28.4296 41.0998C28.5496 41.3998 28.6296 41.6998 28.8296 41.9598C29.5496 42.9098 30.8996 42.6698 31.7696 43.3498C31.8796 43.4398 31.9896 43.4498 32.1196 43.3898C32.4796 43.2298 32.7996 43.0198 33.0896 42.7698C33.8796 43.5198 35.4096 42.9898 36.3096 42.7398C37.0496 42.5398 37.8296 42.3098 38.5096 41.9598C39.0896 41.6598 39.0796 41.1198 38.8796 40.5698C38.2696 38.8998 39.4596 37.5498 40.4196 36.3098C40.8596 35.7398 41.2696 35.1498 41.5096 34.4698C41.7696 33.7298 41.7296 32.9698 41.6496 32.1998C41.5596 31.3398 41.4896 30.5198 41.8496 29.6998C42.1096 29.0998 42.4696 28.5098 42.3996 27.8298C42.2696 26.6898 41.0996 26.1998 40.2796 25.5998H40.2696Z" fill="#F75847"/>
<path d="M35.1593 46.1901C34.7493 46.3501 34.3193 46.4801 34.0393 46.0401C33.8993 45.8201 33.8393 45.6201 33.6493 45.4501C33.6393 45.4101 33.6193 45.3701 33.5893 45.3301C33.2993 44.9801 32.7593 44.9801 32.4193 45.2601C31.8793 45.7001 32.2993 46.4501 32.4993 46.9501C32.8093 47.7201 33.1193 48.5601 33.5793 49.2501C34.0093 49.8901 34.7093 49.5001 35.2893 49.3001C35.8793 49.1001 36.3793 48.7901 36.6293 48.1901C36.8593 47.6401 36.8393 47.0001 36.6093 46.4601C36.3093 45.7701 35.7393 45.9701 35.1593 46.2001V46.1901Z" fill="#F75847"/>
<path d="M60.9724 36.85C60.6824 36.71 60.3924 36.62 60.0724 36.6C59.7024 36.58 59.4224 36.71 59.0724 36.78C58.2924 36.94 58.1324 35.69 57.6224 35.29C57.5324 35.22 57.4224 35.18 57.3324 35.11C57.1224 34.95 57.0524 34.79 56.9624 34.56C56.8624 34.32 56.7124 34.11 56.5224 33.93C56.1024 33.53 55.5624 33.3 55.0324 33.09C55.0024 33.08 54.9824 33.07 54.9524 33.07C54.9024 33.02 54.8324 33 54.7624 33C54.6124 33 54.4824 33.13 54.4824 33.29V33.48C54.4824 33.54 54.5124 33.61 54.5424 33.66C54.5424 33.68 54.5624 33.7 54.5724 33.72C54.9724 34.36 55.3724 35.01 55.7724 35.65C55.9524 35.94 56.1524 36.23 56.2424 36.55C56.3224 36.87 56.2524 37.2 56.2924 37.52C56.3124 37.77 56.4024 37.97 56.5124 38.18C56.5624 38.29 56.7124 38.46 56.7124 38.58C56.6924 38.81 56.4824 38.76 56.3124 38.79C55.9224 38.85 55.6224 39.01 55.5824 39.44C55.5724 39.55 55.6824 39.69 55.7924 39.71C56.0224 39.75 56.2524 39.78 56.4024 39.98C56.5324 40.14 56.5424 40.35 56.6824 40.51C57.0324 40.94 57.3224 41.21 57.1624 41.82C57.1124 42.03 57.3024 42.23 57.5124 42.17C58.0024 42.03 58.4324 41.72 58.6824 41.27C58.8024 41.06 58.8824 40.83 58.9124 40.59C58.9324 40.47 58.9124 40.33 58.9424 40.22C59.0324 39.86 59.1824 39.85 59.4724 39.78C59.8824 39.68 60.4024 39.44 60.3924 38.95C60.3924 38.86 60.3524 38.78 60.3324 38.69C60.2824 38.49 60.3124 38.42 60.4024 38.24C60.5824 37.9 60.8624 37.57 61.0724 37.25C61.1524 37.13 61.1024 36.92 60.9724 36.86V36.85Z" fill="#F75847"/>
<path d="M54.3422 40.7801C54.2822 40.8001 54.2422 40.8401 54.2122 40.8801H54.1922C53.4022 41.5801 53.5522 42.7701 52.7822 43.4801C52.4422 43.7901 52.0322 44.0301 51.7222 44.3701C51.6022 44.5001 51.5022 44.6401 51.4222 44.8001C51.2822 45.0801 51.3122 45.4201 51.0622 45.6301C50.8522 45.8001 50.4922 45.8901 50.2422 46.0101C49.9122 46.1601 49.5722 46.3101 49.2422 46.4601C48.6322 46.7401 47.8822 46.9501 47.3322 47.3401C47.0322 47.5501 46.9022 47.9101 47.0822 48.2401C47.3022 48.6601 47.8022 48.7501 48.2222 48.7001C48.4922 48.6701 48.7622 48.5801 49.0322 48.6601C49.3322 48.7501 49.5622 49.0001 49.8022 49.1901C50.1322 49.4601 50.5522 49.7601 50.9922 49.5701C51.1522 49.5001 51.2522 49.3201 51.4022 49.2601C51.6122 49.1701 51.7322 49.4001 51.9622 49.3901C52.4122 49.3701 52.7122 48.7801 52.8322 48.4201C52.9022 48.2101 52.9322 47.9801 52.9422 47.7601C52.9422 47.4601 52.7222 46.7501 53.2122 46.7001C53.3822 46.6801 53.5422 46.8101 53.7322 46.7601C53.9122 46.7201 54.0422 46.6001 54.1122 46.4301C54.2422 46.1401 54.0322 45.6601 54.1922 45.4201C54.3122 45.2401 54.6322 45.3901 54.8022 45.4101C55.0222 45.4301 55.2322 45.4101 55.4022 45.2501C55.7922 44.8901 55.6222 44.2901 55.5422 43.8501C55.4722 43.4301 55.6022 43.3001 55.8722 43.0001C56.0622 42.7901 56.1722 42.5401 56.2122 42.2701C56.3722 41.2101 55.3322 40.4301 54.3522 40.7801H54.3422Z" fill="#F75847"/>
</g>
</svg>
