<svg width="79" height="79" viewBox="0 0 79 79" fill="none" xmlns="http://www.w3.org/2000/svg">
<path d="M32.6804 78.0898C33.2249 78.1822 33.7411 77.8156 33.8335 77.2711C33.9258 76.7266 33.5592 76.2103 33.0147 76.118L32.6804 78.0898ZM29.3487 2.57546L29.0899 1.60953L29.3487 2.57546ZM63.5829 68.8684L74.6606 65.6098L66.2997 57.6455L63.5829 68.8684ZM33.0147 76.118C24.6499 74.6995 17.0216 70.463 11.3962 64.1118L9.89906 65.4379C15.827 72.1307 23.8656 76.5951 32.6804 78.0898L33.0147 76.118ZM11.3962 64.1118C5.77084 57.7606 2.48664 49.6765 2.08877 41.2016L0.0909776 41.2953C0.510241 50.2261 3.9711 58.745 9.89906 65.4379L11.3962 64.1118ZM2.08877 41.2016C1.69091 32.7266 4.2033 24.3704 9.20892 17.5201L7.5941 16.3401C2.31923 23.5589 -0.328294 32.3645 0.0909776 41.2953L2.08877 41.2016ZM9.20892 17.5201C14.2145 10.6698 21.4123 5.73728 29.6075 3.54138L29.0899 1.60953C20.4539 3.92354 12.869 9.12134 7.5941 16.3401L9.20892 17.5201ZM29.6075 3.54138C37.8027 1.34548 46.5025 2.01824 54.2626 5.44799L55.0711 3.61869C46.8936 0.00447058 37.7259 -0.704479 29.0899 1.60953L29.6075 3.54138ZM54.2626 5.44799C62.0228 8.87773 68.3767 14.8582 72.2696 22.3967L74.0466 21.479C69.9443 13.535 63.2487 7.23291 55.0711 3.61869L54.2626 5.44799ZM72.2696 22.3967C76.1625 29.9351 77.3603 38.5782 75.6642 46.8912L77.6238 47.2911C79.4112 38.5309 78.1489 29.4229 74.0466 21.479L72.2696 22.3967ZM75.6642 46.8912C74.558 52.313 72.2643 57.3816 68.9896 61.7527L70.5902 62.9518C74.041 58.3457 76.4582 53.0044 77.6238 47.2911L75.6642 46.8912Z" fill="#F75847"/>
</svg>
