<svg width="601" height="601" viewBox="0 0 601 601" fill="none" xmlns="http://www.w3.org/2000/svg">
<path opacity="0.7" d="M519.347 200.842C519.347 200.842 552.858 287.386 505.764 374.531C458.67 461.676 361.668 507.713 284.031 547.078C206.394 586.444 125.776 567.272 87.468 502.797C49.1602 438.321 101.7 392.297 101.772 300.356C101.844 208.415 88.0089 184.074 137.832 106.401C187.655 28.7279 309.79 11.5272 402.152 69.1391C494.513 126.751 519.347 200.842 519.347 200.842Z" fill="white"/>
<path d="M370.215 542.39C337.521 562.644 277.337 536.2 254.643 511.92C181.008 433.092 50.6395 299.827 78.9467 164.013C90.9667 106.317 149.071 89.633 172.366 86.3996C228.295 78.6106 285.234 86.8684 340.418 98.8042C398.114 111.281 458.658 129.383 502.688 170.708C519.263 186.31 534.072 204.7 541.765 226.445C549.578 248.537 551.032 272.77 547.054 295.788C540.611 332.93 521.247 366.706 497.687 396.179C474.128 425.652 446.302 451.255 419.882 478.131C402.669 495.669 397.753 525.274 370.215 542.39Z" fill="#F75847"/>
<path opacity="0.7" d="M370.215 542.39C337.521 562.644 277.337 536.2 254.643 511.92C181.008 433.092 50.6395 299.827 78.9467 164.013C90.9667 106.317 149.071 89.633 172.366 86.3996C228.295 78.6106 285.234 86.8684 340.418 98.8042C398.114 111.281 458.658 129.383 502.688 170.708C519.263 186.31 534.072 204.7 541.765 226.445C549.578 248.537 551.032 272.77 547.054 295.788C540.611 332.93 521.247 366.706 497.687 396.179C474.128 425.652 446.302 451.255 419.882 478.131C402.669 495.669 397.753 525.274 370.215 542.39Z" fill="white"/>
<path d="M514.058 181.899H535.273C535.273 181.899 533.158 176.647 516.654 178.389C516.654 178.389 508.433 168.978 496.449 168.978C496.219 166.751 495.25 164.666 493.696 163.054C492.143 161.442 490.095 160.396 487.879 160.083C479.693 158.508 478.106 165.804 478.106 165.804C475.871 164.838 473.462 164.339 471.027 164.339C468.591 164.339 466.182 164.838 463.947 165.804C455.833 169.002 457.48 178.365 457.48 178.365C457.48 178.365 434.065 177.596 430.038 181.899H442.058" stroke="#263238" stroke-linecap="round" stroke-linejoin="round"/>
<path d="M510.367 181.899H506.821" stroke="#263238" stroke-linecap="round" stroke-linejoin="round"/>
<path d="M487.277 181.839H454.859" stroke="#263238" stroke-linecap="round" stroke-linejoin="round"/>
<path d="M333.228 300.103H364.203C364.203 300.103 362.388 295.62 348.313 297.11C348.313 297.11 341.293 289.081 331.076 289.081C330.876 287.18 330.047 285.401 328.721 284.025C327.395 282.649 325.648 281.755 323.756 281.484C316.772 280.15 315.414 286.376 315.414 286.376C313.507 285.551 311.452 285.125 309.374 285.125C307.296 285.125 305.241 285.551 303.334 286.376C296.41 289.105 297.805 297.098 297.805 297.098C297.805 297.098 277.827 296.437 274.402 300.103H281.902" stroke="#263238" stroke-linecap="round" stroke-linejoin="round"/>
<path d="M325.91 299.875H321.475" stroke="#263238" stroke-linecap="round" stroke-linejoin="round"/>
<path d="M335.429 91.0759H366.465C366.465 91.0759 364.65 86.5924 350.574 88.0949C350.574 88.0949 343.567 80.0535 333.338 80.0535C333.139 78.1537 332.31 76.375 330.984 75.0005C329.657 73.6261 327.909 72.7349 326.018 72.4689C319.034 71.1227 317.676 77.349 317.676 77.349C315.777 76.5322 313.732 76.1109 311.666 76.1109C309.599 76.1109 307.554 76.5322 305.656 77.349C298.732 80.0776 300.138 88.0709 300.138 88.0709C300.138 88.0709 280.149 87.4098 276.724 91.0759H284.224" stroke="#263238" stroke-linecap="round" stroke-linejoin="round"/>
<path d="M328.121 90.8477H323.674" stroke="#263238" stroke-linecap="round" stroke-linejoin="round"/>
<path d="M432.803 356.754H510.164C504.394 350.587 470.763 351.681 470.763 351.681C470.763 351.681 473.167 338.243 461.459 333.651C449.752 329.06 441.121 333.651 441.121 333.651C441.121 333.651 438.837 323.17 427.082 325.429C415.326 327.689 414.761 338.207 414.761 338.207C397.537 338.207 385.733 351.741 385.733 351.741C362.03 349.217 358.977 356.766 358.977 356.766H367.619" stroke="#263238" stroke-linecap="round" stroke-linejoin="round"/>
<path d="M374.097 356.754H377.379" stroke="#263238" stroke-linecap="round" stroke-linejoin="round"/>
<path d="M419.414 356.754H408.115" stroke="#263238" stroke-linecap="round" stroke-linejoin="round"/>
<path d="M167.7 171.057H260.254C260.254 171.057 256.42 161.597 226.706 164.758C226.706 164.758 211.897 147.786 190.322 147.786C190.322 147.786 189.6 134.564 174.864 131.763C160.127 128.963 157.267 142.077 157.267 142.077C157.267 142.077 146.376 136.307 131.76 142.077C117.144 147.846 120.101 164.71 120.101 164.71C120.101 164.71 77.9225 163.328 70.6865 171.057H92.0701" stroke="#263238" stroke-linecap="round" stroke-linejoin="round"/>
<path d="M158.855 171.057H150.249" stroke="#263238" stroke-linecap="round" stroke-linejoin="round"/>
<path d="M141.838 380.337H68.0234C68.0234 380.337 71.0765 372.8 94.7799 375.313C94.7799 375.313 106.584 361.778 123.796 361.778C123.796 361.778 124.373 351.261 136.129 349.001C147.884 346.741 150.168 357.222 150.168 357.222C150.168 357.222 158.847 352.619 170.506 357.222C182.165 361.826 179.797 375.252 179.797 375.252C179.797 375.252 213.453 374.147 219.211 380.313H196.878" stroke="#263238" stroke-linecap="round" stroke-linejoin="round"/>
<path d="M190.844 380.337H179.954" stroke="#263238" stroke-linecap="round" stroke-linejoin="round"/>
<path d="M293.469 409.029V350.912H283.889V374.339H274.465V409.377" stroke="#263238" stroke-linecap="round" stroke-linejoin="round"/>
<path d="M255.98 373.786V319.336H236.821V295.729H200.051V304.106H190.844V359.543" stroke="#263238" stroke-linecap="round" stroke-linejoin="round"/>
<path d="M150.25 338.471V284.009H137.917V259.344H133.061V216.949H129.035V237.347L119.142 247.24V271.929H107.831V326.019H97.5423V340.924" stroke="#263238" stroke-linecap="round" stroke-linejoin="round"/>
<path d="M185.398 330.538H175.951V271.352H168.354V186.25H165.481V243.369H158.858V302.904H154.146" stroke="#263238" stroke-linecap="round" stroke-linejoin="round"/>
<path d="M260.26 340.923H268.229V323.326H272.472V340.923H278.41V367.319" stroke="#263238" stroke-linecap="round" stroke-linejoin="round"/>
<path d="M245.402 313.313V271.928H232.481V237.347H228.009V271.928H219.199V290.042" stroke="#263238" stroke-linecap="round" stroke-linejoin="round"/>
<path d="M232.301 319.336H211.735V365.613" stroke="#263238" stroke-linecap="round" stroke-linejoin="round"/>
<path d="M241.097 406.457V378.967H264.512V437.096" stroke="#263238" stroke-linecap="round" stroke-linejoin="round"/>
<path d="M283.89 421.65V413.849H307.833V476.593H314.168" stroke="#263238" stroke-linecap="round" stroke-linejoin="round"/>
<path d="M133.062 302.291H116.884" stroke="#263238" stroke-linecap="round" stroke-linejoin="round"/>
<path d="M133.062 310.825H116.884" stroke="#263238" stroke-linecap="round" stroke-linejoin="round"/>
<path d="M133.062 320.321H118.122" stroke="#263238" stroke-linecap="round" stroke-linejoin="round"/>
<path d="M206.083 300.104H228.008" stroke="#263238" stroke-linecap="round" stroke-linejoin="round"/>
<path d="M248.539 329.348H223.417" stroke="#263238" stroke-linecap="round" stroke-linejoin="round"/>
<path d="M248.539 334.757H223.417" stroke="#263238" stroke-linecap="round" stroke-linejoin="round"/>
<path d="M248.539 340.924H223.417" stroke="#263238" stroke-linecap="round" stroke-linejoin="round"/>
<path d="M169.773 282.698V338.471" stroke="#263238" stroke-linecap="round" stroke-linejoin="round"/>
<path d="M165.48 282.698V338.471" stroke="#263238" stroke-linecap="round" stroke-linejoin="round"/>
<path d="M453.898 199.208C453.898 199.208 441.205 187.549 432.419 188.943C430.952 189.171 438.489 203.523 438.489 203.523L453.898 199.208Z" fill="#F75847"/>
<path opacity="0.5" d="M453.898 199.208C453.898 199.208 441.205 187.549 432.419 188.943C430.952 189.171 438.489 203.523 438.489 203.523L453.898 199.208Z" fill="black" fill-opacity="0.7"/>
<path d="M453.898 199.208C453.898 199.208 441.205 187.549 432.419 188.943C430.952 189.171 438.489 203.523 438.489 203.523L453.898 199.208Z" stroke="#263238" stroke-linecap="round" stroke-linejoin="round"/>
<path d="M337.631 249.836C337.631 249.836 337.15 288.035 335.732 294.406C334.437 299.135 332.516 303.671 330.022 307.893C330.022 307.893 334.157 391.588 332.811 395.458C331.465 399.329 325.743 425.821 325.743 425.821L319.084 527.258H321.488C321.488 527.258 330.551 431.518 330.551 428.682C330.551 425.845 337.679 400.891 337.679 400.891C337.679 400.891 338.629 317.881 337.679 313.145C336.73 308.409 343.256 295.897 343.256 295.897C343.256 295.897 343.172 257.505 345.18 253.694C345.132 253.682 340.961 250.269 337.631 249.836Z" fill="#757575" stroke="#263238" stroke-linecap="round" stroke-linejoin="round"/>
<path d="M432.42 294.406C432.42 294.406 445.33 316.102 441.207 335.274C441.207 335.274 446.123 401.12 448.034 405.399C449.945 409.678 462.771 428.598 466.713 456.147C469.097 472.819 472.713 489.292 477.531 505.429H460.367C460.367 505.429 434.74 424.33 429.487 420.087C424.235 415.844 414.57 387.477 407.743 362.163C407.743 362.163 398.536 407.07 394.87 415.64C391.204 424.21 394.269 448.959 389.028 464.778C383.847 480.404 384.22 505.477 384.22 505.477C384.22 505.477 366.37 509.901 366.539 505.477C367.741 474.875 361.55 448.382 369.207 421.145C372.813 408.428 365.601 334.108 378.751 294.466L432.42 294.406Z" fill="#BFBFBF"/>
<path opacity="0.3" d="M408.113 356.754C408.113 357.619 407.981 359.807 407.825 362.524C414.652 387.766 424.244 415.772 429.461 420.027C434.677 424.282 460.34 505.369 460.34 505.369H477.48C472.662 489.232 469.046 472.759 466.662 456.087C462.756 428.537 449.834 409.666 447.983 405.375C446.132 401.084 441.204 335.358 441.204 335.358C442.194 330.375 442.292 325.255 441.493 320.237C440.579 326.764 436.685 334.866 423.463 336.957C424.271 334.444 424.5 331.781 424.134 329.166C423.767 326.552 422.815 324.054 421.347 321.86C421.347 321.86 423.907 335.358 413.065 341.681C412.584 341.957 412.741 343.869 412.741 343.869C412.741 343.869 408.161 353.617 408.113 356.754Z" fill="black" fill-opacity="0.7"/>
<path opacity="0.3" d="M377.042 299.9C381.429 302.556 390.937 305.657 411.178 304.84C414.51 307.577 417.302 310.912 419.412 314.672L421.347 313.134C421.347 313.134 430.615 318.41 440.688 315.826C438.967 308.325 436.182 301.108 432.418 294.395H378.628C378.087 296.161 377.546 298.001 377.042 299.9Z" fill="black" fill-opacity="0.7"/>
<path d="M432.42 294.406C432.42 294.406 445.33 316.102 441.207 335.274C441.207 335.274 446.123 401.12 448.034 405.399C449.945 409.678 462.771 428.598 466.713 456.147C469.097 472.819 472.713 489.292 477.531 505.429H460.367C460.367 505.429 434.74 424.33 429.487 420.087C424.235 415.844 414.57 387.477 407.743 362.163C407.743 362.163 398.536 407.07 394.87 415.64C391.204 424.21 394.269 448.959 389.028 464.778C383.847 480.404 384.22 505.477 384.22 505.477C384.22 505.477 366.37 509.901 366.539 505.477C367.741 474.875 361.55 448.382 369.207 421.145C372.813 408.428 365.601 334.108 378.751 294.466L432.42 294.406Z" stroke="#263238" stroke-linecap="round" stroke-linejoin="round"/>
<path d="M417.995 311.379C417.995 311.379 426.89 328.363 417.214 338.46C417.214 338.46 404.989 349.939 391.803 347.186" stroke="#263238" stroke-linecap="round" stroke-linejoin="round"/>
<path d="M407.718 362.102C407.718 362.102 408.92 352.847 411.216 348.88C413.512 344.914 412.742 343.832 412.742 343.832C412.742 343.832 423.152 347.041 429.883 344.589" stroke="#263238" stroke-linecap="round" stroke-linejoin="round"/>
<path d="M441.207 335.358C438.85 337.579 436.053 339.28 432.997 340.351C429.94 341.421 426.693 341.838 423.466 341.573" stroke="#263238" stroke-linecap="round" stroke-linejoin="round"/>
<path d="M417.996 193.751C417.034 193.354 369.063 189.772 366.671 184.832C369.025 180.362 370.795 175.607 371.935 170.685C374.931 159.326 379.75 148.528 386.203 138.711L374.183 136.512C366.971 156.777 349.951 174.759 350.251 193.559C350.251 193.559 376.215 211.216 402.647 214.089C410.255 214.894 417.996 193.751 417.996 193.751Z" fill="white" stroke="#263238" stroke-linecap="round" stroke-linejoin="round"/>
<path d="M402.007 180.397C403.634 180.171 405.291 180.488 406.719 181.298C411.599 184.255 410.71 193.078 410.71 193.078L432.418 188.943C427.682 182.056 428.896 166.249 428.896 166.249C408.558 147.186 403.654 164.651 402.452 174.663C402.08 177.488 402.019 179.712 402.007 180.397Z" fill="white" stroke="#263238" stroke-linecap="round" stroke-linejoin="round"/>
<path d="M402.009 180.397C403.636 180.171 405.292 180.487 406.72 181.298C408.459 178.391 409.554 175.145 409.93 171.778L402.417 174.675C402.081 177.488 402.021 179.712 402.009 180.397Z" fill="#263238"/>
<path d="M440.208 133.711C440.208 133.711 442.059 122.893 423.885 121.234C405.711 119.575 389.027 124.588 389.027 137.834C389.027 151.08 399.989 178.437 421.806 166.249C443.622 154.061 440.208 133.711 440.208 133.711Z" fill="#263238"/>
<path d="M429.656 167.751C431.531 165.347 436.483 156.717 437.277 153.424C442.181 133.17 431.099 131.703 422.853 127.605C407.167 119.828 392.899 135.598 394.125 149.637C395.351 163.677 388.728 162.018 389.029 163.953C389.281 165.588 393.488 167.247 393.488 167.247C393.555 168.449 393.519 169.656 393.38 170.853L394.413 171.802C394.954 174.471 396.18 181.202 397.058 181.418C398.813 181.947 408.657 178.509 410.28 174.867" fill="white"/>
<path d="M429.656 167.751C431.531 165.347 436.483 156.717 437.277 153.424C442.181 133.17 431.099 131.703 422.853 127.605C407.167 119.828 392.899 135.598 394.125 149.637C395.351 163.677 388.728 162.018 389.029 163.953C389.281 165.588 393.488 167.247 393.488 167.247C393.555 168.449 393.519 169.656 393.38 170.853L394.413 171.802C394.954 174.471 396.18 181.202 397.058 181.418C398.813 181.947 408.657 178.509 410.28 174.867" stroke="#263238" stroke-linecap="round" stroke-linejoin="round"/>
<path d="M395.639 155.563C395.784 156.585 396.36 157.342 396.925 157.27C397.49 157.198 397.851 156.296 397.719 155.274C397.587 154.253 396.998 153.495 396.421 153.58C395.844 153.664 395.459 154.541 395.639 155.563Z" fill="#263238"/>
<path d="M394.868 147.582C394.868 147.582 397.489 147.137 400.121 149.986" stroke="#263238" stroke-linecap="round" stroke-linejoin="round"/>
<path d="M400.268 127.677C407.48 122.16 447.723 116.487 441.039 148.291C441.929 152.234 439.224 158.881 430.221 169.663C430.221 169.663 425.858 166.249 421.182 169.182C421.182 169.182 418.358 160.432 413.49 158.448C412.437 157.988 411.504 157.293 410.761 156.417C397.876 153.196 396.241 140.971 396.409 136.692C395.64 135.526 394.258 132.221 400.268 127.677Z" fill="#263238"/>
<path d="M432.419 128.614C432.419 128.614 442.9 116.834 455.75 123.409C468.599 129.984 465.161 148.351 458.045 158.267C450.93 168.184 459.656 176.177 456.904 181.574C454.151 186.971 448.345 184.747 448.345 184.747C449.301 184.168 450.109 183.375 450.706 182.43C451.302 181.485 451.671 180.414 451.783 179.302C452.252 175.408 444.439 173.569 444.439 162.547C444.439 151.524 446.963 141.656 437.78 146.247C428.596 150.839 432.419 128.614 432.419 128.614Z" fill="#263238"/>
<path d="M394.4 171.766C394.4 171.766 398.414 171.97 400.121 170.384" stroke="#263238" stroke-linecap="round" stroke-linejoin="round"/>
<g opacity="0.2">
<path d="M432.418 128.615C432.418 128.615 426.167 136.597 433.68 143.208" stroke="white" stroke-linecap="round" stroke-linejoin="round"/>
<path d="M400.263 127.677C400.263 127.677 390.647 138.17 409.879 149.926" stroke="white" stroke-linecap="round" stroke-linejoin="round"/>
<path d="M403.87 125.838C403.87 125.838 400.12 129.444 408.678 136.524C417.236 143.603 423.631 145.443 429.941 145.118" stroke="white" stroke-linecap="round" stroke-linejoin="round"/>
<path d="M435.292 134.793C435.292 134.793 440.833 125.778 449.62 131.956C458.407 138.134 456.507 146.644 451.76 156.417C447.012 166.189 450.233 172.608 450.233 172.608" stroke="white" stroke-linecap="round" stroke-linejoin="round"/>
<path d="M451.95 124.348C451.95 124.348 462.768 124.66 461.939 138.772C461.11 152.883 456.073 152.799 454.967 159.602" stroke="white" stroke-linecap="round" stroke-linejoin="round"/>
<path d="M422.623 156.417C422.623 156.417 433.441 158.821 437.504 149.926" stroke="white" stroke-linecap="round" stroke-linejoin="round"/>
</g>
<path d="M412.189 157.762C412.189 157.762 413.968 151.272 418.679 153.459C423.391 155.647 419.268 161.873 416.936 164.83C416.627 165.31 416.186 165.69 415.665 165.925C415.145 166.159 414.567 166.238 414.003 166.152C413.439 166.065 412.911 165.817 412.485 165.438C412.058 165.058 411.751 164.563 411.6 164.013" fill="white"/>
<path d="M412.189 157.762C412.189 157.762 413.968 151.272 418.679 153.459C423.391 155.647 419.268 161.873 416.936 164.83C416.627 165.31 416.186 165.69 415.665 165.925C415.145 166.159 414.567 166.238 414.003 166.152C413.439 166.065 412.911 165.817 412.485 165.438C412.058 165.058 411.751 164.563 411.6 164.013" stroke="#263238" stroke-linecap="round" stroke-linejoin="round"/>
<path d="M433.922 185.577L434.427 189.243C452.974 206.588 440.726 247.348 429.078 273.383L436.519 296.894C436.519 296.894 404.786 307.46 375.866 299.19L378.63 271.58L381.84 250.016C381.84 250.016 379.195 242.672 378.678 228.38C378.162 214.088 405.074 177.548 433.922 185.577Z" fill="#263238"/>
<path d="M381.034 142.401C381.034 142.401 385.842 144.973 387.897 144.276C387.897 144.276 398.247 144.865 398.535 140.49C396.761 140.182 395.065 139.527 393.544 138.561C392.024 137.596 390.71 136.339 389.676 134.864C387.946 132.46 373.017 132.46 373.894 137.449C374.04 138.252 374.369 139.011 374.857 139.666C375.345 140.321 375.978 140.854 376.707 141.223" fill="white"/>
<path d="M381.034 142.401C381.034 142.401 385.842 144.973 387.897 144.276C387.897 144.276 398.247 144.865 398.535 140.49C396.761 140.182 395.065 139.527 393.544 138.561C392.024 137.596 390.71 136.339 389.676 134.864C387.946 132.46 373.017 132.46 373.894 137.449C374.04 138.252 374.369 139.011 374.857 139.666C375.345 140.321 375.978 140.854 376.707 141.223" stroke="#263238" stroke-linecap="round" stroke-linejoin="round"/>
<path d="M389.688 134.865C387.56 134.528 388.606 135.61 387.091 135.502C385.577 135.394 385.444 134.42 384.339 135.863C383.233 137.305 382.007 135.863 380.865 136.343" fill="white"/>
<path d="M389.688 134.865C387.56 134.528 388.606 135.61 387.091 135.502C385.577 135.394 385.444 134.42 384.339 135.863C383.233 137.305 382.007 135.863 380.865 136.343" stroke="#263238" stroke-linecap="round" stroke-linejoin="round"/>
<path d="M387.91 144.241C387.766 143.039 383.547 140.767 382.441 139.276Z" fill="white"/>
<path d="M387.91 144.241C387.766 143.039 383.547 140.767 382.441 139.276" stroke="#263238" stroke-linecap="round" stroke-linejoin="round"/>
<path d="M391.49 144.24C392.801 142.654 389.772 141.932 386.875 139.096Z" fill="white"/>
<path d="M391.49 144.24C392.801 142.654 389.772 141.932 386.875 139.096" stroke="#263238" stroke-linecap="round" stroke-linejoin="round"/>
<path d="M394.991 143.627C396.625 142.004 395.94 141.427 393.38 140.237C391.969 139.642 390.73 138.704 389.774 137.509" fill="white"/>
<path d="M394.991 143.627C396.625 142.004 395.94 141.427 393.38 140.237C391.969 139.642 390.73 138.704 389.774 137.509" stroke="#263238" stroke-linecap="round" stroke-linejoin="round"/>
<path d="M390.758 495.585C390.758 495.585 380.024 492.099 371.454 495.248L368.785 505.417L363.004 495.585C363.004 495.585 364.939 507.953 363.004 511.74C361.068 515.526 349.541 517.317 347.654 519.781C345.767 522.245 345.154 527.257 345.154 527.257H389.952L386.467 511.74L390.758 495.585Z" fill="#F75847" stroke="#263238" stroke-linecap="round" stroke-linejoin="round"/>
<path d="M480.113 495.585C480.113 495.585 471.699 492.099 463.129 495.248L463.946 505.417L453.501 495.585C453.501 495.585 460.076 507.953 458.14 511.74C456.205 515.526 444.678 517.317 442.791 519.781C440.904 522.245 440.291 527.257 440.291 527.257H485.113L480.474 511.74L480.113 495.585Z" fill="#F75847"/>
<path opacity="0.3" d="M480.113 495.585C480.113 495.585 471.699 492.099 463.129 495.248L463.946 505.417L453.501 495.585C453.501 495.585 460.076 507.953 458.14 511.74C456.205 515.526 444.678 517.317 442.791 519.781C440.904 522.245 440.291 527.257 440.291 527.257H485.113L480.474 511.74L480.113 495.585Z" fill="black" fill-opacity="0.7"/>
<path d="M480.113 495.585C480.113 495.585 471.699 492.099 463.129 495.248L463.946 505.417L453.501 495.585C453.501 495.585 460.076 507.953 458.14 511.74C456.205 515.526 444.678 517.317 442.791 519.781C440.904 522.245 440.291 527.257 440.291 527.257H485.113L480.474 511.74L480.113 495.585Z" stroke="#263238" stroke-linecap="round" stroke-linejoin="round"/>
<path d="M389.941 264.909C389.941 264.909 383.463 256.242 382.309 251.398L380.974 255.605C380.974 255.605 384.4 265.221 389.941 270.21V264.909Z" fill="#BFBFBF" stroke="#263238" stroke-linecap="round" stroke-linejoin="round"/>
<path d="M415.641 269.056C415.641 269.056 406.578 272.47 400.159 270.33C395.932 268.749 392.118 266.23 389.004 262.962L386.913 266.76C386.913 266.76 401.397 292.002 415.641 288.18" fill="#F75847"/>
<path d="M415.641 269.056C415.641 269.056 406.578 272.47 400.159 270.33C395.932 268.749 392.118 266.23 389.004 262.962L386.913 266.76C386.913 266.76 401.397 292.002 415.641 288.18" stroke="#263238" stroke-linecap="round" stroke-linejoin="round"/>
<path d="M414.69 302.291C419.402 314.672 465.054 311.823 473.937 304.863C475.896 303.325 477.711 300.356 479.298 296.605C482.453 288.589 484.574 280.204 485.608 271.652V271.652C485.885 269.428 486.077 267.325 486.161 265.438C486.366 261.207 486.065 258.021 485.164 256.867C481.558 252.288 477.531 247.852 477.531 247.852C477.531 247.852 484.551 210.35 477.531 206.768C471.738 203.311 465.396 200.871 458.78 199.556C448.635 197.765 431.567 192.717 423.922 203.162C423.531 203.712 423.197 204.3 422.924 204.917C415.724 220.194 410.183 290.439 414.69 302.291Z" fill="#F75847"/>
<path opacity="0.3" d="M414.69 302.291C419.402 314.672 465.054 311.823 473.936 304.863C475.896 303.325 477.711 300.356 479.297 296.606C481.797 288.059 484.105 278.191 485.548 271.652C486.449 267.529 487.026 264.741 487.074 264.44C486.843 264.853 486.507 265.197 486.101 265.438C483.949 266.976 477.17 269.849 456.051 271.243C456.051 271.243 471.412 275.51 483.456 270.234C483.456 270.234 479.333 295.091 474.898 299.995C470.463 304.899 450.329 309.034 445.569 306.342C440.809 303.649 444.043 278.383 443.057 275.799C442.071 273.215 438.249 271.063 438.045 270.234C437.84 269.404 437.011 257.276 437.011 257.276C437.011 257.276 466.652 251.194 474.898 251.422C483.144 251.651 471.412 245.785 463.166 246.735C454.921 247.684 438.441 251.194 438.045 251.422C437.648 251.651 441.47 215.17 445.737 209.713C450.005 204.256 440.352 204.496 438.045 213.175C435.833 221.589 430.292 252.12 429.895 254.223C429.991 252.552 431.097 234.63 432.227 227.947C433.369 220.94 433.261 211.708 432.047 210.759C430.833 209.809 424.702 207.381 424.125 206.059C423.819 205.59 423.407 205.199 422.923 204.917C415.724 220.194 410.182 290.439 414.69 302.291Z" fill="black" fill-opacity="0.7"/>
<path d="M414.69 302.291C419.402 314.672 465.054 311.823 473.937 304.863C475.896 303.325 477.711 300.356 479.298 296.605C482.453 288.589 484.574 280.204 485.608 271.652V271.652C485.885 269.428 486.077 267.325 486.161 265.438C486.366 261.207 486.065 258.021 485.164 256.867C481.558 252.288 477.531 247.852 477.531 247.852C477.531 247.852 484.551 210.35 477.531 206.768C471.738 203.311 465.396 200.871 458.78 199.556C448.635 197.765 431.567 192.717 423.922 203.162C423.531 203.712 423.197 204.3 422.924 204.917C415.724 220.194 410.183 290.439 414.69 302.291Z" stroke="#263238" stroke-linecap="round" stroke-linejoin="round"/>
<path d="M438.489 199.004C441.684 196.371 445.529 194.648 449.62 194.015C456.267 193.066 461.977 202.093 461.977 202.093H458.887C458.887 202.093 454.608 193.775 446.05 201.143" fill="#F75847"/>
<path d="M438.489 199.004C441.684 196.371 445.529 194.648 449.62 194.015C456.267 193.066 461.977 202.093 461.977 202.093H458.887C458.887 202.093 454.608 193.775 446.05 201.143" stroke="#263238" stroke-linecap="round" stroke-linejoin="round"/>
<path d="M470.066 205.422C470.066 205.422 452.468 203.992 446.759 208.511C441.049 213.031 438.044 249.836 438.044 249.836C438.044 249.836 464.392 242.516 471.965 246.314" stroke="#263238" stroke-linecap="round" stroke-linejoin="round"/>
<path d="M475.535 237.997C475.535 237.997 480.343 221.169 477.482 216.841C474.621 212.514 456.507 213.235 453.177 216.841C449.848 220.447 449.571 240.617 449.571 240.617C449.571 240.617 465.029 237.155 471.917 238.213" stroke="#263238" stroke-linecap="round" stroke-linejoin="round"/>
<path d="M484.094 266.76C483.144 267.962 449.765 273.9 443.983 270.089" stroke="#263238" stroke-linecap="round" stroke-linejoin="round"/>
<path d="M482.664 260.354C480.26 258.455 456.22 263.202 451.28 263.431C446.34 263.659 437.529 258.202 437.012 257.229C437.012 257.229 430.437 293.132 432.42 300.032C434.404 306.931 439.873 308.109 439.873 308.109" stroke="#263238" stroke-linecap="round" stroke-linejoin="round"/>
<path d="M476.484 297.676C476.484 297.676 475.054 305.753 445.569 308.133" stroke="#263238" stroke-linecap="round" stroke-linejoin="round"/>
<path d="M428.692 267.722C427.49 267.241 418.968 266.34 415.855 264.393C415.594 268.411 415.606 272.443 415.891 276.461C415.891 276.461 425.158 280.067 426.829 279.321C428.5 278.576 429.137 273.372 429.137 273.372" stroke="#263238" stroke-linecap="round" stroke-linejoin="round"/>
<path d="M417.214 277.014C417.214 277.014 416.432 292.315 417.214 294.407C417.995 296.498 426.313 299.575 427.262 299.335C428.212 299.094 429.883 284.358 429.883 284.358" stroke="#263238" stroke-linecap="round" stroke-linejoin="round"/>
<path d="M448.035 203.523C448.035 203.523 439.393 203.523 436.304 209.233C433.214 214.942 429.741 247.889 429.092 249.836" stroke="#263238" stroke-linecap="round" stroke-linejoin="round"/>
<path d="M432.418 199.533C432.418 199.533 413.186 188.979 403.125 192.236C393.064 195.494 389.002 205.663 389.002 205.663C389.002 205.663 392.439 196.167 402.007 196.78C411.575 197.393 425.362 206.901 425.362 206.901" fill="#F75847"/>
<path d="M432.418 199.533C432.418 199.533 413.186 188.979 403.125 192.236C393.064 195.494 389.002 205.663 389.002 205.663C389.002 205.663 392.439 196.167 402.007 196.78C411.575 197.393 425.362 206.901 425.362 206.901" stroke="#263238" stroke-linecap="round" stroke-linejoin="round"/>
<path d="M402.01 196.732C402.01 196.732 391.192 195.83 387.874 200.903C384.557 205.975 387.874 219.161 387.874 219.161C387.874 219.161 385.025 222.527 389.942 224.955C394.858 227.383 408.068 228.705 411.205 223.921C414.342 219.137 412.659 198.727 402.01 196.732Z" fill="#263238"/>
<path d="M388.644 220.111C388.644 220.111 400.087 261.471 396.337 265.51C391.507 265.779 386.721 266.585 382.069 267.914C360.59 273.383 348.413 269.417 348.413 269.417L350.697 281.377C372.213 280.812 393.02 284.718 410.425 277.626C410.425 277.626 417.504 247.047 410.617 221.361C410.617 221.361 408.622 218.788 402.708 218.019C397.916 217.278 393.013 218.007 388.644 220.111Z" fill="white" stroke="#263238" stroke-linecap="round" stroke-linejoin="round"/>
<path d="M351.742 281.412C347.655 284.093 341.741 279.886 336.272 280.403C330.803 280.919 333.448 265.257 333.448 265.257C333.448 265.257 340.287 261.988 342.294 261.255C344.302 260.522 347.295 265.053 353.617 270.871" fill="white"/>
<path d="M351.742 281.412C347.655 284.093 341.741 279.886 336.272 280.403C330.803 280.919 333.448 265.257 333.448 265.257C333.448 265.257 340.287 261.988 342.294 261.255C344.302 260.522 347.295 265.053 353.617 270.871" stroke="#263238" stroke-linecap="round" stroke-linejoin="round"/>
<path d="M431.66 189.087C425.616 188.556 419.526 189.015 413.63 190.445" stroke="white" stroke-linecap="round" stroke-linejoin="round"/>
<path d="M411.602 223.164C411.602 223.164 413.453 220.459 411.602 219.161C411.602 219.161 416.987 215.014 416.218 210.747" stroke="white" stroke-linecap="round" stroke-linejoin="round"/>
<path d="M386.396 213.885L386.912 219.162C386.912 219.162 384.256 220.856 389.004 223.164" stroke="white" stroke-linecap="round" stroke-linejoin="round"/>
<path d="M384.147 251.398C384.147 251.398 389.844 255.714 393.102 255.004" stroke="white" stroke-linecap="round" stroke-linejoin="round"/>
<path d="M407.695 293C407.695 293 394.065 300.921 379.641 297.676" stroke="white" stroke-linecap="round" stroke-linejoin="round"/>
<path d="M340.648 266.76C338.079 267.103 335.539 267.642 333.052 268.37" stroke="#263238" stroke-linecap="round" stroke-linejoin="round"/>
<path d="M340.648 271.749C340.648 271.749 334.482 271.749 332.811 271.929" stroke="#263238" stroke-linecap="round" stroke-linejoin="round"/>
<path d="M340.648 275.775C340.648 275.775 332.896 275.547 333.052 276.328" stroke="#263238" stroke-linecap="round" stroke-linejoin="round"/>
<path d="M481.234 521.885C481.234 521.885 469.142 520.683 462.712 523.303" stroke="#263238" stroke-linecap="round" stroke-linejoin="round"/>
<path d="M478.395 510.598C478.395 510.598 471.735 509.059 468.166 510.598" stroke="#263238" stroke-linecap="round" stroke-linejoin="round"/>
<path d="M458.141 511.74C458.141 511.74 456.506 514.745 456.939 516.885" stroke="#263238" stroke-linecap="round" stroke-linejoin="round"/>
<path d="M442.793 519.781C445.695 520.069 448.618 520.069 451.52 519.781" stroke="#263238" stroke-linecap="round" stroke-linejoin="round"/>
<path d="M363.004 511.74C363.004 511.74 358.581 516.885 358.581 518.315" stroke="#263238" stroke-linecap="round" stroke-linejoin="round"/>
<path d="M347.629 519.781C349.741 520.172 351.899 520.253 354.035 520.022" stroke="#263238" stroke-linecap="round" stroke-linejoin="round"/>
<path d="M386.852 523.303C386.852 523.303 373.305 521.164 365.216 523.303" stroke="#263238" stroke-linecap="round" stroke-linejoin="round"/>
<path d="M383.523 511.74C383.523 511.74 376.864 511.945 374.004 510.262" stroke="#263238" stroke-linecap="round" stroke-linejoin="round"/>
<path d="M413.065 354.975C413.065 354.975 420.385 399.04 429.893 409.497C429.893 409.497 442.25 443.67 447.166 452.769C452.082 461.868 458.152 491.041 458.152 491.041" stroke="#263238" stroke-linecap="round" stroke-linejoin="round"/>
<path d="M448.035 405.435C448.035 405.435 443.516 398.848 438.419 405.435" stroke="#263238" stroke-linecap="round" stroke-linejoin="round"/>
<path d="M390.457 412.287C390.457 412.287 388.269 400.675 378.762 410.183" stroke="#263238" stroke-linecap="round" stroke-linejoin="round"/>
<path d="M378.762 304.106C378.762 304.106 373.136 328.291 374.086 341.633C374.086 341.633 370.913 391.552 371.862 405.435" stroke="#263238" stroke-linecap="round" stroke-linejoin="round"/>
<path d="M366.609 184.832C366.609 184.832 360.708 187.801 357.222 185.157" stroke="#263238" stroke-linecap="round" stroke-linejoin="round"/>
<path d="M161.512 492.135C161.512 492.135 164.036 465.57 158.904 440.978C153.771 416.385 163.712 413.476 167.823 420.219C171.934 426.962 173.268 449.295 173.268 449.295C173.268 449.295 175.335 426.662 178.893 415.122C184.11 398.21 189.711 385.325 197.151 389.135C205.794 393.535 185.708 423.993 181.754 459.645C181.754 459.645 197.933 442.985 205.686 427.455C213.439 411.925 222.85 421.361 215.939 435.268C209.027 449.175 192.56 454.26 183.485 469.008C183.485 469.008 206.142 455.498 210.722 463.683C213.306 468.299 204.087 469.273 199.976 470.27C179.999 475.078 170.744 495.837 170.744 495.837L161.512 492.135Z" fill="#F75847" stroke="#263238" stroke-linecap="round" stroke-linejoin="round"/>
<path opacity="0.2" d="M161.512 492.135C161.512 492.135 164.036 465.57 158.904 440.978C153.771 416.385 163.712 413.476 167.823 420.219C171.934 426.962 173.268 449.295 173.268 449.295C173.268 449.295 175.335 426.662 178.893 415.122C184.11 398.21 189.711 385.325 197.151 389.135C205.794 393.535 185.708 423.993 181.754 459.645C181.754 459.645 197.933 442.985 205.686 427.455C213.439 411.925 222.85 421.361 215.939 435.268C209.027 449.175 192.56 454.26 183.485 469.008C183.485 469.008 206.142 455.498 210.722 463.683C213.306 468.299 204.087 469.273 199.976 470.27C179.999 475.078 170.744 495.837 170.744 495.837L161.512 492.135Z" fill="black" fill-opacity="0.7" stroke="#263238" stroke-miterlimit="10"/>
<path d="M162.448 459.933C162.448 459.933 161.114 435.737 169.936 415.688C178.759 395.638 170.886 394.052 166.162 399.088C161.438 404.124 157.832 430.064 157.832 430.064C157.832 430.064 153.685 406.817 155.573 390.734C157.46 374.651 157.328 365.612 150.704 365.612C142.29 365.612 144.226 404.966 151.065 428.549C151.065 428.549 140.247 411.408 136.473 396.756C132.699 382.104 122.938 388.45 126.328 401.564C129.718 414.678 142.819 421.998 147.892 436.218C147.892 436.218 131.064 420.592 125.619 426.746C122.578 430.22 130.27 432.756 133.6 434.307C149.767 442.047 153.914 461.412 153.914 461.412L162.448 459.933Z" fill="#F75847" stroke="#263238" stroke-linecap="round" stroke-linejoin="round"/>
<path d="M165.477 414.69C157.976 431.602 157.543 456.279 157.543 456.279C157.543 456.279 147.687 407.25 150.163 386.563" stroke="#263238" stroke-linecap="round" stroke-linejoin="round"/>
<path d="M133.061 404.966C133.061 404.966 144.072 428.188 154.145 437.095" stroke="#263238" stroke-linecap="round" stroke-linejoin="round"/>
<path d="M133.06 429.992C133.06 429.992 151.667 442.012 156.234 449.296" stroke="#263238" stroke-linecap="round" stroke-linejoin="round"/>
<path d="M178.049 489.563C178.049 489.563 192.257 469.982 195.647 448.346C199.036 426.71 206.525 429.655 207.799 436.422C209.073 443.19 198.075 466.977 198.075 466.977C198.075 466.977 214.133 449.548 221.165 435.052C228.197 420.556 233.257 412.959 238.835 416.541C245.95 421.109 223.028 453.154 204.529 469.297C204.529 469.297 222.86 460.703 233.978 450.438C245.097 440.173 249.857 450.762 239.988 459.97C230.12 469.177 215.071 468.239 203.111 477.471C203.111 477.471 225.757 473.444 226.971 481.534C227.656 486.101 219.843 484.046 216.153 483.589C198.375 481.365 184.432 495.417 184.432 495.417L178.049 489.563Z" fill="#F75847" stroke="#263238" stroke-linecap="round" stroke-linejoin="round"/>
<path d="M199.965 449.849C197.128 468.143 184.159 489.13 184.159 489.13C184.159 489.13 218.945 453.214 228.008 434.487" stroke="#263238" stroke-linecap="round" stroke-linejoin="round"/>
<path d="M232.477 459.164C232.477 459.164 210.672 472.759 197.378 474.79" stroke="#263238" stroke-linecap="round" stroke-linejoin="round"/>
<path d="M218.957 480.247C218.957 480.247 196.84 480.247 189.039 483.973" stroke="#263238" stroke-linecap="round" stroke-linejoin="round"/>
<path d="M126.305 405.375C126.305 405.375 108.203 406.805 107.457 420.16C107.457 420.16 125.776 428.586 126.305 405.375Z" fill="#F75847" stroke="#263238" stroke-linecap="round" stroke-linejoin="round"/>
<path d="M90.5078 408.681C90.5078 408.681 80.399 395.014 64.0638 402.022C64.0638 402.034 74.0404 418.561 90.5078 408.681Z" fill="#F75847" stroke="#263238" stroke-linecap="round" stroke-linejoin="round"/>
<path d="M65.4497 365.54C65.4497 365.54 62.5048 391.852 86.4727 384.64C86.4727 384.64 78.876 365.264 65.4497 365.54Z" fill="#F75847" stroke="#263238" stroke-linecap="round" stroke-linejoin="round"/>
<path d="M94.8361 350.912C94.8361 350.912 75.9046 361.117 89.8237 376.599C89.8237 376.599 103.094 365.54 94.8361 350.912Z" fill="#F75847" stroke="#263238" stroke-linecap="round" stroke-linejoin="round"/>
<path d="M118.121 374.399C118.121 374.399 97.5429 372.319 97.5429 391.371C97.5429 391.371 118.121 392.188 118.121 374.399Z" fill="#F75847" stroke="#263238" stroke-linecap="round" stroke-linejoin="round"/>
<path d="M98.7204 447.348C98.7204 447.348 108.096 427.659 99.093 407.598C90.0901 387.537 87.073 370.661 91.7488 358.761" stroke="#263238" stroke-linecap="round" stroke-linejoin="round"/>
<path d="M111.363 379.52C111.363 379.52 99.0308 384.424 94.8358 397.129" stroke="#263238" stroke-linecap="round" stroke-linejoin="round"/>
<path d="M71.9516 376.058C71.9516 376.058 79.0795 385.77 91.1836 384.724" stroke="#263238" stroke-linecap="round" stroke-linejoin="round"/>
<path d="M71.9517 404.822C71.9517 404.822 91.7005 410.52 99.5977 408.657" stroke="#263238" stroke-linecap="round" stroke-linejoin="round"/>
<path d="M120.402 411.385C120.402 411.385 111.58 421.073 102.697 420.917" stroke="#263238" stroke-linecap="round" stroke-linejoin="round"/>
<path d="M241.422 473.949C241.422 473.949 257.144 477.796 255.846 489.659C255.906 489.659 238.561 494.467 241.422 473.949Z" fill="#F75847" stroke="#263238" stroke-linecap="round" stroke-linejoin="round"/>
<path d="M272.467 482.002C272.467 482.002 283.285 471.413 296.699 479.923C296.699 479.899 285.557 493.025 272.467 482.002Z" fill="#F75847" stroke="#263238" stroke-linecap="round" stroke-linejoin="round"/>
<path d="M300.691 447.565C300.691 447.565 299.489 471.136 279.452 461.34C279.452 461.34 288.912 445.402 300.691 447.565Z" fill="#F75847" stroke="#263238" stroke-linecap="round" stroke-linejoin="round"/>
<path d="M276.905 430.473C276.905 430.473 292.087 442.168 277.663 453.815C277.663 453.815 267.542 442.18 276.905 430.473Z" fill="#F75847" stroke="#263238" stroke-linecap="round" stroke-linejoin="round"/>
<path d="M253.044 447.842C253.044 447.842 271.459 448.948 268.742 465.728C268.742 465.728 250.496 463.504 253.044 447.842Z" fill="#F75847" stroke="#263238" stroke-linecap="round" stroke-linejoin="round"/>
<path d="M259.714 514.853C259.714 514.853 254.257 496.174 265.051 479.803C275.845 463.432 280.941 448.984 278.501 437.829" stroke="#263238" stroke-linecap="round" stroke-linejoin="round"/>
<path d="M258.261 453.311C258.261 453.311 268.43 459.393 270.281 471.184" stroke="#263238" stroke-linecap="round" stroke-linejoin="round"/>
<path d="M293.457 455.895C293.457 455.895 285.8 463.431 275.319 460.787" stroke="#263238" stroke-linecap="round" stroke-linejoin="round"/>
<path d="M289.355 481.233C289.355 481.233 271.157 483.421 264.51 480.656" stroke="#263238" stroke-linecap="round" stroke-linejoin="round"/>
<path d="M245.749 480.091C245.749 480.091 252.143 489.875 259.98 491.005" stroke="#263238" stroke-linecap="round" stroke-linejoin="round"/>
<path d="M508.82 527.257C431.52 527.678 353.39 527.678 276.462 527.678C274.058 527.678 272.856 525.274 271.654 524.072C265.644 514.456 259.634 506.042 251.22 498.83C244.008 498.83 236.796 498.83 230.786 496.426C219.968 491.618 209.15 490.416 198.332 485.608C191.12 482.002 181.504 477.194 181.504 468.78C180.302 462.77 174.292 460.366 170.686 456.76C169.484 455.558 169.484 454.356 168.282 453.154C165.878 450.75 163.474 448.346 161.07 448.346C152.723 449.742 144.288 450.545 135.828 450.75C131.885 452.06 124.541 455.762 120.658 453.827C118.435 452.709 112.244 444.331 111.848 442.324C110.826 436.482 104.876 433.056 99.5514 430.436C98.1691 429.751 96.4142 429.102 95.2001 430.039C93.9861 430.977 94.1063 432.443 93.3491 433.501C92.0509 435.352 89.2743 435.16 87.0866 434.547C84.899 433.934 82.4589 433.104 80.5117 434.258C79.1174 435.088 78.4322 436.662 77.4706 438.009C76.1211 439.831 74.164 441.11 71.9534 441.615C71.1962 441.783 70.3308 441.915 69.9101 442.564" stroke="#263238" stroke-linecap="round" stroke-linejoin="round"/>
<path d="M133.062 473.948C127.93 474.333 120.49 470.883 120.405 471.184C120.321 471.484 111.366 472.566 111.366 472.566C111.366 472.566 99.5026 475.944 97.5434 473.948C95.5841 471.953 89.5381 473.323 84.7181 472.878C79.898 472.434 74.9819 476.34 74.9819 476.34C74.9819 476.34 66.4717 483.636 65.3659 483.973C64.26 484.309 55.6777 486.822 52.3482 489.129" stroke="#263238" stroke-linecap="round" stroke-linejoin="round"/>
<path d="M276.461 527.678H256.027C256.027 527.678 242.805 520.862 236.026 521.608C229.246 522.353 223.465 527.257 223.465 527.257H211.781L197.429 529.06H187.958" stroke="#263238" stroke-linecap="round" stroke-linejoin="round"/>
<path d="M139.819 497.917C142.667 494.779 154.579 494.118 156.238 491.125C157.897 488.132 168.342 494.984 169.772 493.926C171.203 492.868 178.727 494.767 179.953 498.337C181.179 501.907 180.578 502.556 185.398 504.347" stroke="#263238" stroke-linecap="round" stroke-linejoin="round"/>
<path d="M63.4806 455.69C64.3902 454.892 65.5523 454.441 66.7619 454.417C67.9715 454.393 69.1508 454.797 70.0916 455.557C70.3635 455.817 70.6526 456.058 70.957 456.279C71.8264 456.657 72.7792 456.802 73.7216 456.699C75.8561 456.75 77.9173 457.488 79.5994 458.803C80.098 459.288 80.6858 459.671 81.3303 459.933C81.7249 460.024 82.1275 460.076 82.5323 460.089C83.5937 460.229 84.6004 460.643 85.4531 461.291" stroke="#263238" stroke-linecap="round" stroke-linejoin="round"/>
<path d="M126.789 528.158C121.56 530.466 115.106 528.435 111.163 524.264C108.038 520.934 105.502 515.982 100.934 515.79C99.732 515.79 98.53 516.054 97.328 516.066C94.6235 516.066 92.1835 514.612 89.6713 513.662C87.1591 512.713 84.0219 512.196 81.9905 513.975C80.6443 515.177 80.0793 517.088 78.6129 518.122C77.1464 519.155 75.2593 518.999 73.5284 519.324C71.7976 519.648 69.9224 521.055 70.283 522.785" stroke="#263238" stroke-linecap="round" stroke-linejoin="round"/>
</svg>