<svg width="24" height="25" viewBox="0 0 24 25" fill="none" xmlns="http://www.w3.org/2000/svg">
<g clip-path="url(#clip0_7426_19945)">
<path d="M15 12.5L10.5 9.5V15.5L15 12.5Z" stroke="#FE0000" stroke-width="1.6" stroke-linecap="round" stroke-linejoin="round"/>
<path d="M2.25 12.4997C2.25 15.2934 2.54062 16.9247 2.75625 17.7684C2.81571 17.9974 2.92813 18.2091 3.08447 18.3866C3.2408 18.5641 3.43666 18.7024 3.65625 18.7903C6.79688 19.9903 12 19.9622 12 19.9622C12 19.9622 17.2031 19.9903 20.3438 18.7903C20.5633 18.7024 20.7592 18.5641 20.9155 18.3866C21.0719 18.2091 21.1843 17.9974 21.2438 17.7684C21.4594 16.9247 21.75 15.2934 21.75 12.4997C21.75 9.70592 21.4594 8.07467 21.2438 7.23092C21.1843 7.00198 21.0719 6.79022 20.9155 6.61272C20.7592 6.43522 20.5633 6.29694 20.3438 6.20904C17.2031 5.00904 12 5.03717 12 5.03717C12 5.03717 6.79688 5.00904 3.65625 6.20904C3.43666 6.29694 3.2408 6.43522 3.08447 6.61272C2.92813 6.79022 2.81571 7.00198 2.75625 7.23092C2.54062 8.07467 2.25 9.70592 2.25 12.4997Z" stroke="#FE0000" stroke-width="1.6" stroke-linecap="round" stroke-linejoin="round"/>
</g>
<defs>
<clipPath id="clip0_7426_19945">
<rect width="24" height="24" fill="white" transform="translate(0 0.5)"/>
</clipPath>
</defs>
</svg>
