<svg width="24" height="25" viewBox="0 0 24 25" fill="none" xmlns="http://www.w3.org/2000/svg">
<g clip-path="url(#clip0_7426_19940)">
<path d="M11.9986 8.74936C11.9986 6.68686 13.7329 4.97124 15.7954 4.99936C16.5177 5.0077 17.2222 5.22448 17.8243 5.62362C18.4263 6.02277 18.9003 6.5873 19.1892 7.24936H22.4986L19.4704 10.2775C19.275 13.3193 17.9285 16.1725 15.7047 18.257C13.4808 20.3415 10.5466 21.5009 7.49855 21.4994C4.49855 21.4994 3.74855 20.3744 3.74855 20.3744C3.74855 20.3744 6.74855 19.2494 8.24855 16.9994C8.24855 16.9994 2.24855 13.9994 3.74855 5.74936C3.74855 5.74936 7.49855 9.49936 11.9986 10.2494V8.74936Z" stroke="#02ABFE" stroke-width="1.6" stroke-linecap="round" stroke-linejoin="round"/>
</g>
<defs>
<clipPath id="clip0_7426_19940">
<rect width="24" height="24" fill="white" transform="translate(0 0.5)"/>
</clipPath>
</defs>
</svg>
