<svg width="20" height="20" viewBox="0 0 20 20" fill="none" xmlns="http://www.w3.org/2000/svg">
<g clip-path="url(#clip0_6505_28328)">
<mask id="mask0_6505_28328" style="mask-type:alpha" maskUnits="userSpaceOnUse" x="0" y="0" width="20" height="20">
<rect width="20" height="20" fill="#D9D9D9"/>
</mask>
<g mask="url(#mask0_6505_28328)">
<path d="M15.8327 15.833H6.66602C6.20768 15.833 5.81546 15.67 5.48935 15.3438C5.16268 15.0172 4.99935 14.6247 4.99935 14.1663V2.49967C4.99935 2.04134 5.16268 1.64884 5.48935 1.32217C5.81546 0.996063 6.20768 0.833008 6.66602 0.833008H12.4993L17.4993 5.83301V14.1663C17.4993 14.6247 17.3363 15.0172 17.0102 15.3438C16.6835 15.67 16.291 15.833 15.8327 15.833ZM11.666 6.66634V2.49967H6.66602V14.1663H15.8327V6.66634H11.666ZM3.33268 19.1663C2.87435 19.1663 2.48213 19.0033 2.15602 18.6772C1.82935 18.3505 1.66602 17.958 1.66602 17.4997V5.83301H3.33268V17.4997H12.4993V19.1663H3.33268Z" fill="white"/>
</g>
</g>
<defs>
<clipPath id="clip0_6505_28328">
<rect width="20" height="20" fill="white"/>
</clipPath>
</defs>
</svg>