<svg width="30" height="30" viewBox="0 0 14 15" fill="none" xmlns="http://www.w3.org/2000/svg">
<path d="M6.82541 8.93011C7.17879 8.93011 7.46527 8.64364 7.46527 8.29025C7.46527 7.93687 7.17879 7.65039 6.82541 7.65039C6.47202 7.65039 6.18555 7.93687 6.18555 8.29025C6.18555 8.64364 6.47202 8.93011 6.82541 8.93011Z" fill="#3F4249"/>
<path d="M11.0916 5.09111H9.17207V3.59811C9.17207 2.97587 8.92488 2.37911 8.48489 1.93913C8.0449 1.49914 7.44815 1.25195 6.82591 1.25195C6.20367 1.25195 5.60692 1.49914 5.16693 1.93913C4.72694 2.37911 4.47976 2.97587 4.47976 3.59811V5.09111H2.56018C2.33391 5.09111 2.11691 5.181 1.95691 5.34099C1.79692 5.50099 1.70703 5.71799 1.70703 5.94426V11.9163C1.70703 12.1426 1.79692 12.3596 1.95691 12.5196C2.11691 12.6796 2.33391 12.7694 2.56018 12.7694H11.0916C11.3179 12.7694 11.5349 12.6796 11.6949 12.5196C11.8549 12.3596 11.9448 12.1426 11.9448 11.9163V5.94426C11.9448 5.71799 11.8549 5.50099 11.6949 5.34099C11.5349 5.181 11.3179 5.09111 11.0916 5.09111ZM7.25249 9.71944V10.6366C7.25249 10.7497 7.20754 10.8582 7.12755 10.9382C7.04755 11.0182 6.93905 11.0631 6.82591 11.0631C6.71278 11.0631 6.60428 11.0182 6.52428 10.9382C6.44428 10.8582 6.39934 10.7497 6.39934 10.6366V9.71944C6.05566 9.61697 5.76035 9.39423 5.56741 9.09193C5.37446 8.78963 5.29677 8.42799 5.34855 8.07312C5.40032 7.71825 5.5781 7.39388 5.84937 7.15931C6.12065 6.92474 6.46729 6.79566 6.82591 6.79566C7.18454 6.79566 7.53118 6.92474 7.80245 7.15931C8.07373 7.39388 8.2515 7.71825 8.30328 8.07312C8.35505 8.42799 8.27736 8.78963 8.08442 9.09193C7.89147 9.39423 7.59616 9.61697 7.25249 9.71944ZM8.31892 5.09111H5.33291V3.59811C5.33291 3.20214 5.4902 2.82238 5.7702 2.54239C6.05019 2.2624 6.42994 2.1051 6.82591 2.1051C7.22188 2.1051 7.60163 2.2624 7.88163 2.54239C8.16162 2.82238 8.31892 3.20214 8.31892 3.59811V5.09111Z" fill="#3F4249"/>
</svg>
