<svg width="18" height="18" viewBox="0 0 18 18" fill="none" xmlns="http://www.w3.org/2000/svg">
<g opacity="0.8">
<path d="M10.5742 14.8772V11.5022C10.5742 11.353 10.515 11.2099 10.4095 11.1044C10.304 10.9989 10.1609 10.9397 10.0117 10.9397H7.76172C7.61253 10.9397 7.46946 10.9989 7.36397 11.1044C7.25848 11.2099 7.19922 11.353 7.19922 11.5022V14.8772C7.19922 15.0263 7.13996 15.1694 7.03447 15.2749C6.92898 15.3804 6.7859 15.4397 6.63672 15.4397H3.26172C3.11253 15.4397 2.96946 15.3804 2.86397 15.2749C2.75848 15.1694 2.69922 15.0263 2.69922 14.8772V8.37326C2.70048 8.29541 2.7173 8.21861 2.7487 8.14736C2.78009 8.07612 2.82543 8.01187 2.88203 7.95841L8.50703 2.8467C8.61073 2.75183 8.74618 2.69922 8.88672 2.69922C9.02726 2.69922 9.16271 2.75183 9.26641 2.8467L14.8914 7.95841C14.948 8.01187 14.9933 8.07612 15.0247 8.14736C15.0561 8.21861 15.073 8.29541 15.0742 8.37326V14.8772C15.0742 15.0263 15.015 15.1694 14.9095 15.2749C14.804 15.3804 14.6609 15.4397 14.5117 15.4397H11.1367C10.9875 15.4397 10.8445 15.3804 10.739 15.2749C10.6335 15.1694 10.5742 15.0263 10.5742 14.8772Z" stroke="white" stroke-linecap="round" stroke-linejoin="round"/>
</g>
</svg>
