<svg width="94" height="56" viewBox="0 0 94 56" fill="none" xmlns="http://www.w3.org/2000/svg">
<path d="M2.18261 46.1274V50.9376H4.36522C4.66435 50.9376 4.94573 50.8761 5.20937 50.7532C5.47301 50.6247 5.70369 50.4515 5.90142 50.2336C6.09914 50.0157 6.25378 49.7615 6.36532 49.471C6.48193 49.1749 6.54023 48.8621 6.54023 48.5325C6.54023 48.2028 6.48193 47.8928 6.36532 47.6023C6.25378 47.3062 6.09914 47.0492 5.90142 46.8313C5.70369 46.6134 5.47301 46.443 5.20937 46.3201C4.94573 46.1916 4.66435 46.1274 4.36522 46.1274H2.18261ZM2.18261 55.7393H0V43.7223H4.36522C4.76575 43.7223 5.15107 43.781 5.52117 43.8983C5.89128 44.01 6.23603 44.172 6.55544 44.3843C6.87992 44.591 7.17397 44.8424 7.43761 45.1385C7.70632 45.429 7.93447 45.7531 8.12205 46.1106C8.31471 46.4682 8.46174 46.8509 8.56314 47.2587C8.66961 47.6665 8.72284 48.0911 8.72284 48.5325C8.72284 49.1917 8.60877 49.8146 8.38062 50.4012C8.15247 50.9822 7.84067 51.4906 7.44522 51.9264C7.04976 52.3622 6.58586 52.7058 6.05352 52.9572C5.52624 53.2086 4.96348 53.3343 4.36522 53.3343H2.18261V55.7393Z" fill="#3741A8"/>
<path d="M22.4021 55.7393H14.9265V43.7223H22.4021V46.1274H17.1091V48.5325H20.691V50.9376H17.1091V53.3343H22.4021V55.7393Z" fill="#3741A8"/>
<path d="M31.0317 46.1274V50.9376H33.2143C33.5134 50.9376 33.7948 50.8761 34.0584 50.7532C34.3221 50.6247 34.5527 50.4515 34.7505 50.2336C34.9482 50.0157 35.1028 49.7615 35.2144 49.471C35.331 49.1749 35.3893 48.8621 35.3893 48.5325C35.3893 48.2028 35.331 47.8928 35.2144 47.6023C35.1028 47.3062 34.9482 47.0492 34.7505 46.8313C34.5527 46.6134 34.3221 46.443 34.0584 46.3201C33.7948 46.1916 33.5134 46.1274 33.2143 46.1274H31.0317ZM31.0317 55.7393H28.8491V43.7223H33.2143C33.6148 43.7223 34.0001 43.781 34.3702 43.8983C34.7403 44.01 35.0851 44.172 35.4045 44.3843C35.729 44.591 36.023 44.8424 36.2867 45.1385C36.5554 45.429 36.7835 45.7531 36.9711 46.1106C37.1638 46.4682 37.3108 46.8509 37.4122 47.2587C37.5187 47.6665 37.5719 48.0911 37.5719 48.5325C37.5719 48.9459 37.5237 49.3481 37.4274 49.7392C37.3362 50.1303 37.2018 50.5018 37.0243 50.8538C36.852 51.2057 36.639 51.5297 36.3855 51.8258C36.132 52.1219 35.8481 52.3789 35.5338 52.5968L36.743 55.7393H34.4235L33.4729 53.3175L31.0317 53.3343V55.7393Z" fill="#3741A8"/>
<path d="M46.1102 55.7393H43.9276V43.7223H51.563V46.1274H46.1102V48.5325H49.3803V50.9376H46.1102V55.7393Z" fill="#3741A8"/>
<path d="M65.0825 55.7393H57.6069V43.7223H65.0825V46.1274H59.7895V48.5325H63.3714V50.9376H59.7895V53.3343H65.0825V55.7393Z" fill="#3741A8"/>
<path d="M79.9633 54.5075C79.4563 54.9879 78.8885 55.3567 78.2598 55.6136C77.6311 55.8706 76.9797 55.9991 76.3054 55.9991C75.7882 55.9991 75.2888 55.9237 74.8072 55.7729C74.3306 55.6276 73.8819 55.4209 73.4611 55.1527C73.0454 54.879 72.6651 54.5522 72.3204 54.1723C71.9756 53.7924 71.679 53.3734 71.4306 52.9153C71.1872 52.4516 70.9971 51.9571 70.8602 51.432C70.7284 50.9012 70.6625 50.3509 70.6625 49.7811C70.6625 49.2113 70.7284 48.661 70.8602 48.1302C70.9971 47.5995 71.1872 47.1051 71.4306 46.6469C71.679 46.1832 71.9756 45.7614 72.3204 45.3815C72.6651 45.0017 73.0454 44.6776 73.4611 44.4095C73.8819 44.1357 74.3306 43.9262 74.8072 43.781C75.2888 43.6301 75.7882 43.5547 76.3054 43.5547C76.9797 43.5547 77.6311 43.6832 78.2598 43.9402C78.8885 44.1916 79.4563 44.5603 79.9633 45.0463L78.8074 47.1414C78.488 46.7615 78.1103 46.471 77.6742 46.2698C77.2382 46.0631 76.7819 45.9598 76.3054 45.9598C75.8237 45.9598 75.3725 46.0603 74.9517 46.2615C74.5309 46.4626 74.1633 46.7363 73.849 47.0827C73.5346 47.4235 73.2862 47.8285 73.1037 48.2978C72.9212 48.7615 72.8299 49.2559 72.8299 49.7811C72.8299 50.3063 72.9212 50.8007 73.1037 51.2644C73.2862 51.7225 73.5346 52.1247 73.849 52.4711C74.1633 52.8175 74.5309 53.0912 74.9517 53.2924C75.3725 53.4935 75.8237 53.594 76.3054 53.594C76.7819 53.594 77.2382 53.4935 77.6742 53.2924C78.1103 53.0857 78.488 52.7923 78.8074 52.4124L79.9633 54.5075Z" fill="#3741A8"/>
<path d="M90.7299 55.7393H88.5549V46.1274H85.2772V43.7223H94V46.1274H90.7299V55.7393Z" fill="#3741A8"/>
<path fill-rule="evenodd" clip-rule="evenodd" d="M7.80832 23.0566H16.7388C18.5327 23.0566 19.9871 24.5183 19.9871 26.3214V26.9238L19.9855 27.0276C19.9309 28.7825 18.4983 30.1886 16.7388 30.1886H7.80832V23.0566ZM7.80832 11.1697H15.7465C17.3411 11.1697 18.6339 12.4691 18.6339 14.0717V14.6075L18.6322 14.7071C18.5797 16.2637 17.3079 17.5095 15.7465 17.5095H7.80832V11.1697ZM30.9736 20.8974L30.9749 20.759C31.0483 16.7522 34.3026 13.527 38.3065 13.527C42.3566 13.527 45.6398 16.8268 45.6398 20.8974V21.0425L45.6385 21.1822C45.5643 25.2683 42.2458 28.5576 38.1621 28.5576H30.9736V20.8974ZM87.282 10.3729C87.282 10.3729 73.2051 29.013 61.6391 28.4625C57.9739 28.0355 55.1272 24.9095 55.1272 21.1111V21.0014L55.1285 20.8617C55.2028 16.7756 58.5217 13.4859 62.6049 13.4859H69.8635V20.6449L77.1096 14.6616L77.3177 10.3658L77.6363 6.1543H60.8626C56.7437 6.1543 53.0865 8.14212 50.7888 11.2154C48.4915 8.14212 44.8343 6.1543 40.715 6.1543H35.7062C31.568 6.1543 27.8961 8.16068 25.6009 11.2584C25.1438 10.1278 24.3753 9.14658 23.2944 8.31508C21.4224 6.87484 18.5862 6.1543 14.7863 6.1543H0V36.1066H15.6123C16.1571 36.1066 16.6839 36.0927 17.1922 36.064V36.1066H29.9054L29.9049 36.0784L40.715 36.0788C44.828 36.0788 48.4806 34.0969 50.7787 31.032C53.0755 34.1129 56.7374 36.1066 60.8626 36.1066H65.0441C71.174 36.1066 76.2806 31.7045 77.4055 25.8743L84.1906 34.3449H93.1827L82.1964 20.299L87.8994 9.57603L87.282 10.3729Z" fill="url(#paint0_linear_6953_21347)"/>
<path fill-rule="evenodd" clip-rule="evenodd" d="M91.9852 17.2328L93.9997 0L79.6953 9.40098L88.3509 9.21929L91.9852 17.2328Z" fill="#F75847"/>
<defs>
<linearGradient id="paint0_linear_6953_21347" x1="10.0757" y1="3.23106" x2="10.0757" y2="36.1066" gradientUnits="userSpaceOnUse">
<stop stop-color="#F77A47"/>
<stop offset="1" stop-color="#F74947"/>
<stop offset="1" stop-color="#F74947"/>
</linearGradient>
</defs>
</svg>
