<svg width="815" height="167" viewBox="0 0 815 167" fill="none" xmlns="http://www.w3.org/2000/svg">
<path d="M59.592 155.416C59.592 154.328 59.8427 153.352 60.344 152.488C60.856 151.624 61.544 150.952 62.408 150.472C63.2827 149.981 64.2373 149.736 65.272 149.736C66.456 149.736 67.5067 150.029 68.424 150.616C69.352 151.192 70.024 152.013 70.44 153.08H68.248C67.96 152.493 67.56 152.056 67.048 151.768C66.536 151.48 65.944 151.336 65.272 151.336C64.536 151.336 63.88 151.501 63.304 151.832C62.728 152.163 62.2747 152.637 61.944 153.256C61.624 153.875 61.464 154.595 61.464 155.416C61.464 156.237 61.624 156.957 61.944 157.576C62.2747 158.195 62.728 158.675 63.304 159.016C63.88 159.347 64.536 159.512 65.272 159.512C65.944 159.512 66.536 159.368 67.048 159.08C67.56 158.792 67.96 158.355 68.248 157.768H70.44C70.024 158.835 69.352 159.656 68.424 160.232C67.5067 160.808 66.456 161.096 65.272 161.096C64.2267 161.096 63.272 160.856 62.408 160.376C61.544 159.885 60.856 159.208 60.344 158.344C59.8427 157.48 59.592 156.504 59.592 155.416ZM71.967 156.552C71.967 155.667 72.1483 154.883 72.511 154.2C72.8843 153.517 73.3857 152.989 74.015 152.616C74.655 152.232 75.359 152.04 76.127 152.04C76.8203 152.04 77.423 152.179 77.935 152.456C78.4577 152.723 78.8737 153.059 79.183 153.464V152.184H81.023V161H79.183V159.688C78.8737 160.104 78.4523 160.451 77.919 160.728C77.3857 161.005 76.7777 161.144 76.095 161.144C75.3377 161.144 74.6443 160.952 74.015 160.568C73.3857 160.173 72.8843 159.629 72.511 158.936C72.1483 158.232 71.967 157.437 71.967 156.552ZM79.183 156.584C79.183 155.976 79.055 155.448 78.799 155C78.5537 154.552 78.2283 154.211 77.823 153.976C77.4177 153.741 76.9803 153.624 76.511 153.624C76.0417 153.624 75.6043 153.741 75.199 153.976C74.7937 154.2 74.463 154.536 74.207 154.984C73.9617 155.421 73.839 155.944 73.839 156.552C73.839 157.16 73.9617 157.693 74.207 158.152C74.463 158.611 74.7937 158.963 75.199 159.208C75.615 159.443 76.0523 159.56 76.511 159.56C76.9803 159.56 77.4177 159.443 77.823 159.208C78.2283 158.973 78.5537 158.632 78.799 158.184C79.055 157.725 79.183 157.192 79.183 156.584ZM85.2428 153.464C85.5094 153.016 85.8614 152.669 86.2988 152.424C86.7468 152.168 87.2748 152.04 87.8828 152.04V153.928H87.4188C86.7041 153.928 86.1601 154.109 85.7868 154.472C85.4241 154.835 85.2428 155.464 85.2428 156.36V161H83.4188V152.184H85.2428V153.464Z" fill="#0E123D"/>
<path d="M281.744 149.88V151.368H277.024V154.648H280.704V156.136H277.024V161H275.2V149.88H281.744ZM285.258 149.16V161H283.434V149.16H285.258ZM288.581 151.016C288.25 151.016 287.973 150.904 287.749 150.68C287.525 150.456 287.413 150.179 287.413 149.848C287.413 149.517 287.525 149.24 287.749 149.016C287.973 148.792 288.25 148.68 288.581 148.68C288.901 148.68 289.173 148.792 289.397 149.016C289.621 149.24 289.733 149.517 289.733 149.848C289.733 150.179 289.621 150.456 289.397 150.68C289.173 150.904 288.901 151.016 288.581 151.016ZM289.477 152.184V161H287.653V152.184H289.477ZM295.424 152.04C296.107 152.04 296.709 152.179 297.232 152.456C297.765 152.723 298.181 153.059 298.48 153.464V152.184H300.32V161.144C300.32 161.955 300.149 162.675 299.808 163.304C299.467 163.944 298.971 164.445 298.32 164.808C297.68 165.171 296.912 165.352 296.016 165.352C294.821 165.352 293.829 165.069 293.04 164.504C292.251 163.949 291.803 163.192 291.696 162.232H293.504C293.643 162.691 293.936 163.059 294.384 163.336C294.843 163.624 295.387 163.768 296.016 163.768C296.752 163.768 297.344 163.544 297.792 163.096C298.251 162.648 298.48 161.997 298.48 161.144V159.672C298.171 160.088 297.749 160.44 297.216 160.728C296.693 161.005 296.096 161.144 295.424 161.144C294.656 161.144 293.952 160.952 293.312 160.568C292.683 160.173 292.181 159.629 291.808 158.936C291.445 158.232 291.264 157.437 291.264 156.552C291.264 155.667 291.445 154.883 291.808 154.2C292.181 153.517 292.683 152.989 293.312 152.616C293.952 152.232 294.656 152.04 295.424 152.04ZM298.48 156.584C298.48 155.976 298.352 155.448 298.096 155C297.851 154.552 297.525 154.211 297.12 153.976C296.715 153.741 296.277 153.624 295.808 153.624C295.339 153.624 294.901 153.741 294.496 153.976C294.091 154.2 293.76 154.536 293.504 154.984C293.259 155.421 293.136 155.944 293.136 156.552C293.136 157.16 293.259 157.693 293.504 158.152C293.76 158.611 294.091 158.963 294.496 159.208C294.912 159.443 295.349 159.56 295.808 159.56C296.277 159.56 296.715 159.443 297.12 159.208C297.525 158.973 297.851 158.632 298.096 158.184C298.352 157.725 298.48 157.192 298.48 156.584ZM307.276 152.04C307.948 152.04 308.545 152.184 309.068 152.472C309.601 152.76 310.017 153.187 310.316 153.752C310.625 154.317 310.78 155 310.78 155.8V161H308.972V156.072C308.972 155.283 308.774 154.68 308.38 154.264C307.985 153.837 307.446 153.624 306.764 153.624C306.081 153.624 305.537 153.837 305.132 154.264C304.737 154.68 304.54 155.283 304.54 156.072V161H302.716V149.16H304.54V153.208C304.849 152.835 305.238 152.547 305.708 152.344C306.188 152.141 306.71 152.04 307.276 152.04ZM315.234 153.672V158.552C315.234 158.883 315.309 159.123 315.458 159.272C315.618 159.411 315.885 159.48 316.258 159.48H317.378V161H315.938C315.117 161 314.488 160.808 314.05 160.424C313.613 160.04 313.394 159.416 313.394 158.552V153.672H312.354V152.184H313.394V149.992H315.234V152.184H317.378V153.672H315.234Z" fill="#0E123D"/>
<path d="M507.08 149.88V161H505.256V156.136H500.024V161H498.2V149.88H500.024V154.648H505.256V149.88H507.08ZM513.305 161.144C512.473 161.144 511.721 160.957 511.049 160.584C510.377 160.2 509.849 159.667 509.465 158.984C509.081 158.291 508.889 157.491 508.889 156.584C508.889 155.688 509.087 154.893 509.481 154.2C509.876 153.507 510.415 152.973 511.097 152.6C511.78 152.227 512.543 152.04 513.385 152.04C514.228 152.04 514.991 152.227 515.673 152.6C516.356 152.973 516.895 153.507 517.289 154.2C517.684 154.893 517.881 155.688 517.881 156.584C517.881 157.48 517.679 158.275 517.273 158.968C516.868 159.661 516.313 160.2 515.609 160.584C514.916 160.957 514.148 161.144 513.305 161.144ZM513.305 159.56C513.775 159.56 514.212 159.448 514.617 159.224C515.033 159 515.369 158.664 515.625 158.216C515.881 157.768 516.009 157.224 516.009 156.584C516.009 155.944 515.887 155.405 515.641 154.968C515.396 154.52 515.071 154.184 514.665 153.96C514.26 153.736 513.823 153.624 513.353 153.624C512.884 153.624 512.447 153.736 512.041 153.96C511.647 154.184 511.332 154.52 511.097 154.968C510.863 155.405 510.745 155.944 510.745 156.584C510.745 157.533 510.985 158.269 511.465 158.792C511.956 159.304 512.569 159.56 513.305 159.56ZM521.812 153.672V158.552C521.812 158.883 521.887 159.123 522.036 159.272C522.196 159.411 522.463 159.48 522.836 159.48H523.956V161H522.516C521.695 161 521.066 160.808 520.628 160.424C520.191 160.04 519.972 159.416 519.972 158.552V153.672H518.932V152.184H519.972V149.992H521.812V152.184H523.956V153.672H521.812ZM533.718 156.376C533.718 156.707 533.696 157.005 533.654 157.272H526.918C526.971 157.976 527.232 158.541 527.702 158.968C528.171 159.395 528.747 159.608 529.43 159.608C530.411 159.608 531.104 159.197 531.51 158.376H533.477C533.211 159.187 532.726 159.853 532.022 160.376C531.328 160.888 530.464 161.144 529.43 161.144C528.587 161.144 527.83 160.957 527.158 160.584C526.496 160.2 525.974 159.667 525.59 158.984C525.216 158.291 525.03 157.491 525.03 156.584C525.03 155.677 525.211 154.883 525.574 154.2C525.947 153.507 526.464 152.973 527.126 152.6C527.798 152.227 528.566 152.04 529.43 152.04C530.262 152.04 531.003 152.221 531.654 152.584C532.304 152.947 532.811 153.459 533.174 154.12C533.536 154.771 533.718 155.523 533.718 156.376ZM531.814 155.8C531.803 155.128 531.563 154.589 531.094 154.184C530.624 153.779 530.043 153.576 529.35 153.576C528.72 153.576 528.182 153.779 527.734 154.184C527.286 154.579 527.019 155.117 526.934 155.8H531.814ZM537.337 149.16V161H535.513V149.16H537.337Z" fill="#0E123D"/>
<path d="M719.152 155.288C719.749 155.395 720.256 155.709 720.672 156.232C721.088 156.755 721.296 157.347 721.296 158.008C721.296 158.573 721.147 159.085 720.848 159.544C720.56 159.992 720.139 160.349 719.584 160.616C719.029 160.872 718.384 161 717.648 161H713.2V149.88H717.44C718.197 149.88 718.848 150.008 719.392 150.264C719.936 150.52 720.347 150.867 720.624 151.304C720.901 151.731 721.04 152.211 721.04 152.744C721.04 153.384 720.869 153.917 720.528 154.344C720.187 154.771 719.728 155.085 719.152 155.288ZM715.024 154.552H717.28C717.877 154.552 718.341 154.419 718.672 154.152C719.013 153.875 719.184 153.48 719.184 152.968C719.184 152.467 719.013 152.077 718.672 151.8C718.341 151.512 717.877 151.368 717.28 151.368H715.024V154.552ZM717.488 159.512C718.107 159.512 718.592 159.363 718.944 159.064C719.296 158.765 719.472 158.349 719.472 157.816C719.472 157.272 719.285 156.84 718.912 156.52C718.539 156.2 718.043 156.04 717.424 156.04H715.024V159.512H717.488ZM731.262 152.184V161H729.438V159.96C729.15 160.323 728.771 160.611 728.302 160.824C727.843 161.027 727.353 161.128 726.83 161.128C726.137 161.128 725.513 160.984 724.958 160.696C724.414 160.408 723.982 159.981 723.662 159.416C723.353 158.851 723.198 158.168 723.198 157.368V152.184H725.006V157.096C725.006 157.885 725.203 158.493 725.598 158.92C725.993 159.336 726.531 159.544 727.214 159.544C727.897 159.544 728.435 159.336 728.83 158.92C729.235 158.493 729.438 157.885 729.438 157.096V152.184H731.262ZM738.117 152.04C738.81 152.04 739.429 152.184 739.973 152.472C740.527 152.76 740.959 153.187 741.269 153.752C741.578 154.317 741.733 155 741.733 155.8V161H739.925V156.072C739.925 155.283 739.727 154.68 739.333 154.264C738.938 153.837 738.399 153.624 737.717 153.624C737.034 153.624 736.49 153.837 736.085 154.264C735.69 154.68 735.493 155.283 735.493 156.072V161H733.669V152.184H735.493V153.192C735.791 152.829 736.17 152.547 736.629 152.344C737.098 152.141 737.594 152.04 738.117 152.04ZM743.451 156.552C743.451 155.667 743.633 154.883 743.995 154.2C744.369 153.517 744.87 152.989 745.499 152.616C746.139 152.232 746.849 152.04 747.627 152.04C748.203 152.04 748.769 152.168 749.323 152.424C749.889 152.669 750.337 153 750.667 153.416V149.16H752.507V161H750.667V159.672C750.369 160.099 749.953 160.451 749.419 160.728C748.897 161.005 748.294 161.144 747.611 161.144C746.843 161.144 746.139 160.952 745.499 160.568C744.87 160.173 744.369 159.629 743.995 158.936C743.633 158.232 743.451 157.437 743.451 156.552ZM750.667 156.584C750.667 155.976 750.539 155.448 750.283 155C750.038 154.552 749.713 154.211 749.307 153.976C748.902 153.741 748.465 153.624 747.995 153.624C747.526 153.624 747.089 153.741 746.683 153.976C746.278 154.2 745.947 154.536 745.691 154.984C745.446 155.421 745.323 155.944 745.323 156.552C745.323 157.16 745.446 157.693 745.691 158.152C745.947 158.611 746.278 158.963 746.683 159.208C747.099 159.443 747.537 159.56 747.995 159.56C748.465 159.56 748.902 159.443 749.307 159.208C749.713 158.973 750.038 158.632 750.283 158.184C750.539 157.725 750.667 157.192 750.667 156.584ZM756.727 149.16V161H754.903V149.16H756.727ZM767.202 156.376C767.202 156.707 767.181 157.005 767.138 157.272H760.402C760.455 157.976 760.717 158.541 761.186 158.968C761.655 159.395 762.231 159.608 762.914 159.608C763.895 159.608 764.589 159.197 764.994 158.376H766.962C766.695 159.187 766.21 159.853 765.506 160.376C764.813 160.888 763.949 161.144 762.914 161.144C762.071 161.144 761.314 160.957 760.642 160.584C759.981 160.2 759.458 159.667 759.074 158.984C758.701 158.291 758.514 157.491 758.514 156.584C758.514 155.677 758.695 154.883 759.058 154.2C759.431 153.507 759.949 152.973 760.61 152.6C761.282 152.227 762.05 152.04 762.914 152.04C763.746 152.04 764.487 152.221 765.138 152.584C765.789 152.947 766.295 153.459 766.658 154.12C767.021 154.771 767.202 155.523 767.202 156.376ZM765.298 155.8C765.287 155.128 765.047 154.589 764.578 154.184C764.109 153.779 763.527 153.576 762.834 153.576C762.205 153.576 761.666 153.779 761.218 154.184C760.77 154.579 760.503 155.117 760.418 155.8H765.298Z" fill="#F75847"/>
<rect opacity="0.5" x="555.369" y="9.94727" width="105" height="105" rx="30" transform="rotate(75 555.369 9.94727)" fill="#F7ECFF"/>
<rect x="518.246" y="0.707107" width="104" height="104" rx="29.5" transform="rotate(45 518.246 0.707107)" fill="#F7ECFF" stroke="white"/>
<rect opacity="0.1" x="777.369" y="9.94727" width="105" height="105" rx="30" transform="rotate(75 777.369 9.94727)" fill="#F96254"/>
<rect x="740.246" y="0.707107" width="104" height="104" rx="29.5" transform="rotate(45 740.246 0.707107)" fill="#F96254" stroke="white"/>
<rect opacity="0.5" x="333.369" y="9.94727" width="105" height="105" rx="30" transform="rotate(75 333.369 9.94727)" fill="#E2F4FE"/>
<rect x="296.246" y="0.707107" width="104" height="104" rx="29.5" transform="rotate(45 296.246 0.707107)" fill="#E2F4FE" stroke="white"/>
<rect opacity="0.5" x="111.369" y="9.94727" width="105" height="105" rx="30" transform="rotate(75 111.369 9.94727)" fill="#C6FFE0"/>
<rect x="74.2461" y="0.707107" width="104" height="104" rx="29.5" transform="rotate(45 74.2461 0.707107)" fill="#DBFCEA" stroke="white"/>
<mask id="mask0_7016_24323" style="mask-type:alpha" maskUnits="userSpaceOnUse" x="50" y="50" width="48" height="48">
<rect x="50" y="50" width="48" height="48" fill="#D9D9D9"/>
</mask>
<g mask="url(#mask0_7016_24323)">
<path d="M66.05 64.1C64.35 64.1 62.9167 63.5167 61.75 62.35C60.5833 61.1833 60 59.75 60 58.05C60 56.35 60.5833 54.9167 61.75 53.75C62.9167 52.5833 64.35 52 66.05 52C67.45 52 68.6833 52.45 69.75 53.35C70.8167 54.25 71.55 55.3833 71.95 56.75H88V59.75H86V64.1H83V59.75H71.95C71.5833 61.05 70.85 62.1 69.75 62.9C68.65 63.7 67.4167 64.1 66.05 64.1ZM66.05 61.1C66.9167 61.1 67.6417 60.8083 68.225 60.225C68.8083 59.6417 69.1 58.9167 69.1 58.05C69.1 57.1833 68.8083 56.4583 68.225 55.875C67.6417 55.2917 66.9167 55 66.05 55C65.1833 55 64.4583 55.2917 63.875 55.875C63.2917 56.4583 63 57.1833 63 58.05C63 58.9167 63.2917 59.6417 63.875 60.225C64.4583 60.8083 65.1833 61.1 66.05 61.1ZM66.25 84.85C66.6833 84.85 67.0417 84.7083 67.325 84.425C67.6083 84.1417 67.75 83.7833 67.75 83.35C67.75 82.9167 67.6083 82.5583 67.325 82.275C67.0417 81.9917 66.6833 81.85 66.25 81.85C65.8167 81.85 65.4583 81.9917 65.175 82.275C64.8917 82.5583 64.75 82.9167 64.75 83.35C64.75 83.7833 64.8917 84.1417 65.175 84.425C65.4583 84.7083 65.8167 84.85 66.25 84.85ZM81.75 84.85C82.1833 84.85 82.5417 84.7083 82.825 84.425C83.1083 84.1417 83.25 83.7833 83.25 83.35C83.25 82.9167 83.1083 82.5583 82.825 82.275C82.5417 81.9917 82.1833 81.85 81.75 81.85C81.3167 81.85 80.9583 81.9917 80.675 82.275C80.3917 82.5583 80.25 82.9167 80.25 83.35C80.25 83.7833 80.3917 84.1417 80.675 84.425C80.9583 84.7083 81.3167 84.85 81.75 84.85ZM60 79.2L63.3 69.6C63.4667 69.1333 63.7417 68.75 64.125 68.45C64.5083 68.15 64.9333 68 65.4 68H82.6C83.0667 68 83.4917 68.15 83.875 68.45C84.2583 68.75 84.5333 69.1333 84.7 69.6L88 79.2V92.8C88 93.1333 87.8917 93.4167 87.675 93.65C87.4583 93.8833 87.1667 94 86.8 94H86.2C85.8667 94 85.5833 93.8833 85.35 93.65C85.1167 93.4167 85 93.1333 85 92.8V89.6H63V92.8C63 93.1333 62.8917 93.4167 62.675 93.65C62.4583 93.8833 62.1667 94 61.8 94H61.2C60.8667 94 60.5833 93.8833 60.35 93.65C60.1167 93.4167 60 93.1333 60 92.8V79.2ZM63.85 77.1H84.2L82.15 71H65.85L63.85 77.1ZM63 86.6H85V80.1H63V86.6Z" fill="#74C497"/>
</g>
<mask id="mask1_7016_24323" style="mask-type:alpha" maskUnits="userSpaceOnUse" x="272" y="50" width="48" height="48">
<rect x="272" y="50" width="48" height="48" fill="#D9D9D9"/>
</mask>
<g mask="url(#mask1_7016_24323)">
<path d="M279 90C278.133 90 277.417 89.7167 276.85 89.15C276.283 88.5833 276 87.8667 276 87V79.35C277.233 79.0833 278.258 78.4583 279.075 77.475C279.892 76.4917 280.3 75.3333 280.3 74C280.3 72.6667 279.892 71.5 279.075 70.5C278.258 69.5 277.233 68.8833 276 68.65V61C276 60.1333 276.283 59.4167 276.85 58.85C277.417 58.2833 278.133 58 279 58H313C313.867 58 314.583 58.2833 315.15 58.85C315.717 59.4167 316 60.1333 316 61V87C316 87.8667 315.717 88.5833 315.15 89.15C314.583 89.7167 313.867 90 313 90H279ZM279 87H313V61H279V66.45C280.3 67.3167 281.342 68.4 282.125 69.7C282.908 71 283.3 72.4333 283.3 74C283.3 75.5667 282.908 77 282.125 78.3C281.342 79.6 280.3 80.6833 279 81.55V87ZM289.4 81.75L307.8 76.7C308.367 76.5333 308.783 76.2667 309.05 75.9C309.317 75.5333 309.367 75.0667 309.2 74.5C309.033 73.9333 308.733 73.5417 308.3 73.325C307.867 73.1083 307.383 73.0667 306.85 73.2L301.7 74.55L293.4 66.45L290.8 67.05L295.95 76.1L290.4 77.65L287.8 75.5L286.35 76L289.4 81.75Z" fill="#69ACD0"/>
</g>
<mask id="mask2_7016_24323" style="mask-type:alpha" maskUnits="userSpaceOnUse" x="716" y="50" width="48" height="48">
<rect x="716" y="50" width="48" height="48" fill="#D9D9D9"/>
</mask>
<g mask="url(#mask2_7016_24323)">
<path d="M735 70.6L740 68.1L745 70.6V59H735V70.6ZM730 84V80H740V84H730ZM725 92C724.2 92 723.5 91.7 722.9 91.1C722.3 90.5 722 89.8 722 89V59C722 58.2 722.3 57.5 722.9 56.9C723.5 56.3 724.2 56 725 56H755C755.8 56 756.5 56.3 757.1 56.9C757.7 57.5 758 58.2 758 59V89C758 89.8 757.7 90.5 757.1 91.1C756.5 91.7 755.8 92 755 92H725ZM725 89H755V59H748V75.45L740 71.45L732 75.45V59H725V89Z" fill="white"/>
</g>
<mask id="mask3_7016_24323" style="mask-type:alpha" maskUnits="userSpaceOnUse" x="494" y="50" width="48" height="48">
<rect x="494" y="50" width="48" height="48" fill="#D9D9D9"/>
</mask>
<g mask="url(#mask3_7016_24323)">
<path d="M503 83.9H506.2V80.75H529.8V83.9H533V75.1C533 74.5 532.775 73.8583 532.325 73.175C531.875 72.4917 531.3 71.9667 530.6 71.6V68.2C530.6 67.1333 530.292 66.2917 529.675 65.675C529.058 65.0583 528.217 64.75 527.15 64.75H520.35C519.817 64.75 519.35 64.8333 518.95 65C518.55 65.1667 518.217 65.4167 517.95 65.75C517.683 65.4167 517.35 65.1667 516.95 65C516.55 64.8333 516.083 64.75 515.55 64.75H508.85C507.783 64.75 506.942 65.0583 506.325 65.675C505.708 66.2917 505.4 67.1333 505.4 68.2V71.6C504.7 71.9667 504.125 72.4917 503.675 73.175C503.225 73.8583 503 74.5 503 75.1V83.9ZM506.2 78.25V76.15C506.2 75.5167 506.375 75.025 506.725 74.675C507.075 74.325 507.567 74.15 508.2 74.15H527.8C528.433 74.15 528.925 74.325 529.275 74.675C529.625 75.025 529.8 75.5167 529.8 76.15V78.25H506.2ZM507.9 71.65V67.25H516.75V71.65H507.9ZM519.25 71.65V67.25H528.1V71.65H519.25ZM501 94C500.2 94 499.5 93.7 498.9 93.1C498.3 92.5 498 91.8 498 91V57C498 56.2 498.3 55.5 498.9 54.9C499.5 54.3 500.2 54 501 54H535C535.8 54 536.5 54.3 537.1 54.9C537.7 55.5 538 56.2 538 57V91C538 91.8 537.7 92.5 537.1 93.1C536.5 93.7 535.8 94 535 94H501ZM501 91H535V57H501V91Z" fill="#B987E1"/>
</g>
<path d="M174 74H196" stroke="#C4C5D7" stroke-width="2" stroke-linecap="round" stroke-linejoin="round"/>
<path d="M185 63V85" stroke="#C4C5D7" stroke-width="2" stroke-linecap="round" stroke-linejoin="round"/>
<path d="M396 74H418" stroke="#C4C5D7" stroke-width="2" stroke-linecap="round" stroke-linejoin="round"/>
<path d="M407 63V85" stroke="#C4C5D7" stroke-width="2" stroke-linecap="round" stroke-linejoin="round"/>
<path d="M618 78H640" stroke="#C4C5D7" stroke-width="2" stroke-linecap="round" stroke-linejoin="round"/>
<path d="M618 70H640" stroke="#C4C5D7" stroke-width="2" stroke-linecap="round" stroke-linejoin="round"/>
</svg>
