<svg width="161" height="161" viewBox="0 0 161 161" fill="none" xmlns="http://www.w3.org/2000/svg">
<g clip-path="url(#clip0_9077_46111)">
<path d="M121.717 49.1247C116.706 46.3812 111.487 45.28 105.79 45.9852C98.774 46.8514 93.2324 47.8721 86.5187 45.2575C80.8741 43.0614 75.7188 39.7835 70.335 37.0658C59.3226 31.4791 48.3907 29.7499 40.1346 40.7688C35.7425 46.6324 32.4066 53.3654 30.1043 60.4687C26.382 71.9287 23.323 84.6187 25.0006 96.5875C27.1226 111.76 40.1346 118.883 55.7001 113.386C61.9952 111.164 68.0713 107.912 74.785 106.982C88.8339 105.03 100.413 117.93 117.26 114.793C146.298 109.397 144.153 61.409 121.717 49.1247Z" fill="#92E3A9"/>
<path opacity="0.7" d="M121.717 49.1247C116.706 46.3812 111.487 45.28 105.79 45.9852C98.774 46.8514 93.2324 47.8721 86.5187 45.2575C80.8741 43.0614 75.7188 39.7835 70.335 37.0658C59.3226 31.4791 48.3907 29.7499 40.1346 40.7688C35.7425 46.6324 32.4066 53.3654 30.1043 60.4687C26.382 71.9287 23.323 84.6187 25.0006 96.5875C27.1226 111.76 40.1346 118.883 55.7001 113.386C61.9952 111.164 68.0713 107.912 74.785 106.982C88.8339 105.03 100.413 117.93 117.26 114.793C146.298 109.397 144.153 61.409 121.717 49.1247Z" fill="white"/>
<path d="M126.111 36.7632C124.067 35.6458 123.139 36.5764 122.396 35.6458C121.652 34.7153 124.44 32.3003 118.854 29.8853C118.854 29.8853 118.483 24.6817 110.862 24.495C103.24 24.3082 105.294 29.6985 103.249 30.9994C101.205 32.3003 100.648 30.2684 98.603 31.5564C96.5583 32.8444 97.4889 35.4591 95.8177 35.8294C94.1465 36.1997 91.9118 34.1582 89.8671 35.4591C87.8224 36.76 87.8224 37.8741 86.8951 37.8741C85.9677 37.8741 84.1066 37.1303 82.9924 37.8741C81.8783 38.6179 80.5742 39.5485 80.5742 39.5485H127.586C127.586 39.5485 128.156 37.8773 126.111 36.7632Z" fill="#92E3A9"/>
<path opacity="0.5" d="M126.111 36.7632C124.067 35.6458 123.139 36.5764 122.396 35.6458C121.652 34.7153 124.44 32.3003 118.854 29.8853C118.854 29.8853 118.483 24.6817 110.862 24.495C103.24 24.3082 105.294 29.6985 103.249 30.9994C101.205 32.3003 100.648 30.2684 98.603 31.5564C96.5583 32.8444 97.4889 35.4591 95.8177 35.8294C94.1465 36.1997 91.9118 34.1582 89.8671 35.4591C87.8224 36.76 87.8224 37.8741 86.8951 37.8741C85.9677 37.8741 84.1066 37.1303 82.9924 37.8741C81.8783 38.6179 80.5742 39.5485 80.5742 39.5485H127.586C127.586 39.5485 128.156 37.8773 126.111 36.7632Z" fill="white"/>
<path d="M72.7973 78.5361C71.3612 77.7536 70.7076 78.4041 70.1859 77.7536C69.6643 77.1032 71.622 75.403 67.7065 73.7061C67.7065 73.7061 67.4457 70.0514 62.0908 69.9194C56.736 69.7874 58.1753 73.5741 56.7392 74.4886C55.3031 75.403 54.9135 73.9669 53.4773 74.8814C52.0412 75.7959 52.6917 77.6216 51.5196 77.8824C50.3475 78.1433 48.7761 76.7071 47.3336 77.6216C45.891 78.5361 45.8975 79.3186 45.247 79.3186C44.5966 79.3186 43.286 78.7969 42.5036 79.3186C41.7211 79.8402 40.8066 80.4939 40.8066 80.4939H73.8406C73.8406 80.4939 74.2335 79.3186 72.7973 78.5361Z" fill="white"/>
<path opacity="0.5" d="M72.7973 78.5361C71.3612 77.7536 70.7076 78.4041 70.1859 77.7536C69.6643 77.1032 71.622 75.403 67.7065 73.7061C67.7065 73.7061 67.4457 70.0514 62.0908 69.9194C56.736 69.7874 58.1753 73.5741 56.7392 74.4886C55.3031 75.403 54.9135 73.9669 53.4773 74.8814C52.0412 75.7959 52.6917 77.6216 51.5196 77.8824C50.3475 78.1433 48.7761 76.7071 47.3336 77.6216C45.891 78.5361 45.8975 79.3186 45.247 79.3186C44.5966 79.3186 43.286 78.7969 42.5036 79.3186C41.7211 79.8402 40.8066 80.4939 40.8066 80.4939H73.8406C73.8406 80.4939 74.2335 79.3186 72.7973 78.5361Z" fill="white"/>
<path d="M113.623 132.944H133.973C133.583 130.455 131.983 130.893 131.77 127.035C131.664 125.103 133.464 122.688 133.306 120.138C133.178 118.035 131.107 115.881 130.946 113.476C130.801 111.306 132.556 108.897 132.398 106.559C132.234 104.35 130.144 102.228 129.948 99.9294C129.768 97.6754 131.5 95.2572 131.294 92.9903C131.088 90.7234 128.953 88.6401 128.718 86.4054C128.483 84.1095 130.16 81.6366 129.903 79.4405C129.632 77.106 127.43 75.0903 127.13 72.9394C126.808 70.5469 128.357 67.9902 127.993 65.923C127.546 63.3921 125.189 61.5599 124.693 59.6923C123.769 56.2115 123.885 52.8594 122.793 52.6405C121.631 52.4086 121.363 55.6963 120.481 59.3703C120.037 61.2153 117.734 63.0862 117.354 65.6203C117.049 67.6714 118.678 70.1669 118.411 72.5497C118.172 74.6846 116.025 76.7357 115.815 79.0574C115.619 81.2405 117.361 83.6459 117.19 85.9288C117.023 88.1474 114.936 90.263 114.798 92.517C114.659 94.771 116.45 97.128 116.327 99.353C116.202 101.633 114.157 103.787 114.051 105.98C113.941 108.301 115.773 110.642 115.683 112.793C115.583 115.179 113.568 117.362 113.494 119.449C113.404 121.98 115.261 124.314 115.204 126.243C115.081 130.429 113.165 129.557 113.098 132.925L113.623 132.944Z" fill="#92E3A9"/>
<path d="M122.359 59.3281V132.004" stroke="black" stroke-miterlimit="10"/>
<path d="M125.538 66.9468L122.225 69.8094L119.514 66.1934" stroke="black" stroke-miterlimit="10"/>
<path d="M125.538 79.5992L122.225 82.4585L119.514 78.8457" stroke="black" stroke-miterlimit="10"/>
<path d="M125.538 91.4937L122.225 94.3563L119.514 90.7402" stroke="black" stroke-miterlimit="10"/>
<path d="M125.538 105.652L122.225 108.511L119.514 104.898" stroke="black" stroke-miterlimit="10"/>
<path d="M125.538 119.959L122.225 122.818L119.514 119.205" stroke="black" stroke-miterlimit="10"/>
<path d="M99.7613 132.944H115.472C115.169 131.012 113.936 131.36 113.772 128.385C113.688 126.884 115.076 125.03 114.956 123.059C114.857 121.449 113.26 119.771 113.134 117.907C113.021 116.233 114.387 114.365 114.255 112.568C114.129 110.862 112.509 109.226 112.364 107.452C112.219 105.677 113.562 103.842 113.404 102.094C113.247 100.345 111.595 98.7352 111.421 97.0125C111.241 95.2382 112.535 93.332 112.335 91.6318C112.126 89.8319 110.426 88.2766 110.197 86.6183C109.94 84.77 111.144 82.7962 110.861 81.2023C110.516 79.2477 108.697 77.8309 108.317 76.3916C107.602 73.7061 107.692 71.114 106.849 70.9466C105.95 70.7662 105.744 73.3036 105.065 76.1436C104.723 77.5669 102.943 79.0127 102.65 80.9736C102.415 82.5579 103.67 84.4834 103.464 86.3221C103.281 87.9707 101.626 89.5421 101.461 91.3453C101.31 93.0293 102.656 94.8873 102.524 96.6486C102.395 98.3616 100.788 99.9942 100.676 101.733C100.563 103.472 101.964 105.294 101.858 107.011C101.751 108.727 100.183 110.433 100.103 112.127C100.016 113.917 101.429 115.724 101.362 117.385C101.284 119.227 99.7291 120.927 99.6711 122.537C99.6003 124.489 101.036 126.295 100.991 127.78C100.895 131 99.4168 130.339 99.3652 132.932L99.7613 132.944Z" fill="#92E3A9"/>
<path d="M106.508 76.1211V132.22" stroke="black" stroke-miterlimit="10"/>
<path d="M108.958 82.0008L106.402 84.2097L104.309 81.418" stroke="black" stroke-miterlimit="10"/>
<path d="M108.958 91.7632L106.402 93.9721L104.309 91.1836" stroke="black" stroke-miterlimit="10"/>
<path d="M108.958 100.947L106.402 103.156L104.309 100.367" stroke="black" stroke-miterlimit="10"/>
<path d="M108.958 111.876L106.402 114.085L104.309 111.293" stroke="black" stroke-miterlimit="10"/>
<path d="M108.958 122.921L106.402 125.126L104.309 122.338" stroke="black" stroke-miterlimit="10"/>
<path d="M85.7578 132.793V67.6914H89.1936V132.793" fill="#2E353A"/>
<path d="M85.7578 132.793V67.6914H89.1936V132.793" stroke="#2E353A" stroke-linecap="round" stroke-linejoin="round"/>
<path d="M84.041 132.793V67.6914H87.4768V132.793" fill="#92E3A9"/>
<path d="M84.041 132.793V67.6914H87.4768V132.793" stroke="#2E353A" stroke-linecap="round" stroke-linejoin="round"/>
<g style="mix-blend-mode:multiply" opacity="0.3">
<path d="M87.4768 67.6914H84.041V75.4194H87.4768V67.6914Z" fill="#2E353A"/>
</g>
<path d="M98.7034 42.2754H73.2461L84.3422 69.5295H109.803V53.3715C109.803 51.9141 109.516 50.4709 108.958 49.1245C108.4 47.778 107.582 46.5546 106.552 45.5242C105.521 44.4938 104.297 43.6766 102.951 43.1191C101.604 42.5617 100.161 42.275 98.7034 42.2754Z" fill="#92E3A9" stroke="#2E353A" stroke-linecap="round" stroke-linejoin="round"/>
<g style="mix-blend-mode:multiply" opacity="0.3">
<path d="M82.4004 64.7575L84.3324 69.5295H109.803V53.3716C109.803 53.1268 109.803 52.8821 109.777 52.6406H82.4068L82.4004 64.7575Z" fill="black"/>
</g>
<path d="M98.515 52.6406H95.8359" stroke="#2E353A" stroke-linecap="round" stroke-linejoin="round"/>
<path d="M109.776 52.6406H101.668" stroke="#2E353A" stroke-linecap="round" stroke-linejoin="round"/>
<path d="M73.2458 42.2754C76.1896 42.2754 79.0127 43.4448 81.0942 45.5263C83.1758 47.6078 84.3452 50.431 84.3452 53.3747V69.5327H62.1465V53.3715C62.1473 50.4283 63.3171 47.606 65.3985 45.5252C67.48 43.4443 70.3027 42.2754 73.2458 42.2754Z" fill="#2E353A" stroke="#2E353A" stroke-linecap="round" stroke-linejoin="round"/>
<path d="M84.3416 67.6914H65.2148V69.53H84.3416V67.6914Z" fill="#92E3A9" stroke="#2E353A" stroke-linecap="round" stroke-linejoin="round"/>
<path d="M84.3413 67.6914H44.7578V69.53H84.3413V67.6914Z" fill="#92E3A9" stroke="#2E353A" stroke-linecap="round" stroke-linejoin="round"/>
<path opacity="0.3" d="M84.3416 67.6914H65.2148V69.53H84.3416V67.6914Z" fill="black"/>
<path d="M100.358 35.707H92.4141V41.2873H100.358V35.707Z" fill="#2E353A" stroke="#2E353A" stroke-linecap="round" stroke-linejoin="round"/>
<path d="M93.0581 35.707H91.3418V53.095H93.0581V35.707Z" fill="white" stroke="#2E353A" stroke-linecap="round" stroke-linejoin="round"/>
<path d="M92.1976 55.4558C93.2646 55.4558 94.1296 54.5908 94.1296 53.5238C94.1296 52.4568 93.2646 51.5918 92.1976 51.5918C91.1306 51.5918 90.2656 52.4568 90.2656 53.5238C90.2656 54.5908 91.1306 55.4558 92.1976 55.4558Z" fill="#2E353A" stroke="#2E353A" stroke-linecap="round" stroke-linejoin="round"/>
<path d="M63.8652 46.7383C68.3475 49.0148 76.1399 52.6631 83.3269 54.4985" stroke="white" stroke-linecap="round" stroke-linejoin="round" stroke-dasharray="2 4"/>
<path d="M60.1055 44.7578C60.1055 44.7578 61.5416 45.5693 63.8664 46.751" stroke="#2E353A" stroke-linecap="round" stroke-linejoin="round" stroke-dasharray="2 4"/>
<path d="M58.4906 44.6391L61.7138 36.9819L38.3398 31.2793L58.4906 44.6391Z" fill="white" stroke="#2E353A" stroke-width="1.2629" stroke-linecap="round" stroke-linejoin="round"/>
<path d="M60.062 37.9093L58.4906 44.6391L38.3398 31.2793L60.062 37.9093Z" fill="#92E3A9" stroke="#2E353A" stroke-width="1.2629" stroke-linecap="round" stroke-linejoin="round"/>
<path d="M60.062 37.9093L56.3944 41.052L38.3398 31.2793L60.062 37.9093Z" fill="white" stroke="#2E353A" stroke-width="1.2629" stroke-linecap="round" stroke-linejoin="round"/>
<path d="M61.7138 36.9819L64.9789 35.6553L38.3398 31.2793L61.7138 36.9819Z" fill="white" stroke="#2E353A" stroke-width="1.2629" stroke-linecap="round" stroke-linejoin="round"/>
<path d="M53.9512 43.4473L54.7079 43.9109" stroke="#2E353A" stroke-linecap="round" stroke-linejoin="round"/>
<path d="M49.8223 40.916L52.3564 42.4681" stroke="#2E353A" stroke-linecap="round" stroke-linejoin="round"/>
<path d="M46.9766 59.2966V50.9922L70.7337 54.8111L46.9766 59.2966Z" fill="white" stroke="#2E353A" stroke-width="1.2629" stroke-linecap="round" stroke-linejoin="round"/>
<path d="M48.139 52.4863L46.9766 59.2966L70.7337 54.8112L48.139 52.4863Z" fill="#92E3A9" stroke="#2E353A" stroke-width="1.2629" stroke-linecap="round" stroke-linejoin="round"/>
<path d="M48.1387 52.4863L50.2993 56.8043L70.7334 54.8112L48.1387 52.4863Z" fill="white" stroke="#2E353A" stroke-width="1.2629" stroke-linecap="round" stroke-linejoin="round"/>
<path d="M46.9767 50.9923L44.4844 48.5L70.7338 54.8112L46.9767 50.9923Z" fill="white" stroke="#2E353A" stroke-width="1.2629" stroke-linecap="round" stroke-linejoin="round"/>
<path d="M55.4844 59.1413L57.5452 58.7227" stroke="#2E353A" stroke-linecap="round" stroke-linejoin="round"/>
<path d="M48.2461 60.6135L53.4271 59.5605" stroke="#2E353A" stroke-linecap="round" stroke-linejoin="round"/>
<path d="M44.114 58.7852C44.114 58.7852 25.438 62.0052 21.896 78.7492C18.354 95.4932 37.03 96.4592 40.25 88.4092C43.47 80.3592 29.302 77.1392 26.082 84.8672C22.862 92.5952 32.522 105.797 45.724 106.441C56.6945 106.976 87.452 94.1697 106.582 90.9336C106.582 90.9336 120.75 87.0117 142.646 87.8714" stroke="#2E353A" stroke-linecap="round" stroke-linejoin="round" stroke-dasharray="2 4"/>
<path d="M136.312 111.271H141.68" stroke="#2E353A" stroke-linecap="round" stroke-linejoin="round"/>
<path d="M136.312 119.211H141.68" stroke="#2E353A" stroke-linecap="round" stroke-linejoin="round"/>
<path d="M23.291 119H135.669V111.484H23.291" fill="white"/>
<path d="M23.291 119H135.669V111.484H23.291" stroke="#2E353A" stroke-linecap="round" stroke-linejoin="round"/>
<path d="M31.1035 132.846V95.0366C31.1036 94.9438 31.1224 94.8521 31.159 94.7668C31.1955 94.6816 31.2489 94.6047 31.316 94.5407L34.2527 91.7747C34.3849 91.6511 34.5607 91.5847 34.7416 91.5902C34.9226 91.5956 35.0941 91.6723 35.2187 91.8037L37.7947 94.5439C37.9115 94.6714 37.9769 94.8378 37.9782 95.0108V132.846" fill="#2E353A"/>
<path d="M31.1035 132.846V95.0366C31.1036 94.9438 31.1224 94.8521 31.159 94.7668C31.1955 94.6816 31.2489 94.6047 31.316 94.5407L34.2527 91.7747C34.3849 91.6511 34.5607 91.5847 34.7416 91.5902C34.9226 91.5956 35.0941 91.6723 35.2187 91.8037L37.7947 94.5439C37.9115 94.6714 37.9769 94.8378 37.9782 95.0108V132.846" stroke="#2E353A" stroke-linecap="round" stroke-linejoin="round"/>
<path d="M30.2695 133.167V95.0359C30.2694 94.9429 30.2885 94.8508 30.3257 94.7655C30.3628 94.6802 30.4171 94.6034 30.4853 94.5401L33.4219 91.7741C33.4872 91.7125 33.564 91.6643 33.6479 91.6324C33.7318 91.6005 33.8212 91.5855 33.9109 91.5882C34.0007 91.5909 34.089 91.6113 34.1708 91.6481C34.2527 91.685 34.3264 91.7376 34.3879 91.8031L36.9639 94.5433C37.0821 94.67 37.1478 94.8369 37.1475 95.0102V133.167" fill="white"/>
<path d="M30.2695 133.167V95.0359C30.2694 94.9429 30.2885 94.8508 30.3257 94.7655C30.3628 94.6802 30.4171 94.6034 30.4853 94.5401L33.4219 91.7741C33.4872 91.7125 33.564 91.6643 33.6479 91.6324C33.7318 91.6005 33.8212 91.5855 33.9109 91.5882C34.0007 91.5909 34.089 91.6113 34.1708 91.6481C34.2527 91.685 34.3264 91.7376 34.3879 91.8031L36.9639 94.5433C37.0821 94.67 37.1478 94.8369 37.1475 95.0102V133.167" stroke="#2E353A" stroke-linecap="round" stroke-linejoin="round"/>
<path d="M55.8652 132.845V95.0359C55.8653 94.9432 55.8842 94.8514 55.9207 94.7662C55.9572 94.681 56.0106 94.6041 56.0778 94.5401L59.0176 91.7741C59.0829 91.7125 59.1597 91.6643 59.2436 91.6324C59.3275 91.6005 59.4169 91.5855 59.5066 91.5882C59.5964 91.5909 59.6847 91.6113 59.7665 91.6481C59.8484 91.685 59.9221 91.7376 59.9836 91.8031L62.5596 94.5433C62.6778 94.67 62.7435 94.8369 62.7432 95.0102V132.845" fill="#2E353A"/>
<path d="M55.8652 132.845V95.0359C55.8653 94.9432 55.8842 94.8514 55.9207 94.7662C55.9572 94.681 56.0106 94.6041 56.0778 94.5401L59.0176 91.7741C59.0829 91.7125 59.1597 91.6643 59.2436 91.6324C59.3275 91.6005 59.4169 91.5855 59.5066 91.5882C59.5964 91.5909 59.6847 91.6113 59.7665 91.6481C59.8484 91.685 59.9221 91.7376 59.9836 91.8031L62.5596 94.5433C62.6778 94.67 62.7435 94.8369 62.7432 95.0102V132.845" stroke="#2E353A" stroke-linecap="round" stroke-linejoin="round"/>
<path d="M55.1699 133.168V95.0366C55.1698 94.9435 55.1889 94.8514 55.2261 94.7661C55.2632 94.6808 55.3175 94.604 55.3857 94.5407L58.3223 91.7747C58.4545 91.6511 58.6303 91.5847 58.8113 91.5902C58.9922 91.5956 59.1637 91.6723 59.2883 91.8037L61.8643 94.5439C61.9834 94.6703 62.0502 94.8371 62.0511 95.0108V133.168" fill="white"/>
<path d="M55.1699 133.168V95.0366C55.1698 94.9435 55.1889 94.8514 55.2261 94.7661C55.2632 94.6808 55.3175 94.604 55.3857 94.5407L58.3223 91.7747C58.4545 91.6511 58.6303 91.5847 58.8113 91.5902C58.9922 91.5956 59.1637 91.6723 59.2883 91.8037L61.8643 94.5439C61.9834 94.6703 62.0502 94.8371 62.0511 95.0108V133.168" stroke="#2E353A" stroke-linecap="round" stroke-linejoin="round"/>
<path d="M80.7656 132.846V95.0366C80.7655 94.9435 80.7846 94.8514 80.8218 94.7661C80.8589 94.6808 80.9132 94.604 80.9814 94.5407L83.918 91.7747C84.0502 91.6511 84.226 91.5847 84.407 91.5902C84.5879 91.5956 84.7594 91.6723 84.884 91.8037L87.46 94.5439C87.5791 94.6703 87.6459 94.8371 87.6468 95.0108V133.168" fill="#2E353A"/>
<path d="M80.7656 132.846V95.0366C80.7655 94.9435 80.7846 94.8514 80.8218 94.7661C80.8589 94.6808 80.9132 94.604 80.9814 94.5407L83.918 91.7747C84.0502 91.6511 84.226 91.5847 84.407 91.5902C84.5879 91.5956 84.7594 91.6723 84.884 91.8037L87.46 94.5439C87.5791 94.6703 87.6459 94.8371 87.6468 95.0108V133.168" stroke="#2E353A" stroke-linecap="round" stroke-linejoin="round"/>
<path d="M80.0723 133.167V95.0359C80.0723 94.9432 80.0912 94.8514 80.1277 94.7662C80.1643 94.681 80.2177 94.6041 80.2848 94.5401L83.2246 91.7741C83.2899 91.7125 83.3667 91.6643 83.4506 91.6324C83.5345 91.6005 83.6239 91.5855 83.7137 91.5882C83.8034 91.5909 83.8917 91.6113 83.9736 91.6481C84.0554 91.685 84.1292 91.7376 84.1906 91.8031L86.7666 94.5433C86.8849 94.67 86.9505 94.8369 86.9502 95.0102V133.167" fill="white"/>
<path d="M80.0723 133.167V95.0359C80.0723 94.9432 80.0912 94.8514 80.1277 94.7662C80.1643 94.681 80.2177 94.6041 80.2848 94.5401L83.2246 91.7741C83.2899 91.7125 83.3667 91.6643 83.4506 91.6324C83.5345 91.6005 83.6239 91.5855 83.7137 91.5882C83.8034 91.5909 83.8917 91.6113 83.9736 91.6481C84.0554 91.685 84.1292 91.7376 84.1906 91.8031L86.7666 94.5433C86.8849 94.67 86.9505 94.8369 86.9502 95.0102V133.167" stroke="#2E353A" stroke-linecap="round" stroke-linejoin="round"/>
<path d="M105.668 132.846V95.0366C105.668 94.9438 105.687 94.8521 105.723 94.7668C105.76 94.6816 105.813 94.6047 105.88 94.5407L108.817 91.7747C108.949 91.6511 109.125 91.5847 109.306 91.5902C109.487 91.5956 109.659 91.6723 109.783 91.8037L112.359 94.5439C112.476 94.6714 112.541 94.8378 112.543 95.0108V132.846" fill="#2E353A"/>
<path d="M105.668 132.846V95.0366C105.668 94.9438 105.687 94.8521 105.723 94.7668C105.76 94.6816 105.813 94.6047 105.88 94.5407L108.817 91.7747C108.949 91.6511 109.125 91.5847 109.306 91.5902C109.487 91.5956 109.659 91.6723 109.783 91.8037L112.359 94.5439C112.476 94.6714 112.541 94.8378 112.543 95.0108V132.846" stroke="#2E353A" stroke-linecap="round" stroke-linejoin="round"/>
<path d="M104.973 133.167V95.0359C104.973 94.9429 104.992 94.8508 105.029 94.7655C105.066 94.6802 105.12 94.6034 105.188 94.5401L108.125 91.7741C108.19 91.7125 108.267 91.6643 108.351 91.6324C108.435 91.6005 108.524 91.5855 108.614 91.5882C108.704 91.5909 108.792 91.6113 108.874 91.6481C108.956 91.685 109.03 91.7376 109.091 91.8031L111.667 94.5433C111.785 94.67 111.851 94.8369 111.851 95.0102V133.167" fill="white"/>
<path d="M104.973 133.167V95.0359C104.973 94.9429 104.992 94.8508 105.029 94.7655C105.066 94.6802 105.12 94.6034 105.188 94.5401L108.125 91.7741C108.19 91.7125 108.267 91.6643 108.351 91.6324C108.435 91.6005 108.524 91.5855 108.614 91.5882C108.704 91.5909 108.792 91.6113 108.874 91.6481C108.956 91.685 109.03 91.7376 109.091 91.8031L111.667 94.5433C111.785 94.67 111.851 94.8369 111.851 95.0102V133.167" stroke="#2E353A" stroke-linecap="round" stroke-linejoin="round"/>
<path d="M130.568 132.845V95.0359C130.568 94.9432 130.587 94.8514 130.624 94.7662C130.66 94.681 130.714 94.6041 130.781 94.5401L133.721 91.7741C133.786 91.7125 133.863 91.6643 133.947 91.6324C134.031 91.6005 134.12 91.5855 134.21 91.5882C134.299 91.5909 134.388 91.6113 134.47 91.6481C134.552 91.685 134.625 91.7376 134.687 91.8031L137.263 94.5433C137.381 94.67 137.447 94.8369 137.446 95.0102V132.845" fill="#2E353A"/>
<path d="M130.568 132.845V95.0359C130.568 94.9432 130.587 94.8514 130.624 94.7662C130.66 94.681 130.714 94.6041 130.781 94.5401L133.721 91.7741C133.786 91.7125 133.863 91.6643 133.947 91.6324C134.031 91.6005 134.12 91.5855 134.21 91.5882C134.299 91.5909 134.388 91.6113 134.47 91.6481C134.552 91.685 134.625 91.7376 134.687 91.8031L137.263 94.5433C137.381 94.67 137.447 94.8369 137.446 95.0102V132.845" stroke="#2E353A" stroke-linecap="round" stroke-linejoin="round"/>
<path d="M129.873 133.168V95.0366C129.873 94.9435 129.892 94.8514 129.929 94.7661C129.966 94.6808 130.021 94.604 130.089 94.5407L133.025 91.7747C133.158 91.6511 133.333 91.5847 133.514 91.5902C133.695 91.5956 133.867 91.6723 133.991 91.8037L136.567 94.5439C136.687 94.6703 136.753 94.8371 136.754 95.0108V133.168" fill="white"/>
<path d="M129.873 133.168V95.0366C129.873 94.9435 129.892 94.8514 129.929 94.7661C129.966 94.6808 130.021 94.604 130.089 94.5407L133.025 91.7747C133.158 91.6511 133.333 91.5847 133.514 91.5902C133.695 91.5956 133.867 91.6723 133.991 91.8037L136.567 94.5439C136.687 94.6703 136.753 94.8371 136.754 95.0108V133.168" stroke="#2E353A" stroke-linecap="round" stroke-linejoin="round"/>
<path d="M34.3848 91.8027V94.5591" stroke="#2E353A" stroke-linecap="round" stroke-linejoin="round"/>
<path d="M35.4883 93.2266V99.7503" stroke="#2E353A" stroke-linecap="round" stroke-linejoin="round"/>
<path d="M56.5254 93.7617V102.015" stroke="#2E353A" stroke-linecap="round" stroke-linejoin="round"/>
<path d="M57.5898 92.6953V96.2888" stroke="#2E353A" stroke-linecap="round" stroke-linejoin="round"/>
<path d="M83.2246 91.7734V99.8846" stroke="#2E353A" stroke-linecap="round" stroke-linejoin="round"/>
<path d="M84.7539 92.4277V104.413" stroke="#2E353A" stroke-linecap="round" stroke-linejoin="round"/>
<path d="M106.189 93.7617V102.813" stroke="#2E353A" stroke-linecap="round" stroke-linejoin="round"/>
<path d="M109.652 92.6953V94.959" stroke="#2E353A" stroke-linecap="round" stroke-linejoin="round"/>
<path d="M132.152 92.5605V97.3551" stroke="#2E353A" stroke-linecap="round" stroke-linejoin="round"/>
<path d="M135.082 93.0938V106.94" stroke="#2E353A" stroke-linecap="round" stroke-linejoin="round"/>
<path d="M129.756 113.332H126.826" stroke="#2E353A" stroke-linecap="round" stroke-linejoin="round"/>
<path d="M129.756 115.596H119.504" stroke="#2E353A" stroke-linecap="round" stroke-linejoin="round"/>
<path d="M91.5422 115.596H86.8828" stroke="#2E353A" stroke-linecap="round" stroke-linejoin="round"/>
<path d="M67.0441 115.596H62.3848" stroke="#2E353A" stroke-linecap="round" stroke-linejoin="round"/>
<path d="M30.1632 114.398H25.5039" stroke="#2E353A" stroke-linecap="round" stroke-linejoin="round"/>
<path d="M30.1632 116.525H28.2988" stroke="#2E353A" stroke-linecap="round" stroke-linejoin="round"/>
<path d="M89.1465 114.398H86.8828" stroke="#2E353A" stroke-linecap="round" stroke-linejoin="round"/>
<path d="M64.3808 116.926H62.1172" stroke="#2E353A" stroke-linecap="round" stroke-linejoin="round"/>
<path d="M54.9277 116.926H52.6641" stroke="#2E353A" stroke-linecap="round" stroke-linejoin="round"/>
<path d="M138.809 115.596H136.812" stroke="#2E353A" stroke-linecap="round" stroke-linejoin="round"/>
<path d="M141.471 115.596H140.273" stroke="#2E353A" stroke-linecap="round" stroke-linejoin="round"/>
<path d="M37.0313 101.752C37.0313 101.752 36.2263 108.672 35.2603 115.753C34.2943 122.833 36.0653 130.078 36.5483 130.722" stroke="#2E353A" stroke-linecap="round" stroke-linejoin="round"/>
<path d="M33.8457 115.76C34.0003 114.378 34.1291 113.506 34.1291 113.506" stroke="#2E353A" stroke-linecap="round" stroke-linejoin="round"/>
<path d="M36.2222 129.918C36.2222 129.918 33.3242 129.274 33.3242 124.122C33.3242 122.006 33.4595 119.839 33.6205 118.004" stroke="#2E353A" stroke-linecap="round" stroke-linejoin="round"/>
<path d="M60.537 93.541C60.537 93.541 61.181 94.024 60.054 99.498C58.927 104.972 59.088 113.022 60.537 117.53" stroke="#2E353A" stroke-linecap="round" stroke-linejoin="round"/>
<path d="M62.1471 103.686C62.1471 103.686 60.5371 108.516 61.6641 115.278" stroke="#2E353A" stroke-linecap="round" stroke-linejoin="round"/>
<path d="M80.5008 106.74C80.5008 106.74 81.3058 111.409 82.1108 116.236C82.9158 121.063 82.2718 127.828 81.6278 129.596C80.9838 131.364 80.3398 132.816 80.3398 132.816" stroke="#2E353A" stroke-linecap="round" stroke-linejoin="round"/>
<path d="M83.5338 130.45C82.8158 132.653 81.9238 130.08 81.9238 130.08" stroke="#2E353A" stroke-linecap="round" stroke-linejoin="round"/>
<path d="M83.5059 113.988C83.5059 113.988 85.0225 121.816 84.166 127.709" stroke="#2E353A" stroke-linecap="round" stroke-linejoin="round"/>
<path d="M80.1797 116.564C80.1797 116.564 81.7897 119.945 80.3407 123.165" stroke="#2E353A" stroke-linecap="round" stroke-linejoin="round"/>
<path d="M110.221 117.041C110.436 118.025 110.719 118.994 111.068 119.939" stroke="#2E353A" stroke-linecap="round" stroke-linejoin="round"/>
<path d="M111.552 100.305C110.53 103.548 109.882 106.897 109.62 110.287C109.524 112.002 109.62 113.722 109.907 115.416" stroke="#2E353A" stroke-linecap="round" stroke-linejoin="round"/>
<path d="M108.492 115.109C108.492 115.109 109.941 120.583 110.746 122.515C111.551 124.447 111.229 129.113 110.263 131.367" stroke="#2E353A" stroke-linecap="round" stroke-linejoin="round"/>
<path d="M130.221 102.719C130.221 102.719 133.441 108.515 130.382 118.011" stroke="#2E353A" stroke-linecap="round" stroke-linejoin="round"/>
<path d="M133.18 112.617C133.199 114.427 133.038 116.719 132.314 118.651C130.865 122.515 130.221 123.803 130.221 123.803" stroke="#2E353A" stroke-linecap="round" stroke-linejoin="round"/>
<path d="M132.957 109.48C132.957 109.48 133.063 110.173 133.128 111.239" stroke="#2E353A" stroke-linecap="round" stroke-linejoin="round"/>
<g filter="url(#filter0_d_9077_46111)">
<circle cx="84.5" cy="110.5" r="23.5" fill="white"/>
<circle cx="84.5" cy="110.5" r="22.5" stroke="#92E3A9" stroke-width="2"/>
</g>
</g>
<defs>
<filter id="filter0_d_9077_46111" x="32" y="70" width="105" height="105" filterUnits="userSpaceOnUse" color-interpolation-filters="sRGB">
<feFlood flood-opacity="0" result="BackgroundImageFix"/>
<feColorMatrix in="SourceAlpha" type="matrix" values="0 0 0 0 0 0 0 0 0 0 0 0 0 0 0 0 0 0 127 0" result="hardAlpha"/>
<feOffset dy="12"/>
<feGaussianBlur stdDeviation="14.5"/>
<feComposite in2="hardAlpha" operator="out"/>
<feColorMatrix type="matrix" values="0 0 0 0 0.650903 0 0 0 0 0.858333 0 0 0 0 0.709803 0 0 0 1 0"/>
<feBlend mode="normal" in2="BackgroundImageFix" result="effect1_dropShadow_9077_46111"/>
<feBlend mode="normal" in="SourceGraphic" in2="effect1_dropShadow_9077_46111" result="shape"/>
</filter>
<clipPath id="clip0_9077_46111">
<rect width="161" height="161" fill="white"/>
</clipPath>
</defs>
</svg>
