<svg width="126" height="311" viewBox="0 0 126 311" fill="none" xmlns="http://www.w3.org/2000/svg">
<path fill-rule="evenodd" clip-rule="evenodd" d="M8 8.00055H11.7143V7.00055V6.00055H8V8.00055ZM30.2244 6.33865L30.095 7.33023L29.9657 8.32184C28.3414 8.10995 26.684 8.00055 25 8.00055H20.5714V7.00055V6.00055H25C26.7707 6.00055 28.5145 6.1156 30.2244 6.33865ZM65 50.4506H64H63V46.0005C63 44.3166 62.8906 42.6592 62.6787 41.0349L63.6703 40.9055L64.6619 40.7762C64.8849 42.486 65 44.2299 65 46.0005V50.4506ZM61.9648 30.689L61.0411 31.0721L60.1173 31.4551C58.8367 28.3669 57.16 25.4833 55.1501 22.8678L55.9431 22.2585L56.736 21.6492C58.8511 24.4017 60.6163 27.4371 61.9648 30.689ZM49.3514 14.2646L48.742 15.0575L48.1327 15.8504C45.5172 13.8405 42.6336 12.1639 39.5454 10.8832L39.9285 9.9595L40.3115 9.03577C43.5634 10.3843 46.5989 12.1494 49.3514 14.2646ZM65 59.3506H64H63V68.2506H64H65V59.3506ZM65 77.1506H64H63V86.0506H64H65V77.1506ZM65 94.9506H64H63V103.851H64H65V94.9506ZM65 112.751H64H63V121.651H64H65V112.751ZM65 130.551H64H63V139.451H64H65V130.551ZM65 148.351H64H63V157.251H64H65V148.351ZM65 166.151H64H63V175.051H64H65V166.151Z" fill="#ACAFD7"/>
<path fill-rule="evenodd" clip-rule="evenodd" d="M120 304.001H116.286V305.001V306.001H120V304.001ZM63 168.25V162H65V168.25H64H63ZM97.7756 305.663L97.905 304.671L98.0343 303.68C99.6586 303.892 101.316 304.001 103 304.001H107.429V305.001V306.001H103C101.229 306.001 99.4855 305.886 97.7756 305.663ZM63 261.751H64H65V266.001C65 267.685 65.1094 269.342 65.3213 270.967L64.3297 271.096L63.3381 271.225C63.1151 269.515 63 267.772 63 266.001V261.751ZM66.0352 281.312L66.9589 280.929L67.8827 280.546C69.1633 283.635 70.84 286.518 72.8499 289.134L72.0569 289.743L71.264 290.352C69.1489 287.6 67.3837 284.564 66.0352 281.312ZM78.6486 297.737L79.258 296.944L79.8673 296.151C82.4828 298.161 85.3664 299.838 88.4546 301.118L88.0715 302.042L87.6885 302.966C84.4366 301.617 81.4011 299.852 78.6486 297.737ZM63 253.251H64H65V244.751H64H63V253.251ZM63 236.251H64H65V227.75H64H63V236.251ZM63 219.25H64H65V210.75H64H63V219.25ZM63 202.25H64H65V193.75H64H63V202.25ZM63 185.25H64H65V176.75H64H63V185.25Z" fill="#ACAFD7"/>
<circle cx="63.5" cy="166.5" r="19.5" fill="#28C46F"/>
<circle cx="7" cy="7" r="6" fill="white" stroke="#F96254" stroke-width="2"/>
<circle cx="119" cy="304" r="6" fill="#F75847" stroke="#F96254" stroke-width="2"/>
<path d="M68.1237 173.561C68.1237 173.744 68.0512 173.919 67.9223 174.048C67.7934 174.177 67.6185 174.249 67.4362 174.249H55.0612C54.8788 174.249 54.704 174.177 54.575 174.048C54.4461 173.919 54.3737 173.744 54.3737 173.561C54.3737 173.379 54.4461 173.204 54.575 173.075C54.704 172.946 54.8788 172.874 55.0612 172.874H67.4362C67.6185 172.874 67.7934 172.946 67.9223 173.075C68.0512 173.204 68.1237 173.379 68.1237 173.561ZM74.2338 162.69L72.6354 160.731C72.1682 160.157 71.5102 159.77 70.7813 159.64C70.0524 159.511 69.3013 159.648 68.6651 160.026L64.9869 162.183L59.9854 160.516C59.904 160.489 59.8154 160.492 59.7362 160.525L58.3182 161.135C58.1599 161.203 58.0213 161.31 57.9151 161.446C57.8089 161.582 57.7385 161.743 57.7103 161.913C57.6821 162.083 57.697 162.257 57.7536 162.42C57.8103 162.583 57.9069 162.729 58.0346 162.845L60.3205 164.908L58.4729 165.956L56.2299 164.994C56.1415 164.959 56.0433 164.959 55.9549 164.994L54.5198 165.612C54.3619 165.679 54.2233 165.785 54.1165 165.919C54.0098 166.054 53.9382 166.213 53.9083 166.382C53.8785 166.551 53.8912 166.724 53.9455 166.887C53.9997 167.05 54.0937 167.197 54.219 167.314L57.4588 170.347C57.9425 170.805 58.5617 171.094 59.2234 171.17C59.8851 171.246 60.5535 171.105 61.1284 170.769L74.1393 163.206C74.1824 163.18 74.2194 163.145 74.2476 163.104C74.2758 163.062 74.2946 163.015 74.3026 162.965C74.3108 162.917 74.3089 162.868 74.2971 162.821C74.2852 162.773 74.2637 162.729 74.2338 162.69Z" fill="white"/>
</svg>
