<svg width="198" height="96" viewBox="0 0 198 96" fill="none" xmlns="http://www.w3.org/2000/svg">
<g clip-path="url(#clip0_5164_20454)">
<path d="M11.0501 95.4526L11.0343 95.4241C11.0343 95.4241 11.0177 95.3955 11.0177 95.3812C10.9559 95.267 -14.1431 63.1465 24.8995 40.8061C40.1759 32.064 23.9485 26.2854 36.0977 16.5521C50.0587 5.36761 65.2868 17.7511 80.8103 12.6823C83.5526 11.787 86.3052 10.3461 89.0602 8.13518C90.899 6.66179 92.9001 5.44453 94.9765 4.44297C100.575 1.74517 106.988 0.484302 113.268 0.114763C130.61 -0.893143 150.125 4.81409 160.195 13.1477C162.222 14.8265 171.439 23.5099 164.168 35.4382C159.577 42.9702 178.798 50.1706 185.628 58.7755C197.196 73.3524 193.462 84.7764 189.635 90.8595C189.148 91.6335 188.661 92.3202 188.204 92.9158C186.857 94.6683 185.767 95.6374 185.728 95.7087L11.0493 95.4526H11.0501Z" fill="#EBF3FA"/>
<path d="M93.4845 31.8533H50.0967C50.5045 30.9683 52.7614 26.6116 57.4914 27.1588C57.4914 27.1588 65.1323 18.063 73.2746 25.9518C73.2746 25.9518 81.9331 24.0002 88.3435 27.648C91.1674 29.2547 92.7417 30.9136 93.4845 31.8541V31.8533Z" fill="#F8FCFF"/>
<path d="M145.593 23.8885C145.593 23.8885 144.137 20.3588 140.521 20.6927C140.521 20.6927 135.37 14.7682 129.702 19.7458C129.702 19.7458 123.78 18.3993 119.344 20.6728C116.386 22.1891 115.393 23.8115 115.393 23.8115L145.592 23.8885H145.593Z" fill="#F8FCFF"/>
<path d="M125.822 12.4939C125.822 12.4939 124.151 8.15622 119.988 8.57096C119.988 8.57096 114.066 1.29279 107.537 7.42031C107.537 7.42031 100.723 5.77166 95.6141 8.57255C92.2082 10.4401 91.0615 12.4361 91.0615 12.4361L125.821 12.4939H125.822Z" fill="#F8FCFF"/>
<path d="M67.1714 54.937L59.0791 54.9338L59.3095 54.1234C61.2061 47.4558 61.8317 20.9339 61.8349 20.6674L61.5807 20.0386H65.0151L64.7641 20.6547C65.423 40.268 67.778 54.0671 67.7994 54.2043L67.9119 54.9378H67.1714V54.937Z" fill="#ABD7FF"/>
<path d="M69.1661 54.6821H57.9434V56.4688H69.1661V54.6821Z" fill="#ABD7FF"/>
<path d="M73.5354 71.627H53.5615V73.6071H73.5354V71.627Z" fill="#ABD7FF"/>
<path d="M59.3031 55.9312C59.3031 55.9312 57.0747 67.2187 55.0459 71.6247L59.2976 71.6262C59.2976 71.6262 61.872 61.973 62.2695 55.9327H59.3031V55.9312Z" fill="#ABD7FF"/>
<path d="M67.8065 55.9337C67.8065 55.9337 70.0277 67.2229 72.0534 71.6296L67.8017 71.628C67.8017 71.628 65.2344 61.9732 64.8408 55.9321H67.8073L67.8065 55.9337Z" fill="#ABD7FF"/>
<path d="M53.5282 73.604L45.877 87.4641L50.3599 87.4657L57.8955 73.6056L53.5282 73.604Z" fill="#ABD7FF"/>
<path d="M73.5685 73.6115L81.2102 87.4763L76.7273 87.4747L69.2012 73.6099L73.5685 73.6115Z" fill="#ABD7FF"/>
<path d="M75.5184 82.6221L74.032 82.5373C72.6232 79.0623 68.4729 76.5438 63.5727 76.5422C59.2307 76.5406 55.478 78.5152 53.697 81.3803L51.8867 81.278C51.8867 81.278 56.4876 72.6152 56.6856 72.6152C56.8836 72.6152 70.9246 72.8674 70.9246 72.8674L75.5192 82.6221H75.5184Z" fill="#ABD7FF"/>
<path d="M65.9608 58.8042H60.8682V59.943H65.9608V58.8042Z" fill="#ABD7FF"/>
<path d="M61.5762 20.0279L62.2231 17.8892L64.351 17.89L64.9964 20.0287L61.5762 20.0279Z" fill="#ABD7FF"/>
<path d="M63.4159 12.3599H63.1602V18.65H63.4159V12.3599Z" fill="#ABD7FF"/>
<g opacity="0.5">
<path d="M185.643 89.2819L185.653 61.4198C185.653 61.4198 174.35 53.5564 156.288 55.5429V57.8695L144.877 57.8656L144.866 89.2684L185.643 89.2819V89.2819Z" fill="#AEC3FF"/>
</g>
<path d="M120.943 57.2019L120.932 89.2597L163.547 89.274L159.769 79.2235L160.594 78.5495V75.6796H159.549V73.636L154.362 73.8517L151.188 64.3484V61.6752L146.967 61.6736L144.193 52.5208V50.1203H142.07L140.906 42.8866L139.272 42.364C139.272 42.364 129.724 41.0302 120.946 46.1149L120.942 57.2034L120.943 57.2019Z" fill="#ABC5FF"/>
<path d="M126.982 52.6908H124.659V50.4545C124.659 49.8146 125.182 49.292 125.821 49.292C126.46 49.292 126.982 49.8154 126.982 50.4553V52.6908V52.6908Z" fill="#EBF3FA"/>
<path d="M133.751 61.3396L130.22 61.338V57.94C130.221 56.9677 131.016 56.1724 131.987 56.1724C132.958 56.1724 133.752 56.9685 133.752 57.9408L133.751 61.3388V61.3396Z" fill="#EBF3FA"/>
<path d="M128.186 61.3381L124.655 61.3365V57.9385C124.657 56.9663 125.451 56.1709 126.423 56.1709C127.394 56.1709 128.188 56.9671 128.188 57.9393V61.3373L128.186 61.3381Z" fill="#EBF3FA"/>
<path d="M133.748 69.8811L130.217 69.8795V66.4815C130.218 65.5092 131.013 64.7139 131.984 64.7139C132.955 64.7139 133.749 65.51 133.749 66.4823V69.8803L133.748 69.8811Z" fill="#EBF3FA"/>
<path d="M128.184 69.8791L124.653 69.8775V66.4795C124.655 65.5073 125.449 64.7119 126.421 64.7119C127.392 64.7119 128.186 65.5081 128.186 66.4803V69.8783L128.184 69.8791Z" fill="#EBF3FA"/>
<path d="M176.123 80.2259L171.53 80.2243L171.532 75.8033C171.532 74.5385 172.566 73.5036 173.829 73.5044C175.092 73.5044 176.126 74.5401 176.125 75.8049L176.123 80.2259Z" fill="#D2E0FF"/>
<path d="M183.381 80.2288L178.788 80.2272L178.79 75.8062C178.79 74.5414 179.824 73.5065 181.087 73.5073C182.35 73.5073 183.383 74.543 183.383 75.8078L183.381 80.2288Z" fill="#D2E0FF"/>
<path d="M176.126 69.5892L171.533 69.5876L171.535 65.1666C171.535 63.9017 172.569 62.8669 173.832 62.8677C175.095 62.8677 176.129 63.9033 176.128 65.1682L176.126 69.5892Z" fill="#D2E0FF"/>
<path d="M183.385 69.5916L178.792 69.59L178.794 65.169C178.794 63.9042 179.828 62.8693 181.091 62.8701C182.354 62.8701 183.387 63.9058 183.387 65.1706L183.385 69.5916Z" fill="#D2E0FF"/>
<path d="M112.829 35.4155H96.8447V46.1789H112.829V35.4155Z" fill="#ABB8FF"/>
<path d="M100.817 40.7952C100.817 38.5724 102.618 36.7707 104.838 36.7715C107.057 36.7715 108.856 38.5748 108.856 40.7976C108.856 43.0203 107.055 44.8212 104.835 44.8212C102.616 44.8212 100.817 43.018 100.817 40.7952Z" fill="#EBF3FA"/>
<path d="M111.201 30.4253H98.4551V35.4157H111.201V30.4253Z" fill="#96A6FE"/>
<path d="M98.4551 30.4228L100.823 23.6616L108.861 23.6648L111.201 30.4267L98.4551 30.4228Z" fill="#ABB8FF"/>
<path d="M108.88 16.9712H100.824V23.6633H108.88V16.9712Z" fill="#96A6FE"/>
<path d="M104.606 7.02539C104.606 7.02539 103.899 13.6335 100.574 16.9688L109.133 16.972C109.133 16.972 106.365 14.6874 105.36 7.02539H104.605H104.606Z" fill="#ABB8FF"/>
<path d="M103.445 22.7315H102.501L102.502 19.8711C102.502 19.6221 102.704 19.4199 102.953 19.4199H102.995C103.244 19.4199 103.446 19.6221 103.446 19.8711V22.7315H103.445Z" fill="#EBF3FA"/>
<path d="M105.276 22.7325H104.332L104.333 19.8721C104.333 19.6231 104.535 19.4209 104.784 19.4209H104.826C105.075 19.4209 105.277 19.6231 105.277 19.8721V22.7325H105.276Z" fill="#EBF3FA"/>
<path d="M107.202 22.733H106.258L106.259 19.8726C106.259 19.6236 106.461 19.4214 106.71 19.4214H106.753C107.001 19.4214 107.203 19.6236 107.203 19.8734V22.7338L107.202 22.733Z" fill="#EBF3FA"/>
<path d="M105.509 34.5758H104.34L104.341 32.0723C104.341 31.809 104.554 31.5957 104.817 31.5957H105.034C105.296 31.5957 105.509 31.809 105.509 32.0723V34.5758H105.509Z" fill="#EBF3FA"/>
<path d="M107.483 34.5763H106.314V32.0728C106.314 31.8095 106.527 31.5962 106.79 31.5962H107.007C107.27 31.5962 107.483 31.8095 107.483 32.0728V34.5763Z" fill="#EBF3FA"/>
<path d="M108.687 31.5972H108.904C109.167 31.5972 109.38 31.8105 109.38 32.0738V34.5773H108.211V32.0738C108.211 31.8105 108.424 31.5972 108.687 31.5972Z" fill="#EBF3FA"/>
<path d="M102.681 31.5957H102.898C103.161 31.5957 103.374 31.809 103.374 32.0723V34.5758H102.205V32.0723C102.205 31.809 102.418 31.5957 102.681 31.5957Z" fill="#EBF3FA"/>
<path d="M101.237 34.5748H100.068L100.069 32.0713C100.069 31.808 100.282 31.5947 100.545 31.5947H100.762C101.025 31.5947 101.238 31.808 101.238 32.0713V34.5748H101.237Z" fill="#EBF3FA"/>
<path d="M111.977 46.1782H97.3701V49.2138H111.977V46.1782Z" fill="#96A6FE"/>
<path d="M111.969 49.2148H97.3623V91.554H111.969V49.2148Z" fill="#96A6FE"/>
<path d="M14.8961 95.4512C14.8961 95.4512 13.2569 83.6251 27.0865 79.9131C40.9161 76.201 44.4131 86.9867 44.4131 86.9867C44.4131 86.9867 49.1455 84.3349 53.3876 86.2468C53.3876 86.2468 59.4211 80.6403 70.7435 82.7925C70.7435 82.7925 74.9501 73.4882 86.2417 74.1353C93.3323 74.5413 99.6975 82.8099 99.6975 82.8099C99.6975 82.8099 106.398 73.5461 118.422 81.6149C118.422 81.6149 124.502 78.0361 130.46 81.6188C130.46 81.6188 135.742 79.8298 138.882 81.2636C138.882 81.2636 146.791 79.3564 151.199 85.6838C151.199 85.6838 161.947 82.4594 169.304 87.5545C169.304 87.5545 171.896 86.0018 174.915 86.541C174.915 86.541 178.572 84.7306 182.464 86.5434C186.357 88.3562 186.038 92.0167 186.038 92.0167C186.038 92.0167 191.474 91.0167 191.954 95.7121L14.8953 95.4504L14.8961 95.4512Z" fill="#88A4F3"/>
<path d="M105.103 3.56006H104.864V8.05241H105.103V3.56006Z" fill="#ABB8FF"/>
<path d="M104.56 3.55981C104.56 3.32509 104.75 3.13477 104.984 3.13477C105.218 3.13477 105.408 3.32509 105.408 3.55981C105.408 3.79454 105.218 3.98486 104.984 3.98486C104.75 3.98486 104.56 3.79454 104.56 3.55981Z" fill="#CADBFC"/>
<path d="M133.73 14.4366C133.73 14.4366 134.49 12.554 136.304 12.7641C136.304 12.7641 138.94 9.627 141.748 12.3478C141.748 12.3478 144.734 11.6753 146.945 12.933C148.418 13.772 148.906 14.6515 148.906 14.6515L133.731 14.4374L133.73 14.4366Z" fill="#F8FCFF"/>
<path d="M38.3477 24.2468C38.3477 24.2468 39.1182 22.3364 40.9593 22.5498C40.9593 22.5498 43.6327 19.3667 46.4828 22.1271C46.4828 22.1271 49.5125 21.4443 51.756 22.721C53.2519 23.5719 53.7452 24.4649 53.7452 24.4649L38.3477 24.2476V24.2468Z" fill="#F8FCFF"/>
<path d="M94.8846 57.7627C94.8846 57.7627 91.0361 56.9667 88.6715 58.6252C86.9426 59.838 87.5715 71.1928 89.2473 71.7713C90.9231 72.3499 93.6249 71.8061 93.6249 71.8061L94.8846 57.7627V57.7627Z" fill="#233862"/>
<path d="M105.259 64.4028C105.259 64.4028 105.34 63.6188 105.517 63.3988C105.694 63.1787 105.905 62.5534 106.053 62.6545C106.202 62.7557 105.996 63.2008 106.119 63.3469C106.243 63.493 107.499 63.0225 107.604 63.1945C107.709 63.3665 107.728 63.9375 107.282 64.1676C106.836 64.3978 105.773 64.8758 105.381 65.0826C105.124 65.2179 105.259 64.4028 105.259 64.4028V64.4028Z" fill="#FFB27D"/>
<path d="M96.979 59.4281C96.979 59.4281 96.9158 61.2655 97.4361 62.1526C97.9558 63.0398 101.948 66.9404 103.065 67.4475C104.183 67.9546 103.726 64.8703 103.372 64.6117C103.018 64.3524 99.4364 58.0143 96.979 59.4281Z" fill="#FFB27D"/>
<path d="M102.741 65.1967C102.741 65.1967 101.492 67.3294 100.332 68.0616C100.244 68.1173 100.147 68.1634 100.043 68.2026C98.7564 68.6883 96.304 68.0604 96.304 68.0604L95.9775 67.1979C95.9775 67.1979 96.9487 66.9077 98.1736 66.7149C99.3979 66.5214 100.631 62.7788 101.92 62.0042C102.519 61.6432 102.683 63.7974 102.726 64.7547C102.738 65.0222 102.741 65.1961 102.741 65.1961V65.1967Z" fill="#F96254"/>
<path d="M102.74 65.1965C102.74 65.1965 101.492 67.3292 100.331 68.0614C100.243 68.117 100.147 68.1632 100.042 68.2024C100.079 68.1632 101.278 66.8967 101.342 66.1133C101.406 65.3172 101.987 64.4567 102.567 64.5863C102.64 64.6021 102.692 64.6628 102.726 64.7545C102.737 65.0219 102.74 65.1958 102.74 65.1958V65.1965Z" fill="#E74C3D"/>
<path d="M105.393 58.3164C105.393 58.3164 104.332 58.9418 104.982 60.1545C104.982 60.1545 104.054 59.9838 103.853 59.7062C103.853 59.7062 103.877 59.8219 103.911 59.8801C103.911 59.8801 103.057 59.686 102.778 59.3294C102.499 58.9728 103.87 54.6991 106.089 55.8068C106.089 55.8068 108.119 56.1843 107.323 58.441C106.527 60.697 107.279 60.8968 107.279 60.8968C107.279 60.8968 107.043 60.9443 106.942 60.9177C106.942 60.9177 106.809 60.8222 106.801 60.7331C106.801 60.7331 106.796 60.869 106.824 60.9196C106.824 60.9196 105.993 60.7811 105.669 60.367C105.345 59.9528 105.152 58.7616 105.393 58.3171V58.3164Z" fill="#233862"/>
<path d="M103.862 61.9482C103.862 61.9482 103.859 61.949 103.857 61.9498C103.85 61.949 103.851 61.9482 103.862 61.9482Z" fill="#FFB27D"/>
<path d="M106.439 61.2063C106.47 61.4858 106.507 61.7368 106.524 61.8563C106.561 62.1244 104.022 61.9492 103.86 61.9486C103.973 61.8993 104.318 60.8054 104.427 60.3887C104.56 59.8829 104.664 59.3359 104.664 59.3359L106.456 59.4498L106.563 59.4567C106.497 59.7014 106.449 59.9328 106.417 60.1472C106.413 60.1763 106.409 60.2053 106.405 60.2338C106.372 60.4722 106.401 60.861 106.44 61.2069L106.439 61.2063Z" fill="#FFB27D"/>
<path d="M104.417 59.1544C104.417 59.1544 104.126 58.2313 104.186 57.5237C104.228 57.0185 104.947 55.2949 106.674 56.029C106.674 56.029 107.181 56.2187 107.583 56.6802C107.903 57.047 108.315 57.7659 107.273 59.1595L106.97 59.6432L104.416 59.1544H104.417Z" fill="#233862"/>
<path d="M106.438 61.2058C105.184 60.8378 104.652 59.3867 104.652 59.3867C105.183 59.4025 105.874 59.7712 106.415 60.1461C106.411 60.1752 106.407 60.2043 106.403 60.2327C106.37 60.4711 106.399 60.86 106.438 61.2058Z" fill="#ED975D"/>
<path d="M106.527 60.6965C106.527 60.6965 104.262 60.135 104.633 58.7275C105.004 57.32 104.961 56.3001 106.423 56.5992C107.885 56.8983 108.024 57.5091 108.013 58.0092C108.004 58.5094 107.126 60.8065 106.527 60.6965Z" fill="#FFB27D"/>
<path d="M108.154 57.2087C107.48 56.1401 106.676 56.0288 106.673 56.0288C106.097 55.6419 105.335 56.5903 105.335 56.5903C104.917 57.5596 104.037 57.9453 104.037 57.9453C104.037 57.9453 104.381 58.3089 105.393 58.3165C105.703 58.319 106.015 58.1812 106.301 57.9896C105.748 58.5315 105.102 58.8571 105.102 58.8571C106.317 58.6434 107.168 57.3035 107.318 57.0506C107.481 57.3137 107.644 57.6203 107.653 57.81C107.67 58.1982 107.526 58.9494 107.747 58.981C107.747 58.981 108.608 57.9289 108.154 57.2093V57.2087Z" fill="#233862"/>
<path d="M106.175 59.7938C106.175 59.7938 106.203 60.0082 106.34 60.0588C106.476 60.1093 106.838 60.2017 106.875 60.1789C106.912 60.1561 107.047 59.9892 107.047 59.9892C107.047 59.9892 106.477 59.7698 106.175 59.7938Z" fill="white"/>
<path d="M105.321 81.3228C105.292 81.4436 105.264 81.5625 105.235 81.6807C105.064 82.3914 104.905 83.0503 104.805 83.6016C104.674 84.3193 104.643 84.8536 104.814 85.0781C105.517 86.0018 104.812 93.3327 104.812 93.3327L104.01 94.1585C104.01 94.1585 102.621 86.9199 102.244 85.7862C102.072 85.2709 101.822 83.0686 101.603 80.8208C101.591 80.7082 101.581 80.5957 101.57 80.4831C101.532 80.0899 101.495 79.6985 101.46 79.3159C101.262 77.1889 101.115 75.3679 101.115 75.3679C101.115 75.3679 102.592 74.329 103.934 74.2133C104.724 74.1444 105.468 74.3966 105.834 75.3691C106.369 76.7842 105.826 79.2268 105.322 81.3228H105.321Z" fill="#FFB27D"/>
<path d="M105.096 81.8105C104.063 80.6819 103.383 79.0657 102.122 76.8034C102.015 75.6526 102.921 74.5593 103.933 74.2147C104.723 74.1458 105.466 74.3981 105.833 75.3706C106.367 76.7857 105.6 79.7151 105.096 81.8112V81.8105Z" fill="#ED975D"/>
<path d="M108.416 62.2437C108.089 61.7903 107.008 61.7732 106.768 61.7612C106.593 61.7517 106.919 61.0094 106.61 60.9247C106.358 60.8558 106.029 61.1568 105.769 61.2257C105.247 61.3654 104.505 60.9981 104.243 60.914C104.107 60.8703 103.946 61.1081 103.968 61.2484C103.995 61.4154 102.741 61.4457 101.92 62.0034C101.461 62.3151 101.594 64.8829 101.594 64.8829C101.515 66.8278 102.06 69.7067 102.06 69.7067C104.252 71.0307 106.905 69.8698 106.905 69.8698C106.905 69.8698 106.856 69.6144 106.865 69.5448C106.872 69.4873 106.92 69.0668 106.93 69.0194C106.951 68.9144 108.685 62.6142 108.416 62.243V62.2437Z" fill="#F96254"/>
<path d="M114.71 88.127L114.458 89.169C114.458 89.169 107.166 85.3942 106.223 84.6696C105.844 84.3781 105.344 82.7973 104.881 81.0092C104.19 78.3441 103.583 75.218 103.583 75.218C103.583 75.218 104.607 71.2807 107.343 73.6916C108.98 75.1345 108.725 77.9135 108.545 80.0747C108.425 81.5252 108.339 82.6974 108.881 83.0009C109.941 83.5934 113.049 86.3218 114.032 88.1991L114.71 88.1276V88.127Z" fill="#FFB27D"/>
<path d="M110.762 77.7847C110.762 77.7847 110.051 77.9883 108.984 78.2134C106.779 78.6788 103.05 79.2358 100.914 78.2811C100.914 78.2811 101.052 75.1354 101.424 72.7573C101.721 70.8554 101.997 69.6066 101.997 69.6066C101.997 69.6066 103.982 70.1055 105.999 69.7197C106.018 69.716 106.037 69.7128 106.056 69.7084C106.32 69.6559 106.585 69.5876 106.845 69.501C106.845 69.501 108.366 71.6862 109.151 73.2069C109.694 74.2584 110.762 77.7847 110.762 77.7847H110.762Z" fill="#3842B2"/>
<path d="M116.153 88.5315C116.153 88.5315 116.15 88.5315 116.146 88.5302C116.113 88.522 115.964 88.4727 115.864 88.2337C115.798 88.0762 115.779 87.9472 115.719 87.7917L115.472 87.3662C115.215 87.0266 115.125 87.1063 115.125 87.1063C115.125 87.1063 115.057 87.1929 114.958 87.3067C114.794 87.4945 114.541 87.7569 114.363 87.8246C114.236 87.872 114.157 87.951 114.108 88.0244C114.046 88.1161 114.032 88.1995 114.032 88.1995C114.032 88.1995 114.561 88.2918 114.515 88.553C114.425 89.0582 114.446 89.1499 114.455 89.1663L114.458 89.1695C114.458 89.1695 115.36 89.6424 115.649 89.7354C116.162 89.9004 116.43 90.2494 116.596 90.4094C116.664 90.4739 116.757 90.5036 116.849 90.4891C116.984 90.4676 117.16 90.4246 117.198 90.3411L116.153 88.5327V88.5315Z" fill="#2B478B"/>
<path d="M105.616 94.5269L105.184 94.7608C105.027 94.8164 104.897 94.8322 104.739 94.8929C104.498 94.9853 104.327 95.1674 104.32 95.2002C104.198 95.6966 104.019 95.6814 104.019 95.6814H102.289C102.207 95.6397 102.346 95.2888 102.413 95.2236C102.577 95.0618 103.068 95.1433 103.247 94.6343C103.348 94.3485 103.847 93.4595 103.847 93.4595L103.85 93.4564C103.867 93.4475 103.96 93.4292 104.461 93.5335C104.72 93.5873 104.828 93.0605 104.828 93.0605C104.828 93.0605 104.911 93.077 105 93.1421C105.072 93.1927 105.148 93.2749 105.192 93.4026C105.254 93.5828 105.509 93.8427 105.692 94.0128C105.803 94.1159 105.887 94.1854 105.887 94.1854C105.887 94.1854 105.964 94.2784 105.617 94.5262L105.616 94.5269Z" fill="#2B478B"/>
<path d="M104.104 70.1937C102.634 70.1937 102.027 69.686 101.983 69.6518L101.917 68.8608C101.931 68.871 103.875 70.1564 106.93 69.0208L106.865 69.5462C105.69 69.9832 104.868 70.1944 104.105 70.1944L104.104 70.1937Z" fill="#FF8479"/>
<path d="M106.92 62.0763C106.92 62.0763 111.95 62.2495 112.928 62.0143C113.907 61.7797 116.295 60.4873 116.295 60.4873L116.646 61.1537C116.646 61.1537 114.258 63.3086 112.928 63.7C111.597 64.0914 107.175 64.4822 107.175 64.4822L106.921 62.0769L106.92 62.0763Z" fill="#FFB27D"/>
<path d="M116.548 61.8902H115.84C115.703 61.8902 115.591 61.7783 115.591 61.6399V59.1511C115.591 59.0133 115.703 58.9014 115.841 58.9014H116.549C116.687 58.9014 116.799 59.0133 116.799 59.1518V61.6405C116.798 61.7783 116.686 61.8902 116.548 61.8902Z" fill="#37547F"/>
<path d="M116.769 61.8902H116.061C115.923 61.8902 115.812 61.7783 115.812 61.6399V59.1511C115.812 59.0133 115.924 58.9014 116.062 58.9014H116.77C116.908 58.9014 117.019 59.0133 117.019 59.1518V61.6405C117.019 61.7783 116.907 61.8902 116.769 61.8902Z" fill="#152847"/>
<path d="M117.274 59.775C117.274 59.775 116.658 59.2103 116.472 59.4228C116.286 59.6359 116.775 60.8082 117 60.8505C117.225 60.8929 117.519 60.2644 117.274 59.7744V59.775Z" fill="#FFB27D"/>
<path d="M115.366 59.1257C115.366 59.1257 115.853 59.1775 115.908 58.9069C115.964 58.6363 115.964 58.2544 115.964 58.2544C115.964 58.2544 115.992 59.0422 116.194 59.1137C116.396 59.1851 116.634 59.1851 116.634 59.1851C116.634 59.1851 116.266 59.2465 116.155 59.316C116.026 59.3963 115.968 59.6398 115.973 59.7751C115.973 59.7751 115.955 59.4526 115.782 59.292C115.725 59.2389 115.522 59.1649 115.365 59.1244L115.366 59.1257Z" fill="white"/>
<path d="M107.046 61.775C107.046 61.775 110.751 62.2422 111.611 62.007C112.47 61.7718 114.876 60.8701 115.234 61.0364C115.234 61.0364 115.557 61.5151 115.413 62.1815C115.413 62.1815 114.172 63.5113 112.996 63.8729C111.819 64.2346 108.08 64.5394 107.783 65.7192L106.728 65.0977C106.728 65.0977 106.228 62.2966 106.301 62.2479C106.375 62.1999 107.046 61.775 107.046 61.775V61.775Z" fill="#F96254"/>
<path d="M100.361 95.53L95.5301 95.5281C95.1841 95.2929 95.6242 92.9951 95.6242 92.9951C95.6242 92.9951 96.9426 92.4943 97.1706 93.5136C97.3985 94.5316 98.8495 94.8559 99.6173 94.9805C100.143 95.0665 100.309 95.3555 100.361 95.53V95.53Z" fill="#233862"/>
<path d="M98.9511 71.5142C98.9511 71.5142 98.8514 74.7983 98.595 78.0591C98.2465 82.489 97.3069 93.472 97.3069 93.472C97.3069 93.472 96.6938 93.9962 95.335 93.7085C95.335 93.7085 94.2155 90.0348 93.8512 85.7933C93.8462 85.727 93.8405 85.6606 93.8354 85.5948C93.8304 85.524 93.8247 85.4525 93.8196 85.3811C93.6593 83.1737 93.454 79.7429 93.2892 76.8704C93.1257 74.013 93.002 71.7076 93.002 71.7076L98.9505 71.5142H98.9511Z" fill="#F96254"/>
<path d="M96.4667 74.3955L93.852 85.7927C93.8469 85.7263 93.8413 85.6599 93.8362 85.5941C93.8312 85.5233 93.8255 85.4519 93.8204 85.3804C93.66 83.1731 93.4548 79.7422 93.29 76.8697L93.3936 76.3759L96.466 74.3961L96.4667 74.3955Z" fill="#E05447"/>
<path d="M93.1961 95.527L88.3651 95.5251C88.0191 95.2899 88.4592 92.9922 88.4592 92.9922C88.4592 92.9922 89.7776 92.4914 90.0055 93.5106C90.2335 94.5286 91.6844 94.853 92.4522 94.9776C92.9776 95.0636 93.1436 95.3525 93.1961 95.527V95.527Z" fill="#233862"/>
<path d="M97.7577 71.1469C97.7577 71.1469 94.3051 79.7449 93.2008 83.0044C92.4147 85.3262 90.1965 93.4708 90.1965 93.4708C90.1965 93.4708 89.233 93.7642 88.4235 93.1964C88.4235 93.1964 87.9796 85.1017 89.2677 82.5283C90.307 80.4518 89.4919 69.587 93.0732 69.4884C96.6546 69.3897 97.7577 71.1475 97.7577 71.1475V71.1469Z" fill="#F96254"/>
<path d="M98.8165 65.9789C98.6328 68.9634 99.1392 72.0408 99.1392 72.0408C98.0582 73.1903 91.7927 73.6898 90.5526 72.7217C90.2602 72.4935 91.2111 70.8293 91.3538 67.5009C91.4403 65.4819 91.1878 63.8329 91.1429 63.0337C90.9813 60.1365 90.6839 59.5276 91.2964 59.1602C91.96 58.7625 93.4381 58.3939 95.0192 58.2244C95.5439 58.1688 96.2706 58.2295 97.0113 58.3819C97.2626 58.4337 97.5152 58.4957 97.762 58.5671C98.5178 58.7865 99.2193 59.0964 99.6538 59.4656C100.23 59.9556 101.394 61.6603 101.394 61.6603C101.394 61.6603 99.8299 63.7842 99.0564 64.1547C99.0451 64.1598 99.0331 64.1655 99.0217 64.1705C98.9188 64.7687 98.8538 65.3782 98.8171 65.977C98.8171 65.9789 98.8171 65.9795 98.8171 65.9795L98.8165 65.9789Z" fill="#3842B2"/>
<path d="M93.0664 59.3857C93.0664 59.3857 91.2416 59.5893 90.4404 60.2324C89.6391 60.8761 86.172 65.2016 85.8329 66.3821C85.4939 67.5626 90.1922 70.3359 90.1922 70.3359L90.5363 69.4829C90.5363 69.4829 88.2917 66.771 88.4969 66.3834C88.7014 65.9952 94.8192 61.6159 93.067 59.3857H93.0664Z" fill="#FFB27D"/>
<path d="M94.1765 58.2238C94.1765 58.2238 91.9445 58.507 90.8231 59.4093C90.3066 59.8254 88.4092 62.1244 88.4092 62.1244C88.4092 62.1244 88.9074 64.223 91.534 64.4867C94.2081 64.7548 94.0938 60.3489 94.0938 60.3489L94.1765 58.2231V58.2238Z" fill="#3842B2"/>
<path d="M93.6708 58.3247C93.6032 58.4486 93.6184 58.5978 93.7093 58.7053C93.977 59.0208 94.6823 59.5349 96.3233 59.2187C96.8853 59.1106 96.9668 58.6845 96.5582 58.3082C96.4585 58.2166 96.4181 57.6228 96.3991 57.3851C96.3669 56.8344 96.3088 56.5296 96.3088 56.5296L95.046 55.9099L93.8469 55.3149C94.234 57.0095 93.8659 57.9674 93.6708 58.3247V58.3247Z" fill="#FFB27D"/>
<path d="M94.1084 56.478C94.1084 56.478 94.9526 57.2955 96.3979 57.3853C96.3657 56.8346 96.3076 56.5298 96.3076 56.5298L95.0448 55.9102L94.1084 56.478V56.478Z" fill="#ED985F"/>
<path d="M96.8198 56.4745C96.8198 56.4745 94.1716 57.4426 93.5958 55.8093C93.0199 54.1755 92.29 53.2005 93.9563 52.5132C95.6226 51.8259 96.1726 52.3342 96.4996 52.8325C96.8267 53.3307 97.4941 56.1805 96.8198 56.4745Z" fill="#FFB27D"/>
<path d="M91.9733 52.6822C91.943 52.6582 91.8817 52.6462 91.7529 52.6639C91.7529 52.6639 91.8426 52.581 91.9783 52.5513C91.9714 52.3686 92.0061 52.0373 92.296 51.9026C92.296 51.9026 92.1488 52.0214 92.1633 52.2137C92.4475 51.7837 93.1231 51.116 95.256 51.2709C97.8619 51.46 97.3428 52.5532 96.8699 52.9086C96.5321 53.1621 95.8634 52.9288 95.2074 53.1084C94.5514 53.2879 94.6082 54.2756 94.4074 54.4507C94.2066 54.6259 94.2508 54.3755 93.9193 54.2952C93.5872 54.2149 93.6547 54.7277 93.8057 55.0407C93.9566 55.3537 93.6194 55.8683 93.6194 55.8683L93.1079 55.4915C92.5965 55.1146 91.8287 53.2525 91.943 52.8023C91.9531 52.7625 91.9632 52.7227 91.9733 52.6822Z" fill="#2C3A64"/>
<path d="M96.9237 55.3237C96.9237 55.3237 96.8663 55.6651 96.5051 55.753C96.1446 55.8403 95.873 55.6089 95.873 55.6089C95.873 55.6089 96.4388 55.2554 96.9231 55.3237H96.9237Z" fill="white"/>
<path d="M106.898 68.3971C106.898 68.3971 105.732 69.0029 105.946 69.4979C106.161 69.993 106.934 69.8425 107.149 69.4979C107.364 69.154 107.146 68.2978 106.898 68.3971Z" fill="#FFB27D"/>
<path d="M90.5349 69.4826C90.5349 69.4826 91.6304 69.0564 92.0389 69.3144C92.4468 69.5724 92.9406 70.6485 92.6186 70.6915C92.2965 70.7345 91.5502 70.2173 91.3728 70.3362C91.1954 70.4544 90.653 70.9919 90.1914 70.3362L90.5355 69.4832L90.5349 69.4826Z" fill="#FFB27D"/>
<path d="M92.055 58.5585C92.055 58.5585 94.1753 62.7057 91.3182 65.0927L91.291 66.2219C91.291 66.2219 93.0299 65.3133 93.6279 63.3614C94.3534 60.9903 93.2156 58.2695 93.2156 58.2695L92.0557 58.5585H92.055Z" fill="#233862"/>
<path d="M98.8169 65.9759V65.9784C98.5776 63.5909 97.2428 59.1395 97.0117 58.3813C97.263 58.4332 97.5156 58.4952 97.7625 58.5666C98.5252 60.4705 98.9268 62.0436 99.0455 63.8684C99.0518 63.9645 99.055 64.06 99.0562 64.1536C99.0676 65.1191 98.8315 65.9272 98.8169 65.9753V65.9759Z" fill="#233862"/>
<path d="M179.584 95.5225H174.308C174.025 95.2822 174.504 94.7366 175.003 94.7002C175.22 94.6835 175.495 94.7295 175.809 94.7953C175.881 93.8295 176.296 89.4893 177.858 89.6638C179.614 89.8589 177.858 91.5757 177.361 92.5916C176.993 93.3441 176.605 94.4234 176.428 94.9325C176.57 94.9634 176.718 94.9936 176.869 95.0213C177.102 94.3053 177.968 91.8969 179.07 92.0373C180.364 92.2014 179.843 93.1673 178.926 93.7406C178.254 94.1617 177.427 94.7612 177.035 95.0507C177.368 95.1054 177.715 95.1419 178.067 95.1331C178.971 95.1117 179.412 95.3782 179.583 95.5217L179.584 95.5225Z" fill="#BCE8B4"/>
<path d="M69.2111 95.1586C68.9363 94.7256 68.108 93.6027 67.0056 93.751C65.8043 93.9128 68.3328 94.7058 69.1065 95.1618C68.9347 95.1642 68.7866 95.1507 68.6781 95.1118C68.161 94.9271 67.2741 95.2815 66.9914 95.406H71.9177C71.8837 95.2879 71.795 95.0952 71.5654 94.9548C71.4846 94.9056 71.3215 94.8985 71.1116 94.9144C71.4046 94.5686 71.6081 93.464 70.7925 93.7479C70.197 93.9556 70.1985 94.6305 70.2571 95.0301C70.1304 95.05 70.0022 95.0698 69.8747 95.0888C69.6292 93.8367 68.7621 90.1682 67.0033 90.0707C65.2207 89.9716 68.515 93.8755 69.6118 95.1245C69.4716 95.1412 69.3362 95.1546 69.2103 95.1602L69.2111 95.1586Z" fill="#BCE8B4"/>
<path d="M123.514 91.5363C123.796 91.6505 124.802 91.5577 124.835 91.4776C124.868 91.3967 124.209 90.6283 123.927 90.5141C123.645 90.3999 123.324 90.5355 123.21 90.8178C123.096 91.1001 123.232 91.4213 123.514 91.5363V91.5363Z" fill="#BCE8B4"/>
<path d="M126.054 92.0176C125.896 92.2777 125.824 93.288 125.899 93.3332C125.973 93.3784 126.836 92.8518 126.995 92.5917C127.153 92.3316 127.071 91.9922 126.811 91.8336C126.551 91.675 126.212 91.7575 126.054 92.0176Z" fill="#BCE8B4"/>
<path d="M124.697 93.9945C124.987 94.0873 125.984 93.9184 126.01 93.8351C126.036 93.7527 125.321 93.0366 125.031 92.9438C124.741 92.851 124.431 93.0112 124.339 93.3015C124.246 93.5917 124.406 93.9018 124.696 93.9945H124.697Z" fill="#BCE8B4"/>
<path d="M126.165 94.9723C126.164 94.9493 126.052 92.6631 124.802 91.4831L124.829 91.4546C126.09 92.6457 126.203 94.9478 126.203 94.9708L126.165 94.9723V94.9723Z" fill="#BCE8B4"/>
<path d="M130.337 91.5855C130.161 91.7021 129.465 91.779 129.432 91.729C129.399 91.6791 129.74 91.0661 129.915 90.9495C130.09 90.833 130.328 90.8805 130.444 91.0566C130.56 91.2326 130.513 91.4697 130.337 91.5863V91.5855Z" fill="#BCE8B4"/>
<path d="M128.679 92.2641C128.822 92.4187 129.01 93.0943 128.966 93.1356C128.922 93.1768 128.263 92.9389 128.12 92.7843C127.976 92.6297 127.985 92.3878 128.139 92.2442C128.294 92.1007 128.535 92.1094 128.679 92.2641Z" fill="#BCE8B4"/>
<path d="M129.872 93.4188C129.689 93.5219 128.988 93.5449 128.959 93.4925C128.929 93.4402 129.316 92.855 129.499 92.7519C129.683 92.6488 129.916 92.7146 130.019 92.8986C130.122 93.0825 130.056 93.3157 129.872 93.4188Z" fill="#BCE8B4"/>
<path d="M129.012 94.2855C129.01 94.2696 128.769 92.7019 129.455 91.7273L129.433 91.7114C128.741 92.6947 128.983 94.2736 128.985 94.2895L129.012 94.2855H129.012Z" fill="#BCE8B4"/>
<path d="M127.775 94.8389L127.696 94.8262C127.382 90.7676 126.145 87.8549 126.128 87.8161L126.2 87.7852C126.217 87.8248 127.464 90.7565 127.775 94.8397V94.8389Z" fill="#BCE8B4"/>
<path d="M125.287 87.4069C125.44 87.5798 126.155 87.8589 126.204 87.8153C126.254 87.7717 126.067 87.027 125.914 86.8542C125.761 86.6813 125.497 86.6646 125.325 86.8177C125.152 86.9707 125.135 87.2348 125.288 87.4077L125.287 87.4069Z" fill="white"/>
<path d="M126.381 86.8035C126.244 86.9883 126.119 87.7464 126.172 87.786C126.225 87.8257 126.914 87.4887 127.051 87.3039C127.189 87.1183 127.151 86.8566 126.966 86.7187C126.781 86.5807 126.519 86.6187 126.381 86.8043V86.8035Z" fill="white"/>
<path d="M127.205 87.609C126.983 87.5488 126.233 87.7089 126.215 87.7724C126.198 87.8358 126.763 88.3552 126.986 88.4163C127.208 88.4774 127.438 88.3457 127.498 88.1229C127.559 87.9001 127.428 87.6701 127.205 87.6098V87.609Z" fill="white"/>
<path d="M126.698 88.6133C126.676 88.3833 126.26 87.7378 126.194 87.7442C126.129 87.7505 125.844 88.4634 125.866 88.6934C125.889 88.9234 126.093 89.0915 126.323 89.0693C126.552 89.0471 126.72 88.8425 126.698 88.6125V88.6133Z" fill="white"/>
<path d="M125.56 88.5642C125.764 88.4571 126.204 87.8275 126.174 87.7696C126.143 87.7109 125.376 87.7165 125.172 87.8243C124.968 87.9314 124.889 88.1843 124.996 88.3889C125.103 88.5935 125.356 88.672 125.56 88.565V88.5642Z" fill="white"/>
<path d="M126.038 87.7478C126.05 87.6724 126.12 87.6217 126.195 87.6336C126.271 87.6455 126.321 87.716 126.309 87.7914C126.298 87.8667 126.227 87.9175 126.152 87.9056C126.077 87.8937 126.026 87.8231 126.038 87.7478Z" fill="#163560"/>
<path d="M127.752 90.6892C127.526 90.9684 127.28 92.1412 127.36 92.2054C127.44 92.2705 128.536 91.7915 128.763 91.5116C128.99 91.2324 128.947 90.8217 128.668 90.5941C128.39 90.3665 127.979 90.4093 127.752 90.6884V90.6892Z" fill="#BCE8B4"/>
<path d="M123.261 95.2537L123.207 95.2522C122.643 92.5869 121.567 90.763 121.552 90.7384L121.597 90.7114C121.612 90.7368 122.696 92.5718 123.261 95.2537V95.2537Z" fill="#BCE8B4"/>
<path d="M120.959 90.5413C121.075 90.6428 121.574 90.7649 121.602 90.7316C121.631 90.6983 121.442 90.2209 121.325 90.1194C121.209 90.0179 121.032 90.0306 120.931 90.1471C120.83 90.2637 120.842 90.4405 120.958 90.5421L120.959 90.5413Z" fill="white"/>
<path d="M121.633 90.0448C121.558 90.1796 121.541 90.6934 121.58 90.7148C121.619 90.7362 122.046 90.4524 122.121 90.3176C122.197 90.1827 122.148 90.0122 122.014 89.9369C121.879 89.8616 121.709 89.9099 121.634 90.0448H121.633Z" fill="white"/>
<path d="M122.249 90.5071C122.096 90.4865 121.612 90.6585 121.606 90.7022C121.601 90.7458 122.021 91.0408 122.174 91.0614C122.327 91.082 122.468 90.975 122.489 90.8219C122.509 90.6689 122.402 90.5277 122.25 90.5071H122.249Z" fill="white"/>
<path d="M122.001 91.2174C121.966 91.0667 121.634 90.6749 121.591 90.6853C121.548 90.6956 121.421 91.1936 121.456 91.3442C121.491 91.4949 121.641 91.5885 121.792 91.5536C121.942 91.5187 122.036 91.368 122.001 91.2174Z" fill="white"/>
<path d="M121.241 91.2851C121.367 91.1962 121.604 90.7395 121.579 90.7038C121.553 90.6681 121.045 90.7387 120.919 90.8275C120.793 90.9163 120.763 91.0916 120.852 91.2177C120.94 91.3437 121.115 91.3739 121.241 91.2851V91.2851Z" fill="white"/>
<path d="M121.486 90.7015C121.488 90.6507 121.53 90.6103 121.581 90.6119C121.632 90.6134 121.673 90.6555 121.671 90.7062C121.669 90.757 121.627 90.7974 121.576 90.7958C121.525 90.7942 121.485 90.7522 121.486 90.7015Z" fill="#163560"/>
<path d="M122.882 92.502C122.757 92.7074 122.696 93.5068 122.755 93.5425C122.814 93.5781 123.499 93.1642 123.625 92.9588C123.751 92.7534 123.687 92.4846 123.482 92.3585C123.277 92.2324 123.008 92.2966 122.882 92.502V92.502Z" fill="#BCE8B4"/>
<path d="M131.859 94.9018L131.93 94.8907C132.208 91.2762 133.311 88.6823 133.327 88.6474L133.262 88.6196C133.247 88.6553 132.136 91.2659 131.858 94.9026L131.859 94.9018Z" fill="#BCE8B4"/>
<path d="M134.074 88.2831C133.938 88.4378 133.302 88.6852 133.257 88.6463C133.213 88.6075 133.38 87.9445 133.516 87.7899C133.652 87.636 133.887 87.621 134.041 87.7574C134.195 87.8938 134.21 88.1285 134.074 88.2831V88.2831Z" fill="white"/>
<path d="M133.098 87.7456C133.22 87.9106 133.332 88.5854 133.285 88.6203C133.238 88.6552 132.624 88.3555 132.501 88.1905C132.379 88.0256 132.413 87.7924 132.577 87.6695C132.742 87.5466 132.975 87.5807 133.098 87.7456V87.7456Z" fill="white"/>
<path d="M132.366 88.4626C132.564 88.4087 133.233 88.5515 133.248 88.6078C133.263 88.6641 132.76 89.1264 132.562 89.1811C132.364 89.235 132.16 89.1185 132.105 88.9194C132.051 88.7212 132.168 88.5166 132.366 88.4618V88.4626Z" fill="white"/>
<path d="M132.817 89.357C132.837 89.1524 133.207 88.5775 133.265 88.583C133.324 88.5886 133.577 89.2238 133.558 89.4284C133.538 89.633 133.356 89.7829 133.151 89.763C132.947 89.7432 132.797 89.5616 132.817 89.3562V89.357Z" fill="white"/>
<path d="M133.831 89.3134C133.649 89.2175 133.258 88.6576 133.285 88.6053C133.311 88.5529 133.995 88.5585 134.176 88.6536C134.358 88.7496 134.428 88.9748 134.332 89.1564C134.236 89.3388 134.012 89.4086 133.83 89.3126L133.831 89.3134Z" fill="white"/>
<path d="M133.405 88.5861C133.395 88.5195 133.332 88.4735 133.265 88.4846C133.199 88.4949 133.153 88.5583 133.164 88.6249C133.174 88.6915 133.237 88.7375 133.304 88.7264C133.37 88.7161 133.416 88.6527 133.406 88.5861H133.405Z" fill="#163560"/>
<path d="M131.695 92.1738C131.897 92.4228 132.115 93.4664 132.044 93.5242C131.973 93.5821 130.997 93.1555 130.795 92.9065C130.593 92.6575 130.63 92.2919 130.879 92.0897C131.128 91.8875 131.493 91.9248 131.695 92.1738Z" fill="#BCE8B4"/>
<path d="M120.408 95.533C120.408 95.533 120.809 94.4791 122.262 94.4125C123.716 94.3459 124.717 95.2063 125.917 94.8098C127.119 94.4125 129.106 93.5164 130.987 94.1135C132.868 94.7107 133.185 95.533 133.185 95.533H120.408V95.533Z" fill="#BCE8B4"/>
<path d="M74.3903 95.4883L74.3079 95.4748C73.9848 91.2846 72.7067 88.2775 72.6885 88.2371L72.7629 88.2046C72.7811 88.2458 74.068 91.2727 74.3895 95.4883H74.3903Z" fill="#BCE8B4"/>
<path d="M71.8226 87.8154C71.9802 87.9938 72.7182 88.2817 72.7689 88.2365C72.8196 88.1913 72.6264 87.4229 72.4688 87.2436C72.3112 87.0652 72.0388 87.0478 71.8606 87.2056C71.6824 87.3634 71.665 87.6362 71.8226 87.8146V87.8154Z" fill="white"/>
<path d="M72.9534 87.1928C72.8109 87.3839 72.6818 88.1666 72.7364 88.207C72.7911 88.2475 73.5022 87.9002 73.6447 87.709C73.7873 87.5179 73.7477 87.2475 73.5568 87.1048C73.366 86.962 73.096 87.0017 72.9534 87.1928Z" fill="white"/>
<path d="M73.8013 88.0237C73.5716 87.961 72.7971 88.1267 72.7797 88.1926C72.7615 88.2584 73.3451 88.7945 73.5748 88.8571C73.8044 88.9198 74.0412 88.7841 74.1038 88.5542C74.1663 88.3242 74.0309 88.0871 73.8013 88.0245V88.0237Z" fill="white"/>
<path d="M73.2788 89.061C73.2558 88.8239 72.8266 88.157 72.7593 88.1641C72.692 88.1705 72.3982 88.9072 72.4212 89.1443C72.4442 89.3814 72.6548 89.555 72.8916 89.5328C73.1284 89.5098 73.3026 89.2989 73.2796 89.0618L73.2788 89.061Z" fill="white"/>
<path d="M72.1042 89.0103C72.3149 88.8993 72.7694 88.2498 72.7378 88.1896C72.7061 88.1293 71.9142 88.1349 71.7035 88.2459C71.4929 88.3569 71.4113 88.6178 71.5222 88.8287C71.6331 89.0397 71.8936 89.1213 72.1042 89.0103V89.0103Z" fill="white"/>
<path d="M72.5964 88.1672C72.6091 88.0895 72.6819 88.0372 72.7587 88.049C72.8364 88.0617 72.8886 88.1347 72.8767 88.2116C72.8641 88.2893 72.792 88.3417 72.7144 88.3298C72.6368 88.3171 72.5845 88.2449 72.5964 88.1672Z" fill="#F78248"/>
<path d="M74.0036 89.3997C73.7692 89.6883 73.5166 90.8984 73.5989 90.9658C73.6813 91.0324 74.8129 90.5384 75.0473 90.2498C75.2817 89.9611 75.2381 89.5368 74.9499 89.3029C74.6616 89.0682 74.238 89.1118 74.0036 89.4005V89.3997Z" fill="#BCE8B4"/>
<path d="M73.4273 92.8757C73.6704 92.9946 74.2089 93.717 74.1748 93.7868C74.1408 93.8566 73.2412 93.8772 72.9981 93.7583C72.755 93.6393 72.6536 93.3459 72.7724 93.1025C72.8912 92.859 73.1842 92.7575 73.4281 92.8765L73.4273 92.8757Z" fill="#BCE8B4"/>
<path d="M76.7352 95.4885L76.8294 95.4734C77.2008 90.6623 78.6674 87.2103 78.688 87.1628L78.6017 87.1255C78.5811 87.1731 77.1034 90.648 76.7344 95.4877L76.7352 95.4885Z" fill="#BCE8B4"/>
<path d="M79.683 86.6789C79.5024 86.8843 78.6551 87.2141 78.5965 87.1626C78.5379 87.1111 78.7596 86.2284 78.941 86.0231C79.1223 85.8177 79.4351 85.7986 79.6394 85.9794C79.8445 86.1602 79.8635 86.4735 79.683 86.6789Z" fill="white"/>
<path d="M78.3856 85.9638C78.5487 86.1834 78.6976 87.0811 78.635 87.1279C78.5725 87.1747 77.7553 86.7758 77.5921 86.5562C77.429 86.3365 77.4741 86.0264 77.6935 85.8623C77.9128 85.6989 78.2225 85.7441 78.3864 85.9638H78.3856Z" fill="white"/>
<path d="M77.4103 86.9184C77.674 86.8462 78.5633 87.0365 78.5839 87.1119C78.6045 87.1872 77.9346 87.8026 77.6709 87.8748C77.4072 87.9469 77.1348 87.7907 77.0635 87.5266C76.9914 87.2626 77.1474 86.9898 77.4111 86.9184H77.4103Z" fill="white"/>
<path d="M78.0103 88.1097C78.0364 87.837 78.529 87.0725 78.6074 87.0796C78.685 87.0868 79.0223 87.9329 78.9962 88.2049C78.9701 88.4777 78.7278 88.6767 78.4561 88.6506C78.1837 88.6244 77.985 88.3817 78.0111 88.1097H78.0103Z" fill="white"/>
<path d="M79.3596 88.0508C79.1173 87.9231 78.5962 87.1777 78.6327 87.1087C78.6691 87.0397 79.5782 87.0461 79.8197 87.1729C80.062 87.2998 80.1547 87.5996 80.028 87.8422C79.9013 88.0849 79.602 88.1777 79.3596 88.0508Z" fill="white"/>
<path d="M78.7931 87.0825C78.7789 86.9937 78.6957 86.9326 78.6062 86.9469C78.5175 86.9612 78.4566 87.0444 78.4708 87.134C78.4851 87.2229 78.5682 87.2839 78.6577 87.2696C78.7464 87.2554 78.8074 87.1713 78.7931 87.0825Z" fill="#F78248"/>
<path d="M76.7618 90.5695C77.0311 90.9009 77.3209 92.2903 77.2267 92.3672C77.1324 92.4441 75.8329 91.8763 75.5637 91.5449C75.2945 91.2134 75.3451 90.7265 75.6754 90.4577C76.0056 90.1888 76.4926 90.2388 76.761 90.5695H76.7618Z" fill="#BCE8B4"/>
<path d="M77.8397 92.4886C77.5601 92.6249 76.9424 93.4544 76.9812 93.5345C77.02 93.6146 78.0535 93.6376 78.3322 93.502C78.6117 93.3656 78.7274 93.0286 78.5912 92.7486C78.455 92.4687 78.1184 92.3529 77.8389 92.4893L77.8397 92.4886Z" fill="#BCE8B4"/>
<path d="M197.766 95.9998L0.2344 95.9332C0.105322 95.9332 0 95.8277 0 95.6985V95.5946C0 95.4653 0.105322 95.3599 0.2344 95.3599L197.766 95.4265C197.895 95.4265 198 95.5319 198 95.6612V95.7651C198 95.8943 197.895 95.9998 197.766 95.9998Z" fill="#233862"/>
</g>
<defs>
<clipPath id="clip0_5164_20454">
<rect width="198" height="96" fill="white"/>
</clipPath>
</defs>
</svg>
