<svg width="194" height="98" viewBox="0 0 194 98" fill="none" xmlns="http://www.w3.org/2000/svg">
<g clip-path="url(#clip0_5164_21131)">
<path d="M179.935 96.3805L179.951 96.3561C179.951 96.3561 179.967 96.3317 179.967 96.3194C180.026 96.2217 204.212 68.7356 166.59 49.6186C151.87 42.1378 167.507 37.193 155.8 28.864C142.347 19.2933 127.673 29.8901 112.714 25.5525C110.072 24.7864 107.419 23.5534 104.765 21.6615C102.993 20.4007 101.064 19.3591 99.0636 18.502C93.6687 16.1935 87.4893 15.1145 81.4382 14.7983C64.7269 13.9358 45.9217 18.8196 36.2185 25.9509C34.2658 27.3874 25.3836 34.8179 32.3902 45.0252C36.8145 51.4704 18.2924 57.632 11.7117 64.9953C0.563943 77.469 4.1626 87.2447 7.85053 92.4502C8.31905 93.1124 8.78835 93.7001 9.22941 94.2097C10.5274 95.7094 11.5774 96.5386 11.6148 96.5997L179.936 96.3805H179.935Z" fill="#EBF3FA"/>
<path d="M69.6567 77.5171H0V97.9525H69.6567V77.5171Z" fill="#FAFAFA"/>
<path d="M62.0695 80.2461H0V82.9622H62.0695V80.2461Z" fill="#EBEBEB"/>
<path d="M62.0695 86.542H0V89.2581H62.0695V86.542Z" fill="#EBEBEB"/>
<path d="M62.0695 92.3096H0V95.0257H62.0695V92.3096Z" fill="#EBEBEB"/>
<path d="M59.1055 96.315C59.0471 96.315 58.9971 92.5459 58.9971 87.9002C58.9971 83.2544 59.0471 79.4854 59.1055 79.4854C59.1638 79.4854 59.2138 83.2501 59.2138 87.9002C59.2138 92.5502 59.1638 96.315 59.1055 96.315Z" fill="#FAFAFA"/>
<path d="M55.9414 96.315C55.883 96.315 55.833 92.5459 55.833 87.9002C55.833 83.2544 55.883 79.4854 55.9414 79.4854C55.9998 79.4854 56.0498 83.2501 56.0498 87.9002C56.0498 92.5502 55.9998 96.315 55.9414 96.315Z" fill="#FAFAFA"/>
<path d="M52.915 96.315C52.8567 96.315 52.8066 92.5459 52.8066 87.9002C52.8066 83.2544 52.8567 79.4854 52.915 79.4854C52.9734 79.4854 53.0234 83.2501 53.0234 87.9002C53.0234 92.5502 52.9734 96.315 52.915 96.315Z" fill="#FAFAFA"/>
<path d="M49.751 96.315C49.6926 96.315 49.6426 92.5459 49.6426 87.9002C49.6426 83.2544 49.6926 79.4854 49.751 79.4854C49.8093 79.4854 49.8594 83.2501 49.8594 87.9002C49.8594 92.5502 49.8093 96.315 49.751 96.315Z" fill="#FAFAFA"/>
<path d="M46.7236 96.315C46.6653 96.315 46.6152 92.5459 46.6152 87.9002C46.6152 83.2544 46.6653 79.4854 46.7236 79.4854C46.782 79.4854 46.832 83.2501 46.832 87.9002C46.832 92.5502 46.782 96.315 46.7236 96.315Z" fill="#FAFAFA"/>
<path d="M43.5596 96.315C43.5012 96.315 43.4512 92.5459 43.4512 87.9002C43.4512 83.2544 43.5012 79.4854 43.5596 79.4854C43.6179 79.4854 43.668 83.2501 43.668 87.9002C43.668 92.5502 43.6179 96.315 43.5596 96.315Z" fill="#FAFAFA"/>
<path d="M40.5332 96.315C40.4748 96.315 40.4248 92.5459 40.4248 87.9002C40.4248 83.2544 40.4748 79.4854 40.5332 79.4854C40.5916 79.4854 40.6416 83.2501 40.6416 87.9002C40.6416 92.5502 40.5916 96.315 40.5332 96.315Z" fill="#FAFAFA"/>
<path d="M37.3691 96.315C37.3108 96.315 37.2607 92.5459 37.2607 87.9002C37.2607 83.2544 37.3108 79.4854 37.3691 79.4854C37.4275 79.4854 37.4775 83.2501 37.4775 87.9002C37.4775 92.5502 37.4275 96.315 37.3691 96.315Z" fill="#FAFAFA"/>
<path d="M34.3428 96.315C34.2844 96.315 34.2344 92.5459 34.2344 87.9002C34.2344 83.2544 34.2844 79.4854 34.3428 79.4854C34.4011 79.4854 34.4512 83.2501 34.4512 87.9002C34.4512 92.5502 34.4011 96.315 34.3428 96.315Z" fill="#FAFAFA"/>
<path d="M31.1826 96.315C31.1242 96.315 31.0742 92.5459 31.0742 87.9002C31.0742 83.2544 31.1242 79.4854 31.1826 79.4854C31.241 79.4854 31.291 83.2501 31.291 87.9002C31.291 92.5502 31.241 96.315 31.1826 96.315Z" fill="#FAFAFA"/>
<path d="M28.1562 96.315C28.0979 96.315 28.0479 92.5459 28.0479 87.9002C28.0479 83.2544 28.0979 79.4854 28.1562 79.4854C28.2146 79.4854 28.2646 83.2501 28.2646 87.9002C28.2646 92.5502 28.2146 96.315 28.1562 96.315Z" fill="#FAFAFA"/>
<path d="M24.9922 96.315C24.9338 96.315 24.8838 92.5459 24.8838 87.9002C24.8838 83.2544 24.9338 79.4854 24.9922 79.4854C25.0505 79.4854 25.1006 83.2501 25.1006 87.9002C25.1006 92.5502 25.0505 96.315 24.9922 96.315Z" fill="#FAFAFA"/>
<path d="M21.9658 96.315C21.9074 96.315 21.8574 92.5459 21.8574 87.9002C21.8574 83.2544 21.9074 79.4854 21.9658 79.4854C22.0242 79.4854 22.0742 83.2501 22.0742 87.9002C22.0742 92.5502 22.0242 96.315 21.9658 96.315Z" fill="#FAFAFA"/>
<path d="M18.8017 96.315C18.7434 96.315 18.6934 92.5459 18.6934 87.9002C18.6934 83.2544 18.7434 79.4854 18.8017 79.4854C18.8601 79.4854 18.9101 83.2501 18.9101 87.9002C18.9101 92.5502 18.8601 96.315 18.8017 96.315Z" fill="#FAFAFA"/>
<path d="M15.7744 96.315C15.716 96.315 15.666 92.5459 15.666 87.9002C15.666 83.2544 15.716 79.4854 15.7744 79.4854C15.8328 79.4854 15.8828 83.2501 15.8828 87.9002C15.8828 92.5502 15.8328 96.315 15.7744 96.315Z" fill="#FAFAFA"/>
<path d="M12.6103 96.315C12.552 96.315 12.502 92.5459 12.502 87.9002C12.502 83.2544 12.552 79.4854 12.6103 79.4854C12.6687 79.4854 12.7187 83.2501 12.7187 87.9002C12.7187 92.5502 12.6687 96.315 12.6103 96.315Z" fill="#FAFAFA"/>
<path d="M9.58398 96.315C9.52561 96.315 9.47559 92.5459 9.47559 87.9002C9.47559 83.2544 9.52561 79.4854 9.58398 79.4854C9.64234 79.4854 9.69237 83.2501 9.69237 87.9002C9.69237 92.5502 9.64234 96.315 9.58398 96.315Z" fill="#FAFAFA"/>
<path d="M6.41991 96.315C6.36155 96.315 6.31152 92.5459 6.31152 87.9002C6.31152 83.2544 6.36155 79.4854 6.41991 79.4854C6.47828 79.4854 6.5283 83.2501 6.5283 87.9002C6.5283 92.5502 6.47828 96.315 6.41991 96.315Z" fill="#FAFAFA"/>
<path d="M3.39355 96.315C3.33518 96.315 3.28516 92.5459 3.28516 87.9002C3.28516 83.2544 3.33518 79.4854 3.39355 79.4854C3.45191 79.4854 3.50193 83.2501 3.50193 87.9002C3.50193 92.5502 3.45191 96.315 3.39355 96.315Z" fill="#FAFAFA"/>
<path d="M0.233389 96.315C0.175025 96.315 0.125 92.5459 0.125 87.9002C0.125 83.2544 0.175025 79.4854 0.233389 79.4854C0.291752 79.4854 0.341779 83.2501 0.341779 87.9002C0.341779 92.5502 0.291752 96.315 0.233389 96.315Z" fill="#FAFAFA"/>
<path d="M194 97.9998H138.814L135.462 83.0869H194V97.9998Z" fill="#FAFAFA"/>
<path d="M187.989 85.0811H138.813V87.0623H187.989V85.0811Z" fill="#EBEBEB"/>
<path d="M187.989 89.6753H138.813V91.6565H187.989V89.6753Z" fill="#EBEBEB"/>
<path d="M187.989 93.8784H138.813V95.8596H187.989V93.8784Z" fill="#EBEBEB"/>
<path d="M185.642 96.8053C185.583 96.8053 185.533 94.0548 185.533 90.6682C185.533 87.2817 185.583 84.5269 185.642 84.5269C185.7 84.5269 185.75 87.2731 185.75 90.6682C185.75 94.0634 185.7 96.8053 185.642 96.8053Z" fill="#FAFAFA"/>
<path d="M183.137 96.8053C183.078 96.8053 183.028 94.0548 183.028 90.6682C183.028 87.2817 183.078 84.5269 183.137 84.5269C183.195 84.5269 183.245 87.2731 183.245 90.6682C183.245 94.0634 183.195 96.8053 183.137 96.8053Z" fill="#FAFAFA"/>
<path d="M180.735 96.8053C180.677 96.8053 180.627 94.0548 180.627 90.6682C180.627 87.2817 180.677 84.5269 180.735 84.5269C180.794 84.5269 180.844 87.2731 180.844 90.6682C180.844 94.0634 180.794 96.8053 180.735 96.8053Z" fill="#FAFAFA"/>
<path d="M178.229 96.8053C178.171 96.8053 178.121 94.0548 178.121 90.6682C178.121 87.2817 178.171 84.5269 178.229 84.5269C178.288 84.5269 178.338 87.2731 178.338 90.6682C178.338 94.0634 178.288 96.8053 178.229 96.8053Z" fill="#FAFAFA"/>
<path d="M175.833 96.8053C175.775 96.8053 175.725 94.0548 175.725 90.6682C175.725 87.2817 175.775 84.5269 175.833 84.5269C175.891 84.5269 175.941 87.2731 175.941 90.6682C175.941 94.0634 175.891 96.8053 175.833 96.8053Z" fill="#FAFAFA"/>
<path d="M173.327 96.8053C173.269 96.8053 173.219 94.0548 173.219 90.6682C173.219 87.2817 173.269 84.5269 173.327 84.5269C173.385 84.5269 173.436 87.2731 173.436 90.6682C173.436 94.0634 173.385 96.8053 173.327 96.8053Z" fill="#FAFAFA"/>
<path d="M170.931 96.8053C170.872 96.8053 170.822 94.0548 170.822 90.6682C170.822 87.2817 170.872 84.5269 170.931 84.5269C170.989 84.5269 171.039 87.2731 171.039 90.6682C171.039 94.0634 170.989 96.8053 170.931 96.8053Z" fill="#FAFAFA"/>
<path d="M168.425 96.8053C168.366 96.8053 168.316 94.0548 168.316 90.6682C168.316 87.2817 168.366 84.5269 168.425 84.5269C168.483 84.5269 168.533 87.2731 168.533 90.6682C168.533 94.0634 168.483 96.8053 168.425 96.8053Z" fill="#FAFAFA"/>
<path d="M166.027 96.8053C165.969 96.8053 165.919 94.0548 165.919 90.6682C165.919 87.2817 165.969 84.5269 166.027 84.5269C166.086 84.5269 166.136 87.2731 166.136 90.6682C166.136 94.0634 166.086 96.8053 166.027 96.8053Z" fill="#FAFAFA"/>
<path d="M163.518 96.8053C163.459 96.8053 163.409 94.0548 163.409 90.6682C163.409 87.2817 163.459 84.5269 163.518 84.5269C163.576 84.5269 163.626 87.2731 163.626 90.6682C163.626 94.0634 163.576 96.8053 163.518 96.8053Z" fill="#FAFAFA"/>
<path d="M161.121 96.8053C161.063 96.8053 161.013 94.0548 161.013 90.6682C161.013 87.2817 161.063 84.5269 161.121 84.5269C161.179 84.5269 161.229 87.2731 161.229 90.6682C161.229 94.0634 161.179 96.8053 161.121 96.8053Z" fill="#FAFAFA"/>
<path d="M158.615 96.8053C158.557 96.8053 158.507 94.0548 158.507 90.6682C158.507 87.2817 158.557 84.5269 158.615 84.5269C158.674 84.5269 158.724 87.2731 158.724 90.6682C158.724 94.0634 158.674 96.8053 158.615 96.8053Z" fill="#FAFAFA"/>
<path d="M156.219 96.8053C156.16 96.8053 156.11 94.0548 156.11 90.6682C156.11 87.2817 156.16 84.5269 156.219 84.5269C156.277 84.5269 156.327 87.2731 156.327 90.6682C156.327 94.0634 156.277 96.8053 156.219 96.8053Z" fill="#FAFAFA"/>
<path d="M153.713 96.8053C153.655 96.8053 153.604 94.0548 153.604 90.6682C153.604 87.2817 153.655 84.5269 153.713 84.5269C153.771 84.5269 153.821 87.2731 153.821 90.6682C153.821 94.0634 153.771 96.8053 153.713 96.8053Z" fill="#FAFAFA"/>
<path d="M151.315 96.8053C151.257 96.8053 151.207 94.0548 151.207 90.6682C151.207 87.2817 151.257 84.5269 151.315 84.5269C151.374 84.5269 151.424 87.2731 151.424 90.6682C151.424 94.0634 151.374 96.8053 151.315 96.8053Z" fill="#FAFAFA"/>
<path d="M148.807 96.8053C148.748 96.8053 148.698 94.0548 148.698 90.6682C148.698 87.2817 148.748 84.5269 148.807 84.5269C148.865 84.5269 148.915 87.2731 148.915 90.6682C148.915 94.0634 148.865 96.8053 148.807 96.8053Z" fill="#FAFAFA"/>
<path d="M146.409 96.8053C146.351 96.8053 146.301 94.0548 146.301 90.6682C146.301 87.2817 146.351 84.5269 146.409 84.5269C146.468 84.5269 146.518 87.2731 146.518 90.6682C146.518 94.0634 146.468 96.8053 146.409 96.8053Z" fill="#FAFAFA"/>
<path d="M143.903 96.8053C143.845 96.8053 143.795 94.0548 143.795 90.6682C143.795 87.2817 143.845 84.5269 143.903 84.5269C143.962 84.5269 144.012 87.2731 144.012 90.6682C144.012 94.0634 143.962 96.8053 143.903 96.8053Z" fill="#FAFAFA"/>
<path d="M141.507 96.8053C141.448 96.8053 141.398 94.0548 141.398 90.6682C141.398 87.2817 141.448 84.5269 141.507 84.5269C141.565 84.5269 141.615 87.2731 141.615 90.6682C141.615 94.0634 141.565 96.8053 141.507 96.8053Z" fill="#FAFAFA"/>
<path d="M139.001 96.8053C138.943 96.8053 138.893 94.0548 138.893 90.6682C138.893 87.2817 138.943 84.5269 139.001 84.5269C139.059 84.5269 139.109 87.2731 139.109 90.6682C139.109 94.0634 139.059 96.8053 139.001 96.8053Z" fill="#FAFAFA"/>
<path fill-rule="evenodd" clip-rule="evenodd" d="M40.2 56.2051C40.175 56.2051 40.1541 56.2051 40.1291 56.2094C40.1291 56.2094 40.1291 56.2094 40.1333 56.1965C40.2625 55.9172 42.5345 50.8588 40.2583 49.7114C37.9155 48.5295 34.5387 50.8889 34.5387 50.8889C34.5387 50.8889 36.669 41.245 30.6492 39.6806C24.6295 38.112 20.3981 49.4148 20.3981 49.4148C20.3981 49.4148 17.605 45.9036 16.5003 51.8344C16.5003 51.8344 9.2507 49.4234 8.69208 57.7179C8.69208 57.7179 6.28251 56.1707 6.55348 58.4442L6.60767 58.7923L45.6403 58.8869C45.6403 58.8869 41.8425 56.1407 40.2 56.2008V56.2051Z" fill="#D9ECFC"/>
<path fill-rule="evenodd" clip-rule="evenodd" d="M51.0678 28.1111C51.0678 28.1111 51.0928 28.1111 51.1053 28.1111C51.1053 28.1111 51.1053 28.1111 51.1053 28.1025C51.0344 27.952 49.8213 25.2445 51.0386 24.6299C52.2934 23.9982 54.1027 25.2617 54.1027 25.2617C54.1027 25.2617 52.9646 20.1002 56.1871 19.2579C59.4096 18.4198 61.6774 24.4709 61.6774 24.4709C61.6774 24.4709 63.174 22.5886 63.766 25.7688C63.766 25.7688 67.6472 24.4795 67.9473 28.919C67.9473 28.919 69.2396 28.0896 69.0937 29.3101L69.0645 29.4949L48.1621 29.5465C48.1621 29.5465 50.1965 28.0767 51.0761 28.1068L51.0678 28.1111Z" fill="#D9ECFC"/>
<path fill-rule="evenodd" clip-rule="evenodd" d="M139.197 23.2893C139.197 23.2893 139.222 23.2893 139.234 23.2893C139.234 23.2893 139.234 23.2893 139.234 23.2807C139.163 23.1303 137.95 20.4227 139.167 19.8082C140.422 19.1764 142.232 20.4399 142.232 20.4399C142.232 20.4399 141.093 15.2784 144.316 14.4361C147.538 13.5981 149.806 19.6492 149.806 19.6492C149.806 19.6492 151.303 17.7668 151.895 20.9471C151.895 20.9471 155.776 19.6578 156.076 24.0972C156.076 24.0972 157.369 23.2678 157.223 24.4883L157.193 24.6731L136.291 24.7247C136.291 24.7247 138.325 23.2549 139.205 23.285L139.197 23.2893Z" fill="#D9ECFC"/>
<path fill-rule="evenodd" clip-rule="evenodd" d="M112.546 55.3668C112.546 55.3668 112.583 55.3668 112.604 55.3668C112.604 55.3668 112.604 55.3668 112.6 55.3582C112.492 55.1261 110.611 50.9359 112.496 49.9818C114.438 49.002 117.24 50.9574 117.24 50.9574C117.24 50.9574 115.476 42.9638 120.462 41.6659C125.452 40.368 128.963 49.7369 128.963 49.7369C128.963 49.7369 131.276 46.8231 132.193 51.7439C132.193 51.7439 138.205 49.7455 138.668 56.6217C138.668 56.6217 140.664 55.341 140.439 57.2234L140.393 57.5113L108.035 57.593C108.035 57.593 111.183 55.3152 112.546 55.3668V55.3668Z" fill="#D9ECFC"/>
<path d="M187.748 96.7838C187.748 96.9518 145.715 97.0959 93.8814 97.0959C42.0478 97.0959 0.00585938 96.9518 0.00585938 96.7838C0.00585938 96.6157 42.0293 96.4717 93.8814 96.4717C145.734 96.4717 187.748 96.6157 187.748 96.7838Z" fill="#263238"/>
<path d="M93.2809 71.0327H36.3596L25.6162 96.461H97.0613L93.2809 71.0327Z" fill="#455A64"/>
<g opacity="0.1">
<path d="M67.1846 72.2378L83.6525 88.4439H77.0664L60.8086 72.2378H67.1846Z" fill="white"/>
</g>
<g opacity="0.1">
<path d="M47.9591 72.2378L64.4269 88.4439H57.8408L41.583 72.2378H47.9591Z" fill="white"/>
</g>
<path d="M16.6338 90.4404H42.3318H93.5826V88.4927H16.6338V90.4404Z" fill="#E0E0E0"/>
<path d="M18.0719 96.4609L90.2979 96.4609V89.4716L18.0719 89.4716V96.4609Z" fill="#E0E0E0"/>
<path d="M81.1159 96.4556H88.1436V91.7745H81.1159V96.4556Z" fill="#455A64"/>
<path d="M72.7526 96.4556H79.7803V91.7745H72.7526V96.4556Z" fill="#455A64"/>
<path d="M64.4811 96.4556H71.5088V91.7745H64.4811V96.4556Z" fill="#455A64"/>
<path d="M56.2038 96.4556H63.2314V91.7745H56.2038V96.4556Z" fill="#455A64"/>
<path d="M47.9274 96.4556H54.9551V91.7745H47.9274V96.4556Z" fill="#455A64"/>
<path d="M39.655 96.4556H46.6826V91.7745H39.655V96.4556Z" fill="#455A64"/>
<path d="M31.3786 96.4556H38.4062V91.7745H31.3786V96.4556Z" fill="#455A64"/>
<path d="M23.1071 96.4556H30.1348V91.7745H23.1071V96.4556Z" fill="#455A64"/>
<path d="M18.0718 96.4556H21.8145V91.7745H18.0718V96.4556Z" fill="#455A64"/>
<path d="M89.9364 90.4294C89.9364 90.5048 73.6032 90.5693 53.4572 90.5693C33.3113 90.5693 16.9727 90.5048 16.9727 90.4294C16.9727 90.3541 33.3059 90.2896 53.4572 90.2896C73.6085 90.2896 89.9364 90.3541 89.9364 90.4294Z" fill="#263238"/>
<g opacity="0.3">
<path d="M80.8842 71.9849C80.9596 71.9849 81.0242 75.6705 81.0242 80.2171C81.0242 84.7636 80.9596 88.4492 80.8842 88.4492C80.8088 88.4492 80.7441 84.7636 80.7441 80.2171C80.7441 75.6705 80.8088 71.9849 80.8842 71.9849Z" fill="black"/>
</g>
<g opacity="0.3">
<path d="M72.7523 71.9849C72.8277 71.9849 72.8923 75.6705 72.8923 80.2171C72.8923 84.7636 72.8277 88.4492 72.7523 88.4492C72.6769 88.4492 72.6123 84.7636 72.6123 80.2171C72.6123 75.6705 72.6769 71.9849 72.7523 71.9849Z" fill="black"/>
</g>
<g opacity="0.3">
<path d="M64.6215 71.9849C64.6969 71.9849 64.7615 75.6705 64.7615 80.2171C64.7615 84.7636 64.6969 88.4492 64.6215 88.4492C64.5461 88.4492 64.4814 84.7636 64.4814 80.2171C64.4814 75.6705 64.5461 71.9849 64.6215 71.9849Z" fill="black"/>
</g>
<g opacity="0.3">
<path d="M56.4896 71.9849C56.565 71.9849 56.6296 75.6705 56.6296 80.2171C56.6296 84.7636 56.565 88.4492 56.4896 88.4492C56.4142 88.4492 56.3496 84.7636 56.3496 80.2171C56.3496 75.6705 56.4142 71.9849 56.4896 71.9849Z" fill="black"/>
</g>
<g opacity="0.3">
<path d="M48.3578 71.9849C48.4332 71.9849 48.4978 75.6705 48.4978 80.2171C48.4978 84.7636 48.4332 88.4492 48.3578 88.4492C48.2824 88.4492 48.2178 84.7636 48.2178 80.2171C48.2178 75.6705 48.2824 71.9849 48.3578 71.9849Z" fill="black"/>
</g>
<g opacity="0.3">
<path d="M40.226 71.9849C40.3013 71.9849 40.366 75.6705 40.366 80.2171C40.366 84.7636 40.3013 88.4492 40.226 88.4492C40.1506 88.4492 40.0859 84.7636 40.0859 80.2171C40.0859 75.6705 40.1506 71.9849 40.226 71.9849Z" fill="black"/>
</g>
<g opacity="0.3">
<path d="M32.0951 81.1211C32.1705 81.1211 32.2351 82.7621 32.2351 84.7852C32.2351 86.8083 32.1705 88.4494 32.0951 88.4494C32.0197 88.4494 31.9551 86.8083 31.9551 84.7852C31.9551 82.7621 32.0197 81.1211 32.0951 81.1211Z" fill="black"/>
</g>
<g opacity="0.3">
<path d="M33.0049 78.3933C33.0049 78.318 45.3262 78.2534 60.5177 78.2534C75.7093 78.2534 88.036 78.318 88.036 78.3933C88.036 78.4686 75.7201 78.5332 60.5177 78.5332C45.3154 78.5332 33.0049 78.4686 33.0049 78.3933Z" fill="black"/>
</g>
<g opacity="0.3">
<path d="M30.8613 84.0481C30.8613 83.9728 43.6619 83.9082 59.4512 83.9082C75.2405 83.9082 88.0411 83.9728 88.0411 84.0481C88.0411 84.1234 75.2405 84.188 59.4512 84.188C43.6619 84.188 30.8613 84.1234 30.8613 84.0481V84.0481Z" fill="black"/>
</g>
<path d="M33.9844 72.2379H53.9957H93.9052V70.7637H33.9844V72.2379Z" fill="#E0E0E0"/>
<path d="M90.9869 71.1938H147.908L158.657 96.6222H87.2119L90.9869 71.1938Z" fill="#455A64"/>
<g opacity="0.1">
<path d="M117.084 72.3989L100.621 88.605H107.207L123.46 72.3989H117.084Z" fill="white"/>
</g>
<g opacity="0.1">
<path d="M136.308 72.3989L119.846 88.605H126.432L142.69 72.3989H136.308Z" fill="white"/>
</g>
<path d="M167.634 90.6016H141.936H90.6855V88.6538H167.634V90.6016Z" fill="#E0E0E0"/>
<path d="M166.197 89.6274H93.9707V96.6167H166.197V89.6274Z" fill="#E0E0E0"/>
<path d="M103.158 91.9409H96.1299V96.622H103.158V91.9409Z" fill="#455A64"/>
<path d="M111.515 91.9409H104.487V96.622H111.515V91.9409Z" fill="#455A64"/>
<path d="M119.792 91.9409H112.765V96.622H119.792V91.9409Z" fill="#455A64"/>
<path d="M128.064 91.9409H121.036V96.622H128.064V91.9409Z" fill="#455A64"/>
<path d="M136.341 91.9409H129.313V96.622H136.341V91.9409Z" fill="#455A64"/>
<path d="M144.617 91.9409H137.59V96.622H144.617V91.9409Z" fill="#455A64"/>
<path d="M152.89 91.9409H145.862V96.622H152.89V91.9409Z" fill="#455A64"/>
<path d="M161.166 91.9409H154.139V96.622H161.166V91.9409Z" fill="#455A64"/>
<path d="M166.202 91.9409H162.459V96.622H166.202V91.9409Z" fill="#455A64"/>
<path d="M94.3369 90.5906C94.3369 90.5152 110.67 90.4507 130.816 90.4507C150.962 90.4507 167.301 90.5152 167.301 90.5906C167.301 90.6659 150.967 90.7305 130.816 90.7305C110.665 90.7305 94.3369 90.6659 94.3369 90.5906Z" fill="#263238"/>
<g opacity="0.3">
<path d="M103.389 72.146C103.464 72.146 103.529 75.8317 103.529 80.3728C103.529 84.914 103.464 88.605 103.389 88.605C103.314 88.605 103.249 84.9193 103.249 80.3728C103.249 75.8263 103.314 72.146 103.389 72.146Z" fill="black"/>
</g>
<g opacity="0.3">
<path d="M111.521 72.146C111.596 72.146 111.661 75.8317 111.661 80.3728C111.661 84.914 111.596 88.605 111.521 88.605C111.445 88.605 111.381 84.9193 111.381 80.3728C111.381 75.8263 111.445 72.146 111.521 72.146Z" fill="black"/>
</g>
<g opacity="0.3">
<path d="M119.647 72.146C119.722 72.146 119.787 75.8317 119.787 80.3728C119.787 84.914 119.722 88.605 119.647 88.605C119.571 88.605 119.507 84.9193 119.507 80.3728C119.507 75.8263 119.571 72.146 119.647 72.146Z" fill="black"/>
</g>
<g opacity="0.3">
<path d="M127.779 72.146C127.854 72.146 127.919 75.8317 127.919 80.3728C127.919 84.914 127.854 88.605 127.779 88.605C127.703 88.605 127.639 84.9193 127.639 80.3728C127.639 75.8263 127.703 72.146 127.779 72.146Z" fill="black"/>
</g>
<g opacity="0.3">
<path d="M135.911 72.146C135.986 72.146 136.051 75.8317 136.051 80.3728C136.051 84.914 135.986 88.605 135.911 88.605C135.835 88.605 135.771 84.9193 135.771 80.3728C135.771 75.8263 135.835 72.146 135.911 72.146Z" fill="black"/>
</g>
<g opacity="0.3">
<path d="M144.041 72.146C144.117 72.146 144.181 75.8317 144.181 80.3728C144.181 84.914 144.117 88.605 144.041 88.605C143.966 88.605 143.901 84.9193 143.901 80.3728C143.901 75.8263 143.966 72.146 144.041 72.146Z" fill="black"/>
</g>
<g opacity="0.3">
<path d="M152.173 81.2822C152.249 81.2822 152.313 82.9233 152.313 84.9464C152.313 86.9694 152.249 88.6105 152.173 88.6105C152.098 88.6105 152.033 86.9694 152.033 84.9464C152.033 82.9233 152.098 81.2822 152.173 81.2822Z" fill="black"/>
</g>
<g opacity="0.3">
<path d="M150.623 78.5544C150.623 78.6298 138.447 78.6943 123.428 78.6943C108.408 78.6943 96.2324 78.6298 96.2324 78.5544C96.2324 78.4791 108.408 78.4146 123.428 78.4146C138.447 78.4146 150.623 78.4791 150.623 78.5544Z" fill="black"/>
</g>
<g opacity="0.3">
<path d="M153.412 84.2092C153.412 84.2846 140.612 84.3491 124.822 84.3491C109.033 84.3491 96.2324 84.2846 96.2324 84.2092C96.2324 84.1339 109.033 84.0693 124.822 84.0693C140.612 84.0693 153.412 84.1339 153.412 84.2092Z" fill="black"/>
</g>
<path d="M150.283 72.3991H130.277H90.3672V70.9248H150.283V72.3991Z" fill="#E0E0E0"/>
<path d="M87.675 6.38037H87.2119V16.4312H87.675V6.38037Z" fill="#E0E0E0"/>
<path d="M88.0089 13.4395H86.8457V16.2642H88.0089V13.4395Z" fill="#E0E0E0"/>
<path d="M87.7293 10.1953H87.1585C87.1049 10.1953 87.0615 10.2387 87.0615 10.2922C87.0615 10.3457 87.1049 10.389 87.1585 10.389H87.7293C87.7828 10.389 87.8262 10.3457 87.8262 10.2922C87.8262 10.2387 87.7828 10.1953 87.7293 10.1953Z" fill="#E0E0E0"/>
<path d="M87.7293 11.8364H87.1585C87.1049 11.8364 87.0615 11.8798 87.0615 11.9333C87.0615 11.9868 87.1049 12.0301 87.1585 12.0301H87.7293C87.7828 12.0301 87.8262 11.9868 87.8262 11.9333C87.8262 11.8798 87.7828 11.8364 87.7293 11.8364Z" fill="#E0E0E0"/>
<path d="M87.7293 12.1538H87.1585C87.1049 12.1538 87.0615 12.1972 87.0615 12.2507C87.0615 12.3041 87.1049 12.3475 87.1585 12.3475H87.7293C87.7828 12.3475 87.8262 12.3041 87.8262 12.2507C87.8262 12.1972 87.7828 12.1538 87.7293 12.1538Z" fill="#E0E0E0"/>
<path d="M90.5227 0.59082H90.0596V10.6416H90.5227V0.59082Z" fill="#E0E0E0"/>
<path d="M90.8624 7.6499H89.6992V10.4747H90.8624V7.6499Z" fill="#E0E0E0"/>
<path d="M90.5828 4.40576H90.012C89.9584 4.40576 89.915 4.44912 89.915 4.50261C89.915 4.5561 89.9584 4.59946 90.012 4.59946H90.5828C90.6363 4.59946 90.6797 4.5561 90.6797 4.50261C90.6797 4.44912 90.6363 4.40576 90.5828 4.40576Z" fill="#E0E0E0"/>
<path d="M90.5828 6.04688H90.012C89.9584 6.04688 89.915 6.09024 89.915 6.14372C89.915 6.19721 89.9584 6.24057 90.012 6.24057H90.5828C90.6363 6.24057 90.6797 6.19721 90.6797 6.14372C90.6797 6.09024 90.6363 6.04688 90.5828 6.04688Z" fill="#E0E0E0"/>
<path d="M90.5828 6.36426H90.012C89.9584 6.36426 89.915 6.40762 89.915 6.46111C89.915 6.5146 89.9584 6.55796 90.012 6.55796H90.5828C90.6363 6.55796 90.6797 6.5146 90.6797 6.46111C90.6797 6.40762 90.6363 6.36426 90.5828 6.36426Z" fill="#E0E0E0"/>
<path d="M91.5085 10.3242H89.0205V16.3343H91.5085V10.3242Z" fill="#F26050"/>
<path d="M91.5031 10.3242L89.0205 12.2504V13.8538L91.5031 11.933V10.3242Z" fill="white"/>
<path d="M91.5031 13.9829L89.0205 15.9091V17.5125L91.5031 15.5917V13.9829Z" fill="white"/>
<path d="M84.9551 19.1858L85.7629 16.2642H94.0291L94.9554 19.1858H84.9551Z" fill="#E0E0E0"/>
<path d="M82.3114 35.5156L80.125 19.105H100.292L97.7938 35.5156H82.3114Z" fill="#F26050"/>
<path d="M80.7822 24.0552H84.0726L84.218 32.8954H81.9616L80.7822 24.0552Z" fill="#455A64"/>
<path d="M99.5389 24.0552H96.0223L95.877 32.8954H98.1926L99.5389 24.0552Z" fill="#455A64"/>
<path d="M96.13 35.5156H84.5195V96.6221H96.13V35.5156Z" fill="#F26050"/>
<path d="M98.2834 50.6079H82.1494V59.0392H98.2834V50.6079Z" fill="#F26050"/>
<path d="M85.752 51.7324H83.4795V57.8554H85.752V51.7324Z" fill="#455A64"/>
<path d="M96.9317 51.7324H94.6592V57.8554H96.9317V51.7324Z" fill="#455A64"/>
<path d="M98.2788 51.7324H97.541V57.8554H98.2788V51.7324Z" fill="#455A64"/>
<path d="M89.7533 51.7324H86.4414V57.8554H89.7533V51.7324Z" fill="#455A64"/>
<path d="M93.8519 51.7324H90.54V57.8554H93.8519V51.7324Z" fill="#455A64"/>
<path d="M89.554 24.0552H84.7881V32.8954H89.554V24.0552Z" fill="#455A64"/>
<path d="M95.2624 24.0552H90.3242V32.8954H95.2624V24.0552Z" fill="#455A64"/>
<path d="M100.298 19.1051H100.088V17.5663H80.3458V19.1051H80.1357V17.3564H100.298V19.1051Z" fill="#F26050"/>
<path d="M81.5948 17.4585H81.3848V19.1749H81.5948V17.4585Z" fill="#F26050"/>
<path d="M83.0811 17.4585H82.8711V19.1749H83.0811V17.4585Z" fill="#F26050"/>
<path d="M84.5675 17.4585H84.3574V19.1749H84.5675V17.4585Z" fill="#F26050"/>
<path d="M86.0489 17.4585H85.8389V19.1749H86.0489V17.4585Z" fill="#F26050"/>
<path d="M87.5352 17.4585H87.3252V19.1749H87.5352V17.4585Z" fill="#F26050"/>
<path d="M89.0216 17.4585H88.8115V19.1749H89.0216V17.4585Z" fill="#F26050"/>
<path d="M90.5079 17.4585H90.2979V19.1749H90.5079V17.4585Z" fill="#F26050"/>
<path d="M91.9942 17.4585H91.7842V19.1749H91.9942V17.4585Z" fill="#F26050"/>
<path d="M93.4805 17.4585H93.2705V19.1749H93.4805V17.4585Z" fill="#F26050"/>
<path d="M94.9669 17.4585H94.7568V19.1749H94.9669V17.4585Z" fill="#F26050"/>
<path d="M96.4532 17.4585H96.2432V19.1749H96.4532V17.4585Z" fill="#F26050"/>
<path d="M97.9395 17.4585H97.7295V19.1749H97.9395V17.4585Z" fill="#F26050"/>
<path d="M99.42 17.4585H99.21V19.1749H99.42V17.4585Z" fill="#F26050"/>
<g opacity="0.3">
<path d="M84.7881 32.8954H85.3266V24.5448H89.554V24.0552H84.7881V32.8954Z" fill="black"/>
</g>
<g opacity="0.3">
<path d="M90.3242 32.8954H90.8681V24.5448H95.2624V24.0552H90.3242V32.8954Z" fill="black"/>
</g>
<g opacity="0.3">
<path d="M95.877 32.8954H96.4855L96.5501 24.5448H99.4635L99.5389 24.0552H96.0062L95.877 32.8954Z" fill="black"/>
</g>
<g opacity="0.3">
<path d="M80.8625 24.6417H84.0828V24.0552H80.7871L80.8679 24.6417H80.8625Z" fill="black"/>
</g>
<path d="M88.0683 27.8323C88.1329 27.8754 87.8798 28.3435 87.5029 28.8708C87.1259 29.3981 86.7705 29.7908 86.7112 29.7478C86.6466 29.7047 86.8997 29.2366 87.2767 28.7094C87.6537 28.1821 88.0091 27.7893 88.0683 27.8323Z" fill="white"/>
<path d="M93.5341 26.8855C93.5988 26.9286 93.3456 27.3967 92.9687 27.924C92.5917 28.4513 92.2363 28.8441 92.1771 28.801C92.1124 28.758 92.3656 28.2899 92.7425 27.7626C93.1195 27.2353 93.4749 26.8425 93.5341 26.8855Z" fill="white"/>
<path d="M93.3837 28.198C93.4484 28.2411 93.1953 28.7092 92.8183 29.2365C92.4413 29.7638 92.0859 30.1566 92.0267 30.1135C91.9621 30.0705 92.2152 29.6024 92.5921 29.0751C92.9691 28.5478 93.3245 28.155 93.3837 28.198Z" fill="white"/>
<path d="M98.4289 50.6028C98.4289 50.6781 94.7724 50.7427 90.265 50.7427C85.7576 50.7427 82.0957 50.6781 82.0957 50.6028C82.0957 50.5275 85.7522 50.4629 90.265 50.4629C94.7778 50.4629 98.4289 50.5275 98.4289 50.6028Z" fill="#263238"/>
<path d="M88.9673 53.8796C89.032 53.9227 88.725 54.4769 88.2888 55.1118C87.8472 55.7467 87.4433 56.2255 87.3787 56.1825C87.3141 56.1395 87.6211 55.5853 88.0572 54.9504C88.4988 54.3155 88.9027 53.8366 88.9673 53.8796Z" fill="#263238"/>
<path d="M93.1893 53.7717C93.2539 53.8147 92.8769 54.3851 92.3546 55.0361C91.8322 55.6926 91.3583 56.1768 91.2991 56.1284C91.2399 56.0799 91.6168 55.5096 92.1338 54.864C92.6562 54.2129 93.1247 53.7287 93.1893 53.7717Z" fill="#263238"/>
<path d="M92.5702 53.8577C92.6294 53.9062 92.5487 54.1214 92.3763 54.3366C92.2094 54.5518 92.0263 54.6917 91.9617 54.6433C91.9024 54.5949 91.9832 54.3796 92.1555 54.1644C92.3225 53.9492 92.5056 53.8093 92.5702 53.8577Z" fill="#263238"/>
<g opacity="0.3">
<path d="M96.13 59.0396H84.5195V60.1856H96.13V59.0396Z" fill="black"/>
</g>
<path d="M97.8689 35.5159C97.8689 35.5912 94.3793 35.6558 90.0765 35.6558C85.7738 35.6558 82.2842 35.5912 82.2842 35.5159C82.2842 35.4405 85.7738 35.376 90.0765 35.376C94.3793 35.376 97.8689 35.4405 97.8689 35.5159Z" fill="#263238"/>
<path d="M100.363 19.1052C100.363 19.1806 95.8175 19.2451 90.217 19.2451C84.6164 19.2451 80.0713 19.1806 80.0713 19.1052C80.0713 19.0299 84.6164 18.9653 90.217 18.9653C95.8175 18.9653 100.363 19.0299 100.363 19.1052Z" fill="#263238"/>
<g opacity="0.3">
<path d="M103.158 91.9414H96.1299V92.6086H103.158V91.9414Z" fill="black"/>
</g>
<g opacity="0.3">
<path d="M105.053 96.6225V92.6086H111.52V91.9414H104.487V96.6225H105.053Z" fill="black"/>
</g>
<g opacity="0.3">
<path d="M113.33 96.6225V92.6086H119.792V91.9414H112.765V96.6225H113.33Z" fill="black"/>
</g>
<g opacity="0.3">
<path d="M121.602 96.6225V92.6086H128.064V91.9414H121.036V96.6225H121.602Z" fill="black"/>
</g>
<g opacity="0.3">
<path d="M129.879 96.6225V92.6086H136.341V91.9414H129.313V96.6225H129.879Z" fill="black"/>
</g>
<g opacity="0.3">
<path d="M138.155 96.6225V92.6086H144.617V91.9414H137.59V96.6225H138.155Z" fill="black"/>
</g>
<g opacity="0.3">
<path d="M146.427 96.6225V92.6086H152.894V91.9414H145.861V96.6225H146.427Z" fill="black"/>
</g>
<g opacity="0.3">
<path d="M154.704 96.6225V92.6086H161.166V91.9414H154.139V96.6225H154.704Z" fill="black"/>
</g>
<g opacity="0.3">
<path d="M163.024 96.6225V92.6086H166.202V91.9414H162.459V96.6225H163.024Z" fill="black"/>
</g>
<g opacity="0.3">
<path d="M96.1299 73.3087H148.802L148.42 72.3994H96.2322L96.1299 73.3087Z" fill="black"/>
</g>
<g opacity="0.3">
<path d="M98.225 96.6815C98.1496 96.6815 98.085 95.6377 98.085 94.3517C98.085 93.0658 98.1496 92.022 98.225 92.022C98.3004 92.022 98.365 93.0658 98.365 94.3517C98.365 95.6377 98.3004 96.6815 98.225 96.6815Z" fill="black"/>
</g>
<g opacity="0.3">
<path d="M100.778 96.5687C100.702 96.5687 100.638 95.5302 100.638 94.2497C100.638 92.9691 100.702 91.9307 100.778 91.9307C100.853 91.9307 100.918 92.9691 100.918 94.2497C100.918 95.5302 100.853 96.5687 100.778 96.5687Z" fill="black"/>
</g>
<g opacity="0.3">
<path d="M100.745 94.5188C100.745 94.5941 100.179 94.6587 99.4794 94.6587C98.7793 94.6587 98.2139 94.5941 98.2139 94.5188C98.2139 94.4435 98.7793 94.3789 99.4794 94.3789C100.179 94.3789 100.745 94.4435 100.745 94.5188Z" fill="black"/>
</g>
<g opacity="0.3">
<path d="M99.5013 96.6223C99.426 96.6223 99.3613 96.1542 99.3613 95.5785C99.3613 95.0028 99.426 94.5347 99.5013 94.5347C99.5767 94.5347 99.6414 95.0028 99.6414 95.5785C99.6414 96.1542 99.5767 96.6223 99.5013 96.6223Z" fill="black"/>
</g>
<g opacity="0.3">
<path d="M106.932 96.6815C106.857 96.6815 106.792 95.6377 106.792 94.3517C106.792 93.0658 106.857 92.022 106.932 92.022C107.007 92.022 107.072 93.0658 107.072 94.3517C107.072 95.6377 107.007 96.6815 106.932 96.6815Z" fill="black"/>
</g>
<g opacity="0.3">
<path d="M109.485 96.5687C109.409 96.5687 109.345 95.5302 109.345 94.2497C109.345 92.9691 109.409 91.9307 109.485 91.9307C109.56 91.9307 109.625 92.9691 109.625 94.2497C109.625 95.5302 109.56 96.5687 109.485 96.5687Z" fill="black"/>
</g>
<g opacity="0.3">
<path d="M109.452 94.5188C109.452 94.5941 108.886 94.6587 108.186 94.6587C107.486 94.6587 106.921 94.5941 106.921 94.5188C106.921 94.4435 107.486 94.3789 108.186 94.3789C108.886 94.3789 109.452 94.4435 109.452 94.5188Z" fill="black"/>
</g>
<g opacity="0.3">
<path d="M108.208 96.6223C108.133 96.6223 108.068 96.1542 108.068 95.5785C108.068 95.0028 108.133 94.5347 108.208 94.5347C108.284 94.5347 108.348 95.0028 108.348 95.5785C108.348 96.1542 108.284 96.6223 108.208 96.6223Z" fill="black"/>
</g>
<g opacity="0.3">
<path d="M115.376 96.6546C115.301 96.6546 115.236 95.6161 115.236 94.341C115.236 93.0658 115.301 92.0273 115.376 92.0273C115.452 92.0273 115.516 93.0604 115.516 94.341C115.516 95.6215 115.452 96.6546 115.376 96.6546Z" fill="black"/>
</g>
<g opacity="0.3">
<path d="M117.934 96.5418C117.859 96.5418 117.794 95.5087 117.794 94.2389C117.794 92.9691 117.859 91.936 117.934 91.936C118.009 91.936 118.074 92.9691 118.074 94.2389C118.074 95.5087 118.009 96.5418 117.934 96.5418Z" fill="black"/>
</g>
<g opacity="0.3">
<path d="M117.896 94.5081C117.896 94.5834 117.331 94.648 116.631 94.648C115.931 94.648 115.365 94.5834 115.365 94.5081C115.365 94.4327 115.931 94.3682 116.631 94.3682C117.331 94.3682 117.896 94.4327 117.896 94.5081Z" fill="black"/>
</g>
<g opacity="0.3">
<path d="M116.653 96.5954C116.577 96.5954 116.513 96.1327 116.513 95.5624C116.513 94.992 116.577 94.5293 116.653 94.5293C116.728 94.5293 116.793 94.992 116.793 95.5624C116.793 96.1327 116.728 96.5954 116.653 96.5954Z" fill="black"/>
</g>
<g opacity="0.3">
<path d="M123.47 96.6546C123.395 96.6546 123.33 95.6161 123.33 94.341C123.33 93.0658 123.395 92.0273 123.47 92.0273C123.545 92.0273 123.61 93.0604 123.61 94.341C123.61 95.6215 123.545 96.6546 123.47 96.6546Z" fill="black"/>
</g>
<g opacity="0.3">
<path d="M126.023 96.5418C125.947 96.5418 125.883 95.5087 125.883 94.2389C125.883 92.9691 125.947 91.936 126.023 91.936C126.098 91.936 126.163 92.9691 126.163 94.2389C126.163 95.5087 126.098 96.5418 126.023 96.5418Z" fill="black"/>
</g>
<g opacity="0.3">
<path d="M125.985 94.5081C125.985 94.5834 125.42 94.648 124.72 94.648C124.02 94.648 123.454 94.5834 123.454 94.5081C123.454 94.4327 124.02 94.3682 124.72 94.3682C125.42 94.3682 125.985 94.4327 125.985 94.5081Z" fill="black"/>
</g>
<g opacity="0.3">
<path d="M124.741 96.5954C124.665 96.5954 124.601 96.1327 124.601 95.5624C124.601 94.992 124.665 94.5293 124.741 94.5293C124.816 94.5293 124.881 94.992 124.881 95.5624C124.881 96.1327 124.816 96.5954 124.741 96.5954Z" fill="black"/>
</g>
<g opacity="0.3">
<path d="M131.553 96.6546C131.478 96.6546 131.413 95.6161 131.413 94.341C131.413 93.0658 131.478 92.0273 131.553 92.0273C131.628 92.0273 131.693 93.0604 131.693 94.341C131.693 95.6215 131.628 96.6546 131.553 96.6546Z" fill="black"/>
</g>
<g opacity="0.3">
<path d="M134.106 96.5418C134.03 96.5418 133.966 95.5087 133.966 94.2389C133.966 92.9691 134.03 91.936 134.106 91.936C134.181 91.936 134.246 92.9691 134.246 94.2389C134.246 95.5087 134.181 96.5418 134.106 96.5418Z" fill="black"/>
</g>
<g opacity="0.3">
<path d="M134.073 94.5081C134.073 94.5834 133.508 94.648 132.808 94.648C132.107 94.648 131.542 94.5834 131.542 94.5081C131.542 94.4327 132.107 94.3682 132.808 94.3682C133.508 94.3682 134.073 94.4327 134.073 94.5081Z" fill="black"/>
</g>
<g opacity="0.3">
<path d="M132.829 96.5954C132.754 96.5954 132.689 96.1327 132.689 95.5624C132.689 94.992 132.754 94.5293 132.829 94.5293C132.905 94.5293 132.969 94.992 132.969 95.5624C132.969 96.1327 132.905 96.5954 132.829 96.5954Z" fill="black"/>
</g>
<g opacity="0.3">
<path d="M139.83 96.6546C139.755 96.6546 139.69 95.6161 139.69 94.341C139.69 93.0658 139.755 92.0273 139.83 92.0273C139.906 92.0273 139.97 93.0604 139.97 94.341C139.97 95.6215 139.906 96.6546 139.83 96.6546Z" fill="black"/>
</g>
<g opacity="0.3">
<path d="M142.383 96.5418C142.308 96.5418 142.243 95.5087 142.243 94.2389C142.243 92.9691 142.308 91.936 142.383 91.936C142.459 91.936 142.523 92.9691 142.523 94.2389C142.523 95.5087 142.459 96.5418 142.383 96.5418Z" fill="black"/>
</g>
<g opacity="0.3">
<path d="M142.35 94.5081C142.35 94.5834 141.785 94.648 141.085 94.648C140.385 94.648 139.819 94.5834 139.819 94.5081C139.819 94.4327 140.385 94.3682 141.085 94.3682C141.785 94.3682 142.35 94.4327 142.35 94.5081Z" fill="black"/>
</g>
<g opacity="0.3">
<path d="M141.101 96.5954C141.026 96.5954 140.961 96.1327 140.961 95.5624C140.961 94.992 141.026 94.5293 141.101 94.5293C141.176 94.5293 141.241 94.992 141.241 95.5624C141.241 96.1327 141.176 96.5954 141.101 96.5954Z" fill="black"/>
</g>
<g opacity="0.3">
<path d="M148.102 96.6546C148.027 96.6546 147.962 95.6161 147.962 94.341C147.962 93.0658 148.027 92.0273 148.102 92.0273C148.177 92.0273 148.242 93.0604 148.242 94.341C148.242 95.6215 148.177 96.6546 148.102 96.6546Z" fill="black"/>
</g>
<g opacity="0.3">
<path d="M150.66 96.5418C150.584 96.5418 150.52 95.5087 150.52 94.2389C150.52 92.9691 150.584 91.936 150.66 91.936C150.735 91.936 150.8 92.9691 150.8 94.2389C150.8 95.5087 150.735 96.5418 150.66 96.5418Z" fill="black"/>
</g>
<g opacity="0.3">
<path d="M150.622 94.5081C150.622 94.5834 150.056 94.648 149.356 94.648C148.656 94.648 148.091 94.5834 148.091 94.5081C148.091 94.4327 148.656 94.3682 149.356 94.3682C150.056 94.3682 150.622 94.4327 150.622 94.5081Z" fill="black"/>
</g>
<g opacity="0.3">
<path d="M149.378 96.5954C149.303 96.5954 149.238 96.1327 149.238 95.5624C149.238 94.992 149.303 94.5293 149.378 94.5293C149.454 94.5293 149.518 94.992 149.518 95.5624C149.518 96.1327 149.454 96.5954 149.378 96.5954Z" fill="black"/>
</g>
<g opacity="0.3">
<path d="M156.379 96.6546C156.304 96.6546 156.239 95.6161 156.239 94.341C156.239 93.0658 156.304 92.0273 156.379 92.0273C156.455 92.0273 156.519 93.0604 156.519 94.341C156.519 95.6215 156.455 96.6546 156.379 96.6546Z" fill="black"/>
</g>
<g opacity="0.3">
<path d="M158.932 96.5418C158.857 96.5418 158.792 95.5087 158.792 94.2389C158.792 92.9691 158.857 91.936 158.932 91.936C159.007 91.936 159.072 92.9691 159.072 94.2389C159.072 95.5087 159.007 96.5418 158.932 96.5418Z" fill="black"/>
</g>
<g opacity="0.3">
<path d="M158.899 94.5081C158.899 94.5834 158.334 94.648 157.634 94.648C156.934 94.648 156.368 94.5834 156.368 94.5081C156.368 94.4327 156.934 94.3682 157.634 94.3682C158.334 94.3682 158.899 94.4327 158.899 94.5081Z" fill="black"/>
</g>
<g opacity="0.3">
<path d="M157.65 96.5954C157.574 96.5954 157.51 96.1327 157.51 95.5624C157.51 94.992 157.574 94.5293 157.65 94.5293C157.725 94.5293 157.79 94.992 157.79 95.5624C157.79 96.1327 157.725 96.5954 157.65 96.5954Z" fill="black"/>
</g>
<path d="M84.5033 96.6224C84.4279 96.6224 84.3633 88.3471 84.3633 78.1349C84.3633 67.9227 84.4279 59.6475 84.5033 59.6475C84.5787 59.6475 84.6433 67.9227 84.6433 78.1349C84.6433 88.3471 84.5787 96.6224 84.5033 96.6224V96.6224Z" fill="#263238"/>
<path d="M96.1295 39.3359H84.5029V41.5904H96.1295V39.3359Z" fill="white"/>
<path d="M96.1295 42.688H84.5029V44.9424H96.1295V42.688Z" fill="white"/>
<path d="M84.5189 48.9779C84.4435 48.9779 84.3789 46.0616 84.3789 42.4675C84.3789 38.8733 84.4435 35.957 84.5189 35.957C84.5943 35.957 84.6589 38.8733 84.6589 42.4675C84.6589 46.0616 84.5943 48.9779 84.5189 48.9779Z" fill="#263238"/>
<path d="M96.1293 48.9779C96.0539 48.9779 95.9893 46.0616 95.9893 42.4675C95.9893 38.8733 96.0539 35.957 96.1293 35.957C96.2047 35.957 96.2693 38.8733 96.2693 42.4675C96.2693 46.0616 96.2047 48.9779 96.1293 48.9779Z" fill="#263238"/>
<path d="M88.4177 94.0181H86.4521V96.6814H88.4177V94.0181Z" fill="#455A64"/>
<g opacity="0.3">
<path d="M96.1031 65.8674C96.1031 65.9428 93.5505 66.0073 90.4002 66.0073C87.2498 66.0073 84.6973 65.9428 84.6973 65.8674C84.6973 65.7921 87.2498 65.7275 90.4002 65.7275C93.5505 65.7275 96.1031 65.7921 96.1031 65.8674Z" fill="black"/>
</g>
<g opacity="0.3">
<path d="M96.1031 74.7395C96.1031 74.8148 93.5505 74.8794 90.4002 74.8794C87.2498 74.8794 84.6973 74.8148 84.6973 74.7395C84.6973 74.6642 87.2498 74.5996 90.4002 74.5996C93.5505 74.5996 96.1031 74.6642 96.1031 74.7395Z" fill="black"/>
</g>
<g opacity="0.3">
<path d="M96.1031 83.6121C96.1031 83.6874 93.5505 83.752 90.4002 83.752C87.2498 83.752 84.6973 83.6874 84.6973 83.6121C84.6973 83.5367 87.2498 83.4722 90.4002 83.4722C93.5505 83.4722 96.1031 83.5367 96.1031 83.6121Z" fill="black"/>
</g>
<g opacity="0.3">
<path d="M96.1031 92.4846C96.1031 92.5599 93.5505 92.6245 90.4002 92.6245C87.2498 92.6245 84.6973 92.5599 84.6973 92.4846C84.6973 92.4093 87.2498 92.3447 90.4002 92.3447C93.5505 92.3447 96.1031 92.4093 96.1031 92.4846Z" fill="black"/>
</g>
<g opacity="0.3">
<path d="M90.5404 59.0396C90.6158 59.0396 90.6804 67.4385 90.6804 77.7907C90.6804 88.1428 90.6158 96.5471 90.5404 96.5471C90.465 96.5471 90.4004 88.1535 90.4004 77.7907C90.4004 67.4278 90.465 59.0396 90.5404 59.0396V59.0396Z" fill="black"/>
</g>
<g opacity="0.3">
<path d="M86.8402 59.0396C86.9156 59.0396 86.9802 66.5292 86.9802 75.7622C86.9802 84.9952 86.9156 92.4848 86.8402 92.4848C86.7648 92.4848 86.7002 85.0005 86.7002 75.7622C86.7002 66.5238 86.7648 59.0396 86.8402 59.0396V59.0396Z" fill="black"/>
</g>
<g opacity="0.3">
<path d="M94.1908 59.4321C94.2662 59.4321 94.3308 67.7396 94.3308 77.9895C94.3308 88.2394 94.2662 96.5469 94.1908 96.5469C94.1154 96.5469 94.0508 88.2394 94.0508 77.9895C94.0508 67.7396 94.1154 59.4321 94.1908 59.4321V59.4321Z" fill="black"/>
</g>
<path d="M96.1351 77.4783C96.0597 77.4783 95.9951 73.3784 95.9951 68.3261C95.9951 63.2738 96.0597 59.1738 96.1351 59.1738C96.2105 59.1738 96.2752 63.2684 96.2752 68.3261C96.2752 73.3838 96.2105 77.4783 96.1351 77.4783Z" fill="#263238"/>
</g>
<defs>
<clipPath id="clip0_5164_21131">
<rect width="194" height="98" fill="white"/>
</clipPath>
</defs>
</svg>
