<svg width="160" height="79" viewBox="0 0 160 79" fill="none" xmlns="http://www.w3.org/2000/svg">
<g clip-path="url(#clip0_5164_20617)">
<path opacity="0.2" d="M154.792 27.7549C151.384 16.8672 136.458 2.12306 113.859 0.326824C91.2592 -1.46941 81.1471 4.35309 74.8035 12.7882C68.4595 21.2234 62.4615 24.3239 50.4198 23.9945C40.5016 23.7237 23.0649 12.4761 7.20582 33.7015C-0.0094684 43.3607 -1.56249 54.6374 1.46135 66.1638C3.1655 72.6613 5.89941 77.442 6.6235 78.5671H154.04C154.083 78.5671 154.795 75.4921 155.553 70.6563C157.587 57.6952 158.72 40.3035 154.792 27.7549V27.7549Z" fill="#6AA2E5"/>
<g opacity="0.5">
<path d="M56.1894 30.8527V26.882H54.025V21.3008H44.5971V26.882H42.4327V30.8527H39.8174V78.7794H58.8047V30.8527H56.1894Z" fill="#488ACC"/>
<path d="M76.5496 22.4829H62.5596V78.4573H76.5496V22.4829Z" fill="#488ACC"/>
<path d="M129.439 26.1021V78.7794H115.449V30.0362C115.461 30.0367 115.473 30.0372 115.485 30.0372C115.843 30.0412 116.194 29.9924 116.53 29.8954C117.016 29.7551 117.467 29.5123 117.859 29.177C117.919 29.1263 117.976 29.0736 118.033 29.0185C118.455 28.6068 118.763 28.1085 118.94 27.5635C119.051 27.2232 119.111 26.8638 119.115 26.496C119.116 26.3635 119.111 26.2325 119.099 26.1021H129.439V26.1021Z" fill="#488ACC"/>
<path d="M89.63 21.6646H73.4785V78.7798H89.63V21.6646Z" fill="#6AA2E5"/>
<path d="M66.8859 42.1439V39.1088H65.2314V34.8423H58.0245V39.1088H56.3701V42.1439H54.3711V78.7792H68.8849V42.1439H66.8859Z" fill="#6AA2E5"/>
<path d="M110.323 34.8558V31.217H107.963V26.1016H97.6845V31.217H95.3247V34.8558H92.4736V78.7794H113.174V34.8558H110.323Z" fill="#488ACC"/>
<path d="M43.3044 48.5742V46.0719H41.4885V42.5542L37.5343 38.1616L33.5796 42.5542V46.0719H31.7638V48.5742H29.5693V78.7793H45.4988V48.5742H43.3044Z" fill="#CAE3FF"/>
<path d="M120.795 41.6885H103.931V78.7792H120.795V41.6885Z" fill="#6AA2E5"/>
<g opacity="0.5">
<path d="M32.9142 50.7451H31.6855V52.6807H32.9142V50.7451Z" fill="#6AA2E5"/>
</g>
<g opacity="0.5">
<path d="M35.587 50.7451H34.3584V52.6807H35.587V50.7451Z" fill="#6AA2E5"/>
</g>
<g opacity="0.5">
<path d="M38.2599 50.7451H37.0312V52.6807H38.2599V50.7451Z" fill="#6AA2E5"/>
</g>
<g opacity="0.5">
<path d="M40.9327 50.7451H39.7041V52.6807H40.9327V50.7451Z" fill="#6AA2E5"/>
</g>
<g opacity="0.5">
<path d="M43.6056 50.7451H42.377V52.6807H43.6056V50.7451Z" fill="#6AA2E5"/>
</g>
<g opacity="0.5">
<path d="M32.9142 54.1582H31.6855V56.0938H32.9142V54.1582Z" fill="#6AA2E5"/>
</g>
<g opacity="0.5">
<path d="M35.587 54.1582H34.3584V56.0938H35.587V54.1582Z" fill="#6AA2E5"/>
</g>
<g opacity="0.5">
<path d="M38.2599 54.1582H37.0312V56.0938H38.2599V54.1582Z" fill="#6AA2E5"/>
</g>
<g opacity="0.5">
<path d="M40.9327 54.1582H39.7041V56.0938H40.9327V54.1582Z" fill="#6AA2E5"/>
</g>
<g opacity="0.5">
<path d="M43.6056 54.1582H42.377V56.0938H43.6056V54.1582Z" fill="#6AA2E5"/>
</g>
<g opacity="0.5">
<path d="M32.9142 57.5718H31.6855V59.5074H32.9142V57.5718Z" fill="#6AA2E5"/>
</g>
<g opacity="0.5">
<path d="M35.587 57.5718H34.3584V59.5074H35.587V57.5718Z" fill="#6AA2E5"/>
</g>
<g opacity="0.5">
<path d="M38.2599 57.5718H37.0312V59.5074H38.2599V57.5718Z" fill="#6AA2E5"/>
</g>
<g opacity="0.5">
<path d="M40.9327 57.5718H39.7041V59.5074H40.9327V57.5718Z" fill="#6AA2E5"/>
</g>
<g opacity="0.5">
<path d="M43.6056 57.5718H42.377V59.5074H43.6056V57.5718Z" fill="#6AA2E5"/>
</g>
<g opacity="0.5">
<path d="M32.9142 60.9849H31.6855V62.9204H32.9142V60.9849Z" fill="#6AA2E5"/>
</g>
<g opacity="0.5">
<path d="M35.587 60.9849H34.3584V62.9204H35.587V60.9849Z" fill="#6AA2E5"/>
</g>
<g opacity="0.5">
<path d="M38.2599 60.9849H37.0312V62.9204H38.2599V60.9849Z" fill="#6AA2E5"/>
</g>
<g opacity="0.5">
<path d="M40.9327 60.9849H39.7041V62.9204H40.9327V60.9849Z" fill="#6AA2E5"/>
</g>
<g opacity="0.5">
<path d="M43.6056 60.9849H42.377V62.9204H43.6056V60.9849Z" fill="#6AA2E5"/>
</g>
<g opacity="0.5">
<path d="M32.9142 64.3979H31.6855V66.3335H32.9142V64.3979Z" fill="#6AA2E5"/>
</g>
<g opacity="0.5">
<path d="M35.587 64.3979H34.3584V66.3335H35.587V64.3979Z" fill="#6AA2E5"/>
</g>
<g opacity="0.5">
<path d="M38.2599 64.3979H37.0312V66.3335H38.2599V64.3979Z" fill="#6AA2E5"/>
</g>
<g opacity="0.5">
<path d="M40.9327 64.3979H39.7041V66.3335H40.9327V64.3979Z" fill="#6AA2E5"/>
</g>
<g opacity="0.5">
<path d="M43.6056 64.3979H42.377V66.3335H43.6056V64.3979Z" fill="#6AA2E5"/>
</g>
<g opacity="0.5">
<path d="M32.9142 68.0312H31.6855V69.9668H32.9142V68.0312Z" fill="#6AA2E5"/>
</g>
<g opacity="0.5">
<path d="M35.587 68.0312H34.3584V69.9668H35.587V68.0312Z" fill="#6AA2E5"/>
</g>
<g opacity="0.5">
<path d="M38.2599 68.0312H37.0312V69.9668H38.2599V68.0312Z" fill="#6AA2E5"/>
</g>
<g opacity="0.5">
<path d="M40.9327 68.0312H39.7041V69.9668H40.9327V68.0312Z" fill="#6AA2E5"/>
</g>
<g opacity="0.5">
<path d="M43.6056 68.0312H42.377V69.9668H43.6056V68.0312Z" fill="#6AA2E5"/>
</g>
<g opacity="0.5">
<path d="M32.9142 71.6641H31.6855V73.5996H32.9142V71.6641Z" fill="#6AA2E5"/>
</g>
<g opacity="0.5">
<path d="M35.587 71.6641H34.3584V73.5996H35.587V71.6641Z" fill="#6AA2E5"/>
</g>
<g opacity="0.5">
<path d="M38.2599 71.6641H37.0312V73.5996H38.2599V71.6641Z" fill="#6AA2E5"/>
</g>
<g opacity="0.5">
<path d="M40.9327 71.6641H39.7041V73.5996H40.9327V71.6641Z" fill="#6AA2E5"/>
</g>
<g opacity="0.5">
<path d="M43.6056 71.6641H42.377V73.5996H43.6056V71.6641Z" fill="#6AA2E5"/>
</g>
<g opacity="0.5">
<path d="M32.9142 75.2969H31.6855V77.2325H32.9142V75.2969Z" fill="#6AA2E5"/>
</g>
<g opacity="0.5">
<path d="M35.587 75.2969H34.3584V77.2325H35.587V75.2969Z" fill="#6AA2E5"/>
</g>
<g opacity="0.5">
<path d="M38.2599 75.2969H37.0312V77.2325H38.2599V75.2969Z" fill="#6AA2E5"/>
</g>
<g opacity="0.5">
<path d="M40.9327 75.2969H39.7041V77.2325H40.9327V75.2969Z" fill="#6AA2E5"/>
</g>
<g opacity="0.5">
<path d="M43.6056 75.2969H42.377V77.2325H43.6056V75.2969Z" fill="#6AA2E5"/>
</g>
<g style="mix-blend-mode:multiply" opacity="0.3">
<path d="M119.317 43.2251H104.985V44.3911H119.317V43.2251Z" fill="#6AA2E5"/>
</g>
<g style="mix-blend-mode:multiply" opacity="0.3">
<path d="M119.317 46.3271H104.985V47.4931H119.317V46.3271Z" fill="#6AA2E5"/>
</g>
<g style="mix-blend-mode:multiply" opacity="0.3">
<path d="M119.317 49.4292H104.985V50.5952H119.317V49.4292Z" fill="#6AA2E5"/>
</g>
<g style="mix-blend-mode:multiply" opacity="0.3">
<path d="M119.317 52.5312H104.985V53.6972H119.317V52.5312Z" fill="#6AA2E5"/>
</g>
<g style="mix-blend-mode:multiply" opacity="0.3">
<path d="M119.317 55.6328H104.985V56.7988H119.317V55.6328Z" fill="#6AA2E5"/>
</g>
<g style="mix-blend-mode:multiply" opacity="0.3">
<path d="M119.317 58.7349H104.985V59.9008H119.317V58.7349Z" fill="#6AA2E5"/>
</g>
<g style="mix-blend-mode:multiply" opacity="0.3">
<path d="M119.317 61.8369H104.985V63.0029H119.317V61.8369Z" fill="#6AA2E5"/>
</g>
<g style="mix-blend-mode:multiply" opacity="0.3">
<path d="M119.317 64.939H104.985V66.1049H119.317V64.939Z" fill="#6AA2E5"/>
</g>
<g style="mix-blend-mode:multiply" opacity="0.3">
<path d="M119.317 68.041H104.985V69.207H119.317V68.041Z" fill="#6AA2E5"/>
</g>
<g style="mix-blend-mode:multiply" opacity="0.3">
<path d="M119.317 71.1431H104.985V72.309H119.317V71.1431Z" fill="#6AA2E5"/>
</g>
<g style="mix-blend-mode:multiply" opacity="0.3">
<path d="M119.317 74.2451H104.985V75.4111H119.317V74.2451Z" fill="#6AA2E5"/>
</g>
<g style="mix-blend-mode:multiply" opacity="0.3">
<path d="M119.317 77.3472H104.985V78.5131H119.317V77.3472Z" fill="#6AA2E5"/>
</g>
<g style="mix-blend-mode:multiply" opacity="0.3">
<path d="M58.5296 43.9072H56.252V45.8428H58.5296V43.9072Z" fill="#6AA2E5"/>
</g>
<g style="mix-blend-mode:multiply" opacity="0.3">
<path d="M62.7669 43.9072H60.4893V45.8428H62.7669V43.9072Z" fill="#6AA2E5"/>
</g>
<g style="mix-blend-mode:multiply" opacity="0.3">
<path d="M67.0032 43.9072H64.7256V45.8428H67.0032V43.9072Z" fill="#6AA2E5"/>
</g>
<g style="mix-blend-mode:multiply" opacity="0.3">
<path d="M58.5296 47.4932H56.252V49.4287H58.5296V47.4932Z" fill="#6AA2E5"/>
</g>
<g style="mix-blend-mode:multiply" opacity="0.3">
<path d="M62.7659 47.4932H60.4883V49.4287H62.7659V47.4932Z" fill="#6AA2E5"/>
</g>
<g style="mix-blend-mode:multiply" opacity="0.3">
<path d="M67.0032 47.4932H64.7256V49.4287H67.0032V47.4932Z" fill="#6AA2E5"/>
</g>
<g style="mix-blend-mode:multiply" opacity="0.3">
<path d="M58.5296 51.0786H56.252V53.0142H58.5296V51.0786Z" fill="#6AA2E5"/>
</g>
<g style="mix-blend-mode:multiply" opacity="0.3">
<path d="M62.7659 51.0786H60.4883V53.0142H62.7659V51.0786Z" fill="#6AA2E5"/>
</g>
<g style="mix-blend-mode:multiply" opacity="0.3">
<path d="M67.0032 51.0786H64.7256V53.0142H67.0032V51.0786Z" fill="#6AA2E5"/>
</g>
<g style="mix-blend-mode:multiply" opacity="0.3">
<path d="M58.5296 54.6641H56.252V56.5996H58.5296V54.6641Z" fill="#6AA2E5"/>
</g>
<g style="mix-blend-mode:multiply" opacity="0.3">
<path d="M62.7659 54.6641H60.4883V56.5996H62.7659V54.6641Z" fill="#6AA2E5"/>
</g>
<g style="mix-blend-mode:multiply" opacity="0.3">
<path d="M67.0032 54.6641H64.7256V56.5996H67.0032V54.6641Z" fill="#6AA2E5"/>
</g>
<g style="mix-blend-mode:multiply" opacity="0.3">
<path d="M58.5296 58.2495H56.252V60.1851H58.5296V58.2495Z" fill="#6AA2E5"/>
</g>
<g style="mix-blend-mode:multiply" opacity="0.3">
<path d="M62.7659 58.2495H60.4883V60.1851H62.7659V58.2495Z" fill="#6AA2E5"/>
</g>
<g style="mix-blend-mode:multiply" opacity="0.3">
<path d="M67.0032 58.2495H64.7256V60.1851H67.0032V58.2495Z" fill="#6AA2E5"/>
</g>
<g style="mix-blend-mode:multiply" opacity="0.3">
<path d="M58.5296 61.8354H56.252V63.771H58.5296V61.8354Z" fill="#6AA2E5"/>
</g>
<g style="mix-blend-mode:multiply" opacity="0.3">
<path d="M62.7659 61.8354H60.4883V63.771H62.7659V61.8354Z" fill="#6AA2E5"/>
</g>
<g style="mix-blend-mode:multiply" opacity="0.3">
<path d="M67.0032 61.8354H64.7256V63.771H67.0032V61.8354Z" fill="#6AA2E5"/>
</g>
<g style="mix-blend-mode:multiply" opacity="0.3">
<path d="M58.5296 65.4209H56.252V67.3565H58.5296V65.4209Z" fill="#6AA2E5"/>
</g>
<g style="mix-blend-mode:multiply" opacity="0.3">
<path d="M62.7659 65.4209H60.4883V67.3565H62.7659V65.4209Z" fill="#6AA2E5"/>
</g>
<g style="mix-blend-mode:multiply" opacity="0.3">
<path d="M67.0032 65.4209H64.7256V67.3565H67.0032V65.4209Z" fill="#6AA2E5"/>
</g>
<g style="mix-blend-mode:multiply" opacity="0.3">
<path d="M58.5296 69.0063H56.252V70.9419H58.5296V69.0063Z" fill="#6AA2E5"/>
</g>
<g style="mix-blend-mode:multiply" opacity="0.3">
<path d="M62.7659 69.0063H60.4883V70.9419H62.7659V69.0063Z" fill="#6AA2E5"/>
</g>
<g style="mix-blend-mode:multiply" opacity="0.3">
<path d="M67.0032 69.0063H64.7256V70.9419H67.0032V69.0063Z" fill="#6AA2E5"/>
</g>
<g style="mix-blend-mode:multiply" opacity="0.3">
<path d="M58.5296 72.5923H56.252V74.5279H58.5296V72.5923Z" fill="#6AA2E5"/>
</g>
<g style="mix-blend-mode:multiply" opacity="0.3">
<path d="M62.7659 72.5923H60.4883V74.5279H62.7659V72.5923Z" fill="#6AA2E5"/>
</g>
<g style="mix-blend-mode:multiply" opacity="0.3">
<path d="M67.0032 72.5923H64.7256V74.5279H67.0032V72.5923Z" fill="#6AA2E5"/>
</g>
<g style="mix-blend-mode:multiply" opacity="0.3">
<path d="M58.5296 76.1777H56.252V78.1133H58.5296V76.1777Z" fill="#6AA2E5"/>
</g>
<g style="mix-blend-mode:multiply" opacity="0.3">
<path d="M62.7659 76.1777H60.4883V78.1133H62.7659V76.1777Z" fill="#6AA2E5"/>
</g>
<g style="mix-blend-mode:multiply" opacity="0.3">
<path d="M67.0032 76.1777H64.7256V78.1133H67.0032V76.1777Z" fill="#6AA2E5"/>
</g>
<g style="mix-blend-mode:multiply" opacity="0.3">
<path d="M76.5497 23.7222H74.374V35.3071H76.5497V23.7222Z" fill="#6AA2E5"/>
</g>
<g style="mix-blend-mode:multiply" opacity="0.3">
<path d="M80.7656 23.7222H78.5898V35.3071H80.7656V23.7222Z" fill="#6AA2E5"/>
</g>
<g style="mix-blend-mode:multiply" opacity="0.3">
<path d="M84.9814 23.7222H82.8057V35.3071H84.9814V23.7222Z" fill="#6AA2E5"/>
</g>
<g style="mix-blend-mode:multiply" opacity="0.3">
<path d="M88.9159 23.7222H86.7402V35.3071H88.9159V23.7222Z" fill="#6AA2E5"/>
</g>
<g style="mix-blend-mode:multiply" opacity="0.3">
<path d="M76.5497 39.083H74.374V50.668H76.5497V39.083Z" fill="#6AA2E5"/>
</g>
<g style="mix-blend-mode:multiply" opacity="0.3">
<path d="M80.7656 39.083H78.5898V50.668H80.7656V39.083Z" fill="#6AA2E5"/>
</g>
<g style="mix-blend-mode:multiply" opacity="0.3">
<path d="M84.9814 39.083H82.8057V50.668H84.9814V39.083Z" fill="#6AA2E5"/>
</g>
<g style="mix-blend-mode:multiply" opacity="0.3">
<path d="M88.9159 39.083H86.7402V50.668H88.9159V39.083Z" fill="#6AA2E5"/>
</g>
<g style="mix-blend-mode:multiply" opacity="0.3">
<path d="M76.5497 54.4434H74.374V66.0283H76.5497V54.4434Z" fill="#6AA2E5"/>
</g>
<g style="mix-blend-mode:multiply" opacity="0.3">
<path d="M80.7656 54.4434H78.5898V66.0283H80.7656V54.4434Z" fill="#6AA2E5"/>
</g>
<g style="mix-blend-mode:multiply" opacity="0.3">
<path d="M84.9814 54.4434H82.8057V66.0283H84.9814V54.4434Z" fill="#6AA2E5"/>
</g>
<g style="mix-blend-mode:multiply" opacity="0.3">
<path d="M88.9159 54.4434H86.7402V66.0283H88.9159V54.4434Z" fill="#6AA2E5"/>
</g>
<g style="mix-blend-mode:multiply" opacity="0.3">
<path d="M76.5497 69.8037H74.374V78.7795H76.5497V69.8037Z" fill="#6AA2E5"/>
</g>
<g style="mix-blend-mode:multiply" opacity="0.3">
<path d="M80.7656 69.8037H78.5898V78.7795H80.7656V69.8037Z" fill="#6AA2E5"/>
</g>
<g style="mix-blend-mode:multiply" opacity="0.3">
<path d="M84.9814 69.8037H82.8057V78.7795H84.9814V69.8037Z" fill="#6AA2E5"/>
</g>
<g style="mix-blend-mode:multiply" opacity="0.3">
<path d="M88.9159 69.8037H86.7402V78.7795H88.9159V69.8037Z" fill="#6AA2E5"/>
</g>
<path d="M96.5719 42.144V39.1089H94.9175V34.8423L91.3143 29.5146L87.711 34.8423V39.1089H86.0566V42.144H84.0576V78.7792H98.5714V42.144H96.5719Z" fill="#CAE3FF"/>
<g opacity="0.5">
<path d="M86.5597 44.3906H85.3311V46.3262H86.5597V44.3906Z" fill="#6AA2E5"/>
</g>
<g opacity="0.5">
<path d="M89.2325 44.3906H88.0039V46.3262H89.2325V44.3906Z" fill="#6AA2E5"/>
</g>
<g opacity="0.5">
<path d="M91.9054 44.3906H90.6768V46.3262H91.9054V44.3906Z" fill="#6AA2E5"/>
</g>
<g opacity="0.5">
<path d="M94.5782 44.3906H93.3496V46.3262H94.5782V44.3906Z" fill="#6AA2E5"/>
</g>
<g opacity="0.5">
<path d="M97.2511 44.3906H96.0225V46.3262H97.2511V44.3906Z" fill="#6AA2E5"/>
</g>
<g opacity="0.5">
<path d="M86.5597 47.8042H85.3311V49.7398H86.5597V47.8042Z" fill="#6AA2E5"/>
</g>
<g opacity="0.5">
<path d="M89.2325 47.8042H88.0039V49.7398H89.2325V47.8042Z" fill="#6AA2E5"/>
</g>
<g opacity="0.5">
<path d="M91.9054 47.8042H90.6768V49.7398H91.9054V47.8042Z" fill="#6AA2E5"/>
</g>
<g opacity="0.5">
<path d="M94.5782 47.8042H93.3496V49.7398H94.5782V47.8042Z" fill="#6AA2E5"/>
</g>
<g opacity="0.5">
<path d="M97.2511 47.8042H96.0225V49.7398H97.2511V47.8042Z" fill="#6AA2E5"/>
</g>
<g opacity="0.5">
<path d="M86.5597 51.2173H85.3311V53.1529H86.5597V51.2173Z" fill="#6AA2E5"/>
</g>
<g opacity="0.5">
<path d="M89.2325 51.2173H88.0039V53.1529H89.2325V51.2173Z" fill="#6AA2E5"/>
</g>
<g opacity="0.5">
<path d="M91.9054 51.2173H90.6768V53.1529H91.9054V51.2173Z" fill="#6AA2E5"/>
</g>
<g opacity="0.5">
<path d="M94.5782 51.2173H93.3496V53.1529H94.5782V51.2173Z" fill="#6AA2E5"/>
</g>
<g opacity="0.5">
<path d="M97.2511 51.2173H96.0225V53.1529H97.2511V51.2173Z" fill="#6AA2E5"/>
</g>
<g opacity="0.5">
<path d="M86.5597 54.6304H85.3311V56.566H86.5597V54.6304Z" fill="#6AA2E5"/>
</g>
<g opacity="0.5">
<path d="M89.2325 54.6304H88.0039V56.566H89.2325V54.6304Z" fill="#6AA2E5"/>
</g>
<g opacity="0.5">
<path d="M91.9054 54.6304H90.6768V56.566H91.9054V54.6304Z" fill="#6AA2E5"/>
</g>
<g opacity="0.5">
<path d="M94.5782 54.6304H93.3496V56.566H94.5782V54.6304Z" fill="#6AA2E5"/>
</g>
<g opacity="0.5">
<path d="M97.2511 54.6304H96.0225V56.566H97.2511V54.6304Z" fill="#6AA2E5"/>
</g>
<g opacity="0.5">
<path d="M86.5597 58.0439H85.3311V59.9795H86.5597V58.0439Z" fill="#6AA2E5"/>
</g>
<g opacity="0.5">
<path d="M89.2325 58.0439H88.0039V59.9795H89.2325V58.0439Z" fill="#6AA2E5"/>
</g>
<g opacity="0.5">
<path d="M91.9054 58.0439H90.6768V59.9795H91.9054V58.0439Z" fill="#6AA2E5"/>
</g>
<g opacity="0.5">
<path d="M94.5782 58.0439H93.3496V59.9795H94.5782V58.0439Z" fill="#6AA2E5"/>
</g>
<g opacity="0.5">
<path d="M97.2511 58.0439H96.0225V59.9795H97.2511V58.0439Z" fill="#6AA2E5"/>
</g>
<g opacity="0.5">
<path d="M86.5597 61.6772H85.3311V63.6128H86.5597V61.6772Z" fill="#6AA2E5"/>
</g>
<g opacity="0.5">
<path d="M89.2325 61.6772H88.0039V63.6128H89.2325V61.6772Z" fill="#6AA2E5"/>
</g>
<g opacity="0.5">
<path d="M91.9054 61.6772H90.6768V63.6128H91.9054V61.6772Z" fill="#6AA2E5"/>
</g>
<g opacity="0.5">
<path d="M94.5782 61.6772H93.3496V63.6128H94.5782V61.6772Z" fill="#6AA2E5"/>
</g>
<g opacity="0.5">
<path d="M97.2511 61.6772H96.0225V63.6128H97.2511V61.6772Z" fill="#6AA2E5"/>
</g>
<g opacity="0.5">
<path d="M86.5597 65.3101H85.3311V67.2456H86.5597V65.3101Z" fill="#6AA2E5"/>
</g>
<g opacity="0.5">
<path d="M89.2325 65.3101H88.0039V67.2456H89.2325V65.3101Z" fill="#6AA2E5"/>
</g>
<g opacity="0.5">
<path d="M91.9054 65.3101H90.6768V67.2456H91.9054V65.3101Z" fill="#6AA2E5"/>
</g>
<g opacity="0.5">
<path d="M94.5782 65.3101H93.3496V67.2456H94.5782V65.3101Z" fill="#6AA2E5"/>
</g>
<g opacity="0.5">
<path d="M97.2511 65.3101H96.0225V67.2456H97.2511V65.3101Z" fill="#6AA2E5"/>
</g>
<g opacity="0.5">
<path d="M86.5597 68.9429H85.3311V70.8785H86.5597V68.9429Z" fill="#6AA2E5"/>
</g>
<g opacity="0.5">
<path d="M89.2325 68.9429H88.0039V70.8785H89.2325V68.9429Z" fill="#6AA2E5"/>
</g>
<g opacity="0.5">
<path d="M91.9054 68.9429H90.6768V70.8785H91.9054V68.9429Z" fill="#6AA2E5"/>
</g>
<g opacity="0.5">
<path d="M94.5782 68.9429H93.3496V70.8785H94.5782V68.9429Z" fill="#6AA2E5"/>
</g>
<g opacity="0.5">
<path d="M97.2511 68.9429H96.0225V70.8785H97.2511V68.9429Z" fill="#6AA2E5"/>
</g>
<g opacity="0.5">
<path d="M86.5597 72.5757H85.3311V74.5113H86.5597V72.5757Z" fill="#6AA2E5"/>
</g>
<g opacity="0.5">
<path d="M89.2325 72.5757H88.0039V74.5113H89.2325V72.5757Z" fill="#6AA2E5"/>
</g>
<g opacity="0.5">
<path d="M91.9054 72.5757H90.6768V74.5113H91.9054V72.5757Z" fill="#6AA2E5"/>
</g>
<g opacity="0.5">
<path d="M94.5782 72.5757H93.3496V74.5113H94.5782V72.5757Z" fill="#6AA2E5"/>
</g>
<g opacity="0.5">
<path d="M97.2511 72.5757H96.0225V74.5113H97.2511V72.5757Z" fill="#6AA2E5"/>
</g>
<g opacity="0.5">
<path d="M86.5597 76.2085H85.3311V78.1441H86.5597V76.2085Z" fill="#6AA2E5"/>
</g>
<g opacity="0.5">
<path d="M89.2325 76.2085H88.0039V78.1441H89.2325V76.2085Z" fill="#6AA2E5"/>
</g>
<g opacity="0.5">
<path d="M91.9054 76.2085H90.6768V78.1441H91.9054V76.2085Z" fill="#6AA2E5"/>
</g>
<g opacity="0.5">
<path d="M94.5782 76.2085H93.3496V78.1441H94.5782V76.2085Z" fill="#6AA2E5"/>
</g>
<g opacity="0.5">
<path d="M97.2511 76.2085H96.0225V78.1441H97.2511V76.2085Z" fill="#6AA2E5"/>
</g>
<g opacity="0.5">
<path d="M88.4318 39.7529H87.2031V41.6885H88.4318V39.7529Z" fill="#6AA2E5"/>
</g>
<g opacity="0.5">
<path d="M90.673 39.7529H89.4443V41.6885H90.673V39.7529Z" fill="#6AA2E5"/>
</g>
<g opacity="0.5">
<path d="M92.9142 39.7529H91.6855V41.6885H92.9142V39.7529Z" fill="#6AA2E5"/>
</g>
<g opacity="0.5">
<path d="M90.6427 36.1689H89.4141V38.1045H90.6427V36.1689Z" fill="#6AA2E5"/>
</g>
<g opacity="0.5">
<path d="M92.9142 36.1689H91.6855V38.1045H92.9142V36.1689Z" fill="#6AA2E5"/>
</g>
<g opacity="0.5">
<path d="M91.9054 32.9062H90.6768V34.8418H91.9054V32.9062Z" fill="#6AA2E5"/>
</g>
<g opacity="0.5">
<path d="M95.1554 39.7529H93.9268V41.6885H95.1554V39.7529Z" fill="#6AA2E5"/>
</g>
</g>
<path d="M66.4023 20.0849C66.4023 20.0849 73.7343 16.1655 81.6663 23.0255C81.6663 23.0255 70.4289 28.3379 66.4023 20.0849V20.0849Z" fill="#3F9896"/>
<path d="M62.0889 19.4928C62.0889 19.4928 66.8213 5.97721 84.8699 5.43115C84.8699 5.43115 76.8079 25.2646 62.0889 19.4928Z" fill="#7FC6A6"/>
<path d="M122.802 10.955C122.795 10.8349 122.748 10.7138 122.65 10.6099C122.438 10.3839 122.076 10.1992 121.467 10.1569C121.467 10.1569 121.677 6.38023 118.825 6.1301C115.555 5.84303 115.515 9.55319 115.515 9.55319C115.515 9.55319 114.028 8.14151 112.956 9.93134C112.956 9.93134 111.103 8.85991 110.169 10.8388C110.15 10.8772 110.141 10.9161 110.139 10.955H122.801H122.802Z" fill="white"/>
<path d="M92.1724 19.9741C92.1802 19.8372 92.2334 19.6988 92.3442 19.5806C92.5859 19.3226 92.9984 19.1129 93.6924 19.0641C93.6924 19.0641 93.4537 14.7606 96.703 14.4756C100.43 14.1486 100.475 18.3763 100.475 18.3763C100.475 18.3763 102.169 16.7676 103.391 18.8071C103.391 18.8071 105.502 17.5865 106.567 19.8411C106.588 19.8849 106.599 19.9293 106.601 19.9736H92.1719L92.1724 19.9741Z" fill="white"/>
<path d="M125.692 21.6508C124.703 21.5942 122.384 21.4952 120.368 21.6651C119.534 21.7355 118.814 21.0688 118.832 20.2322C118.84 19.8895 118.963 19.4912 119.281 19.0396C120.505 17.301 122.632 18.9613 122.612 19.8442C122.612 19.8442 123.042 18.5152 124.348 18.7476C125.655 18.9805 125.193 20.9132 125.193 20.9132C125.193 20.9132 125.614 20.8241 125.906 21.0235C126.194 21.2194 126.039 21.6705 125.691 21.6508H125.692Z" fill="white"/>
<path d="M113.655 33.1249C113.646 32.7419 113.597 32.3647 113.512 31.9974C113.365 31.3622 113.109 30.759 112.76 30.2154C112.628 30.0086 112.483 29.8107 112.324 29.6226C111.382 28.5029 109.998 27.7466 108.367 27.6791C108.309 27.6767 108.251 27.6752 108.194 27.6742C108.136 27.6737 108.078 27.6737 108.02 27.6742C104.928 27.7249 102.662 30.2696 102.592 33.1245C102.573 33.8625 102.702 34.6213 103.001 35.3634L103.286 35.9301L103.52 36.3939L106.617 42.5439L106.891 43.088L107.385 44.0698L107.761 44.8153L107.973 45.2363L108.071 45.0531L108.157 44.8921L108.198 44.8153L108.597 44.0698L109.123 43.088L109.611 42.177L113.155 35.5608L113.191 35.4924C113.529 34.7119 113.674 33.9074 113.655 33.1249H113.655ZM110.7 33.3805C110.694 33.8758 110.549 34.3362 110.302 34.7262C110.121 35.0118 109.886 35.259 109.611 35.4535C109.557 35.4914 109.503 35.5273 109.447 35.5613C109.05 35.7991 108.585 35.933 108.089 35.9271C108.083 35.9271 108.077 35.9271 108.071 35.9271C106.655 35.8991 105.526 34.7341 105.544 33.3165C105.562 31.8925 106.731 30.7521 108.154 30.7699C109.071 30.7817 109.871 31.2711 110.319 31.9984C110.524 32.3317 110.656 32.7153 110.69 33.1259C110.698 33.2096 110.701 33.2953 110.7 33.3815L110.7 33.3805Z" fill="#FA534A"/>
<path d="M110.65 31.9973C110.525 31.7624 110.365 31.5438 110.173 31.3473C109.639 30.7998 108.923 30.4925 108.158 30.4827C106.58 30.4615 105.278 31.7319 105.258 33.312C105.238 34.8866 106.498 36.1846 108.071 36.2126C108.077 36.2126 108.082 36.2126 108.086 36.2126C108.099 36.2126 108.111 36.2126 108.124 36.2126C108.656 36.2126 109.167 36.0684 109.611 35.7966C109.727 35.7261 109.837 35.6474 109.943 35.5607C110.005 35.51 110.064 35.4558 110.123 35.3992C110.186 35.3376 110.246 35.2731 110.303 35.2072C110.737 34.699 110.978 34.0609 110.987 33.3838C110.988 33.2967 110.985 33.2105 110.979 33.1248C110.949 32.7265 110.837 32.3439 110.651 31.9973H110.65ZM110.302 34.0589C110.189 34.4075 109.992 34.7256 109.723 34.989C109.686 35.024 109.649 35.058 109.611 35.0905C109.361 35.3051 109.072 35.4598 108.762 35.5499C108.547 35.6119 108.323 35.6429 108.094 35.6405C108.086 35.6405 108.079 35.6405 108.071 35.64C106.818 35.6119 105.815 34.5754 105.831 33.3193C105.839 32.7073 106.085 32.1342 106.523 31.7068C106.954 31.2863 107.52 31.0558 108.122 31.0558C108.132 31.0558 108.142 31.0558 108.152 31.0558C108.764 31.0637 109.337 31.3089 109.764 31.7476C109.841 31.8269 109.912 31.9101 109.976 31.9978C110.118 32.1932 110.228 32.4079 110.303 32.6354C110.354 32.7935 110.388 32.9574 110.404 33.1253C110.412 33.2086 110.416 33.2923 110.415 33.3769C110.412 33.6123 110.374 33.8418 110.303 34.0594L110.302 34.0589Z" fill="white"/>
<path d="M113.937 33.1249C113.934 33.0033 113.928 32.8822 113.917 32.761C113.905 32.6138 113.887 32.4671 113.863 32.3213C113.846 32.2125 113.826 32.1047 113.802 31.9973C113.658 31.3365 113.4 30.6969 113.03 30.108C112.944 29.9711 112.854 29.8387 112.759 29.7117C112.625 29.5309 112.481 29.3591 112.33 29.1976C111.306 28.1015 109.915 27.4575 108.378 27.393C108.318 27.3905 108.257 27.389 108.196 27.3881C108.135 27.3876 108.075 27.3876 108.015 27.3881C106.089 27.4196 104.369 28.366 103.296 29.9849C102.668 30.9318 102.334 32.0219 102.308 33.1244C102.29 33.9167 102.43 34.7148 102.734 35.4706L106.57 43.0879L106.616 43.18L107.063 44.0697L107.439 44.8152L107.964 45.8571L108.07 45.6592L108.156 45.4982L108.522 44.8157L108.921 44.0702L109.447 43.0884L109.611 42.7836L113.443 35.6282L113.454 35.6065C113.46 35.5918 113.466 35.5765 113.473 35.5612C113.803 34.7803 113.956 33.9501 113.937 33.1254V33.1249ZM112.933 35.3682L112.829 35.5612L109.611 41.5709L108.798 43.0889L108.272 44.0707L108.157 44.2859L108.07 44.4469L107.98 44.6158L107.705 44.0707L107.211 43.0889L106.616 41.9086L105.011 38.7214L104.794 38.2891L103.84 36.3954L103.285 35.2944L103.261 35.2466C102.987 34.5632 102.862 33.8418 102.881 33.1259C102.906 32.1347 103.208 31.1548 103.773 30.303C104.74 28.8436 106.29 27.9908 108.025 27.9622C108.079 27.9617 108.134 27.9612 108.19 27.9622C108.245 27.9627 108.299 27.9642 108.355 27.9661C109.956 28.0326 111.382 28.7993 112.323 30.0859C112.401 30.1917 112.475 30.3006 112.546 30.4133C112.623 30.5354 112.694 30.66 112.76 30.786C112.962 31.1736 113.114 31.5808 113.215 31.9983C113.305 32.3686 113.355 32.7463 113.365 33.1259C113.384 33.8856 113.241 34.6508 112.933 35.3692V35.3682Z" fill="white"/>
<path d="M108.124 36.2676C108.111 36.2676 108.098 36.2676 108.085 36.2676C108.08 36.2676 108.074 36.2676 108.067 36.2671L108.075 36.1583C108.079 36.1583 108.083 36.1583 108.087 36.1583C108.1 36.1583 108.112 36.1593 108.124 36.1583C108.642 36.1583 109.147 36.017 109.584 35.7501C109.696 35.6811 109.806 35.6033 109.908 35.5187C109.968 35.4699 110.027 35.4167 110.085 35.3601C110.145 35.3015 110.205 35.238 110.261 35.1715C110.692 34.6678 110.924 34.0494 110.933 33.3827C110.934 33.2975 110.932 33.2118 110.925 33.1286C110.895 32.7376 110.787 32.3659 110.603 32.0227C110.479 31.7908 110.321 31.5761 110.135 31.385L110.213 31.3087C110.406 31.5072 110.57 31.7302 110.699 31.971C110.89 32.3275 111.003 32.7145 111.033 33.1202C111.04 33.2069 111.043 33.2955 111.042 33.3841C111.033 34.0764 110.792 34.719 110.344 35.2419C110.285 35.3109 110.223 35.3768 110.16 35.4379C110.1 35.4965 110.039 35.5521 109.977 35.6024C109.87 35.6905 109.756 35.7713 109.64 35.8426C109.186 36.1199 108.662 36.2666 108.124 36.2666V36.2676ZM108.119 35.6949C108.11 35.6949 108.101 35.6949 108.093 35.6949C108.085 35.6949 108.076 35.6949 108.068 35.6939C106.789 35.6654 105.76 34.5999 105.777 33.3182C105.784 32.6914 106.036 32.1054 106.485 31.6672C106.925 31.2373 107.507 31.0005 108.122 31.0005C108.133 31.0005 108.143 31.0005 108.154 31.0005C108.78 31.0084 109.366 31.26 109.803 31.709C109.881 31.7893 109.954 31.8755 110.02 31.9651L109.932 32.0296C109.87 31.9444 109.8 31.8622 109.725 31.7854C109.308 31.3575 108.749 31.1172 108.152 31.1098C108.141 31.1098 108.131 31.1088 108.123 31.1098C107.536 31.1098 106.982 31.3353 106.561 31.7455C106.133 32.163 105.893 32.7219 105.886 33.3196C105.87 34.5418 106.852 35.558 108.073 35.5851C108.081 35.5851 108.088 35.5856 108.094 35.5856C108.316 35.5886 108.536 35.558 108.747 35.497C109.053 35.4084 109.333 35.2572 109.576 35.0489C109.612 35.0179 109.648 34.9859 109.685 34.9499C109.945 34.6964 110.141 34.3822 110.251 34.042L110.354 34.0755C110.239 34.4324 110.033 34.7619 109.761 35.0277C109.722 35.0652 109.685 35.0991 109.647 35.1316C109.392 35.3503 109.099 35.5088 108.777 35.6019C108.564 35.6634 108.343 35.6949 108.119 35.6949H108.119Z" fill="#1D1D1B"/>
<path d="M107.963 45.9751L106.521 43.1124L102.685 35.4951C102.379 34.7344 102.234 33.9377 102.254 33.1233C102.28 31.9937 102.625 30.8982 103.25 29.9552C104.334 28.321 106.07 27.3658 108.014 27.3337C108.074 27.3328 108.136 27.3328 108.197 27.3337C108.259 27.3342 108.32 27.3362 108.38 27.3387C109.916 27.4027 111.333 28.0497 112.37 29.1605C112.522 29.323 112.668 29.4973 112.802 29.679C112.896 29.8046 112.988 29.9395 113.076 30.0793C113.445 30.6677 113.707 31.3088 113.855 31.9858C113.877 32.0892 113.899 32.199 113.917 32.3128C113.94 32.4561 113.958 32.6053 113.971 32.7564C113.982 32.8746 113.988 32.9982 113.991 33.1238C114.011 33.9731 113.853 34.7999 113.523 35.5823C113.516 35.5975 113.51 35.6128 113.503 35.6281L113.492 35.6512L107.962 45.9751H107.963ZM108.115 27.4421C108.082 27.4421 108.049 27.4421 108.016 27.4431C106.109 27.4741 104.405 28.4116 103.341 30.0158C102.727 30.942 102.389 32.0174 102.363 33.1262C102.344 33.9259 102.486 34.7083 102.785 35.4508L107.966 45.7388L109.562 42.7574L113.395 35.602L113.404 35.5823C113.41 35.5695 113.416 35.5547 113.422 35.5399C113.747 34.7713 113.902 33.9593 113.882 33.1257C113.879 33.0026 113.873 32.881 113.863 32.7653C113.85 32.6166 113.833 32.4699 113.81 32.3295C113.791 32.2163 113.772 32.1114 113.749 32.0085C113.604 31.3438 113.347 30.714 112.984 30.1364C112.898 29.9991 112.807 29.8671 112.715 29.7435C112.582 29.5648 112.44 29.3934 112.29 29.2344C111.273 28.1447 109.882 27.51 108.375 27.447C108.316 27.4445 108.256 27.4431 108.195 27.4421C108.168 27.4421 108.141 27.4421 108.114 27.4421H108.115Z" fill="#1D1D1B"/>
<path d="M144.626 35.3774L144.934 35.4242V35.4232L144.626 35.3774Z" fill="#4A263E"/>
<path d="M145.775 38.3918C144.693 37.1746 144.929 35.4512 144.933 35.4241L144.318 35.3306C144.306 35.4128 144.028 37.3577 145.304 38.7999C146.168 39.7754 147.516 40.2687 149.314 40.2687C149.414 40.2687 149.515 40.2673 149.618 40.2643L149.599 39.6424C147.845 39.6946 146.558 39.2736 145.774 38.3918H145.775Z" fill="#488ACC"/>
<path d="M146.028 25.5099C144.944 24.2893 145.185 22.559 145.187 22.5413L144.88 22.495L145.187 22.5418L144.572 22.4482C144.56 22.5305 144.282 24.4754 145.558 25.9176C146.422 26.893 147.77 27.3864 149.568 27.3864C149.668 27.3864 149.769 27.3849 149.872 27.382L149.853 26.7601C148.099 26.8123 146.812 26.3913 146.028 25.5094L146.028 25.5099Z" fill="#488ACC"/>
<path d="M144.934 51.933L144.627 51.8872L144.934 51.9335V51.933Z" fill="#4A263E"/>
<path d="M144.934 51.9335L144.627 51.8872L144.626 51.8867L144.934 51.9335Z" fill="#4A263E"/>
<path d="M145.775 54.9015C144.693 53.6843 144.929 51.961 144.933 51.9339L144.626 51.8871H144.627L144.318 51.8403C144.306 51.9226 144.028 53.8675 145.304 55.3097C146.168 56.2851 147.516 56.7785 149.314 56.7785C149.414 56.7785 149.515 56.777 149.618 56.7741L149.599 56.1522C147.845 56.2044 146.558 55.7834 145.774 54.9015H145.775Z" fill="#488ACC"/>
<path d="M155.504 28.7078C155.508 28.7349 155.745 30.4583 154.663 31.6754C153.879 32.5573 152.592 32.9778 150.838 32.9261L150.819 33.548C150.922 33.551 151.024 33.5524 151.124 33.5524C152.921 33.5524 154.269 33.0591 155.133 32.0836C156.41 30.6409 156.132 28.696 156.119 28.6143L155.504 28.7078H155.504Z" fill="#488ACC"/>
<path d="M155.505 28.7074V28.7079L155.813 28.6611L155.505 28.7074Z" fill="#4A263E"/>
<path d="M150.85 14.9023H150.128H150.128H149.406V14.9255L149.045 78.5132H151.211L150.85 14.9255V14.9023Z" fill="#488ACC"/>
<path d="M157.056 15.1279C157.056 15.1279 156.74 11.8737 154.119 12.8678C154.119 12.8678 152.402 10.5177 150.369 13.3198C150.369 13.3198 149.059 9.65893 145.489 11.0145C141.919 12.3705 143.275 15.9413 143.275 15.9413C143.275 15.9413 142.45 15.8 142.144 16.5386C141.88 17.1782 142.283 17.9025 142.954 18.0685C145.069 18.5909 150.785 19.7426 156.42 18.6116C157.526 18.39 158.316 17.3673 158.178 16.2486C158.111 15.7005 157.818 15.2298 157.056 15.1284L157.056 15.1279Z" fill="#6AA2E5"/>
<path d="M149.043 33.3502C147.416 33.3049 146.784 34.6383 146.784 34.6383C146.784 34.6383 146.151 31.0448 143.531 31.4515C140.91 31.8582 141.226 34.7057 141.226 34.7057C141.226 34.7057 140.096 34.073 139.509 35.1577C139.278 35.5837 139.34 35.9648 139.501 36.2701C139.748 36.7408 140.234 37.0372 140.763 37.085C142.217 37.2154 146.309 37.5178 148.684 37.0333C150.026 36.7595 150.796 35.2858 150.157 34.074C149.946 33.6747 149.602 33.3654 149.043 33.3497V33.3502Z" fill="#6AA2E5"/>
<path d="M158.51 27.5369C158.51 27.5369 158.762 25.2675 156.674 24.9435C154.585 24.6195 154.081 27.4828 154.081 27.4828C154.081 27.4828 153.577 26.4202 152.28 26.4561C151.835 26.4685 151.561 26.7151 151.393 27.0332C150.884 27.9988 151.497 29.1732 152.566 29.3913C154.458 29.7778 157.72 29.5365 158.878 29.4326C159.3 29.3947 159.688 29.1584 159.884 28.7832C160.012 28.5399 160.062 28.2366 159.878 27.8969C159.41 27.0322 158.51 27.5369 158.51 27.5369H158.51Z" fill="#6AA2E5"/>
<path d="M147.365 50.6987C146.275 50.6681 145.85 51.5628 145.85 51.5628C145.85 51.5628 145.426 49.1525 143.668 49.4253C141.91 49.6981 142.123 51.6081 142.123 51.6081C142.123 51.6081 141.365 51.1837 140.971 51.9114C140.816 52.1975 140.857 52.4525 140.965 52.6574C141.131 52.973 141.457 53.1719 141.812 53.2039C142.787 53.2916 145.532 53.4944 147.124 53.169C148.024 52.9853 148.54 51.9971 148.112 51.1841C147.971 50.9163 147.741 50.709 147.365 50.6987V50.6987Z" fill="#6AA2E5"/>
<path d="M149.2 21.1108C148.11 21.0802 147.685 21.9749 147.685 21.9749C147.685 21.9749 147.261 19.5647 145.503 19.8374C143.745 20.1102 143.958 22.0202 143.958 22.0202C143.958 22.0202 143.2 21.5958 142.806 22.3235C142.651 22.6091 142.692 22.8647 142.8 23.0695C142.966 23.3851 143.292 23.584 143.647 23.616C144.622 23.7037 147.367 23.9066 148.959 23.5811C149.859 23.3974 150.375 22.4092 149.947 21.5963C149.806 21.3284 149.575 21.1211 149.2 21.1108V21.1108Z" fill="#6AA2E5"/>
<path d="M10.5605 29.9536L10.9066 30.0063L10.9071 30.0058L10.5605 29.9536Z" fill="#4A263E"/>
<path d="M11.8536 33.3471C10.6358 31.9768 10.9021 30.0368 10.9065 30.0063L10.2139 29.9009C10.2001 29.9934 9.88659 32.1826 11.3244 33.8065C12.2966 34.9045 13.8137 35.4604 15.8378 35.46C15.95 35.46 16.0647 35.458 16.1799 35.455L16.1592 34.7549C14.1844 34.8135 12.7357 34.3398 11.8531 33.3471H11.8536Z" fill="#488ACC"/>
<path d="M12.1397 18.8461C10.9185 17.4719 11.1902 15.524 11.1931 15.5048L10.8466 15.4526L11.1927 15.5053L10.5001 15.3999C10.4863 15.4925 10.1727 17.6816 11.6106 19.3055C12.5827 20.4036 14.0998 20.9595 16.1239 20.959C16.2362 20.959 16.3509 20.957 16.466 20.9541L16.4454 20.2539C14.4705 20.3125 13.0218 19.8388 12.1392 18.8461H12.1397Z" fill="#488ACC"/>
<path d="M10.9061 48.5913L10.5605 48.5396L10.9056 48.5922L10.9061 48.5913Z" fill="#4A263E"/>
<path d="M10.9056 48.5922L10.5606 48.5396H10.5596L10.9056 48.5922Z" fill="#4A263E"/>
<path d="M11.8531 51.9331C10.6353 50.5627 10.9016 48.6227 10.906 48.5922L10.56 48.5395H10.561L10.2139 48.4868C10.2001 48.5794 9.88659 50.7686 11.3244 52.3925C12.2966 53.4905 13.8137 54.0464 15.8378 54.0459C15.95 54.0459 16.0647 54.0439 16.1799 54.041L16.1592 53.3408C14.1844 53.3994 12.7357 52.9257 11.8531 51.9331V51.9331Z" fill="#488ACC"/>
<path d="M22.8071 22.4462C22.8115 22.4767 23.0783 24.4167 21.86 25.7871C20.9774 26.7797 19.5288 27.2534 17.5539 27.1948L17.5332 27.895C17.6489 27.8984 17.7631 27.8999 17.8753 27.8999C19.8994 27.8999 21.416 27.3445 22.3887 26.2465C23.8265 24.6226 23.5135 22.4329 23.4992 22.3408L22.8066 22.4462H22.8071Z" fill="#488ACC"/>
<path d="M22.8066 22.4457V22.4462L23.1532 22.3936L22.8066 22.4457Z" fill="#4A263E"/>
<path d="M17.5681 6.90479H17.5676H16.7549H16.7544H15.9417H15.9413L15.9417 6.93088L15.5352 78.513H17.9742L17.5681 6.93088V6.90479Z" fill="#488ACC"/>
<path d="M24.5535 7.15852C24.5535 7.15852 24.1976 3.49514 21.2471 4.61434C21.2471 4.61434 19.314 1.96824 17.0251 5.12298C17.0251 5.12298 15.5499 1.00168 11.5317 2.52808C7.51301 4.05449 9.03896 8.07436 9.03896 8.07436C9.03896 8.07436 8.1101 7.91532 7.76701 8.74697C7.46969 9.46684 7.92256 10.2822 8.67864 10.4689C11.0596 11.0568 17.4942 12.3537 23.8382 11.0799C25.0821 10.8303 25.9721 9.67906 25.8171 8.41953C25.7412 7.80256 25.4119 7.27275 24.5535 7.15852Z" fill="#6AA2E5"/>
<path d="M15.5334 27.6726C13.7023 27.6219 12.99 29.1227 12.99 29.1227C12.99 29.1227 12.2777 25.0777 9.32769 25.5357C6.37719 25.9936 6.73358 29.199 6.73358 29.199C6.73358 29.199 5.46211 28.4865 4.80054 29.7077C4.54064 30.1873 4.61053 30.6161 4.79119 30.9598C5.0698 31.4896 5.61668 31.8235 6.21278 31.8771C7.84949 32.0244 12.4564 32.3646 15.1293 31.8185C16.6395 31.5103 17.5063 29.8514 16.7871 28.4875C16.5504 28.038 16.163 27.6899 15.5334 27.6726V27.6726Z" fill="#6AA2E5"/>
<path d="M26.1905 21.1283C26.1905 21.1283 26.474 18.5738 24.1231 18.209C21.7721 17.8441 21.2046 21.0673 21.2046 21.0673C21.2046 21.0673 20.637 19.8713 19.178 19.9117C18.6764 19.9254 18.3678 20.2031 18.1792 20.5611C17.6063 21.6478 18.2969 22.9699 19.5004 23.2156C21.6304 23.6504 25.3015 23.3796 26.6059 23.2624C27.081 23.2195 27.5166 22.9536 27.7386 22.5317C27.8828 22.2579 27.9384 21.9162 27.7312 21.5336C27.204 20.5606 26.191 21.1283 26.191 21.1283H26.1905Z" fill="#6AA2E5"/>
<path d="M13.645 47.2013C12.4169 47.1673 11.9394 48.1737 11.9394 48.1737C11.9394 48.1737 11.4619 45.4607 9.48309 45.7679C7.50428 46.0752 7.74301 48.2249 7.74301 48.2249C7.74301 48.2249 6.88996 47.7473 6.44645 48.5662C6.27219 48.8877 6.31896 49.1752 6.44054 49.4062C6.6271 49.7617 6.99431 49.9852 7.39401 50.0212C8.49171 50.1196 11.5815 50.3481 13.3743 49.9818C14.3873 49.775 14.9686 48.6622 14.4862 47.7478C14.3273 47.4465 14.0678 47.2131 13.6455 47.2013H13.645Z" fill="#6AA2E5"/>
<path d="M15.7104 13.8941C14.4823 13.8602 14.0048 14.8666 14.0048 14.8666C14.0048 14.8666 13.5273 12.1535 11.5485 12.4608C9.56971 12.768 9.80844 14.9178 9.80844 14.9178C9.80844 14.9178 8.95539 14.4402 8.51188 15.259C8.33762 15.5806 8.38439 15.8681 8.50597 16.099C8.69253 16.4546 9.05974 16.6781 9.45944 16.714C10.5571 16.8125 13.647 17.041 15.4397 16.6747C16.4527 16.4678 17.0341 15.355 16.5517 14.4407C16.3927 14.1393 16.1333 13.9055 15.7109 13.8941H15.7104Z" fill="#6AA2E5"/>
<g style="mix-blend-mode:multiply">
<path d="M102.653 55.4655V51.291H98.9315V55.4655H102.653Z" fill="#D0F6FC"/>
</g>
<g style="mix-blend-mode:multiply">
<path d="M100.735 72.6144V68.4399H97.0135V72.6144H100.735Z" fill="#D0F6FC"/>
</g>
<g style="mix-blend-mode:multiply">
<path d="M113.03 58.5114V54.3369H109.308V58.5114H113.03Z" fill="#D0F6FC"/>
</g>
<g style="mix-blend-mode:multiply">
<path d="M141.565 64.6042V60.4297H137.844V64.6042H141.565Z" fill="#D0F6FC"/>
</g>
<g style="mix-blend-mode:multiply">
<path d="M91.0361 63.8141V59.6396H87.3143V63.8141H91.0361Z" fill="#D0F6FC"/>
</g>
<g style="mix-blend-mode:multiply">
<path d="M119.685 60.3166V48.3574H115.963V60.3166H119.685Z" fill="#D0F6FC"/>
</g>
<g style="mix-blend-mode:multiply">
<path d="M119.685 64.4914V60.3169H96.563V64.4914H119.685Z" fill="#D0F6FC"/>
</g>
<g style="mix-blend-mode:multiply">
<path d="M128.03 68.4396V56.4805H124.308V68.4396H128.03Z" fill="#D0F6FC"/>
</g>
<g style="mix-blend-mode:multiply">
<path d="M128.031 72.6149V68.4404H104.91V72.6149H128.031Z" fill="#D0F6FC"/>
</g>
<path d="M137.702 70.5524C137.702 70.5524 122.003 73.1128 121.815 72.9991C121.627 72.8859 119.62 64.1095 119.62 64.1095C119.62 64.1095 132.603 61.8125 132.813 61.813C133.023 61.8135 135.839 64.0799 135.876 64.2306C135.914 64.3813 137.703 70.5519 137.703 70.5519L137.702 70.5524Z" fill="#3A2645"/>
<path d="M89.1759 74.1807C88.7993 74.2172 71.2627 74.2561 71.2627 74.2561L71.8942 67.852C71.8942 67.852 74.5396 63.875 75.9316 63.9513C77.3237 64.0276 85.6081 62.7085 87.0341 63.7037C88.4602 64.6993 89.742 63.9124 90.4129 66.2857C91.0833 68.6591 91.611 68.9259 91.0794 70.3539C90.5478 71.7818 89.1759 74.1802 89.1759 74.1802V74.1807Z" fill="#3A2645"/>
<path d="M129.774 78.5636C133.346 78.5636 136.242 75.666 136.242 72.0916C136.242 68.5172 133.346 65.6196 129.774 65.6196C126.202 65.6196 123.306 68.5172 123.306 72.0916C123.306 75.666 126.202 78.5636 129.774 78.5636Z" fill="#1A1A1A"/>
<path d="M134.266 72.1078C134.277 69.621 132.271 67.5958 129.786 67.5845C127.301 67.5732 125.277 69.5801 125.266 72.067C125.254 74.5538 127.26 76.579 129.745 76.5903C132.23 76.6015 134.254 74.5947 134.266 72.1078Z" fill="#9E9DA2"/>
<g style="mix-blend-mode:multiply" opacity="0.5">
<path d="M132.294 68.3604C132.724 69.0531 132.973 69.871 132.971 70.747C132.964 73.234 130.943 75.2445 128.458 75.2376C127.528 75.2351 126.666 74.9505 125.95 74.4655C126.742 75.7398 128.151 76.5902 129.761 76.5946C132.246 76.6015 134.267 74.5911 134.274 72.104C134.278 70.5471 133.492 69.1723 132.294 68.3599V68.3604Z" fill="#9E9DA2"/>
</g>
<path d="M129.794 75.095C131.456 75.0869 132.797 73.7321 132.789 72.0689C132.781 70.4058 131.427 69.0641 129.764 69.0722C128.102 69.0803 126.761 70.4352 126.77 72.0983C126.778 73.7615 128.132 75.1032 129.794 75.095Z" fill="#D8D9DD"/>
<g style="mix-blend-mode:screen" opacity="0.3">
<path d="M131.443 69.5859C131.758 70.0636 131.941 70.6357 131.939 71.2507C131.935 72.914 130.583 74.2582 128.922 74.2538C128.307 74.2518 127.736 74.0657 127.261 73.7481C127.797 74.562 128.718 75.1007 129.766 75.1037C131.428 75.1086 132.779 73.7639 132.784 72.1006C132.787 71.0523 132.254 70.1281 131.444 69.5864L131.443 69.5859Z" fill="#D8D9DD"/>
</g>
<path d="M86.4417 71.9686C86.4524 68.3942 83.5652 65.4881 79.993 65.4775C76.4208 65.467 73.5163 68.356 73.5056 71.9304C73.495 75.5048 76.3822 78.4109 79.9544 78.4214C83.5266 78.432 86.4311 75.5429 86.4417 71.9686Z" fill="#1A1A1A"/>
<path d="M84.4676 71.9614C84.4771 69.4742 82.4701 67.4503 79.9848 67.4407C77.4995 67.4312 75.477 69.4397 75.4675 71.9268C75.4579 74.414 77.4649 76.4379 79.9502 76.4475C82.4356 76.457 84.458 74.4485 84.4676 71.9614Z" fill="#9E9DA2"/>
<g style="mix-blend-mode:multiply" opacity="0.5">
<path d="M82.4949 68.2192C82.9256 68.912 83.1742 69.7299 83.1717 70.6059C83.1648 73.0929 81.1442 75.1033 78.6588 75.0964C77.7295 75.094 76.8671 74.8094 76.1514 74.3244C76.9429 75.5987 78.3522 76.449 79.9623 76.4535C82.4476 76.4604 84.4683 74.4499 84.4752 71.9629C84.4796 70.4059 83.6935 69.0312 82.4954 68.2192H82.4949Z" fill="#9E9DA2"/>
</g>
<path d="M82.9857 71.9559C82.9877 70.2927 81.642 68.9428 79.9798 68.9407C78.3177 68.9387 76.9686 70.2853 76.9666 71.9485C76.9645 73.6117 78.3103 74.9616 79.9725 74.9636C81.6346 74.9657 82.9837 73.619 82.9857 71.9559Z" fill="#D8D9DD"/>
<g style="mix-blend-mode:screen" opacity="0.3">
<path d="M81.644 69.4448C81.959 69.9224 82.1417 70.4946 82.1402 71.1096C82.1353 72.7729 80.7841 74.1171 79.1218 74.1127C78.507 74.1107 77.9364 73.9246 77.4609 73.607C77.9975 74.4209 78.9185 74.9596 79.966 74.9625C81.6283 74.9675 82.9795 73.6228 82.9844 71.9595C82.9873 70.9112 82.4542 69.9869 81.644 69.4453V69.4448Z" fill="#D8D9DD"/>
</g>
<path d="M65.1428 65.7484C65.7 62.1431 67.4697 61.3903 72.7017 60.3592C78.4752 59.2213 85.8111 55.4776 85.8111 55.4776C85.8111 55.4776 98.3219 49.3897 101.384 48.696C104.447 48.0022 111.972 48.2242 118.294 48.2922C124.616 48.3601 128.324 50.1273 131.528 52.6459C134.732 55.1645 140.296 57.0873 140.296 57.0873L141.307 57.2709C142.347 57.4595 143.102 58.367 143.099 59.4241L143.073 68.3748C143.07 69.3881 142.386 70.2725 141.405 70.5285L137.746 71.4842C137.448 71.535 137.171 71.3222 137.139 71.0214C136.749 67.3585 133.593 64.5667 129.819 64.5608C125.806 64.5544 122.507 67.843 122.498 71.8565C122.497 72.3124 122.538 72.759 122.617 73.1918C122.699 73.6389 122.354 74.0501 121.9 74.0491L88.2487 73.9536C87.595 73.9516 87.0885 73.3755 87.1771 72.7275C87.2199 72.4158 87.2425 72.0973 87.2445 71.7743C87.2677 67.81 84.072 64.514 80.11 64.4214C76.0027 64.3249 72.6367 67.621 72.6254 71.7107C72.6244 71.9816 72.6387 72.2489 72.6668 72.5119C72.746 73.2573 72.1676 73.9083 71.4184 73.9063L66.5797 73.8925C65.7 73.8901 64.9888 73.1746 64.9912 72.2947L65.0045 67.6062C65.0065 66.9843 65.0478 66.3629 65.1428 65.7479V65.7484Z" fill="#3841B3"/>
<path d="M142.882 60.483L138.897 60.4717C138.555 60.4707 138.323 60.8178 138.454 61.133L138.899 62.2029C139.322 63.2227 140.317 63.8884 141.421 63.8918L142.872 63.8958C143.156 63.8967 143.387 63.6668 143.388 63.3827L143.395 60.9985C143.396 60.7144 143.166 60.4835 142.882 60.4825V60.483Z" fill="#CF283C"/>
<path d="M71.4932 61.9368C73.7984 61.6699 74.1386 62.7793 73.7187 64.2156C73.4686 65.0709 72.7086 65.6765 71.8196 65.7302L67.5396 65.9887C66.654 66.0423 66.1583 64.9862 66.7643 64.3387C66.7643 64.3387 69.6449 62.151 71.4937 61.9368H71.4932Z" fill="#F9E2C5"/>
<path d="M143.05 68.7086C143.324 68.7027 143.518 68.9789 143.416 69.234C143.128 69.9548 142.512 70.5201 141.727 70.7254L137.627 71.7964C137.293 71.853 136.984 71.6147 136.948 71.2779C136.874 70.5836 136.71 69.9179 136.47 69.2906C136.389 69.0779 136.544 68.8494 136.771 68.8445L143.05 68.7091V68.7086Z" fill="#111760"/>
<path d="M72.5954 70.1954C72.9065 70.1885 73.1462 70.4623 73.1054 70.7715C73.0601 71.1147 73.036 71.4643 73.035 71.8198C73.034 72.1202 73.0497 72.4171 73.0808 72.7091C73.1689 73.5358 72.527 74.2586 71.6956 74.2562L66.3262 74.2409C65.3501 74.238 64.561 73.4442 64.5635 72.4678L64.5674 71.0778C64.5684 70.6839 64.8839 70.3624 65.2777 70.354L72.5949 70.1959L72.5954 70.1954Z" fill="#111760"/>
<g style="mix-blend-mode:multiply" opacity="0.5">
<path d="M85.6748 57.6162L85.7147 57.7482C85.7349 57.8152 87.7467 64.5309 87.8274 70.9566L87.8294 71.1264L107.596 70.797V70.798L107.771 70.7941L107.935 70.7911V70.7901L122.122 70.4656L122.135 70.3145C122.137 70.2967 122.307 68.5379 123.643 66.8761C125.413 64.6776 128.428 63.6387 132.361 63.872L132.506 63.8804L133.877 57.534L133.818 57.4695C133.606 57.2361 128.591 51.7356 124.732 50.5204C120.901 49.3141 108.427 49.5494 107.828 49.5612C107.603 49.5494 102.39 49.3052 97.7141 51.4555C92.9905 53.6274 85.8663 57.5109 85.7949 57.5503L85.6738 57.6162H85.6748ZM107.936 70.4514L107.995 49.8975C109.519 49.8729 121.076 49.7242 124.631 50.8439C128.184 51.9626 132.929 57.0062 133.509 57.634L132.237 63.5264C127.207 63.2659 124.639 65.0917 123.368 66.6787C122.189 68.1509 121.886 69.6581 121.816 70.1343L107.936 70.4519L107.936 70.4514ZM86.078 57.7827C87.0349 57.2627 93.4808 53.7761 97.8563 51.7637C102.074 49.8242 106.742 49.8645 107.656 49.8936L107.598 70.4582L88.1636 70.7822C88.0587 64.8608 86.3585 58.7522 86.078 57.7827V57.7827Z" fill="#85612C"/>
</g>
<path d="M86.3505 72.2395C86.3525 71.8732 86.3264 71.5123 86.2742 71.1588C86.2117 70.7343 86.5401 70.3507 86.9836 70.3419L123.237 69.5885C123.632 69.5801 123.917 69.9455 123.807 70.3128C123.617 70.9534 123.515 71.6285 123.513 72.3252C123.512 72.7871 123.555 73.2386 123.637 73.6773C123.723 74.1352 123.364 74.5582 122.882 74.5567L87.4084 74.4578C86.7123 74.4558 86.1881 73.86 86.2806 73.1938C86.324 72.8816 86.3476 72.563 86.3496 72.2395H86.3505Z" fill="#111760"/>
<path d="M125.918 60.211L130.354 60.2233C130.438 60.2233 130.507 60.1553 130.507 60.0706L130.509 59.6113C130.509 59.5266 130.441 59.4581 130.356 59.4576L125.921 59.4448C125.836 59.4448 125.768 59.5128 125.767 59.5975L125.766 60.0569C125.766 60.1416 125.834 60.21 125.918 60.2105V60.211Z" fill="#1A1A1A"/>
<path d="M101.842 60.5249L106.278 60.5377C106.362 60.5377 106.431 60.4698 106.431 60.3851L106.433 59.9257C106.433 59.841 106.365 59.7726 106.28 59.7721L101.845 59.7598C101.76 59.7598 101.691 59.8277 101.691 59.9124L101.689 60.3718C101.689 60.4565 101.757 60.5249 101.842 60.5254V60.5249Z" fill="#1A1A1A"/>
<path d="M129.677 58.2749L110.333 58.4029C110.333 58.4029 109.149 58.3679 108.991 57.2527C108.833 56.1379 108.86 51.3652 108.86 51.3652C108.86 51.3652 109.003 50.4075 109.921 50.3976C110.479 50.3917 115.153 50.0707 119.696 50.6374C123.403 51.0998 126.828 52.8035 129.421 55.4131L130.79 56.7908C130.79 56.7908 131.712 58.2616 129.676 58.2749H129.677Z" fill="#A4E4EA"/>
<path d="M106.705 51.9642L106.691 56.9684C106.689 57.6184 106.189 58.1511 105.558 58.1748L90.3575 58.743C90.0085 58.7558 89.6674 58.5972 89.468 58.3018C89.1963 57.899 89.1668 57.2368 90.5313 56.3539C92.9044 54.8176 98.9393 51.4984 101.17 51.1818C102.589 50.9805 104.446 50.8963 105.608 50.8618C106.21 50.8441 106.707 51.3433 106.705 51.9642V51.9642Z" fill="#A4E4EA"/>
<g opacity="0.3">
<path d="M121.394 58.3301L117.567 58.3552L114.737 50.311C115.973 50.3322 117.346 50.3942 118.735 50.5306L121.394 58.3296V58.3301Z" fill="white"/>
</g>
<g opacity="0.3">
<path d="M116.114 58.3646L114.676 58.374L111.994 50.3229C112.376 50.3136 112.799 50.3062 113.255 50.3032L116.114 58.3646V58.3646Z" fill="white"/>
</g>
<g opacity="0.3">
<path d="M98.6016 52.034C99.6436 51.5879 100.552 51.2698 101.17 51.1821C101.487 51.1373 101.826 51.0984 102.175 51.064L104.611 58.2105L100.824 58.3523L98.6016 52.034V52.034Z" fill="white"/>
</g>
<g opacity="0.3">
<path d="M99.3875 58.4058L97.962 58.459L96.1973 53.1623C96.5792 52.9703 96.9588 52.7847 97.3309 52.6084L99.387 58.4058H99.3875Z" fill="white"/>
</g>
<path d="M120.185 69.5353L90.6543 70.1489L90.6591 70.3823L120.19 69.7687L120.185 69.5353Z" fill="#1D1D1B"/>
<path d="M87.941 74.3472L87.9404 74.5806L122.676 74.6715L122.677 74.4381L87.941 74.3472Z" fill="#1D1D1B"/>
<path d="M65.1127 70.4213C65.2269 67.209 65.442 64.8612 65.444 64.8381C65.7324 62.8666 68.0164 61.218 70.997 60.8355C73.948 60.4568 78.5244 58.7664 80.355 58.0574C82.0646 57.3951 89.5471 53.8243 89.6224 53.7884L89.522 53.5776C89.4467 53.6136 81.9725 57.1805 80.2708 57.8398C78.4481 58.5459 73.8933 60.2283 70.9674 60.604C69.4887 60.7941 68.108 61.3052 67.0797 62.0433C66.0111 62.8104 65.3652 63.7671 65.2126 64.8105C65.2097 64.8401 64.9941 67.1937 64.8799 70.4129L65.1127 70.4213V70.4213Z" fill="#1D1D1B"/>
<path d="M127.516 58.2252L111.807 58.2773L111.807 58.5107L127.517 58.4586L127.516 58.2252Z" fill="#1D1D1B"/>
<path d="M105.044 58.2365L92.3662 58.6284L92.3734 58.8617L105.051 58.4698L105.044 58.2365Z" fill="#1D1D1B"/>
<path d="M91.1186 64.7496L90.958 64.9189L93.1004 66.9526L93.261 66.7833L91.1186 64.7496Z" fill="#1D1D1B"/>
<path d="M89.6674 64.5255L89.5068 64.6948L91.6492 66.7285L91.8098 66.5592L89.6674 64.5255Z" fill="#1D1D1B"/>
<path d="M137.44 65.5514L137.279 65.7207L139.422 67.7543L139.582 67.585L137.44 65.5514Z" fill="#1D1D1B"/>
<path d="M135.99 65.3292L135.829 65.4985L137.971 67.5322L138.132 67.3629L135.99 65.3292Z" fill="#1D1D1B"/>
<path d="M142.361 68.5996L137.694 68.7822L137.703 69.0154L142.37 68.8328L142.361 68.5996Z" fill="#1D1D1B"/>
<path d="M141.876 64.0692C142.303 64.0692 142.595 64.0111 142.604 64.0091L142.556 63.7807C142.451 63.8023 139.975 64.2922 139.005 62.1548L138.792 62.2513C139.501 63.8136 140.983 64.0692 141.876 64.0692H141.876Z" fill="#1D1D1B"/>
<path d="M140.708 57.2806L140.771 57.0561C140.755 57.0516 139.12 56.5917 137.564 55.8822C137.275 55.7502 136.981 55.6202 136.697 55.4947C135.433 54.9358 134.126 54.3578 132.851 53.4395L132.715 53.6285C134.009 54.5611 135.328 55.1441 136.603 55.7079C136.886 55.8334 137.179 55.9629 137.468 56.0944C139.041 56.8118 140.692 57.2761 140.708 57.2806Z" fill="#1D1D1B"/>
<path d="M66.291 74.3705C66.3624 74.3705 66.4352 74.3661 66.5111 74.3562L66.4815 74.1248C65.4355 74.2577 64.8812 73.2459 64.7813 73.0415C64.642 72.7579 64.5569 71.0287 64.8763 70.6347C65.1485 70.3723 69.0569 70.2723 72.5947 70.3117L72.5971 70.0783C72.5784 70.0783 70.7123 70.0577 68.8256 70.0926C64.9575 70.1645 64.7739 70.391 64.6957 70.4875C64.2807 70.9996 64.419 72.8318 64.5726 73.144C64.6784 73.3586 65.2317 74.37 66.292 74.37L66.291 74.3705Z" fill="#1D1D1B"/>
<path d="M155.829 78.4746H2.57812V79H155.829V78.4746Z" fill="#4A263E"/>
<path d="M51.8825 43.1651C51.6911 43.6799 51.3591 44.2775 51.0113 44.4259C50.6166 44.5944 50.4519 44.8321 50.4519 44.8321L50.133 44.6473L49.7524 44.4259C49.7524 44.4259 49.7617 44.3833 49.7802 44.3146C49.7982 44.2459 49.8271 44.1505 49.8658 44.0447C49.8658 44.0447 49.9825 43.8947 49.9111 43.7061C49.8397 43.5174 49.8538 43.2262 49.976 43.049C50.0981 42.8717 50.2158 42.4344 50.2894 42.4469C50.4677 42.4775 50.2017 43.0784 50.278 43.1902C50.3467 43.2911 50.4328 43.2562 50.4492 43.2485C50.4503 43.248 50.4514 43.2474 50.4519 43.2469C50.9513 43.0271 51.557 41.8433 51.8252 42.0031C51.9255 42.063 51.9643 42.9459 51.8825 43.1651V43.1651Z" fill="#FFB27D"/>
<path d="M50.1558 43.882L50.7816 44.322C50.8258 44.3531 50.8874 44.3422 50.9185 44.298L52.5213 42.017C52.5524 41.9729 52.5415 41.9112 52.4974 41.8802L51.8715 41.4401C51.8273 41.409 51.7657 41.4199 51.7346 41.4641L50.1318 43.7451C50.1007 43.7893 50.1116 43.8509 50.1558 43.882Z" fill="#2B478B"/>
<path d="M52.811 42.1035L52.4443 41.8458C52.4104 41.822 52.3641 41.83 52.3403 41.8639L50.7104 44.1834C50.6866 44.2174 50.6947 44.2637 50.7286 44.2875L51.0953 44.5453C51.1292 44.5691 51.1755 44.561 51.1993 44.5271L52.8291 42.2076C52.8529 42.1737 52.8449 42.1274 52.811 42.1035Z" fill="#233862"/>
<path d="M41.1793 40.6084C41.1793 40.6084 44.3632 46.1624 45.5179 47.1843L49.753 44.0264C49.753 44.0264 50.3674 44.2151 50.6367 44.8318C50.6367 44.8318 47.3814 50.0782 45.5327 50.2947C43.0079 50.5908 39.4467 44.0133 39.4467 44.0133L41.1793 40.6084V40.6084Z" fill="#3841B3"/>
<path d="M35.2293 78.4779H33.3898C33.1581 78.352 32.952 78.064 32.8866 77.6349C32.7967 77.0421 32.1326 76.7188 31.9887 76.234C31.8453 75.7492 32.5813 75.067 32.5813 75.067L32.7045 74.9083L32.8326 74.7437L34.0533 75.031C34.0533 75.031 34.0839 75.3217 34.1018 75.6925C34.1149 75.9597 34.122 76.2689 34.1073 76.5393C34.0713 77.1855 34.2878 77.8819 34.8624 78.0079C35.2871 78.1006 35.268 78.3525 35.2293 78.4779V78.4779Z" fill="#2D4C7F"/>
<path d="M44.6498 78.3844H40.4432C40.2409 78.1374 40.3156 77.2262 40.3461 76.9284C40.3527 76.8685 40.357 76.8336 40.357 76.8336C40.357 76.8336 41.7936 75.6841 41.991 76.5642C41.997 76.592 42.004 76.6187 42.0122 76.6454C42.2608 77.4683 43.3757 77.8424 44.0196 77.9465C44.4383 78.0147 44.5931 78.2323 44.6504 78.3839L44.6498 78.3844Z" fill="#2D4C7F"/>
<path d="M43.8477 54.8979C43.8477 54.8979 43.6296 57.62 43.3733 60.8919C43.025 65.3367 42.6057 70.7963 42.5643 71.8308C42.4929 73.627 42.205 76.4997 42.205 76.4997C42.205 76.4997 41.523 77.1824 40.1584 76.8945C40.1584 76.8945 38.942 72.7932 38.5948 68.4542C38.5893 68.3833 38.5839 68.3113 38.5784 68.2399C38.2551 63.8224 37.753 54.5205 37.753 54.5205L43.8477 54.8979Z" fill="#FD6558"/>
<path d="M43.8477 54.8979C43.8477 54.8979 43.6296 57.62 43.3733 60.8919L38.5948 68.4542C38.5893 68.3833 38.5839 68.3113 38.5784 68.2399C38.2551 63.8224 37.753 54.5205 37.753 54.5205L43.8477 54.8979V54.8979Z" fill="#E65043"/>
<path d="M42.7822 54.4538C42.7822 54.4538 39.4844 64.5125 37.212 69.2807C34.9397 74.0483 34.2211 75.3838 34.2211 75.3838C34.2211 75.3838 32.7377 74.8734 32.5829 74.4775C32.5829 74.4775 33.3701 66.1103 34.9435 63.838C35.8327 62.5543 36.4302 58.1826 36.4106 56.8886C36.391 55.5946 36.5376 53.0234 36.5376 53.0234L42.7817 54.4532L42.7822 54.4538Z" fill="#FD6558"/>
<path d="M41.874 40.8505C40.3377 41.3353 37.6793 40.0265 37.6793 40.0265C37.6793 40.0265 39.0957 38.9632 39.0216 36.752L40.2096 37.7095L41.0164 38.3601C41.0164 38.3601 41.0132 38.7434 40.9248 39.4158C40.9248 39.4174 40.9248 39.4191 40.9243 39.4212C40.8801 39.7571 41.0154 40.0931 41.2858 40.297C41.6647 40.5833 41.874 40.851 41.874 40.851V40.8505Z" fill="#FFB27D"/>
<path d="M41.0156 38.36C41.0156 38.36 41.0124 38.7433 40.924 39.4157C40.0299 39.2624 39.0159 37.8168 39.0159 37.8168C39.4711 37.6854 39.8696 37.662 40.2088 37.71L41.0156 38.3605V38.36Z" fill="#ED975D"/>
<path d="M41.4859 38.3234C41.4859 38.3234 38.9481 38.7449 38.7099 37.1602C38.4716 35.5756 37.9837 34.5624 39.5941 34.2265C41.2046 33.89 41.6108 34.4473 41.8191 34.9572C42.0273 35.467 42.1402 38.1729 41.4865 38.3234H41.4859Z" fill="#FFB27D"/>
<path d="M44.0179 55.125C43.9716 55.1637 43.9182 55.1866 43.8566 55.1866C43.2798 55.179 41.5973 55.4991 40.1738 55.3529C38.9739 55.2379 37.9113 54.8823 36.7708 54.3708C36.6192 54.3027 36.2708 54.1167 36.2785 53.9477C36.2834 53.7623 36.3019 53.4934 36.3253 53.1548C36.406 51.9769 36.5467 49.9517 36.4098 47.6145C36.3853 47.1793 36.3722 46.7474 36.3706 46.3226C36.3586 43.1555 36.9867 40.3695 38.2482 39.4267C38.3562 39.3492 39.0175 39.6726 39.6254 39.9725C40.1869 40.2495 40.6187 40.2768 41.1492 40.1694L41.8099 40.6422C42.4565 41.2426 43.1642 42.0583 43.4717 43.2973C43.7334 44.3514 43.8871 46.2523 43.9716 48.2225C44.0098 49.1152 44.0408 50.0155 44.049 50.87V50.9005C44.0566 50.985 44.0566 51.0777 44.0566 51.1622C44.0877 53.3555 44.0567 55.0945 44.0179 55.1255V55.125Z" fill="#3841B3"/>
<path d="M36.3234 53.1536C36.4041 51.9757 36.5447 49.9504 36.4079 47.6132C36.3834 47.1781 36.3703 46.7462 36.3687 46.3214C36.8942 45.0459 37.3238 44.1211 37.3238 44.1211H38.6486C38.6486 44.1211 39.6202 50.7569 36.3234 53.153V53.1536Z" fill="#233862"/>
<path d="M38.7071 37.0079C38.7071 37.0079 38.9677 36.9643 38.9257 36.6055C38.8837 36.2467 38.8843 35.7777 39.176 35.865C39.4676 35.9522 39.4824 36.1861 39.6017 36.0493C39.7217 35.9129 39.7239 35.3382 40.5918 35.2984C41.4597 35.2586 41.8119 35.5607 42.2159 35.3829C42.6194 35.2057 42.6406 34.5944 42.6406 34.5944C42.6406 34.5944 42.5261 34.8125 42.3522 34.8818C42.3522 34.8818 43.0255 33.9607 42.2459 33.3293C41.4663 32.6978 40.6714 33.1112 40.2205 33.1384C39.2267 33.1984 38.585 33.2584 38.26 33.9117C37.9351 34.5649 38.0692 36.3786 38.7071 37.0074V37.0079Z" fill="#2B478B"/>
<path d="M19.38 77.2784C19.459 77.7714 19.0899 78.3418 18.5556 78.5512C18.0214 78.7611 17.5241 78.5316 17.4451 78.038C17.366 77.5451 17.7351 76.9747 18.2694 76.7653C18.8037 76.5554 19.3009 76.7849 19.38 77.2784Z" fill="#1C468A"/>
<path d="M26.1641 77.2916C26.2432 77.7846 25.8741 78.355 25.3398 78.5644C24.8055 78.7743 24.3083 78.5447 24.2293 78.0512C24.1502 77.5583 24.5193 76.9879 25.0536 76.7785C25.5879 76.5685 26.0851 76.7981 26.1641 77.2916Z" fill="#1C468A"/>
<path d="M17.455 77.1545L18.6724 77.6529C18.7956 77.703 18.933 77.7287 19.0775 77.727L26.7281 77.6627L27.9248 76.2471L17.4545 77.1539L17.455 77.1545Z" fill="#739AF0"/>
<path d="M25.2879 60.757L28.2156 56.4698L28.2194 56.4616C28.2374 56.4234 28.7046 55.5057 31.1825 55.2565L31.194 55.2554L33.2351 54.9794C33.4996 54.9315 34.2606 54.8453 34.5998 55.0209C34.7502 55.0989 34.8069 55.2243 34.7731 55.4042C34.7066 55.7603 32.7608 58.5409 31.4698 60.3229L31.8536 60.4194C32.1851 59.9614 35.097 55.9321 35.1929 55.4195C35.2431 55.1512 35.1379 54.9478 34.8805 54.8142C34.3266 54.5279 33.2591 54.7057 33.1463 54.7253L31.1334 54.9969C28.4653 55.2668 27.8776 56.2773 27.8187 56.3929L24.9009 60.6654L25.2885 60.7559L25.2879 60.757Z" fill="#1C468A"/>
<path d="M30.3078 59.9072L34.2086 60.7606C34.2086 60.7606 35.281 61.2645 34.4883 63.4234C33.791 65.3227 30.1366 75.9824 30.1366 75.9824C30.1366 75.9824 29.3755 78.2007 24.9235 77.5474L30.3078 59.9078V59.9072Z" fill="#739AF0"/>
<path d="M31.8389 62.8445L27.6677 74.7819C27.4986 75.265 27.2179 75.7083 26.8657 76.0802C26.2136 76.7695 25.3179 77.215 24.4401 77.2188L20.6151 77.2352H20.5202L18.1247 77.2461C17.8837 77.2472 17.6596 77.215 17.4546 77.155C17.4067 77.1409 17.3598 77.1256 17.314 77.1081C16.5584 76.8246 16.0988 76.132 16.0813 75.2808C16.0737 74.9187 16.1462 74.5278 16.3098 74.1275L20.9755 62.7077C21.4732 61.49 22.6797 60.557 23.9059 60.4425L24.5972 60.3776L24.7618 60.3623L24.9003 60.3492L27.2119 60.1327L27.4954 60.1065L29.7257 59.8977C30.0757 59.865 30.3974 59.9004 30.6815 59.992C30.7 59.998 30.7185 60.004 30.7371 60.0111L30.8516 60.0553C31.8198 60.4675 32.2799 61.5805 31.8383 62.8451L31.8389 62.8445Z" fill="#83B0FF"/>
<g opacity="0.5">
<path d="M26.8652 76.0803C26.2132 76.7696 25.3174 77.2151 24.4397 77.2189L20.6147 77.2353H20.5198L18.1242 77.2462C17.8833 77.2473 17.6592 77.2151 17.4542 77.1551C17.4062 77.141 17.3593 77.1257 17.3135 77.1082C16.5579 76.8247 15.8677 75.7941 16.1338 74.7029C16.1338 74.7029 24.2402 74.6113 25.8599 74.8823C26.6957 75.0219 26.796 75.6479 26.8652 76.0803V76.0803Z" fill="#739AF0"/>
</g>
<path d="M24.9004 60.3481C24.8808 60.3585 22.8254 61.4628 22.3429 62.4356C21.8468 63.4351 17.2563 75.0894 17.2105 75.2072C17.2067 75.2165 16.8741 76.3431 17.5687 77.184L17.4548 77.154C17.4068 77.1398 17.3599 77.1245 17.3141 77.1071C16.6828 76.234 17.0551 75.2301 17.0726 75.1865C17.2618 74.7056 21.7127 63.4068 22.2121 62.4001C22.6499 61.5178 24.124 60.641 24.5967 60.3765L24.7614 60.3612L24.8998 60.3481H24.9004Z" fill="#739AF0"/>
<path d="M27.4961 60.106C27.1957 60.2821 26.0285 61.039 25.4615 62.4388C24.7963 64.0807 20.7843 76.0099 20.7439 76.1298L20.7412 76.1385L20.7369 76.1467C20.7336 76.1527 20.4326 76.7962 20.7118 77.2346H20.6158L20.521 77.2357C20.2669 76.7662 20.5629 76.1904 20.6066 76.1097C20.7309 75.741 24.6655 64.0453 25.3252 62.4164C25.8136 61.2097 26.7301 60.461 27.2126 60.1321L27.4961 60.106V60.106Z" fill="#739AF0"/>
<path d="M30.852 60.055C30.8433 60.0594 30.4207 60.272 30.0091 60.6407C29.5975 61.0098 29.1068 61.5775 28.7825 62.3791C28.1179 64.0205 24.313 75.9098 24.2743 76.0293L24.2716 76.0385L24.2667 76.0467C24.2634 76.0527 24.0431 76.7801 24.3223 77.2186L24.0813 77.2197C23.885 76.8194 24.0889 76.0963 24.1358 76.0107C24.2574 75.6306 27.9859 63.985 28.6456 62.3562C29.266 60.8244 30.4371 60.1237 30.6824 59.9912C30.701 59.9972 30.7195 60.0032 30.738 60.0103L30.8525 60.055H30.852Z" fill="#739AF0"/>
<path d="M33.6338 52.6538C33.6338 52.6538 33.4637 53.8704 33.4517 54.0286C33.3721 55.099 33.5231 55.2021 32.9398 55.3913C32.7778 55.4436 32.3379 55.4447 32.0865 55.135C32.0865 55.135 32.4943 55.1088 32.424 54.5215C32.3428 53.8437 32.3853 54.0356 32.7958 53.4833L32.8912 52.4668L33.6332 52.6544L33.6338 52.6538Z" fill="#FFB27D"/>
<path d="M33.0803 53.685C33.5573 53.7782 34.0747 53.7401 34.0747 53.7401C34.0747 53.7401 35.4911 49.364 35.6732 48.9643C35.8553 48.5646 39.8799 43.8329 39.8799 43.8329L38.2034 39.6362C38.2034 39.6362 33.8507 46.909 33.4085 47.9309C32.678 49.6197 32.4244 53.4058 32.4244 53.4058C32.4244 53.4058 32.7058 53.6119 33.0803 53.685Z" fill="#3841B3"/>
<path d="M33.452 54.0283C33.452 54.0283 33.555 54.2955 33.5583 54.4209C33.5698 54.8228 33.6815 55.0088 33.6101 55.0442C33.4624 55.1173 33.3146 54.8037 33.2585 54.5305C33.2023 54.2579 33.4514 54.0283 33.4514 54.0283H33.452Z" fill="#FFB27D"/>
</g>
<defs>
<clipPath id="clip0_5164_20617">
<rect width="160" height="79" fill="white"/>
</clipPath>
</defs>
</svg>
