<svg width="159" height="110" viewBox="0 0 159 110" fill="none" xmlns="http://www.w3.org/2000/svg">
<path d="M13.6186 109.999C13.6186 109.999 -3.05715 99.0777 8.96367 75.8394C16.9116 60.4743 25.6614 62.2171 24.228 32.0219C23.0017 6.18285 67.5656 3.95083 81.6504 11.4459C95.7352 18.9415 94.4172 24.6962 123.504 21.8038C143.747 19.7907 153.984 47.5689 146.42 60.2586C135.687 78.2627 168.747 91.1606 156.049 110L13.6186 109.999Z" fill="#EBF3FA"/>
<path d="M86.3389 22.7914C86.3389 22.7914 88.0974 19.7102 92.3021 20.0521C92.3021 20.0521 98.4068 14.9162 104.917 19.3675C104.917 19.3675 111.837 18.2644 116.962 20.3227C120.379 21.6948 121.507 23.1341 121.507 23.1341L86.3389 22.7914Z" fill="#F8FCFF"/>
<g opacity="0.5">
<path d="M41.3781 39.2831C41.3781 39.2831 39.8202 31.822 35.5635 27.66C34.9978 27.1066 34.0481 27.5734 34.1333 28.3598C34.1347 28.3728 34.1362 28.3865 34.1376 28.3994C34.305 29.7399 39.126 35.036 41.3774 39.2831H41.3781Z" fill="#C5DDFF"/>
</g>
<g opacity="0.5">
<path d="M42.0363 41.4004C42.0363 41.4004 37.364 32.3124 30.4237 28.7182C30.0009 28.4989 29.4655 28.6388 29.2309 29.053C29.078 29.3228 29.0339 29.7282 29.2851 30.3321C29.954 31.9438 37.7753 36.8835 42.037 41.3997L42.0363 41.4004Z" fill="#C5DDFF"/>
</g>
<g opacity="0.5">
<path d="M98.3193 73.0786C98.3193 73.0786 101.261 66.0468 106.228 62.7649C106.888 62.3284 107.733 62.9662 107.5 63.7223C107.497 63.7345 107.492 63.7475 107.488 63.7605C107.07 65.0454 101.334 69.3336 98.3193 73.0786Z" fill="#C5DDFF"/>
</g>
<g opacity="0.5">
<path d="M97.2725 75.0331C97.2725 75.0331 103.58 66.9926 111.075 64.7764C111.532 64.6415 112.031 64.8795 112.183 65.3312C112.282 65.6255 112.249 66.031 111.888 66.5771C110.926 68.0337 102.312 71.405 97.2725 75.0331Z" fill="#C5DDFF"/>
</g>
<path d="M125.483 75.2855C123.746 70.3458 115.356 72.5469 115.356 72.5469C115.356 72.5469 110.229 81.7929 108.563 82.1262C106.899 82.4595 111.403 73.3657 111.403 73.3657C108.124 73.2907 100.12 77.8913 100.12 77.8913C100.12 77.8913 101.403 88.1437 99.7073 88.0571C98.0116 87.9706 99.0348 78.9215 99.0348 78.9215C95.9536 80.0982 93.283 83.9904 93.283 83.9904C90.0474 90.246 98.2497 94.0769 98.2497 94.0769C98.2497 94.0769 98.6177 97.6393 96.7135 101.897C96.7135 101.897 96.2711 102.689 95.8598 104.012L96.7185 103.948C96.7719 103.713 96.8325 103.484 96.9025 103.264C96.9025 103.263 96.9025 103.262 96.904 103.261C96.9047 103.258 96.9061 103.254 96.9068 103.251C96.9559 103.114 97.0266 102.92 97.1147 102.681C97.1147 102.681 97.1147 102.681 97.1147 102.681C97.1147 102.681 97.1147 102.681 97.1147 102.679C97.3391 102.146 97.4885 101.754 97.5808 101.472C97.5808 101.471 97.5808 101.47 97.5808 101.469C98.2483 99.7986 99.2268 97.6141 99.9498 97.1177C99.9498 97.1177 99.8452 96.9908 99.7369 96.7375C99.8048 96.8587 99.8755 96.985 99.9498 97.1177C101.652 100.16 109.043 100.143 113.077 99.0021C117.111 97.8608 115.241 96.8371 112.897 95.1244C110.554 93.4117 105.969 94.2464 104.549 93.6115C103.13 92.9767 105.071 92.0951 107.817 92.1044C110.564 92.1131 112.13 94.7435 116.572 94.8387C121.015 94.9339 123.765 86.3913 123.765 86.3913C120.788 87.5608 115.203 86.2824 114.916 85.2479C114.628 84.2133 122.723 83.7227 123.96 83.3151C125.197 82.9075 127.217 80.2245 125.48 75.2848L125.483 75.2855Z" fill="#DFEBF9"/>
<path d="M9.03376 34.8603C10.705 30.106 18.7817 32.2242 18.7817 32.2242C18.7817 32.2242 23.7167 41.1232 25.3187 41.4442C26.9213 41.7652 22.5853 33.012 22.5853 33.012C25.7415 32.9391 33.4445 37.3681 33.4445 37.3681C33.4445 37.3681 32.2099 47.2352 33.8421 47.1522C35.4743 47.0693 34.4894 38.3593 34.4894 38.3593C37.4551 39.492 40.0247 43.2377 40.0247 43.2377C43.1384 49.2589 35.2442 52.9454 35.2442 52.9454C35.2442 52.9454 34.8899 56.3744 36.7227 60.4722C36.7227 60.4722 37.1484 61.2355 37.5439 62.5081L36.7169 62.4475C36.6657 62.221 36.6072 62.0009 36.5401 61.7896C36.5401 61.7881 36.5401 61.7867 36.5387 61.786C36.538 61.7831 36.5365 61.7802 36.5358 61.7766C36.4889 61.6446 36.4204 61.457 36.3352 61.2283C36.3352 61.2283 36.3352 61.2283 36.3352 61.2276C36.3352 61.2276 36.3352 61.2276 36.3352 61.2268C36.1187 60.7139 35.9751 60.3359 35.8871 60.0646C35.8871 60.0639 35.8871 60.0632 35.8871 60.0617C35.2442 58.4543 34.3032 56.3521 33.6069 55.8745C33.6069 55.8745 33.7079 55.7525 33.8118 55.508C33.7461 55.6249 33.6783 55.7468 33.6069 55.8745C31.9681 58.8021 24.8554 58.7869 20.9725 57.6882C17.0896 56.5894 18.89 55.6039 21.1457 53.9562C23.4014 52.3084 27.8139 53.1114 29.1806 52.5003C30.5466 51.8892 28.6784 51.0408 26.0352 51.0495C23.392 51.0581 21.8846 53.5889 17.6092 53.6813C13.3337 53.7729 10.6869 45.5506 10.6869 45.5506C13.5516 46.6761 18.9268 45.446 19.2039 44.4497C19.4803 43.4541 11.6892 42.9823 10.4986 42.5898C9.30796 42.1974 7.36399 39.6154 9.0352 34.8611L9.03376 34.8603Z" fill="#DFEBF9"/>
<path d="M101.999 23.6357H50.7637V109.751H101.999V23.6357Z" fill="#CDE0FB"/>
<path d="M106.284 34.2114H101.998V34.4091H106.284V34.2114Z" fill="#163560"/>
<path d="M106.284 55.1729H101.998V55.3705H106.284V55.1729Z" fill="#163560"/>
<path d="M110.824 30.6128H107.914C106.891 30.6128 106.062 31.4416 106.062 32.464V58.8118C106.062 59.8342 106.891 60.663 107.914 60.663H110.824C111.847 60.663 112.676 59.8342 112.676 58.8118V32.464C112.676 31.4416 111.847 30.6128 110.824 30.6128Z" fill="#FB5748"/>
<path d="M108.316 34.0361H108.763V35.0938H109.977V34.0361H110.423V36.5799H109.977V35.5079H108.763V36.5799H108.316V34.0361Z" fill="white"/>
<path d="M108.04 40.2991C108.04 39.5834 108.593 38.9839 109.374 38.9839C110.156 38.9839 110.701 39.5762 110.701 40.2991C110.701 41.022 110.148 41.6143 109.367 41.6143C108.586 41.6143 108.041 41.022 108.041 40.2991H108.04ZM110.232 40.2991C110.232 39.8049 109.872 39.3944 109.367 39.3944C108.862 39.3944 108.509 39.7977 108.509 40.2991C108.509 40.8005 108.868 41.2038 109.374 41.2038C109.88 41.2038 110.232 40.8005 110.232 40.2991Z" fill="white"/>
<path d="M109.145 44.4322H108.338V44.0181H110.402V44.4322H109.596V46.5611H109.145V44.4322Z" fill="white"/>
<path d="M108.479 49.0088H110.366V49.4085H108.927V50.07H110.203V50.4697H108.927V51.1529H110.384V51.5526H108.48V49.0088H108.479Z" fill="white"/>
<path d="M108.572 53.9997H109.02V56.1359H110.357V56.5428H108.572V53.999V53.9997Z" fill="white"/>
<path d="M96.7233 31.439H86.9111V45.6492H96.7233V31.439Z" fill="#AFCDFB"/>
<path d="M91.4297 31.439C91.4297 31.439 91.5351 36.1759 86.9111 39.8517V31.439H91.4297Z" fill="#D9EAFF"/>
<path d="M92.3986 31.439C92.3986 31.439 92.2983 36.1759 96.7239 39.8517V31.439H92.3986Z" fill="#D9EAFF"/>
<path d="M92.0634 31.439H91.8174V45.6492H92.0634V31.439Z" fill="white"/>
<path d="M96.7241 35.6455H86.9111V35.8432H96.7241V35.6455Z" fill="white"/>
<path d="M96.7241 40.7964H86.9111V40.9941H96.7241V40.7964Z" fill="white"/>
<path d="M96.9471 45.8726H86.6875V31.2158H96.9471V45.8726ZM87.1349 45.4253H96.5004V31.6624H87.1349V45.4253Z" fill="white"/>
<path d="M81.2878 31.439H71.4756V45.6492H81.2878V31.439Z" fill="#AFCDFB"/>
<path d="M75.9932 31.439C75.9932 31.439 76.0986 36.1759 71.4746 39.8517V31.439H75.9932Z" fill="#D9EAFF"/>
<path d="M76.9631 31.439C76.9631 31.439 76.8628 36.1759 81.2883 39.8517V31.439H76.9631Z" fill="#D9EAFF"/>
<path d="M76.6279 31.439H76.3818V45.6492H76.6279V31.439Z" fill="white"/>
<path d="M81.2885 35.6455H71.4756V35.8432H81.2885V35.6455Z" fill="white"/>
<path d="M81.2885 40.7964H71.4756V40.9941H81.2885V40.7964Z" fill="white"/>
<path d="M81.5116 45.8726H71.252V31.2158H81.5116V45.8726ZM71.6993 45.4253H81.0649V31.6624H71.6993V45.4253Z" fill="white"/>
<path d="M65.8513 31.439H56.0391V45.6492H65.8513V31.439Z" fill="#AFCDFB"/>
<path d="M60.5577 31.439C60.5577 31.439 60.6623 36.1759 56.0391 39.8517V31.439H60.5577Z" fill="#D9EAFF"/>
<path d="M61.5266 31.439C61.5266 31.439 61.4263 36.1759 65.8518 39.8517V31.439H61.5266Z" fill="#D9EAFF"/>
<path d="M61.1914 31.439H60.9453V45.6492H61.1914V31.439Z" fill="white"/>
<path d="M65.852 35.6455H56.0391V35.8432H65.852V35.6455Z" fill="white"/>
<path d="M65.852 40.7964H56.0391V40.9941H65.852V40.7964Z" fill="white"/>
<path d="M66.075 45.8726H55.8154V31.2158H66.075V45.8726ZM56.2628 45.4253H65.6284V31.6624H56.2628V45.4253Z" fill="white"/>
<path d="M96.7233 52.7778H86.9111V66.9881H96.7233V52.7778Z" fill="#AFCDFB"/>
<path d="M91.4297 52.7778C91.4297 52.7778 91.5351 57.5148 86.9111 61.1906V52.7778H91.4297Z" fill="#D9EAFF"/>
<path d="M92.3986 52.7778C92.3986 52.7778 92.2983 57.5148 96.7239 61.1906V52.7778H92.3986Z" fill="#D9EAFF"/>
<path d="M92.0634 52.7778H91.8174V66.9881H92.0634V52.7778Z" fill="white"/>
<path d="M96.7241 56.9834H86.9111V57.1811H96.7241V56.9834Z" fill="white"/>
<path d="M96.7241 62.1348H86.9111V62.3324H96.7241V62.1348Z" fill="white"/>
<path d="M96.9471 67.2107H86.6875V52.5532H96.9471V67.2107ZM87.1349 66.7635H96.5004V53.0005H87.1349V66.7635Z" fill="white"/>
<path d="M81.2878 52.7778H71.4756V66.9881H81.2878V52.7778Z" fill="#AFCDFB"/>
<path d="M75.9932 52.7778C75.9932 52.7778 76.0986 57.5148 71.4746 61.1906V52.7778H75.9932Z" fill="#D9EAFF"/>
<path d="M76.9631 52.7778C76.9631 52.7778 76.8628 57.5148 81.2883 61.1906V52.7778H76.9631Z" fill="#D9EAFF"/>
<path d="M76.6279 52.7778H76.3818V66.9881H76.6279V52.7778Z" fill="white"/>
<path d="M81.2885 56.9834H71.4756V57.1811H81.2885V56.9834Z" fill="white"/>
<path d="M81.2885 62.1348H71.4756V62.3324H81.2885V62.1348Z" fill="white"/>
<path d="M81.5116 67.2107H71.252V52.5532H81.5116V67.2107ZM71.6993 66.7635H81.0649V53.0005H71.6993V66.7635Z" fill="white"/>
<path d="M65.8513 52.7778H56.0391V66.9881H65.8513V52.7778Z" fill="#AFCDFB"/>
<path d="M60.5577 52.7778C60.5577 52.7778 60.6623 57.5148 56.0391 61.1906V52.7778H60.5577Z" fill="#D9EAFF"/>
<path d="M61.5266 52.7778C61.5266 52.7778 61.4263 57.5148 65.8518 61.1906V52.7778H61.5266Z" fill="#D9EAFF"/>
<path d="M61.1914 52.7778H60.9453V66.9881H61.1914V52.7778Z" fill="white"/>
<path d="M65.852 56.9834H56.0391V57.1811H65.852V56.9834Z" fill="white"/>
<path d="M65.852 62.1348H56.0391V62.3324H65.852V62.1348Z" fill="white"/>
<path d="M66.075 67.2107H55.8154V52.5532H66.075V67.2107ZM56.2628 66.7635H65.6284V53.0005H56.2628V66.7635Z" fill="white"/>
<path d="M81.2878 74.1157H71.4756V88.326H81.2878V74.1157Z" fill="#AFCDFB"/>
<path d="M75.9932 74.1157C75.9932 74.1157 76.0986 78.8527 71.4746 82.5285V74.1157H75.9932Z" fill="#D9EAFF"/>
<path d="M76.9631 74.1157C76.9631 74.1157 76.8628 78.8527 81.2883 82.5285V74.1157H76.9631Z" fill="#D9EAFF"/>
<path d="M76.6279 74.1157H76.3818V88.326H76.6279V74.1157Z" fill="white"/>
<path d="M81.2885 78.3213H71.4756V78.519H81.2885V78.3213Z" fill="white"/>
<path d="M81.2885 83.4731H71.4756V83.6708H81.2885V83.4731Z" fill="white"/>
<path d="M81.5116 88.5494H71.252V73.8926H81.5116V88.5494ZM71.6993 88.1021H81.0649V74.3392H71.6993V88.1021Z" fill="white"/>
<path d="M65.8513 74.1157H56.0391V88.326H65.8513V74.1157Z" fill="#AFCDFB"/>
<path d="M60.5577 74.1157C60.5577 74.1157 60.6623 78.8527 56.0391 82.5285V74.1157H60.5577Z" fill="#D9EAFF"/>
<path d="M61.5266 74.1157C61.5266 74.1157 61.4263 78.8527 65.8518 82.5285V74.1157H61.5266Z" fill="#D9EAFF"/>
<path d="M61.1914 74.1157H60.9453V88.326H61.1914V74.1157Z" fill="white"/>
<path d="M65.852 78.3213H56.0391V78.519H65.852V78.3213Z" fill="white"/>
<path d="M65.852 83.4731H56.0391V83.6708H65.852V83.4731Z" fill="white"/>
<path d="M66.075 88.5494H55.8154V73.8926H66.075V88.5494ZM56.2628 88.1021H65.6284V74.3392H56.2628V88.1021Z" fill="white"/>
<path d="M102.836 97.9722H50.1885V109.748H102.836V97.9722Z" fill="#AFCDFB"/>
<path d="M103.923 26.6471H49.1006L52.0238 13.6597H101L103.923 26.6471Z" fill="#FB5748"/>
<path d="M64.0925 17.5142H59.0645V22.5412H64.0925V17.5142Z" fill="#BDD1F9"/>
<path d="M58.832 17.2822V22.7738H64.3255V17.2822H58.832ZM63.8601 22.3085H59.2982V17.7468H63.8601V22.3085Z" fill="#163560"/>
<path d="M61.8066 22.5416V17.5146H61.3513V22.5416H61.8066Z" fill="#163560"/>
<path d="M65.1117 16.3413H57.833V17.3953H65.1117V16.3413Z" fill="#163560"/>
<path d="M79.0564 17.5142H74.0283V22.5412H79.0564V17.5142Z" fill="#BDD1F9"/>
<path d="M73.7959 17.2822V22.7738H79.2894V17.2822H73.7959ZM78.8232 22.3085H74.2606V17.7468H78.8232V22.3085Z" fill="#163560"/>
<path d="M76.7705 22.5421V17.5151H76.3152V22.5421H76.7705Z" fill="#163560"/>
<path d="M80.0199 16.3413H72.7412V17.3953H80.0199V16.3413Z" fill="#163560"/>
<path d="M93.9655 17.5142H88.9375V22.5412H93.9655V17.5142Z" fill="#BDD1F9"/>
<path d="M88.7051 17.2822V22.7738H94.1986V17.2822H88.7051ZM93.7331 22.3085H89.1705V17.7468H93.7331V22.3085Z" fill="#163560"/>
<path d="M91.6797 22.5421V17.5151H91.2244V22.5421H91.6797Z" fill="#163560"/>
<path d="M94.9291 16.3413H87.6504V17.3953H94.9291V16.3413Z" fill="#163560"/>
<path d="M34.2935 109.656H41.4546C41.8385 109.331 41.1891 108.592 40.5108 108.542C40.2164 108.52 39.8433 108.582 39.4176 108.672C39.3187 107.363 38.7566 101.48 36.6351 101.717C34.2502 101.982 36.6351 104.308 37.3091 105.685C37.8084 106.705 38.3352 108.167 38.5762 108.858C38.3828 108.9 38.1822 108.941 37.9773 108.978C37.6612 108.008 36.485 104.744 34.9899 104.935C33.2342 105.157 33.9399 106.465 35.184 107.242C36.0968 107.814 37.2181 108.625 37.7514 109.018C37.2997 109.091 36.8292 109.141 36.3508 109.13C35.1241 109.101 34.5252 109.462 34.2935 109.656Z" fill="#A8D29F"/>
<path d="M134.328 109.541H128.933C128.644 109.295 129.133 108.738 129.644 108.701C129.867 108.684 130.147 108.73 130.468 108.798C130.542 107.812 130.966 103.38 132.564 103.558C134.361 103.758 132.564 105.51 132.056 106.548C131.68 107.316 131.283 108.419 131.101 108.939C131.247 108.971 131.398 109.002 131.552 109.03C131.79 108.299 132.677 105.84 133.804 105.983C135.127 106.151 134.595 107.137 133.657 107.722C132.97 108.153 132.125 108.764 131.723 109.059C132.063 109.115 132.418 109.152 132.778 109.144C133.703 109.122 134.154 109.394 134.328 109.541Z" fill="#A8D29F"/>
<path d="M85.396 71.1182C85.605 71.6802 85.9676 72.3327 86.3475 72.4946C86.7786 72.6785 86.9584 72.9381 86.9584 72.9381L87.3068 72.7363L87.7224 72.4946C87.7224 72.4946 87.7122 72.4481 87.692 72.3731C87.6724 72.2981 87.6408 72.194 87.5985 72.0785C87.5985 72.0785 87.4711 71.9148 87.5491 71.7088C87.6271 71.5028 87.6116 71.1849 87.4782 70.9914C87.3449 70.798 87.2162 70.3205 87.1359 70.3342C86.9412 70.3675 87.2317 71.0236 87.1484 71.1456C87.0733 71.2557 86.9793 71.2176 86.9614 71.2093C86.9602 71.2087 86.959 71.2081 86.9584 71.2075C86.413 70.9676 85.7515 69.6752 85.4585 69.8496C85.349 69.9151 85.3067 70.8789 85.396 71.1182Z" fill="#FFB27D"/>
<path d="M87.2817 71.901L86.5981 72.3814C86.5499 72.4153 86.4826 72.4034 86.4486 72.3552L84.6981 69.865C84.6641 69.8168 84.676 69.7495 84.7243 69.7156L85.4078 69.2352C85.4561 69.2012 85.5233 69.2131 85.5573 69.2614L87.3078 71.7515C87.3418 71.7998 87.3299 71.867 87.2817 71.901Z" fill="#2B478B"/>
<path d="M84.3812 69.9595L84.7816 69.6781C84.8187 69.6521 84.8693 69.6609 84.8953 69.6979L86.6753 72.2301C86.7013 72.2671 86.6925 72.3177 86.6555 72.3437L86.255 72.6251C86.218 72.6511 86.1674 72.6423 86.1414 72.6053L84.3614 70.0731C84.3353 70.0361 84.3442 69.9855 84.3812 69.9595Z" fill="#233862"/>
<path d="M97.0848 68.3271C97.0848 68.3271 93.6075 74.3904 92.3464 75.506L87.7211 72.0585C87.7211 72.0585 87.05 72.2645 86.7559 72.9378C86.7559 72.9378 90.3112 78.6653 92.3303 78.9016C95.0878 79.2249 98.9771 72.0443 98.9771 72.0443L97.0848 68.3271Z" fill="#3841B3"/>
<path d="M103.582 109.669H105.591C105.844 109.531 106.069 109.217 106.141 108.749C106.239 108.102 106.964 107.748 107.121 107.219C107.278 106.69 106.474 105.945 106.474 105.945L106.339 105.772L106.2 105.592L104.866 105.906C104.866 105.906 104.833 106.223 104.813 106.628C104.799 106.92 104.791 107.257 104.807 107.553C104.847 108.258 104.61 109.018 103.983 109.156C103.519 109.257 103.54 109.532 103.582 109.669Z" fill="#2D4C7F"/>
<path d="M93.2936 109.567H97.8879C98.1088 109.297 98.0273 108.302 97.9939 107.977C97.9868 107.912 97.982 107.874 97.982 107.874C97.982 107.874 96.413 106.619 96.1975 107.579C96.1909 107.61 96.1832 107.639 96.1743 107.668C95.9028 108.566 94.6851 108.975 93.9819 109.089C93.5246 109.163 93.3555 109.401 93.293 109.566L93.2936 109.567Z" fill="#2D4C7F"/>
<path d="M94.1689 83.9271C94.1689 83.9271 94.4071 86.8989 94.687 90.4707C95.0675 95.3231 95.5253 101.283 95.5706 102.413C95.6486 104.374 95.963 107.51 95.963 107.51C95.963 107.51 96.7079 108.255 98.1982 107.941C98.1982 107.941 99.5267 103.463 99.9059 98.7265C99.9119 98.6491 99.9179 98.5705 99.9238 98.4925C100.277 93.6699 100.825 83.5151 100.825 83.5151L94.1689 83.9271Z" fill="#FD6558"/>
<path d="M94.1689 83.9271C94.1689 83.9271 94.4071 86.8989 94.687 90.4707L99.9059 98.7265C99.9119 98.6491 99.9179 98.5705 99.9238 98.4925C100.277 93.6699 100.825 83.5151 100.825 83.5151L94.1689 83.9271Z" fill="#E65043"/>
<path d="M95.333 83.4419C95.333 83.4419 98.9348 94.4229 101.417 99.6283C103.898 104.833 104.683 106.291 104.683 106.291C104.683 106.291 106.303 105.734 106.472 105.302C106.472 105.302 105.613 96.1672 103.894 93.6865C102.923 92.2852 102.27 87.5126 102.292 86.0999C102.313 84.6873 102.153 81.8804 102.153 81.8804L95.3336 83.4413L95.333 83.4419Z" fill="#FD6558"/>
<path d="M96.3271 68.5915C98.0051 69.1208 100.908 67.692 100.908 67.692C100.908 67.692 99.3615 66.5312 99.4425 64.1172L98.145 65.1625L97.2638 65.8728C97.2638 65.8728 97.2673 66.2913 97.3638 67.0253C97.3638 67.0271 97.3638 67.0288 97.3644 67.0312C97.4126 67.3979 97.265 67.7646 96.9696 67.9873C96.5558 68.2998 96.3271 68.5921 96.3271 68.5921V68.5915Z" fill="#FFB27D"/>
<path d="M97.2637 65.8728C97.2637 65.8728 97.2672 66.2913 97.3637 67.0254C98.3402 66.8581 99.4477 65.2799 99.4477 65.2799C98.9505 65.1364 98.5153 65.1108 98.1449 65.1632L97.2637 65.8734V65.8728Z" fill="#ED975D"/>
<path d="M96.7501 65.8329C96.7501 65.8329 99.5219 66.2931 99.7821 64.5631C100.042 62.8332 100.575 61.7271 98.8163 61.3604C97.0574 60.9931 96.6138 61.6015 96.3863 62.1581C96.1589 62.7147 96.0356 65.6686 96.7496 65.8329H96.7501Z" fill="#FFB27D"/>
<path d="M93.9848 84.1749C94.0355 84.2171 94.0938 84.2421 94.1611 84.2421C94.7911 84.2338 96.6286 84.5832 98.1832 84.4237C99.4938 84.2981 100.654 83.9099 101.9 83.3515C102.065 83.2771 102.446 83.0741 102.438 82.8896C102.432 82.6872 102.412 82.3937 102.386 82.024C102.298 80.7381 102.145 78.5272 102.294 75.9757C102.321 75.5006 102.335 75.0291 102.337 74.5654C102.35 71.1078 101.664 68.0664 100.286 67.0371C100.168 66.9526 99.4462 67.3056 98.7822 67.633C98.169 67.9354 97.6974 67.9652 97.118 67.8479L96.3963 68.3641C95.6902 69.0195 94.9173 69.9101 94.5815 71.2626C94.2957 72.4133 94.1277 74.4886 94.0355 76.6394C93.9938 77.614 93.9598 78.5968 93.9509 79.5297V79.563C93.9426 79.6553 93.9426 79.7565 93.9426 79.8488C93.9086 82.2431 93.9426 84.1415 93.9848 84.1754V84.1749Z" fill="#3841B3"/>
<path d="M102.388 82.0233C102.299 80.7374 102.146 78.5264 102.295 75.975C102.322 75.4999 102.336 75.0284 102.338 74.5647C101.764 73.1722 101.295 72.1626 101.295 72.1626H99.8481C99.8481 72.1626 98.787 79.4069 102.388 82.0227V82.0233Z" fill="#233862"/>
<path d="M99.7843 64.3967C99.7843 64.3967 99.4997 64.3491 99.5456 63.9574C99.5914 63.5657 99.5908 63.0537 99.2723 63.149C98.9537 63.2442 98.9376 63.4996 98.8072 63.3502C98.6762 63.2014 98.6739 62.5739 97.7259 62.5305C96.778 62.487 96.3933 62.8168 95.9521 62.6227C95.5115 62.4293 95.4883 61.7619 95.4883 61.7619C95.4883 61.7619 95.6133 62 95.8033 62.0756C95.8033 62.0756 95.0679 61.0702 95.9194 60.3808C96.7708 59.6914 97.639 60.1427 98.1314 60.1724C99.2169 60.2379 99.9177 60.3034 100.273 61.0166C100.627 61.7298 100.481 63.7098 99.7843 64.3962V64.3967Z" fill="#2B478B"/>
<path d="M120.893 108.36C120.806 108.898 121.209 109.521 121.793 109.749C122.376 109.979 122.919 109.728 123.006 109.189C123.092 108.651 122.689 108.028 122.105 107.8C121.522 107.571 120.979 107.821 120.893 108.36Z" fill="#1C468A"/>
<path d="M113.483 108.374C113.397 108.912 113.8 109.535 114.384 109.764C114.967 109.993 115.51 109.742 115.597 109.203C115.683 108.665 115.28 108.043 114.696 107.814C114.113 107.585 113.57 107.835 113.483 108.374Z" fill="#1C468A"/>
<path d="M122.995 108.224L121.666 108.769C121.531 108.823 121.381 108.851 121.223 108.85L112.868 108.779L111.561 107.234L122.996 108.224L122.995 108.224Z" fill="#739AF0"/>
<path d="M114.44 90.3235L111.243 85.6432L111.239 85.6343C111.219 85.5926 110.709 84.5907 108.003 84.3186L107.99 84.3175L105.761 84.0162C105.472 83.9638 104.641 83.8698 104.27 84.0615C104.106 84.1466 104.044 84.2835 104.081 84.48C104.154 84.8687 106.279 87.9042 107.689 89.8497L107.27 89.955C106.908 89.455 103.727 85.0562 103.623 84.4966C103.568 84.2038 103.683 83.9817 103.964 83.8359C104.569 83.5233 105.735 83.7174 105.858 83.7388L108.056 84.0353C110.97 84.33 111.612 85.4331 111.676 85.5593L114.863 90.2235L114.44 90.3223L114.44 90.3235Z" fill="#1C468A"/>
<path d="M108.958 89.396L104.698 90.3277C104.698 90.3277 103.526 90.8777 104.392 93.2346C105.154 95.308 109.145 106.945 109.145 106.945C109.145 106.945 109.976 109.367 114.838 108.654L108.958 89.3966V89.396Z" fill="#739AF0"/>
<path d="M107.286 92.6027L111.842 105.635C112.026 106.162 112.333 106.646 112.718 107.052C113.43 107.804 114.408 108.291 115.367 108.295L119.544 108.313H119.648L122.264 108.325C122.527 108.326 122.772 108.291 122.996 108.225C123.048 108.21 123.099 108.193 123.149 108.174C123.975 107.865 124.477 107.109 124.496 106.179C124.504 105.784 124.425 105.357 124.246 104.92L119.151 92.4532C118.607 91.1239 117.289 90.1053 115.95 89.9803L115.195 89.9095L115.015 89.8928L114.864 89.8785L112.339 89.6422L112.03 89.6136L109.594 89.3856C109.212 89.3499 108.86 89.3886 108.55 89.4886C108.53 89.4951 108.51 89.5017 108.489 89.5094L108.364 89.5576C107.307 90.0077 106.804 91.2227 107.287 92.6032L107.286 92.6027Z" fill="#83B0FF"/>
<g opacity="0.5">
<path d="M112.719 107.051C113.431 107.804 114.409 108.29 115.368 108.294L119.545 108.312H119.649L122.265 108.324C122.529 108.325 122.773 108.29 122.997 108.225C123.05 108.209 123.101 108.192 123.151 108.173C123.976 107.864 124.73 106.739 124.439 105.548C124.439 105.548 115.586 105.448 113.817 105.743C112.904 105.896 112.794 106.579 112.719 107.051Z" fill="#739AF0"/>
</g>
<path d="M114.863 89.8779C114.885 89.8892 117.13 91.0947 117.656 92.1568C118.198 93.248 123.212 105.971 123.262 106.099C123.266 106.11 123.629 107.34 122.871 108.257L122.995 108.225C123.048 108.209 123.099 108.193 123.149 108.174C123.838 107.22 123.432 106.124 123.413 106.077C123.206 105.552 118.345 93.217 117.799 92.1181C117.321 91.1549 115.711 90.1976 115.195 89.9089L115.015 89.8922L114.864 89.8779H114.863Z" fill="#739AF0"/>
<path d="M112.028 89.6128C112.356 89.8051 113.631 90.6314 114.25 92.1595C114.977 93.952 119.359 106.975 119.403 107.106L119.406 107.115L119.41 107.124C119.414 107.131 119.743 107.833 119.438 108.312H119.543L119.646 108.313C119.924 107.801 119.6 107.172 119.553 107.084C119.417 106.681 115.12 93.9133 114.399 92.1351C113.866 90.8177 112.865 90.0003 112.338 89.6414L112.028 89.6128Z" fill="#739AF0"/>
<path d="M108.364 89.5574C108.373 89.5622 108.835 89.7944 109.284 90.1968C109.734 90.5998 110.27 91.2195 110.624 92.0947C111.35 93.8865 115.506 106.866 115.548 106.996L115.551 107.007L115.556 107.015C115.56 107.022 115.8 107.816 115.495 108.295L115.759 108.296C115.973 107.859 115.75 107.07 115.699 106.976C115.566 106.561 111.494 93.8478 110.774 92.0696C110.096 90.3974 108.817 89.6325 108.549 89.4878C108.529 89.4943 108.509 89.5009 108.488 89.5086L108.363 89.5574H108.364Z" fill="#739AF0"/>
<path d="M105.326 81.4771C105.326 81.4771 105.512 82.8053 105.525 82.9779C105.612 84.1465 105.447 84.259 106.084 84.4656C106.261 84.5227 106.742 84.5239 107.016 84.1858C107.016 84.1858 106.571 84.1572 106.647 83.5161C106.736 82.7761 106.69 82.9857 106.241 82.3826L106.137 81.2729L105.327 81.4777L105.326 81.4771Z" fill="#FFB27D"/>
<path d="M105.93 82.603C105.409 82.7048 104.844 82.6632 104.844 82.6632C104.844 82.6632 103.297 77.8858 103.098 77.4495C102.899 77.0131 98.5039 71.8476 98.5039 71.8476L100.335 67.2661C100.335 67.2661 105.089 75.2057 105.572 76.3214C106.37 78.165 106.646 82.2982 106.646 82.2982C106.646 82.2982 106.339 82.5233 105.93 82.603Z" fill="#3841B3"/>
<path d="M105.525 82.978C105.525 82.978 105.412 83.2697 105.409 83.4066C105.396 83.8454 105.274 84.0484 105.352 84.0871C105.513 84.1669 105.675 83.8246 105.736 83.5263C105.797 83.2286 105.525 82.978 105.525 82.978H105.525Z" fill="#FFB27D"/>
<path d="M0 15.0512C0 15.0512 1.03765 13.1942 3.51776 13.4005C3.51776 13.4005 7.11923 10.3055 10.9588 12.9879C10.9588 12.9879 15.0409 12.3234 18.0643 13.5636C20.0797 14.3903 20.7458 15.2575 20.7458 15.2575L0 15.0512Z" fill="#F8FCFF"/>
<path d="M16.957 7.19018C16.957 7.19018 19.2676 3.05488 24.7921 3.51372C24.7921 3.51372 32.8126 -3.37893 41.3656 2.5946C41.3656 2.5946 50.457 1.11421 57.1901 3.87588C61.6792 5.717 63.162 7.64902 63.162 7.64902L16.957 7.18946V7.19018Z" fill="#F8FCFF"/>
<path d="M9.21973 22.7914C9.21973 22.7914 10.9782 19.7102 15.183 20.0521C15.183 20.0521 21.2876 14.9162 27.7978 19.3675C27.7978 19.3675 34.7179 18.2644 39.8427 20.3227C43.2594 21.6948 44.388 23.1341 44.388 23.1341L9.21973 22.7914Z" fill="#F8FCFF"/>
<path d="M145.732 109.501H19.9072C19.7913 109.501 19.6973 109.595 19.6973 109.711V109.79C19.6973 109.906 19.7913 110 19.9072 110H145.732C145.848 110 145.942 109.906 145.942 109.79V109.711C145.942 109.595 145.848 109.501 145.732 109.501Z" fill="#2E3552"/>
</svg>
