<svg width="82" height="245" viewBox="0 0 82 245" fill="none" xmlns="http://www.w3.org/2000/svg">
<path fill-rule="evenodd" clip-rule="evenodd" d="M75 7.99991H71.2857V6.99991V5.99991H75V7.99991ZM18 235.918V236.001H20V235.918H19H18ZM52.7756 6.33801L52.905 7.32959L53.0343 8.3212C54.6586 8.10931 56.316 7.99991 58 7.99991H62.4286V6.99991V5.99991H58C56.2293 5.99991 54.4855 6.11496 52.7756 6.33801ZM18 50.4166H19H20V45.9999C20 44.3159 20.1094 42.6585 20.3213 41.0342L19.3297 40.9049L18.3381 40.7755C18.1151 42.4854 18 44.2292 18 45.9999V50.4166ZM21.0352 30.6884L21.9589 31.0714L22.8827 31.4545C24.1633 28.3663 25.84 25.4827 27.8499 22.8672L27.0569 22.2579L26.264 21.6485C24.1489 24.401 22.3837 27.4365 21.0352 30.6884ZM33.6486 14.2639L34.258 15.0569L34.8673 15.8498C37.4828 13.8399 40.3664 12.1632 43.4546 10.8826L43.0715 9.95886L42.6885 9.03513C39.4366 10.3836 36.4011 12.1487 33.6486 14.2639ZM18 59.25H19H20V68.0834H19H18V59.25ZM18 76.9168H19H20V85.7502H19H18V76.9168ZM18 94.5836H19H20V103.417H19H18V94.5836ZM18 112.25H19H20V121.084H19H18V112.25ZM18 129.917H19H20V138.751H19H18V129.917ZM18 147.584H19H20V156.417H19H18V147.584ZM18 165.251H19H20V174.084H19H18V165.251ZM18 182.917H19H20V191.751H19H18V182.917ZM18 200.584H19H20V209.418H19H18V200.584ZM18 218.251H19H20V227.084H19H18V218.251Z" fill="#ACAFD7"/>
<circle cx="19" cy="238" r="6" fill="#F96254" stroke="#F96254" stroke-width="2"/>
<circle cx="75" cy="7" r="6" fill="white" stroke="#F96254" stroke-width="2"/>
<circle cx="19.5" cy="121.5" r="19.5" fill="#3944B3"/>
<path d="M28.625 119.625H27.6969L25.3078 114.254C25.2008 114.011 25.0251 113.804 24.8022 113.659C24.5793 113.514 24.319 113.437 24.0531 113.438H13.9469C13.681 113.437 13.4207 113.514 13.1978 113.659C12.9749 113.804 12.7992 114.011 12.6922 114.254L10.3031 119.625H9.375C9.19266 119.625 9.0178 119.697 8.88886 119.826C8.75993 119.955 8.6875 120.13 8.6875 120.313C8.6875 120.495 8.75993 120.67 8.88886 120.799C9.0178 120.928 9.19266 121 9.375 121H10.0625V127.875C10.0625 128.24 10.2074 128.589 10.4652 128.847C10.7231 129.105 11.0728 129.25 11.4375 129.25H13.5C13.8647 129.25 14.2144 129.105 14.4723 128.847C14.7301 128.589 14.875 128.24 14.875 127.875V126.5H23.125V127.875C23.125 128.24 23.2699 128.589 23.5277 128.847C23.7856 129.105 24.1353 129.25 24.5 129.25H26.5625C26.9272 129.25 27.2769 129.105 27.5348 128.847C27.7926 128.589 27.9375 128.24 27.9375 127.875V121H28.625C28.8073 121 28.9822 120.928 29.1111 120.799C29.2401 120.67 29.3125 120.495 29.3125 120.313C29.3125 120.13 29.2401 119.955 29.1111 119.826C28.9822 119.697 28.8073 119.625 28.625 119.625ZM14.875 123.75H13.5C13.3177 123.75 13.1428 123.678 13.0139 123.549C12.8849 123.42 12.8125 123.245 12.8125 123.063C12.8125 122.88 12.8849 122.705 13.0139 122.576C13.1428 122.447 13.3177 122.375 13.5 122.375H14.875C15.0573 122.375 15.2322 122.447 15.3611 122.576C15.4901 122.705 15.5625 122.88 15.5625 123.063C15.5625 123.245 15.4901 123.42 15.3611 123.549C15.2322 123.678 15.0573 123.75 14.875 123.75ZM23.125 123.75C22.9427 123.75 22.7678 123.678 22.6389 123.549C22.5099 123.42 22.4375 123.245 22.4375 123.063C22.4375 122.88 22.5099 122.705 22.6389 122.576C22.7678 122.447 22.9427 122.375 23.125 122.375H24.5C24.6823 122.375 24.8572 122.447 24.9861 122.576C25.1151 122.705 25.1875 122.88 25.1875 123.063C25.1875 123.245 25.1151 123.42 24.9861 123.549C24.8572 123.678 24.6823 123.75 24.5 123.75H23.125Z" fill="white"/>
</svg>
