<svg width="85" height="240" viewBox="0 0 85 240" fill="none" xmlns="http://www.w3.org/2000/svg">
<path fill-rule="evenodd" clip-rule="evenodd" d="M76 7.99991H72.2857V6.99991V5.99991H76V7.99991ZM19 235.918V236.001H21V235.918H20H19ZM53.7756 6.33801L53.905 7.32959L54.0343 8.3212C55.6586 8.10931 57.316 7.99991 59 7.99991H63.4286V6.99991V5.99991H59C57.2293 5.99991 55.4855 6.11496 53.7756 6.33801ZM19 50.4166H20H21V45.9999C21 44.3159 21.1094 42.6585 21.3213 41.0342L20.3297 40.9049L19.3381 40.7755C19.1151 42.4854 19 44.2292 19 45.9999V50.4166ZM22.0352 30.6884L22.9589 31.0714L23.8827 31.4545C25.1633 28.3663 26.84 25.4827 28.8499 22.8672L28.0569 22.2579L27.264 21.6485C25.1489 24.401 23.3837 27.4365 22.0352 30.6884ZM34.6486 14.2639L35.258 15.0569L35.8673 15.8498C38.4828 13.8399 41.3664 12.1632 44.4546 10.8826L44.0715 9.95886L43.6885 9.03513C40.4366 10.3836 37.4011 12.1487 34.6486 14.2639ZM19 59.25H20H21V68.0834H20H19V59.25ZM19 76.9168H20H21V85.7502H20H19V76.9168ZM19 94.5836H20H21V103.417H20H19V94.5836ZM19 112.25H20H21V121.084H20H19V112.25ZM19 129.917H20H21V138.751H20H19V129.917ZM19 147.584H20H21V156.417H20H19V147.584ZM19 165.251H20H21V174.084H20H19V165.251ZM19 182.917H20H21V191.751H20H19V182.917ZM19 200.584H20H21V209.418H20H19V200.584ZM19 218.251H20H21V227.084H20H19V218.251Z" fill="#ACAFD7"/>
<circle cx="20" cy="233" r="6" fill="white" stroke="#F96254" stroke-width="2"/>
<circle cx="19.5" cy="120.5" r="19.5" fill="#F96254"/>
<g clip-path="url(#clip0_6263_20636)">
<path d="M14.617 116.712L17.822 114.384C18.1818 114.121 18.6194 113.986 19.065 114C19.6085 114.014 20.1343 114.196 20.5693 114.522C21.0042 114.848 21.3268 115.302 21.492 115.82C21.678 116.403 21.848 116.797 22.002 117.002C22.4673 117.623 23.0709 118.127 23.7649 118.473C24.4589 118.82 25.2242 119.001 26 119V121C24.9673 121.001 23.9472 120.773 23.0131 120.333C22.079 119.892 21.2542 119.25 20.598 118.453L19.901 122.408L21.962 124.138L24.185 130.246L22.305 130.93L20.265 125.326L16.875 122.481C16.5968 122.256 16.3839 121.961 16.2585 121.626C16.1331 121.291 16.0998 120.929 16.162 120.577L16.671 117.692L15.994 118.184L13.867 121.112L12.249 119.936L14.6 116.7L14.617 116.712ZM20.5 113.5C19.9696 113.5 19.4609 113.289 19.0858 112.914C18.7107 112.539 18.5 112.03 18.5 111.5C18.5 110.97 18.7107 110.461 19.0858 110.086C19.4609 109.711 19.9696 109.5 20.5 109.5C21.0305 109.5 21.5392 109.711 21.9142 110.086C22.2893 110.461 22.5 110.97 22.5 111.5C22.5 112.03 22.2893 112.539 21.9142 112.914C21.5392 113.289 21.0305 113.5 20.5 113.5ZM17.528 126.681L14.314 130.511L12.782 129.226L15.758 125.68L16.504 123.5L18.295 125L17.528 126.681Z" fill="white"/>
</g>
<circle cx="78" cy="7" r="6" fill="#F96254" stroke="#F96254" stroke-width="2"/>
<defs>
<clipPath id="clip0_6263_20636">
<rect width="24" height="24" fill="white" transform="translate(7 108)"/>
</clipPath>
</defs>
</svg>
