<?xml version="1.0" standalone="no"?>
<!DOCTYPE svg PUBLIC "-//W3C//DTD SVG 20010904//EN"
 "http://www.w3.org/TR/2001/REC-SVG-20010904/DTD/svg10.dtd">
<svg version="1.0" xmlns="http://www.w3.org/2000/svg"
 width="512.000000pt" height="512.000000pt" viewBox="0 0 512.000000 512.000000"
 preserveAspectRatio="xMidYMid meet">

<g transform="translate(0.000000,512.000000) scale(0.100000,-0.100000)"
fill="#000000" stroke="none">
<path d="M2488 5099 c-60 -31 -78 -78 -78 -201 l0 -103 -52 -24 c-65 -30 -166
-129 -197 -194 -67 -139 -67 -278 0 -413 29 -57 97 -135 143 -164 l34 -20
-203 -366 c-111 -201 -205 -367 -207 -369 -2 -3 -54 44 -114 103 -65 63 -176
156 -273 227 -90 66 -202 151 -248 189 l-83 69 0 134 c0 159 -14 199 -80 233
-50 25 -90 25 -140 0 -66 -34 -80 -74 -80 -233 l0 -135 -52 -44 c-29 -25 -132
-103 -228 -173 -96 -71 -211 -159 -256 -196 -185 -154 -295 -322 -346 -526
-30 -120 -32 -359 -4 -478 38 -163 106 -302 216 -439 l60 -74 0 -491 0 -491
-90 0 c-112 0 -159 -20 -190 -80 -19 -37 -20 -58 -20 -380 0 -322 1 -343 20
-380 13 -26 34 -47 60 -60 39 -20 53 -20 2480 -20 2427 0 2441 0 2480 20 26
13 47 34 60 60 19 37 20 58 20 380 0 322 -1 343 -20 380 -31 60 -78 80 -190
80 l-90 0 0 491 0 491 60 74 c110 137 178 276 216 439 28 117 25 369 -4 477
-76 280 -197 429 -562 693 -74 54 -177 131 -227 172 l-93 75 0 134 c0 115 -3
141 -20 174 -23 45 -80 80 -130 80 -50 0 -107 -35 -130 -80 -17 -34 -20 -59
-20 -174 l0 -134 -77 -65 c-43 -35 -154 -120 -248 -188 -107 -77 -211 -164
-279 -231 -60 -59 -110 -107 -111 -105 -1 1 -90 167 -199 369 l-197 367 68 68
c151 151 184 341 92 530 -33 66 -132 164 -196 194 l-53 24 0 103 c0 125 -18
170 -80 202 -49 25 -94 25 -142 -1z m142 -599 c45 -23 80 -80 80 -130 0 -50
-35 -107 -80 -130 -21 -11 -53 -20 -70 -20 -50 0 -107 35 -130 80 -38 74 -16
153 56 196 48 29 92 30 144 4z m180 -1173 l230 -427 -12 -53 c-13 -59 -17
-284 -5 -369 l7 -58 -470 0 -470 0 7 58 c11 83 8 309 -5 369 l-11 51 242 436
c133 239 245 432 249 428 4 -4 111 -200 238 -435z m-1658 166 c46 -38 150
-115 229 -173 229 -167 338 -289 389 -432 44 -127 50 -309 15 -443 -23 -84
-78 -192 -133 -261 l-48 -59 -549 0 -549 0 -48 59 c-56 70 -110 176 -135 266
-13 49 -17 99 -17 200 1 118 4 145 28 217 49 149 149 266 359 421 66 48 174
128 241 179 66 51 124 92 127 93 3 0 44 -30 91 -67z m2960 31 c23 -20 122 -94
218 -165 323 -235 405 -326 461 -509 31 -98 33 -299 6 -400 -25 -90 -79 -196
-135 -266 l-48 -59 -549 0 -549 0 -48 59 c-55 69 -110 177 -133 261 -22 84
-30 226 -16 313 34 215 130 348 395 542 71 52 177 132 235 177 58 45 109 83
113 83 3 0 26 -16 50 -36z m-937 -1446 c15 -24 52 -73 81 -109 l54 -66 0 -342
0 -341 -750 0 -750 0 0 341 0 342 54 66 c29 36 66 85 81 109 l28 42 587 0 587
0 28 -42z m-1665 -408 l0 -150 -455 0 -455 0 0 150 0 150 455 0 455 0 0 -150z
m3010 0 l0 -150 -455 0 -455 0 0 150 0 150 455 0 455 0 0 -150z m-3610 -600
l0 -150 -155 0 -155 0 0 150 0 150 155 0 155 0 0 -150z m600 0 l0 -150 -150 0
-150 0 0 150 0 150 150 0 150 0 0 -150z m2400 0 l0 -150 -150 0 -150 0 0 150
0 150 150 0 150 0 0 -150z m610 0 l0 -150 -155 0 -155 0 0 150 0 150 155 0
155 0 0 -150z m-2396 -172 c-4 -13 -9 -152 -11 -310 l-4 -288 -150 0 -149 0 0
310 0 310 161 0 161 0 -8 -22z m506 2 c26 -13 47 -34 60 -60 18 -36 20 -58 20
-290 l0 -250 -150 0 -150 0 0 250 c0 232 2 254 20 290 37 73 124 99 200 60z
m680 -290 l0 -310 -149 0 -150 0 -4 283 c-2 155 -8 294 -12 310 l-7 27 161 0
161 0 0 -310z m-1800 -150 l0 -160 -605 0 -605 0 0 160 0 160 605 0 605 0 0
-160z m3310 0 l0 -160 -605 0 -605 0 0 160 0 160 605 0 605 0 0 -160z"/>
<path d="M2188 1949 c-68 -35 -78 -71 -78 -279 0 -161 2 -185 20 -220 23 -45
80 -80 130 -80 50 0 107 35 130 80 18 35 20 59 20 220 0 161 -2 185 -20 220
-37 73 -127 99 -202 59z"/>
<path d="M2788 1949 c-68 -35 -78 -71 -78 -279 0 -161 2 -185 20 -220 23 -45
80 -80 130 -80 50 0 107 35 130 80 18 35 20 59 20 220 0 161 -2 185 -20 220
-37 73 -127 99 -202 59z"/>
</g>
</svg>
