<svg xmlns="http://www.w3.org/2000/svg" width="471.366" height="414.288" viewBox="0 0 471.366 414.288">
  <g id="noun-sydney-4970142" transform="translate(-114.315 -72.853)">
    <path id="Path_1" data-name="Path 1" d="M571.88,404.3h-17.5V362.839a13.828,13.828,0,0,0-13.8-13.8H525.251l59.688-176.35a12.594,12.594,0,0,0,.742-4.348v-.1a13.469,13.469,0,0,0-1.977-7.066,13.7,13.7,0,0,0-9.625-6.512l-.91-.168h0a223.475,223.475,0,0,0-94.941,4.7,256.724,256.724,0,0,0-213.967-85.4,13.861,13.861,0,0,0-12.547,15.657l7.008,50.375a238.38,238.38,0,0,0-73.828.168l-12.9,2a13.984,13.984,0,0,0-9.992,7.043,13.792,13.792,0,0,0-.5,12.2l32.578,73.824v0a142.365,142.365,0,0,0-60.762-3.7L126,232.519h0a13.829,13.829,0,0,0-9.254,21.45l47.449,69.293h-4.754a13.837,13.837,0,0,0-13.809,13.824V404.3H128.14a13.812,13.812,0,0,0-13.824,13.781v55.254a13.839,13.839,0,0,0,13.824,13.809H571.88a13.832,13.832,0,0,0,13.8-13.809V418.078a13.808,13.808,0,0,0-13.8-13.781Zm-13.809,55.234H141.941V431.925h416.13V459.53Zm-384.83-108.64h86.023l71.449,25h0a13.538,13.538,0,0,0,4.559.777h191.51V404.3H173.238Zm36.8-79.691,22.945,52.066H197.678l-45.191-65.957A114.648,114.648,0,0,1,210.042,271.2Zm52.719-102.64,22.547,162.19-19.1-6.7v0a16.278,16.278,0,0,0-2.953-.684l-69.2-156.8a211.653,211.653,0,0,1,68.711,1.984Zm18.4-68.02a228.647,228.647,0,0,1,168.453,68.512,225.876,225.876,0,0,0-53.777,32.156,223.316,223.316,0,0,0-80.848,139.93l-.371-.125Zm214.94,248.5H341.783A196.829,196.829,0,0,1,536.324,179.1c5.668,0,11.375.227,17.059.742Z" fill-rule="evenodd"/>
  </g>
</svg>
