<?xml version="1.0" standalone="no"?>
<!DOCTYPE svg PUBLIC "-//W3C//DTD SVG 20010904//EN"
 "http://www.w3.org/TR/2001/REC-SVG-20010904/DTD/svg10.dtd">
<svg version="1.0" xmlns="http://www.w3.org/2000/svg"
 width="512.000000pt" height="512.000000pt" viewBox="0 0 512.000000 512.000000"
 preserveAspectRatio="xMidYMid meet">

<g transform="translate(0.000000,512.000000) scale(0.100000,-0.100000)"
fill="#000000" stroke="none">
<path d="M2948 5104 c-159 -38 -292 -160 -349 -320 -30 -83 -30 -225 0 -308
56 -157 152 -248 338 -322 52 -21 -3 -43 -351 -144 -191 -55 -349 -100 -352
-100 -2 0 -4 33 -4 73 0 142 -53 270 -155 372 -238 238 -633 195 -816 -88
-172 -266 -73 -621 214 -762 61 -30 76 -42 71 -54 -4 -9 -21 -54 -38 -101 -28
-79 -30 -95 -31 -225 0 -174 5 -192 155 -529 60 -138 110 -253 110 -256 0 -4
-293 -371 -651 -816 -456 -566 -660 -828 -681 -871 -107 -225 -15 -489 209
-600 69 -34 85 -38 173 -41 81 -4 109 0 163 17 129 43 154 67 446 442 79 101
141 175 137 164 -4 -11 -15 -54 -23 -95 -62 -297 211 -582 511 -532 137 22
270 112 330 221 15 28 97 258 182 513 86 255 174 516 196 580 l39 117 112 54
c62 30 143 75 181 101 38 25 70 46 72 46 2 0 5 -294 6 -652 l3 -653 33 -67
c99 -202 317 -307 527 -253 165 43 299 185 334 353 7 33 11 200 11 451 l0 398
41 7 c117 19 246 121 306 243 34 69 38 85 41 173 l4 97 -196 589 -196 589 0
92 0 91 354 266 355 266 -128 203 c-70 111 -212 337 -316 502 -110 175 -209
322 -239 353 -33 34 -78 66 -125 90 -73 36 -77 37 -190 37 -100 0 -123 -4
-169 -24 -29 -13 -54 -22 -55 -20 -1 2 -16 33 -32 69 -41 88 -138 187 -225
227 -113 53 -218 65 -332 37z m217 -314 c51 -32 85 -95 85 -159 0 -224 -312
-261 -369 -43 -22 81 24 176 103 213 52 25 131 20 181 -11z m673 -290 c21 -13
41 -38 53 -66 30 -67 20 -107 -49 -190 -31 -37 -67 -79 -78 -93 l-22 -25 -86
74 c-48 41 -99 85 -113 97 -26 21 -26 21 -7 45 65 82 133 152 159 164 44 20
105 17 143 -6z m-2065 -301 c49 -13 115 -73 138 -124 24 -52 24 -138 0 -191
-24 -52 -90 -108 -147 -124 -89 -25 -195 12 -247 87 -125 182 42 412 256 352z
m1661 -204 c58 -49 105 -92 105 -95 1 -7 -258 -304 -272 -311 -7 -4 -214 -64
-462 -133 -247 -69 -457 -130 -466 -134 -13 -6 15 -75 177 -432 106 -234 195
-429 197 -435 2 -5 117 17 267 53 144 35 265 60 268 57 13 -12 4 -214 -11
-275 -60 -231 -248 -426 -526 -546 -241 -104 -526 -122 -804 -49 -75 20 -213
68 -225 80 -2 1 90 118 204 260 l206 257 -150 341 c-83 188 -156 362 -161 387
-35 151 15 319 128 428 82 79 87 81 1028 351 l161 46 108 123 c59 67 111 121
115 120 5 -2 55 -43 113 -93z m799 -93 c64 -104 117 -191 117 -195 0 -4 -135
-108 -300 -232 l-300 -225 0 -124 c0 -110 -2 -125 -17 -130 -42 -12 -826 -196
-836 -196 -10 1 -162 320 -155 325 2 1 150 43 330 93 180 51 337 96 350 101
13 5 172 180 353 390 182 209 332 380 335 381 3 0 58 -85 123 -188z m-260
-1705 c105 -315 167 -517 167 -542 0 -22 -9 -55 -20 -73 -21 -34 -87 -72 -125
-72 -32 0 -102 36 -119 62 -8 13 -81 205 -162 428 -136 377 -147 413 -160 519
-7 63 -11 117 -9 119 6 6 223 60 245 61 11 1 58 -128 183 -502z m-458 -527
c81 -225 102 -264 177 -336 l58 -55 0 -422 c0 -390 -2 -425 -19 -463 -23 -50
-68 -84 -121 -91 -51 -7 -122 27 -150 71 -20 33 -20 46 -20 761 0 401 2 726 4
724 2 -2 34 -87 71 -189z m-1967 -164 c26 -13 83 -36 127 -52 44 -15 81 -28
83 -30 5 -3 -798 -1027 -838 -1068 -33 -34 -46 -40 -92 -43 -70 -6 -115 18
-145 77 -28 53 -29 85 -5 130 10 19 177 233 371 475 433 537 431 535 442 535
5 0 31 -11 57 -24z m870 -163 c-2 -10 -74 -231 -162 -491 -172 -514 -174 -519
-257 -543 -80 -24 -166 27 -190 112 -12 43 -10 50 137 486 l149 443 155 3 c85
1 159 4 163 5 5 1 7 -6 5 -15z"/>
</g>
</svg>
