<svg width="20" height="20" viewBox="0 0 20 20" fill="currentColor" xmlns="http://www.w3.org/2000/svg">
<g clip-path="url(#clip0_9304_3526)">
<path fill-rule="evenodd" clip-rule="evenodd" d="M9.93745 2.5C7.34862 2.5 5.25 4.44669 5.25 6.84802C5.25 6.89591 5.2519 6.9446 5.25556 6.99398C5.46846 6.74929 5.74733 6.55815 6.15779 6.55815C6.84062 6.55815 7.15951 7.08685 7.4158 7.51177L7.41593 7.51198C7.66721 7.92869 7.81142 8.125 8.04747 8.125C8.28355 8.125 8.42776 7.92869 8.679 7.51198L8.67909 7.51184C8.93535 7.08694 9.25428 6.55815 9.93715 6.55815C10.62 6.55815 10.9389 7.08691 11.1952 7.51184L11.1953 7.51198C11.4466 7.92869 11.5909 8.125 11.8269 8.125C12.063 8.125 12.2072 7.92869 12.4585 7.51198L12.4586 7.51184C12.7148 7.08694 13.0338 6.55815 13.7167 6.55815C14.1275 6.55815 14.4064 6.74954 14.6194 6.99446C14.6231 6.94487 14.625 6.89605 14.625 6.84802C14.625 4.44669 12.5263 2.5 9.93745 2.5ZM13.9126 7.18751C13.6643 7.18751 13.5125 7.44925 13.2483 8.00487C12.9788 8.57148 12.6432 9.27665 11.9249 9.27665C11.2065 9.27665 10.8711 8.57153 10.6015 8.00487C10.3373 7.44925 10.1855 7.18751 9.93721 7.18751C9.68888 7.18751 9.5372 7.44925 9.27293 8.00487L9.27285 8.00504C9.0033 8.57162 8.66788 9.27665 7.94956 9.27665C7.23128 9.27665 6.89582 8.57154 6.62626 8.00495L6.62623 8.00487C6.36192 7.44925 6.21023 7.18751 5.96195 7.18751C5.71366 7.18751 5.5619 7.44925 5.29759 8.00487L5.25 8.10465C5.69333 9.57736 6.67627 11.3293 7.62815 13.0259C7.94464 13.59 8.25769 14.148 8.54634 14.6875H11.3288C11.6174 14.1481 11.9304 13.5902 12.2468 13.0262C13.1986 11.3298 14.1815 9.57791 14.625 8.10516C14.6087 8.07145 14.5928 8.03789 14.5771 8.00487C14.3127 7.44925 14.161 7.18751 13.9126 7.18751ZM8.0625 17.0579V15.625H11.8125V17.0579C11.8125 17.3017 11.5298 17.5 11.1823 17.5H8.69268C8.3452 17.5 8.0625 17.3017 8.0625 17.0579Z" fill="currentColor"/>
</g>
<defs>
<clipPath id="clip0_9304_3526">
<rect width="20" height="20" fill="white"/>
</clipPath>
</defs>
</svg>
