<svg width="23" height="23" viewBox="0 0 23 23" fill="none" stroke="currentColor" xmlns="http://www.w3.org/2000/svg">
<path d="M21.5508 5.42089L17.6133 9.12402L21.3633 19.4365L18.5508 22.249L12.9492 14.0459L10.1133 16.624V19.4365L7.30078 22.249L5.63672 17.3389L0.738281 15.6865L3.55078 12.874H6.36328L9.17578 10.0615L0.738281 4.43652L3.55078 1.62402L13.8633 5.37402L17.5781 1.44824L17.4961 1.50683C18.0245 0.978471 18.7411 0.681641 19.4883 0.681641C20.2355 0.681641 20.9521 0.978471 21.4805 1.50683C22.0088 2.03519 22.3057 2.7518 22.3057 3.49902C22.3057 4.24623 22.0088 4.96285 21.4805 5.49121L21.5508 5.42089Z" stroke-linecap="round" stroke-linejoin="round"/>
</svg>
