<svg width="17" height="17" viewBox="0 0 17 17" fill="none" xmlns="http://www.w3.org/2000/svg">
<path d="M2.17787 12.8896H3.47045V11.6172H13.0033V12.8896H14.2958V9.33499C14.2958 9.09263 14.205 8.83344 14.0232 8.55742C13.8414 8.2814 13.6092 8.06933 13.3264 7.92122V6.54785C13.3264 6.11699 13.2019 5.77702 12.9528 5.52792C12.7037 5.27883 12.3637 5.15429 11.9328 5.15429H9.1861C8.97066 5.15429 8.78216 5.18795 8.62059 5.25527C8.45902 5.32259 8.32437 5.42357 8.21666 5.55822C8.10894 5.42357 7.9743 5.32259 7.81272 5.25527C7.65115 5.18795 7.46265 5.15429 7.24722 5.15429H4.54087C4.11001 5.15429 3.77003 5.27883 3.52094 5.52792C3.27185 5.77702 3.1473 6.11699 3.1473 6.54785V7.92122C2.86455 8.06933 2.63229 8.2814 2.45052 8.55742C2.26875 8.83344 2.17787 9.09263 2.17787 9.33499V12.8896ZM3.47045 10.6074V9.75912C3.47045 9.50329 3.54114 9.30469 3.68251 9.16332C3.82389 9.02194 4.02249 8.95125 4.27831 8.95125H12.1954C12.4512 8.95125 12.6498 9.02194 12.7912 9.16332C12.9326 9.30469 13.0033 9.50329 13.0033 9.75912V10.6074H3.47045ZM4.15713 7.94142V6.16412H7.73194V7.94142H4.15713ZM8.74177 7.94142V6.16412H12.3166V7.94142H8.74177ZM1.37 16.9693C1.04685 16.9693 0.764102 16.8481 0.521742 16.6058C0.279383 16.3634 0.158203 16.0807 0.158203 15.7575V2.02381C0.158203 1.70066 0.279383 1.41791 0.521742 1.17555C0.764102 0.933192 1.04685 0.812012 1.37 0.812012H15.1037C15.4269 0.812012 15.7096 0.933192 15.952 1.17555C16.1943 1.41791 16.3155 1.70066 16.3155 2.02381V15.7575C16.3155 16.0807 16.1943 16.3634 15.952 16.6058C15.7096 16.8481 15.4269 16.9693 15.1037 16.9693H1.37ZM1.37 15.7575H15.1037V2.02381H1.37V15.7575Z" fill="#B987E1"/>
</svg>
