<svg width="20" height="20" viewBox="0 0 20 20" stroke="currentColor" fill="none" xmlns="http://www.w3.org/2000/svg">
<path d="M17.6402 5.5375L14.4902 8.5L17.4902 16.75L15.2402 19L10.759 12.4375L8.49023 14.5V16.75L6.24023 19L4.90898 15.0719L0.990234 13.75L3.24023 11.5H5.49023L7.74023 9.25L0.990234 4.75L3.24023 2.5L11.4902 5.5L14.4621 2.35937L14.3965 2.40625C14.8192 1.98356 15.3925 1.74609 15.9902 1.74609C16.588 1.74609 17.1613 1.98356 17.584 2.40625C18.0067 2.82894 18.2441 3.40222 18.2441 4C18.2441 4.59777 18.0067 5.17106 17.584 5.59375L17.6402 5.5375Z" stroke-width="1.8" stroke-linecap="round" stroke-linejoin="round"/>
</svg>
