<svg width="17" height="14" viewBox="0 0 17 14" fill="none" xmlns="http://www.w3.org/2000/svg">
<path d="M1.69715 13.3536C1.34707 13.3536 1.05759 13.2391 0.828694 13.0102C0.599799 12.7813 0.485352 12.4919 0.485352 12.1418V9.05169C0.983535 8.94398 1.39757 8.69152 1.72744 8.29432C2.05732 7.89712 2.22226 7.42923 2.22226 6.89066C2.22226 6.35208 2.05732 5.88082 1.72744 5.47689C1.39757 5.07296 0.983535 4.82387 0.485352 4.72962V1.63953C0.485352 1.28946 0.599799 0.999972 0.828694 0.771077C1.05759 0.542182 1.34707 0.427734 1.69715 0.427734H15.4309C15.7809 0.427734 16.0704 0.542182 16.2993 0.771077C16.5282 0.999972 16.6427 1.28946 16.6427 1.63953V12.1418C16.6427 12.4919 16.5282 12.7813 16.2993 13.0102C16.0704 13.2391 15.7809 13.3536 15.4309 13.3536H1.69715ZM1.69715 12.1418H15.4309V1.63953H1.69715V3.84096C2.22226 4.19104 2.64302 4.62863 2.95944 5.15375C3.27585 5.67886 3.43406 6.25783 3.43406 6.89066C3.43406 7.52348 3.27585 8.10245 2.95944 8.62756C2.64302 9.15268 2.22226 9.59027 1.69715 9.94035V12.1418ZM5.89805 10.0211L13.3304 7.98127C13.5593 7.91395 13.7276 7.80624 13.8353 7.65813C13.943 7.51002 13.9632 7.32152 13.8959 7.09262C13.8286 6.86373 13.7074 6.70552 13.5324 6.618C13.3573 6.53048 13.1621 6.51365 12.9467 6.56751L10.8664 7.11282L7.51378 3.84096L6.46355 4.08332L8.54381 7.73891L6.30198 8.36501L5.25176 7.49655L4.66605 7.69852L5.89805 10.0211Z" fill="#69ACD0"/>
</svg>
