<svg width="45" height="35" viewBox="0 0 45 35" fill="currentColor" xmlns="http://www.w3.org/2000/svg">
<path d="M26.0572 7.18359C19.7804 7.18359 14.6738 12.2901 14.6738 18.567C14.6738 24.8439 19.7804 29.9504 26.0572 29.9504C32.334 29.9504 37.4406 24.8439 37.4406 18.567C37.4406 12.2901 32.334 7.18359 26.0572 7.18359ZM26.0572 28.1717C20.7611 28.1717 16.4525 23.863 16.4525 18.567C16.4525 13.271 20.7611 8.96225 26.0572 8.96225C31.3533 8.96225 35.662 13.271 35.662 18.567C35.662 23.863 31.3533 28.1717 26.0572 28.1717Z"/>
<path d="M34.156 15.5926C33.9867 15.1315 33.4755 14.8952 33.0145 15.0646C32.5534 15.234 32.317 15.745 32.4865 16.206C32.7637 16.9605 32.9042 17.7549 32.9042 18.5673C32.9042 19.0584 33.3024 19.4566 33.7935 19.4566C34.2846 19.4566 34.6828 19.0584 34.6828 18.5673C34.6828 17.545 34.5056 16.5442 34.156 15.5926Z"/>
<path d="M31.6112 11.9643C30.0605 10.6586 28.0883 9.93945 26.0581 9.93945C21.3015 9.93945 17.4316 13.8093 17.4316 18.5659C17.4316 19.0571 17.8299 19.4553 18.321 19.4553C18.8121 19.4553 19.2103 19.0571 19.2103 18.5659C19.2103 14.79 22.2822 11.7181 26.0581 11.7181C27.6698 11.7181 29.2351 12.2888 30.4657 13.3249C30.8413 13.6413 31.4024 13.5933 31.7188 13.2174C32.0351 12.8416 31.9869 12.2806 31.6112 11.9643Z"/>
<path d="M7.55992 8.16211H4.00261C3.51152 8.16211 3.11328 8.56026 3.11328 9.05144C3.11328 9.54261 3.51152 9.94077 4.00261 9.94077H7.55992C8.05101 9.94077 8.44925 9.54261 8.44925 9.05144C8.44925 8.56026 8.05101 8.16211 7.55992 8.16211Z" />
<path d="M7.55992 11.1855H4.00261C3.51152 11.1855 3.11328 11.5837 3.11328 12.0749C3.11328 12.5661 3.51152 12.9642 4.00261 12.9642H7.55992C8.05101 12.9642 8.44925 12.5661 8.44925 12.0749C8.44925 11.5837 8.05101 11.1855 7.55992 11.1855Z"/>
<path d="M10.9395 9.94077C11.4305 9.94077 11.8288 9.54261 11.8288 9.05144C11.8288 8.56026 11.4305 8.16211 10.9395 8.16211H10.4948C10.0037 8.16211 9.60547 8.56026 9.60547 9.05144C9.60547 9.54261 10.0037 9.94077 10.4948 9.94077H10.9395Z" />
<path d="M44.1107 4.87112H33.4439C31.2449 3.6804 28.7287 3.00353 26.0573 3.00353C23.3859 3.00353 20.8697 3.6804 18.6707 4.87112H12.6285V1.75847C12.6285 1.26729 12.2302 0.869141 11.7391 0.869141H3.20158C2.71049 0.869141 2.31225 1.26729 2.31225 1.75847V4.87112H0.889328C0.398241 4.87112 0 5.26927 0 5.76045V31.3731C0 31.8643 0.398241 32.2624 0.889328 32.2624H18.6707C20.8697 33.4531 23.3859 34.13 26.0573 34.13C28.7287 34.13 31.2449 33.4531 33.4439 32.2624H44.1107C44.6018 32.2624 45 31.8643 45 31.3731V5.76045C45 5.26927 44.6018 4.87112 44.1107 4.87112ZM4.09091 2.6478H10.8498V4.78218H4.09091V2.6478ZM1.77866 30.4838V6.64977H16.0594C12.6593 9.50692 10.4941 13.7885 10.4941 18.5668C10.4941 23.345 12.6593 27.6266 16.0594 30.4838H1.77866ZM32.9786 30.4838C32.3963 30.8233 31.7865 31.1206 31.1543 31.3731C30.0395 31.8183 28.8536 32.1225 27.6184 32.2624C27.1058 32.3205 26.5851 32.3514 26.0573 32.3514C25.5295 32.3514 25.0087 32.3205 24.4962 32.2624C23.2611 32.1225 22.0753 31.8183 20.9603 31.3731C20.3281 31.1206 19.7184 30.8233 19.136 30.4838C15.0351 28.0927 12.2727 23.6465 12.2727 18.5668C12.2727 13.487 15.0351 9.04082 19.136 6.64977C19.7184 6.31023 20.328 6.01293 20.9603 5.76045C22.0752 5.31525 23.261 5.01101 24.4962 4.87112C25.0088 4.81304 25.5295 4.78218 26.0573 4.78218C26.5851 4.78218 27.1059 4.81304 27.6184 4.87112C28.8535 5.01101 30.0394 5.31525 31.1543 5.76045C31.7865 6.01293 32.3963 6.31023 32.9786 6.64977C37.0796 9.04082 39.8419 13.487 39.8419 18.5668C39.8419 23.6465 37.0796 28.0927 32.9786 30.4838ZM43.2213 30.4838H36.0552C39.4553 27.6266 41.6206 23.345 41.6206 18.5668C41.6206 13.7885 39.4553 9.50692 36.0552 6.64977H43.2213V30.4838Z" />
<path d="M22.3216 18.8327C22.3216 18.3415 21.9234 17.9434 21.4323 17.9434C20.9412 17.9434 20.543 18.3415 20.543 18.8327C20.543 19.6476 20.7168 20.4324 21.0597 21.1656C21.2108 21.4887 21.5313 21.6784 21.8658 21.6784C21.9919 21.6784 22.1201 21.6515 22.2419 21.5945C22.6869 21.3865 22.8789 20.8571 22.6708 20.4122C22.4391 19.9166 22.3216 19.3852 22.3216 18.8327Z"/>
<path d="M30.6814 17.9434C30.1903 17.9434 29.792 18.3415 29.792 18.8327C29.792 20.8923 28.1164 22.5679 26.0568 22.5679C25.5043 22.5679 24.9729 22.4504 24.4771 22.2186C24.0319 22.0105 23.5028 22.2027 23.2949 22.6476C23.0868 23.0925 23.2788 23.6218 23.7238 23.8298C24.457 24.1727 25.242 24.3465 26.0568 24.3465C29.0971 24.3465 31.5706 21.873 31.5706 18.8327C31.5707 18.3415 31.1724 17.9434 30.6814 17.9434Z" />
</svg>
