<svg width="12" height="17" viewBox="0 0 12 17" fill="none" xmlns="http://www.w3.org/2000/svg">
<path d="M2.68012 4.89198C1.99343 4.89198 1.41446 4.65635 0.94321 4.1851C0.471955 3.71384 0.236328 3.13487 0.236328 2.44819C0.236328 1.7615 0.471955 1.18253 0.94321 0.711276C1.41446 0.240022 1.99343 0.00439453 2.68012 0.00439453C3.24563 0.00439453 3.74381 0.186164 4.17467 0.549703C4.60553 0.913243 4.90175 1.37103 5.06332 1.92307H11.5464V3.13487H10.7386V4.89198H9.52678V3.13487H5.06332C4.91521 3.65998 4.619 4.08411 4.17467 4.40726C3.73034 4.7304 3.23216 4.89198 2.68012 4.89198ZM2.68012 3.68018C3.03019 3.68018 3.32305 3.56237 3.55867 3.32674C3.7943 3.09111 3.91211 2.79826 3.91211 2.44819C3.91211 2.09811 3.7943 1.80526 3.55867 1.56963C3.32305 1.33401 3.03019 1.21619 2.68012 1.21619C2.33004 1.21619 2.03719 1.33401 1.80157 1.56963C1.56594 1.80526 1.44813 2.09811 1.44813 2.44819C1.44813 2.79826 1.56594 3.09111 1.80157 3.32674C2.03719 3.56237 2.33004 3.68018 2.68012 3.68018ZM2.76091 13.2736C2.93594 13.2736 3.08069 13.2164 3.19513 13.1019C3.30958 12.9875 3.36681 12.8427 3.36681 12.6677C3.36681 12.4926 3.30958 12.3479 3.19513 12.2335C3.08069 12.119 2.93594 12.0618 2.76091 12.0618C2.58587 12.0618 2.44113 12.119 2.32668 12.2335C2.21223 12.3479 2.15501 12.4926 2.15501 12.6677C2.15501 12.8427 2.21223 12.9875 2.32668 13.1019C2.44113 13.2164 2.58587 13.2736 2.76091 13.2736ZM9.02186 13.2736C9.1969 13.2736 9.34164 13.2164 9.45609 13.1019C9.57054 12.9875 9.62776 12.8427 9.62776 12.6677C9.62776 12.4926 9.57054 12.3479 9.45609 12.2335C9.34164 12.119 9.1969 12.0618 9.02186 12.0618C8.84682 12.0618 8.70208 12.119 8.58763 12.2335C8.47319 12.3479 8.41596 12.4926 8.41596 12.6677C8.41596 12.8427 8.47319 12.9875 8.58763 13.1019C8.70208 13.2164 8.84682 13.2736 9.02186 13.2736ZM0.236328 10.9914L1.56931 7.11361C1.63663 6.92511 1.74771 6.77026 1.90255 6.64908C2.05739 6.5279 2.22906 6.46731 2.41756 6.46731H9.3652C9.55371 6.46731 9.72538 6.5279 9.88022 6.64908C10.0351 6.77026 10.1461 6.92511 10.2135 7.11361L11.5464 10.9914V16.4848C11.5464 16.6195 11.5027 16.7339 11.4152 16.8282C11.3276 16.9224 11.2098 16.9696 11.0617 16.9696H10.8194C10.6847 16.9696 10.5703 16.9224 10.476 16.8282C10.3818 16.7339 10.3346 16.6195 10.3346 16.4848V15.1923H1.44813V16.4848C1.44813 16.6195 1.40437 16.7339 1.31685 16.8282C1.22933 16.9224 1.11152 16.9696 0.963407 16.9696H0.721047C0.586403 16.9696 0.471956 16.9224 0.377705 16.8282C0.283454 16.7339 0.236328 16.6195 0.236328 16.4848V10.9914ZM1.79147 10.1431H10.0115L9.18343 7.67911H2.59933L1.79147 10.1431ZM1.44813 13.9805H10.3346V11.3549H1.44813V13.9805Z" fill="#DE847F"/>
</svg>
