<svg width="15" height="15" viewBox="0 0 15 15" stroke="currentColor" fill="none" xmlns="http://www.w3.org/2000/svg">
<g clip-path="url(#clip0_7593_22412)">
<path d="M2.66031 10.371C1.9624 9.19346 1.71827 7.80171 1.97378 6.45698C2.22928 5.11225 2.96683 3.90702 4.04798 3.06755C5.12913 2.22809 6.47951 1.81211 7.84562 1.89773C9.21172 1.98334 10.4996 2.56465 11.4675 3.53253C12.4354 4.50041 13.0167 5.7883 13.1023 7.1544C13.1879 8.52051 12.7719 9.8709 11.9325 10.952C11.093 12.0332 9.88777 12.7707 8.54304 13.0262C7.19831 13.2817 5.80656 13.0376 4.62906 12.3397V12.3397L2.68375 12.8905C2.60405 12.9138 2.51955 12.9152 2.4391 12.8947C2.35865 12.8741 2.28522 12.8322 2.2265 12.7735C2.16778 12.7148 2.12594 12.6414 2.10536 12.5609C2.08478 12.4805 2.08622 12.396 2.10953 12.3163L2.66031 10.371Z" stroke-width="1.2" stroke-linecap="round" stroke-linejoin="round"/>
<path d="M5.625 6.5625H9.375" stroke-width="1.2" stroke-linecap="round" stroke-linejoin="round"/>
<path d="M5.625 8.4375H9.375" stroke-width="1.2" stroke-linecap="round" stroke-linejoin="round"/>
</g>
<defs>
<clipPath id="clip0_7593_22412">
<rect width="15" height="15" fill="white"/>
</clipPath>
</defs>
</svg>
