<svg xmlns="http://www.w3.org/2000/svg" width="24" height="24" viewBox="381 186 24 24"><g data-name="comment-alt"><path d="M401 186h-16a4 4 0 0 0-4 4v12a4 4 0 0 0 4 4h2.9l4.451 3.763a1 1 0 0 0 1.292 0L398.1 206h2.9a4 4 0 0 0 4-4v-12a4 4 0 0 0-4-4Zm2 16a2 2 0 0 1-2 2h-2.9a2 2 0 0 0-1.291.473L393 207.69l-3.807-3.217A2 2 0 0 0 387.9 204H385a2 2 0 0 1-2-2v-12a2 2 0 0 1 2-2h16a2 2 0 0 1 2 2v12Z" fill="#3b44ad" fill-rule="evenodd" data-name="Path 253"/><path d="M388 193h5a1 1 0 1 0 0-2h-5a1 1 0 0 0 0 2Z" fill="#3b44ad" fill-rule="evenodd" data-name="Path 254"/><path d="M398 195h-10a1 1 0 0 0 0 2h10a1 1 0 0 0 0-2Z" fill="#3b44ad" fill-rule="evenodd" data-name="Path 255"/><path d="M398 199h-10a1 1 0 0 0 0 2h10a1 1 0 0 0 0-2Z" fill="#3b44ad" fill-rule="evenodd" data-name="Path 256"/></g></svg>