<svg width="22" height="22" viewBox="0 0 22 22" fill="none" xmlns="http://www.w3.org/2000/svg">
<g clip-path="url(#clip0_7197_21968)">
<mask id="mask0_7197_21968" style="mask-type:alpha" maskUnits="userSpaceOnUse" x="0" y="0" width="48" height="48">
<rect width="48" height="48" fill="#D9D9D9"/>
</mask>
<g mask="url(#mask0_7197_21968)">
<path d="M12.009 15.9955L15.2173 12.7872C15.3854 12.6191 15.5076 12.432 15.584 12.2257C15.6604 12.0195 15.6986 11.8018 15.6986 11.5726C15.6986 11.0837 15.5267 10.6674 15.1829 10.3236C14.8392 9.97988 14.4229 9.80801 13.934 9.80801C13.6284 9.80801 13.3229 9.90731 13.0173 10.1059C12.7118 10.3045 12.3757 10.6254 12.009 11.0684C11.6423 10.6254 11.3062 10.3045 11.0007 10.1059C10.6951 9.90731 10.3895 9.80801 10.084 9.80801C9.59509 9.80801 9.17877 9.97988 8.83503 10.3236C8.49128 10.6674 8.3194 11.0837 8.3194 11.5726C8.3194 11.8018 8.35759 12.0195 8.43398 12.2257C8.51037 12.432 8.6326 12.6191 8.80065 12.7872L12.009 15.9955ZM12.8111 19.7768C12.5361 20.0518 12.2038 20.1893 11.8142 20.1893C11.4246 20.1893 11.0923 20.0518 10.8173 19.7768L2.22357 11.183C2.07079 11.0302 1.96767 10.8698 1.91419 10.7018C1.86072 10.5337 1.83398 10.358 1.83398 10.1747V3.20801C1.83398 2.81079 1.96385 2.48231 2.22357 2.22259C2.48329 1.96287 2.81176 1.83301 3.20898 1.83301H10.1757C10.359 1.83301 10.5423 1.85974 10.7256 1.91322C10.909 1.96669 11.077 2.06981 11.2298 2.22259L19.7777 10.7705C20.068 11.0608 20.2131 11.4007 20.2131 11.7903C20.2131 12.1799 20.068 12.5198 19.7777 12.8101L12.8111 19.7768ZM11.8715 18.8372L18.8381 11.8705L10.1757 3.20801H3.20898V10.1747L11.8715 18.8372ZM5.61523 6.78301C5.93607 6.78301 6.21489 6.6646 6.45169 6.4278C6.6885 6.19099 6.8069 5.91217 6.8069 5.59134C6.8069 5.27051 6.6885 4.99169 6.45169 4.75488C6.21489 4.51808 5.93607 4.39967 5.61523 4.39967C5.2944 4.39967 5.01558 4.51808 4.77878 4.75488C4.54197 4.99169 4.42357 5.27051 4.42357 5.59134C4.42357 5.91217 4.54197 6.19099 4.77878 6.4278C5.01558 6.6646 5.2944 6.78301 5.61523 6.78301Z" fill="#0E123D"/>
</g>
</g>
<defs>
<clipPath id="clip0_7197_21968">
<rect width="22" height="22" fill="white"/>
</clipPath>
</defs>
</svg>
