<svg width="10" height="14" viewBox="0 0 10 14" fill="none" xmlns="http://www.w3.org/2000/svg">
<path d="M5.02265 0.650391C2.5525 0.650391 0.554688 2.63769 0.554688 5.09484C0.554688 6.1996 0.873827 7.23452 1.45466 8.16785C2.06103 9.14563 2.85888 9.98372 3.47163 10.9615C3.77162 11.4377 3.98863 11.8821 4.21841 12.3964C4.38437 12.7456 4.51841 13.3488 5.02265 13.3488C5.52689 13.3488 5.66093 12.7456 5.8205 12.3964C6.05666 11.8821 6.26729 11.4377 6.56729 10.9615C7.18003 9.99007 7.97788 9.15198 8.58425 8.16785C9.17147 7.23452 9.49061 6.1996 9.49061 5.09484C9.49061 2.63769 7.49279 0.650391 5.02265 0.650391ZM5.02265 6.84087C4.14182 6.84087 3.42695 6.12976 3.42695 5.25357C3.42695 4.37738 4.14182 3.66626 5.02265 3.66626C5.90347 3.66626 6.61835 4.37738 6.61835 5.25357C6.61835 6.12976 5.90347 6.84087 5.02265 6.84087Z" fill="white"/>
</svg>
