<svg width="24" height="50" viewBox="0 0 24 50" fill="currentColor" xmlns="http://www.w3.org/2000/svg">
<path d="M11.9989 0C9.63906 0 7.37002 0.707715 5.43682 2.04678C3.54912 3.3543 2.10674 5.17012 1.26563 7.29805C0.808594 8.4543 0.954884 9.76113 1.65713 10.7937C2.3666 11.8371 3.54228 12.46 4.80225 12.46H4.91182C6.38086 12.46 7.72588 11.5739 8.33838 10.2027C9.01309 8.69228 10.5188 7.77539 12.1741 7.86973C14.1786 7.98242 15.8107 9.64365 15.8896 11.6515C15.9323 12.7381 15.5422 13.7667 14.791 14.5479C14.0394 15.3298 13.0284 15.7603 11.9443 15.7603C5.6124 15.7603 0.460938 20.9117 0.460938 27.2437V46.2567C0.460938 48.3208 2.14014 50 4.2042 50H19.794C21.8581 50 23.5373 48.3208 23.5373 46.2567V11.5381C23.537 5.17598 18.361 0 11.9989 0ZM21.5839 46.2567C21.5839 47.2438 20.7809 48.0469 19.7937 48.0469H4.2042C3.21709 48.0469 2.41406 47.2438 2.41406 46.2567V27.2437C2.41406 21.9886 6.68935 17.7134 11.9443 17.7134C13.5646 17.7134 15.0757 17.0699 16.1989 15.9017C17.3218 14.7338 17.9051 13.1972 17.8413 11.5747C17.7233 8.57236 15.2821 6.08828 12.2839 5.91963C12.1686 5.91318 12.0542 5.90996 11.94 5.90996C9.60547 5.90996 7.51641 7.2543 6.55508 9.40596C6.25635 10.0747 5.61133 10.5067 4.91172 10.5067H4.80215C4.18037 10.5067 3.62275 10.211 3.27217 9.69541C2.92891 9.19063 2.85957 8.57842 3.08203 8.01592C4.53789 4.33291 8.03799 1.95312 11.9989 1.95312C17.2841 1.95312 21.5839 6.25293 21.5839 11.5381V46.2567Z"/>
<path d="M17.8547 42.793H16.1035C15.5642 42.793 15.127 43.2303 15.127 43.7695C15.127 44.3088 15.5642 44.7461 16.1035 44.7461H17.8547C18.394 44.7461 18.8313 44.3088 18.8313 43.7695C18.8313 43.2303 18.3939 42.793 17.8547 42.793Z" />
<path d="M11.8358 42.793H6.03516C5.4958 42.793 5.05859 43.2303 5.05859 43.7695C5.05859 44.3088 5.4958 44.7461 6.03516 44.7461H11.8357C12.3751 44.7461 12.8123 44.3088 12.8123 43.7695C12.8122 43.2303 12.3752 42.793 11.8358 42.793Z"/>
<path d="M17.8547 34.5664C18.394 34.5664 18.8313 34.1291 18.8313 33.5898C18.8313 33.0506 18.394 32.6133 17.8547 32.6133H16.1035C15.5642 32.6133 15.127 33.0506 15.127 33.5898C15.127 34.1291 15.5642 34.5664 16.1035 34.5664H17.8547Z"/>
<path d="M6.0332 34.5664H11.8338C12.3731 34.5664 12.8104 34.1291 12.8104 33.5898C12.8104 33.0506 12.3731 32.6133 11.8338 32.6133H6.0332C5.49385 32.6133 5.05664 33.0506 5.05664 33.5898C5.05664 34.1291 5.49395 34.5664 6.0332 34.5664Z" />
<path d="M17.9629 27.9102H6.0332C5.49385 27.9102 5.05664 28.3475 5.05664 28.8867C5.05664 29.426 5.49385 29.8633 6.0332 29.8633H17.9629C18.5022 29.8633 18.9395 29.426 18.9395 28.8867C18.9395 28.3475 18.5023 27.9102 17.9629 27.9102Z" />
<path d="M17.9629 37.6484H6.0332C5.49385 37.6484 5.05664 38.0857 5.05664 38.625C5.05664 39.1643 5.49385 39.6016 6.0332 39.6016H17.9629C18.5022 39.6016 18.9395 39.1643 18.9395 38.625C18.9395 38.0857 18.5023 37.6484 17.9629 37.6484Z" />
</svg>
