<svg width="20" height="20" viewBox="0 0 20 20" fill="currentColor" xmlns="http://www.w3.org/2000/svg">
<g clip-path="url(#clip0_9270_26049)">
<mask id="mask0_9270_26049" style="mask-type:alpha" maskUnits="userSpaceOnUse" x="0" y="0" width="20" height="20">
<rect width="20" height="20" fill="currentColor"/>
</mask>
<g mask="url(#mask0_9270_26049)">
<path d="M11.6667 12.5001C11.9028 12.5001 12.1078 12.4134 12.2817 12.2401C12.455 12.0662 12.5417 11.8612 12.5417 11.6251C12.5417 11.389 12.455 11.184 12.2817 11.0101C12.1078 10.8367 11.9028 10.7501 11.6667 10.7501C11.4305 10.7501 11.2258 10.8367 11.0525 11.0101C10.8786 11.184 10.7917 11.389 10.7917 11.6251C10.7917 11.8612 10.8786 12.0662 11.0525 12.2401C11.2258 12.4134 11.4305 12.5001 11.6667 12.5001ZM11.0417 9.83342H12.2917C12.2917 9.43064 12.3333 9.13536 12.4167 8.94758C12.5 8.76036 12.6944 8.51397 13 8.20842C13.4167 7.79175 13.6944 7.4548 13.8333 7.19758C13.9722 6.94091 14.0417 6.63897 14.0417 6.29175C14.0417 5.66675 13.8228 5.15647 13.385 4.76091C12.9478 4.3648 12.375 4.16675 11.6667 4.16675C11.0972 4.16675 10.6008 4.32647 10.1775 4.64591C9.7536 4.96536 9.45832 5.38897 9.29166 5.91675L10.4167 6.37508C10.5417 6.02786 10.7119 5.7673 10.9275 5.59341C11.1425 5.42008 11.3889 5.33341 11.6667 5.33341C12 5.33341 12.2708 5.42703 12.4792 5.61425C12.6875 5.80203 12.7917 6.05564 12.7917 6.37508C12.7917 6.56953 12.7361 6.75341 12.625 6.92675C12.5139 7.10064 12.3194 7.31953 12.0417 7.58342C11.5833 7.98619 11.3022 8.30203 11.1983 8.53091C11.0939 8.76036 11.0417 9.19453 11.0417 9.83342ZM6.66666 15.0001C6.20832 15.0001 5.8161 14.837 5.48999 14.5109C5.16332 14.1842 4.99999 13.7917 4.99999 13.3334V3.33341C4.99999 2.87508 5.16332 2.48258 5.48999 2.15591C5.8161 1.8298 6.20832 1.66675 6.66666 1.66675H16.6667C17.125 1.66675 17.5175 1.8298 17.8442 2.15591C18.1703 2.48258 18.3333 2.87508 18.3333 3.33341V13.3334C18.3333 13.7917 18.1703 14.1842 17.8442 14.5109C17.5175 14.837 17.125 15.0001 16.6667 15.0001H6.66666ZM3.33332 18.3334C2.87499 18.3334 2.48277 18.1704 2.15666 17.8442C1.82999 17.5176 1.66666 17.1251 1.66666 16.6667V5.00008H3.33332V16.6667H15V18.3334H3.33332Z" fill="currentColor"/>
</g>
</g>
<defs>
<clipPath id="clip0_9270_26049">
<rect width="20" height="20" fill="white"/>
</clipPath>
</defs>
</svg>
