<svg xmlns="http://www.w3.org/2000/svg" width="29" height="29" viewBox="862 181 29 29"><g data-name="Group 335"><path d="M876.5 181c8.008 0 14.5 6.492 14.5 14.5s-6.492 14.5-14.5 14.5-14.5-6.492-14.5-14.5 6.492-14.5 14.5-14.5Z" fill-rule="evenodd" data-name="Path 257"/><path d="m880.106 201.537-4.01-4.009-4.01 4.01a1.063 1.063 0 0 1-1.502-1.504l4.009-4.01-4.01-4.008a1.063 1.063 0 0 1 1.504-1.504l4.01 4.01 4.009-4.01a1.063 1.063 0 0 1 1.503 1.504l-4.01 4.009 4.01 4.01a1.063 1.063 0 0 1-1.503 1.502Z" fill="#fff" fill-rule="evenodd" data-name="Mask"/></g></svg>