<svg width="20" height="20" viewBox="0 0 20 20" fill="currentColor" xmlns="http://www.w3.org/2000/svg">
<g clip-path="url(#clip0_9244_25904)">
<g clip-path="url(#clip1_9244_25904)">
<path fill-rule="evenodd" clip-rule="evenodd" d="M8.18922 5.51845L3.66971 6.95377C3.49633 7.00886 3.37859 7.18219 3.38245 7.37695C3.3862 7.57165 3.51055 7.73958 3.68598 7.78674L8.56151 9.09827C8.59341 9.10685 8.62596 9.11111 8.65857 9.11111C8.69653 9.11111 8.73449 9.10534 8.77125 9.09368L16.2999 6.71649C17.1875 6.43151 17.6944 5.42148 17.4299 4.46487C17.2192 3.7035 16.5575 3.17164 15.8207 3.17164C15.6585 3.17164 15.4969 3.19716 15.3416 3.24703L11.7857 4.37632L11.1608 4.06171L7.14695 2.04068C6.95485 1.94392 6.72608 2.0253 6.62507 2.2262L6.34698 2.77943C6.26785 2.93679 6.28708 3.13047 6.39526 3.26624L7.8631 5.10903L8.18922 5.51845ZM5.14706 5.74001L3.14295 4.71323C2.97288 4.62612 2.77131 4.66339 2.6367 4.80695C2.50215 4.95052 2.46262 5.17041 2.53738 5.35922L2.96724 6.44445L5.14706 5.74001ZM15.9102 11.2296H16.9796C17.267 11.2296 17.5001 11.4441 17.5 11.7086V17.521C17.5 17.7856 17.267 18 16.9795 18H15.9101C15.6226 18 15.3896 17.7856 15.3896 17.521V16.5605H4.69895V17.521C4.69895 17.7856 4.46591 18 4.17846 18H3.02049C2.73304 18 2.5 17.7856 2.5 17.521V9.59011C2.5 9.32551 2.73304 9.11111 3.02049 9.11111H4.17846C4.46591 9.11111 4.69895 9.32551 4.69895 9.59011V11.5061C4.7333 11.5032 4.76793 11.5012 4.80305 11.5012H7.21345C7.84484 11.5012 8.35852 11.9739 8.35852 12.555V12.8721C8.35852 12.9044 8.35637 12.9363 8.35325 12.9679H15.3897V11.7086C15.3897 11.444 15.6227 11.2296 15.9102 11.2296ZM4.69895 14.6518H15.3896V13.9259H7.21345H4.80305H4.69895V14.6518Z" fill="currentColor"/>
</g>
</g>
<defs>
<clipPath id="clip0_9244_25904">
<rect width="20" height="20" fill="white"/>
</clipPath>
<clipPath id="clip1_9244_25904">
<rect width="20" height="20" fill="white"/>
</clipPath>
</defs>
</svg>
