<svg width="29" height="20" viewBox="0 0 29 20" fill="currentColor" xmlns="http://www.w3.org/2000/svg">
<path fill-rule="evenodd" clip-rule="evenodd" d="M3.83985 11.5254L8.37357 9.98481L8.04643 9.54536L6.57397 7.56738C6.46545 7.42165 6.44616 7.21376 6.52554 7.04486L6.80451 6.45105C6.90584 6.2354 7.13532 6.14806 7.32803 6.25191L11.3545 8.42121L11.9813 8.75889L15.5484 7.54676C15.7043 7.49324 15.8664 7.46584 16.029 7.46584C16.7681 7.46584 17.4319 8.03672 17.6433 8.85394C17.9086 9.88072 17.4001 10.9648 16.5097 11.2707L8.95743 13.8223C8.92056 13.8348 8.88248 13.841 8.8444 13.841C8.81169 13.841 8.77904 13.8364 8.74704 13.8272L3.85617 12.4195C3.68019 12.3689 3.55545 12.1886 3.55168 11.9796C3.54782 11.7706 3.66592 11.5846 3.83985 11.5254ZM1.76847 9.56567L3.55159 10.5264L1.61213 11.1855L1.22967 10.1701C1.16316 9.99343 1.19832 9.78769 1.31804 9.65337C1.4378 9.51904 1.61715 9.48417 1.76847 9.56567Z" fill="currentColor"/>
<g clip-path="url(#clip0_9244_25891)">
<path d="M20.4717 8.88892H26.3208" stroke="currentColor" stroke-width="2.5" stroke-linecap="round" stroke-linejoin="round"/>
<path d="M23.3962 5.8335V11.9446" stroke="currentColor" stroke-width="2.5" stroke-linecap="round" stroke-linejoin="round"/>
</g>
<defs>
<clipPath id="clip0_9244_25891">
<rect x="19.1424" y="4.44458" width="8.50772" height="8.88889" fill="currentColor"/>
</clipPath>
</defs>
</svg>
