<svg width="38" height="50" viewBox="0 0 38 50" xmlns="http://www.w3.org/2000/svg" fill="currentColor">
<path d="M32.246 5.50811C28.694 1.95615 23.9899 0 19.0002 0H19.0001C14.0103 0 9.30625 1.95615 5.7543 5.50811C2.20234 9.06006 0.246094 13.7642 0.246094 18.7539V31.246C0.246094 33.7358 0.733008 36.1595 1.69336 38.4498C2.77314 41.0246 4.45312 43.3737 6.55195 45.2432C9.9957 48.3106 14.4166 50 19.0002 50C23.9899 50 28.694 48.0438 32.246 44.4919C35.7979 40.9399 37.7541 36.2357 37.7541 31.246V18.7539C37.7542 13.7642 35.798 9.06006 32.246 5.50811ZM3.8125 38.4048L4.38125 38.0188C8.42646 35.3362 13.1645 33.6318 18.0519 33.6318H20.0815L7.27002 43.2419C5.84453 41.8458 4.65644 40.1997 3.8125 38.4048ZM35.8011 31.246C35.8011 40.51 28.2642 48.0469 19.0001 48.0469C15.2959 48.0469 11.7098 46.814 8.77744 44.5528L23.597 33.4365C23.9331 33.1843 24.0703 32.7452 23.9373 32.3464C23.8045 31.9477 23.4312 31.6787 23.0109 31.6787H18.052C13.9022 31.6787 9.76494 32.788 6.10605 34.7277C5.06045 35.282 4.04385 35.8874 3.06289 36.5497C2.48945 34.8433 2.19941 33.0645 2.19941 31.246V18.7539C2.19922 9.48994 9.73603 1.95312 19.0002 1.95312C28.2644 1.95312 35.8011 9.48994 35.8011 18.7539V31.246Z" />
<path d="M18.8633 6.28906C20.8085 6.28906 22.6807 6.71758 24.4276 7.5625C24.5646 7.62881 24.7096 7.66016 24.8522 7.66016C25.215 7.66016 25.5635 7.45713 25.732 7.10869C25.9669 6.62314 25.7637 6.03916 25.2782 5.80439C23.2639 4.82998 21.1055 4.33594 18.8633 4.33594C18.3239 4.33594 17.8867 4.77324 17.8867 5.3125C17.8867 5.85176 18.3239 6.28906 18.8633 6.28906Z" />
<path d="M28.2597 8.9633C27.8673 9.33342 27.8492 9.95139 28.2192 10.3439C28.9926 11.1638 29.6558 12.0797 30.1904 13.0662C30.3674 13.3926 30.7031 13.5777 31.0499 13.5777C31.207 13.5777 31.3665 13.5396 31.5143 13.4595C31.9885 13.2025 32.1646 12.6098 31.9076 12.1356C31.2924 11.0004 30.5296 9.9467 29.6402 9.00373C29.2702 8.61144 28.6521 8.59338 28.2597 8.9633Z" />
<path d="M21.6021 14.4312C21.6021 12.5378 20.0956 10.9896 18.2185 10.9218C17.389 9.68711 15.981 8.91895 14.4688 8.91895C14.1154 8.91895 13.7674 8.95937 13.4282 9.03965C12.8088 8.54043 12.0219 8.26367 11.2267 8.26367C9.29023 8.26367 7.71494 9.83896 7.71494 11.7753C7.71494 11.8924 7.7208 12.0092 7.73232 12.125C6.89941 12.8204 6.4043 13.855 6.4043 14.9658C6.4043 17.0067 8.06475 18.6672 10.1057 18.6672C11.0912 18.6672 12.0288 18.2687 12.7146 17.5891C13.2657 17.8221 13.8597 17.9429 14.4688 17.9429C15.1436 17.9429 15.8007 17.7943 16.4011 17.5093C16.9156 17.7918 17.4967 17.9429 18.0904 17.9429C20.0268 17.943 21.6021 16.3676 21.6021 14.4312ZM18.0904 15.9898C17.7209 15.9898 17.3623 15.8577 17.0809 15.6179C16.7468 15.333 16.2639 15.3063 15.9003 15.5523C15.4773 15.8386 14.9824 15.9897 14.4689 15.9897C13.9459 15.9897 13.4431 15.833 13.0146 15.5363C12.791 15.3814 12.513 15.327 12.2477 15.3857C11.9821 15.4446 11.7532 15.6114 11.6158 15.8462C11.3026 16.3814 10.7241 16.7141 10.1058 16.7141C9.1418 16.7141 8.35752 15.9298 8.35752 14.9658C8.35752 14.321 8.71094 13.7305 9.27988 13.4246C9.69658 13.2007 9.89277 12.7103 9.74561 12.2605C9.69424 12.1037 9.66816 11.9404 9.66816 11.7753C9.66816 10.9159 10.3674 10.2168 11.2268 10.2168C11.6633 10.2168 12.0882 10.4083 12.3806 10.7313C12.6312 11.008 12.7853 11.3735 12.7853 11.7753C12.7853 12.3145 13.2225 12.7519 13.7618 12.7519C14.3012 12.7519 14.7384 12.3145 14.7384 11.7753C14.7384 11.465 14.6975 11.1644 14.6217 10.8776C15.5499 10.9338 16.3888 11.4971 16.787 12.346C16.9729 12.7421 17.3994 12.9663 17.8313 12.8945C17.9189 12.88 18.0062 12.8726 18.0905 12.8726C18.9499 12.8726 19.6491 13.5717 19.6491 14.4312C19.6491 15.2906 18.9497 15.9898 18.0904 15.9898Z" />
<path d="M28.2058 26.9081L28.2059 26.9082C28.1922 26.8846 28.182 26.8673 28.1797 26.8633C28.1815 26.8666 28.1893 26.88 28.2058 26.9081Z"/>
<path d="M28.1808 26.8653C28.1793 26.8626 28.1793 26.8626 28.1808 26.8653V26.8653Z"/>
<path d="M28.5962 19.3262C27.8011 19.3262 27.0138 19.6028 26.3945 20.1021C26.0554 20.0219 25.7074 19.9814 25.354 19.9814C23.842 19.9814 22.4339 20.7496 21.6044 21.9843C19.7271 22.052 18.2207 23.6003 18.2207 25.4938C18.2207 27.4301 19.7961 29.0055 21.7324 29.0055C22.3262 29.0055 22.9072 28.8543 23.4218 28.5719C24.0222 28.8569 24.6794 29.0055 25.354 29.0055C25.9632 29.0055 26.557 28.8847 27.1082 28.6517C27.7939 29.3313 28.7316 29.7298 29.7172 29.7298C31.7581 29.7298 33.4186 28.0693 33.4186 26.0284C33.4186 24.9176 32.9234 23.8829 32.0904 23.1876C32.102 23.0716 32.1078 22.955 32.1078 22.8379C32.1078 20.9015 30.5325 19.3262 28.5962 19.3262ZM29.7171 27.7768C29.0989 27.7767 28.5202 27.4441 28.2071 26.9089C28.2397 26.9646 28.2926 27.0549 28.3123 27.0888C28.2989 27.0659 28.2671 27.0115 28.207 26.9088C28.0697 26.674 27.8407 26.5072 27.5752 26.4483C27.5053 26.4329 27.4346 26.4253 27.3641 26.4253C27.167 26.4253 26.9728 26.4849 26.8082 26.5989C26.3798 26.8955 25.877 27.0523 25.3539 27.0523C24.8404 27.0523 24.3455 26.9011 23.9225 26.6149C23.5589 26.3688 23.076 26.3959 22.7418 26.6805C22.4604 26.9203 22.1019 27.0524 21.7323 27.0524C20.8729 27.0524 20.1737 26.3533 20.1737 25.4938C20.1737 24.6344 20.8729 23.9353 21.7323 23.9353C21.8166 23.9353 21.9039 23.9427 21.9916 23.9572C22.4236 24.0287 22.8499 23.8048 23.0358 23.4087C23.4341 22.5597 24.2729 21.9966 25.2011 21.9403C25.1252 22.2271 25.0844 22.5277 25.0844 22.838C25.0844 23.3772 25.5217 23.8146 26.0609 23.8146C26.6002 23.8146 27.0375 23.3772 27.0375 22.838C27.0375 22.4368 27.1911 22.0718 27.441 21.7953C27.7336 21.4715 28.1589 21.2795 28.5961 21.2795C29.4555 21.2795 30.1546 21.9786 30.1546 22.838C30.1546 23.0031 30.1285 23.1664 30.0771 23.3232C29.93 23.7729 30.1262 24.2634 30.543 24.4874C31.1119 24.7932 31.4653 25.3838 31.4653 26.0285C31.4653 26.9925 30.6811 27.7768 29.7171 27.7768ZM28.3155 27.0943C28.321 27.1038 28.3218 27.1051 28.3155 27.0943V27.0943Z" />
<path d="M20.5186 42.9512H14.9902C14.4509 42.9512 14.0137 43.3885 14.0137 43.9277C14.0137 44.467 14.4509 44.9043 14.9902 44.9043H20.5186C21.0578 44.9043 21.4951 44.467 21.4951 43.9277C21.4951 43.3885 21.0578 42.9512 20.5186 42.9512Z"/>
<path d="M25.6123 42.7344H24.6367C24.0975 42.7344 23.6602 43.1717 23.6602 43.7109C23.6602 44.2502 24.0975 44.6875 24.6367 44.6875H25.6123C26.1516 44.6875 26.5889 44.2502 26.5889 43.7109C26.5889 43.1717 26.1516 42.7344 25.6123 42.7344Z"/>
<path d="M27.3467 37.0977H21.8184C21.2791 37.0977 20.8418 37.535 20.8418 38.0742C20.8418 38.6135 21.2791 39.0508 21.8184 39.0508H27.3467C27.8859 39.0508 28.3232 38.6135 28.3232 38.0742C28.3231 37.535 27.886 37.0977 27.3467 37.0977Z"/>
</svg>
