<svg width="28" height="28" viewBox="0 0 28 28" fill="none" xmlns="http://www.w3.org/2000/svg">
<g clip-path="url(#clip0_204_24198)">
<path d="M14 0C11.2311 0 8.52431 0.821086 6.22202 2.35943C3.91973 3.89777 2.12532 6.08427 1.06569 8.64243C0.006066 11.2006 -0.271181 14.0155 0.269012 16.7313C0.809205 19.447 2.14258 21.9416 4.10051 23.8995C6.05845 25.8574 8.55301 27.1908 11.2687 27.731C13.9845 28.2712 16.7994 27.9939 19.3576 26.9343C21.9157 25.8747 24.1022 24.0803 25.6406 21.778C27.1789 19.4757 28 16.7689 28 14C27.996 10.2882 26.5197 6.72958 23.8951 4.10494C21.2704 1.4803 17.7118 0.0040146 14 0ZM25.6667 14C25.6681 16.2863 24.9935 18.522 23.7277 20.426L22.337 19.0342C22.228 18.9248 22.1667 18.7767 22.1667 18.6223V17.5C22.1667 16.5717 21.7979 15.6815 21.1415 15.0251C20.4852 14.3687 19.5949 14 18.6667 14H15.1667C14.8573 14 14.5605 13.8771 14.3417 13.6583C14.1229 13.4395 14 13.1428 14 12.8333V12.25C14 12.0953 14.0615 11.9469 14.1709 11.8375C14.2803 11.7281 14.4286 11.6667 14.5833 11.6667C15.3569 11.6667 16.0988 11.3594 16.6457 10.8124C17.1927 10.2654 17.5 9.52355 17.5 8.75V7.58333C17.5 7.42862 17.5615 7.28025 17.6709 7.17085C17.7803 7.06146 17.9286 7 18.0833 7H19.6922C20.465 6.9978 21.2057 6.69094 21.7537 6.146L22.1935 5.70617C23.2939 6.78892 24.1677 8.07992 24.764 9.50387C25.3603 10.9278 25.6672 12.4562 25.6667 14ZM2.39051 15.1235L6.07484 18.8078C6.39906 19.1341 6.78485 19.3928 7.20983 19.5689C7.63481 19.7449 8.09051 19.8348 8.55051 19.8333H11.6667C11.9761 19.8333 12.2728 19.9563 12.4916 20.175C12.7104 20.3938 12.8333 20.6906 12.8333 21V25.6072C10.1502 25.3333 7.64447 24.1397 5.74109 22.2289C3.83771 20.3181 2.65392 17.8077 2.39051 15.1235ZM15.1667 25.6072V21C15.1667 20.0717 14.7979 19.1815 14.1415 18.5251C13.4852 17.8687 12.5949 17.5 11.6667 17.5H8.55051C8.39711 17.5001 8.2452 17.47 8.10347 17.4113C7.96173 17.3527 7.83295 17.2666 7.72451 17.1582L2.52351 11.9572C2.85738 10.0592 3.6572 8.27388 4.85121 6.76128C6.04522 5.24868 7.59607 4.05616 9.3646 3.29072C11.1331 2.52527 13.064 2.21085 14.984 2.37566C16.9041 2.54047 18.7531 3.17936 20.3653 4.235L20.104 4.49633C19.9942 4.60463 19.8464 4.66576 19.6922 4.66667H18.0833C17.3098 4.66667 16.5679 4.97396 16.0209 5.52094C15.474 6.06792 15.1667 6.80979 15.1667 7.58333V8.75C15.1667 8.90471 15.1052 9.05308 14.9958 9.16248C14.8864 9.27188 14.738 9.33333 14.5833 9.33333C13.8098 9.33333 13.0679 9.64062 12.5209 10.1876C11.974 10.7346 11.6667 11.4765 11.6667 12.25V12.8333C11.6667 13.7616 12.0354 14.6518 12.6918 15.3082C13.3482 15.9646 14.2384 16.3333 15.1667 16.3333H18.6667C18.9761 16.3333 19.2728 16.4563 19.4916 16.675C19.7104 16.8938 19.8333 17.1906 19.8333 17.5V18.6223C19.8355 19.3951 20.1424 20.1359 20.6873 20.6838L22.2472 22.2437C20.3472 24.1502 17.8449 25.3389 15.1667 25.6072Z" fill="white"/>
</g>
<defs>
<clipPath id="clip0_204_24198">
<rect width="28" height="28" fill="white"/>
</clipPath>
</defs>
</svg>
