<svg width="44" height="50" viewBox="0 0 44 50" fill="currentColor" xmlns="http://www.w3.org/2000/svg">
<path d="M5.17043 33.2196C4.80235 33.6139 4.82355 34.2318 5.2177 34.6C5.40599 34.7757 5.64526 34.8628 5.88403 34.8628C6.14518 34.8628 6.40573 34.7587 6.59803 34.5527L6.66189 34.4843C10.1341 37.6303 14.5833 39.4375 19.2884 39.5941C19.5116 39.6015 19.7337 39.6052 19.956 39.6052C24.6987 39.605 29.2561 37.9215 32.8529 34.8262C33.0047 34.6956 33.1664 34.5511 33.3474 34.3846C33.5711 34.1789 33.7693 33.9893 33.9536 33.8051C34.7402 33.0186 35.4661 32.1591 36.1112 31.2506C36.7231 30.3891 37.2676 29.4752 37.7298 28.5343C39.0096 25.9292 39.7086 23.0104 39.7511 20.0933C39.7936 17.1811 39.1824 14.2469 37.9837 11.6076C37.1329 9.73458 36.0019 8.0184 34.6162 6.49364L34.7825 6.31551C35.1506 5.92126 35.1294 5.30336 34.7352 4.93519C34.341 4.56701 33.7231 4.5882 33.3549 4.98245L33.2317 5.1143C31.1088 3.19538 28.581 1.74464 25.8632 0.897147C22.9294 -0.0177305 19.772 -0.238051 16.7324 0.259916C12.6265 0.932695 8.89674 2.84771 5.94654 5.79782C5.17922 6.56513 4.46884 7.40295 3.83513 8.28775C3.83503 8.28785 3.83503 8.28795 3.83493 8.28795C3.35132 8.96336 2.90658 9.6756 2.51311 10.405C2.51301 10.4052 2.51291 10.4054 2.51281 10.4056C0.958851 13.287 0.140656 16.5482 0.146516 19.8368C0.155403 24.7894 1.9707 29.4635 5.27854 33.1039L5.17043 33.2196ZM34.6575 29.1304C34.1313 28.8018 34.5435 29.0592 34.6575 29.1304V29.1304ZM35.0287 29.3612C34.9927 29.3668 34.6459 29.1231 34.708 29.1619C34.7007 29.1574 34.6969 29.1549 34.6943 29.1534C34.695 29.1538 34.693 29.1526 34.6808 29.145C34.6794 29.1441 34.6783 29.1434 34.6769 29.1425C34.0058 28.7234 33.344 28.2946 32.6937 27.844C32.0065 27.368 31.3099 26.8983 30.576 26.4963C30.2898 26.3397 29.9966 26.1931 29.6934 26.0722C30.1025 26.0596 30.5147 25.9573 30.8816 25.776C31.7027 25.3704 32.1984 24.6169 32.2417 23.7087C32.2469 23.5987 32.2531 23.4946 32.2601 23.396C32.309 22.7063 32.3979 22.2909 32.4834 22.0416C32.7681 22.5827 33.1218 23.6962 33.0856 25.372C33.0586 26.6267 33.4206 27.6013 34.1618 28.2687C34.487 28.5615 34.8782 28.7799 35.2928 28.9174C35.2624 28.9072 35.0909 29.3515 35.0287 29.3612ZM3.7277 12.3472C3.79733 12.2007 3.85017 12.0878 3.84841 12.087C4.0327 12.1709 4.21493 12.2662 4.38652 12.3741C5.67211 13.1826 5.88716 13.5896 6.35817 14.4814C6.57898 14.8994 6.8538 15.4197 7.28487 16.0769C7.64474 16.6255 7.74358 17.1631 7.57873 17.6748C7.53077 17.8237 7.46446 17.9607 7.38878 18.0835C7.16143 18.4521 6.84833 18.6943 6.68582 18.7569C6.66033 18.7667 6.63074 18.7741 6.59812 18.7796C6.59695 18.7798 6.59588 18.7801 6.59461 18.7803C6.35563 18.8192 5.94224 18.7525 5.54086 18.6876C4.37617 18.4995 3.30386 18.5737 2.13292 18.7139C2.26769 16.5111 2.81107 14.3452 3.7277 12.3472ZM2.1211 20.6831C2.64202 20.6175 3.1646 20.5654 3.68639 20.5054C4.18954 20.4478 4.71807 20.533 5.22922 20.6156C5.27385 20.6229 5.31868 20.6301 5.36351 20.6372C6.00943 20.7403 6.67205 20.8255 7.30821 20.6073C7.33448 20.5984 7.36085 20.5899 7.38702 20.5798C8.10619 20.3032 9.05476 19.4636 9.43797 18.2736C9.68193 17.5161 9.78975 16.3344 8.91813 15.0056C8.53765 14.4256 8.29731 13.9705 8.08519 13.5691C7.49103 12.4441 7.07451 11.7571 5.4263 10.7207C5.33753 10.6649 5.24544 10.6114 5.15168 10.5591C5.1299 10.5469 5.10813 10.5348 5.08606 10.5229C4.99289 10.4723 4.89786 10.423 4.8002 10.3758C4.79688 10.3743 4.79386 10.3725 4.79063 10.3708C4.84708 10.2803 4.90441 10.1902 4.96242 10.1006C5.87222 10.5287 6.80184 10.9583 7.77131 11.2352C8.11976 11.3347 8.53023 11.4475 8.89694 11.3725C9.32537 11.2849 9.64921 10.9159 9.67226 10.4665C9.67304 10.4505 9.67451 10.4346 9.67451 10.4184C9.6749 10.2838 9.64785 10.1555 9.59872 10.0387C9.57411 9.98029 9.54403 9.92473 9.50897 9.87277C9.49149 9.84679 9.47274 9.82169 9.45292 9.79747C9.2742 9.58008 9.00349 9.44072 8.70074 9.43906C8.523 9.43906 8.33041 9.36445 8.1641 9.31289C7.46925 9.09745 6.79794 8.79568 6.13795 8.49284C6.51335 8.03491 6.90517 7.58909 7.32774 7.17892C8.50483 6.03679 10.0294 4.82014 11.5485 4.00214C13.876 2.74888 15.7479 2.34193 15.7479 2.34193C15.7479 2.34193 15.7049 2.95806 15.6502 3.22087C15.4874 4.00214 15.3213 4.64748 15.3213 4.64748C15.1183 5.13363 15.3384 5.68971 15.8125 5.90905C15.8238 5.91423 15.8345 5.92028 15.846 5.92507C16.3438 6.13289 16.9157 5.89802 17.1236 5.40034C17.5577 4.36104 17.6988 3.19284 17.8025 2.0803C23.2262 1.42842 28.6984 3.30456 32.5726 7.17892C33.656 8.26217 34.5864 9.46465 35.3518 10.7691C34.7063 10.6749 33.9743 10.6236 33.3639 10.376C31.357 9.56251 30.0662 9.48701 29.3017 10.1382C28.8762 10.5006 28.6476 11.0403 28.6578 11.6579C28.668 12.2715 28.905 12.9064 29.3193 13.4733C28.2288 12.7449 26.972 11.8236 26.7194 11.4901C26.3937 11.0601 25.7812 10.9756 25.3513 11.3014C25.1389 11.4623 25.0112 11.6933 24.9752 11.9376C24.9384 12.1878 24.9977 12.4521 25.1626 12.6696C25.9001 13.6431 29.1232 15.7096 29.813 16.0726C30.7704 16.5765 32.201 16.5262 33.1566 16.0447C33.8215 15.7095 33.9885 15.2196 34.0288 14.9575C34.1115 14.4196 33.8653 13.9268 33.37 13.6391C33.133 13.5014 32.8648 13.4219 32.5808 13.3377C32.4802 13.308 32.3763 13.2771 32.2711 13.2429C31.9554 13.1404 31.6276 13.0075 31.3419 12.7802C30.9779 12.4905 30.7759 12.1735 30.6799 11.9308C30.6362 11.8204 30.6145 11.7255 30.6095 11.6554C30.869 11.6464 31.5017 11.7288 32.63 12.1861C33.7886 12.656 35.1765 12.7339 36.4081 12.8784C38.3397 17.467 38.2746 22.6039 36.2298 27.1361C35.3117 27.0065 35.02 26.2637 35.0383 25.414C35.0926 22.8979 34.3821 20.7344 33.2702 20.0306C32.8362 19.7558 32.3471 19.7054 31.9139 19.8869C31.885 19.899 31.8564 19.9121 31.8281 19.9264C30.599 20.5408 30.3613 22.1362 30.2908 23.6157C30.2826 23.7887 30.2241 23.8954 30.0891 23.9835C29.875 24.1235 29.5816 24.1373 29.4687 24.1061C29.1508 23.8524 28.4657 22.6961 28.5141 21.7132C28.5795 20.3826 27.9106 18.482 26.9502 18.0256C26.4962 17.8099 25.9867 17.8807 25.6206 18.2101C25.0495 18.7242 24.7687 19.8538 24.358 21.6544C24.3019 21.9001 24.2468 22.1418 24.1922 22.3709C24.1767 22.4361 24.1625 22.4905 24.1496 22.5356C24.1134 22.5324 24.0769 22.529 24.0426 22.5258C23.7335 22.4969 23.31 22.4573 22.7598 22.4872C22.7476 22.4879 22.736 22.4883 22.7251 22.4886C23.5676 22.1753 23.9041 21.1212 24.2046 20.1796C24.3078 19.8565 24.4051 19.5514 24.5017 19.3367C24.52 19.2962 24.5371 19.255 24.5532 19.2132C24.7948 18.5851 24.7978 17.8081 24.558 17.0578C24.2869 16.2093 23.7482 15.5503 23.0799 15.2496C22.7645 15.1077 22.4798 15.0726 22.2259 15.1017C22.1751 15.1075 22.1256 15.1159 22.0772 15.1266C22.0289 15.1372 21.9818 15.1501 21.936 15.1649C21.5235 15.2979 21.2112 15.5845 21.0009 15.7776C20.8038 15.9584 20.603 16.1428 20.3255 16.2956C20.1097 16.4143 19.8473 16.514 19.5045 16.5781C19.2563 16.6246 19.0825 16.6082 18.9877 16.5295C18.7284 16.314 18.5969 15.6456 18.5969 14.5427C18.5969 14.1746 18.3932 13.8545 18.0925 13.688C17.9525 13.6104 17.7917 13.5661 17.6203 13.5661C17.0809 13.5661 16.6437 14.0033 16.6437 14.5427C16.6437 15.3798 16.6437 17.1217 17.7399 18.0321C17.7642 18.0522 17.7895 18.0723 17.8159 18.0924C18.2135 18.394 18.875 18.6826 19.8632 18.4981C21.197 18.2489 21.901 17.6026 22.3218 17.2165C22.3498 17.1908 22.3812 17.162 22.4123 17.1339C22.4754 17.2004 22.5416 17.2942 22.6008 17.4127C22.6363 17.4838 22.6692 17.5639 22.6975 17.6523C22.8181 18.0295 22.7959 18.3675 22.7205 18.5352C22.5782 18.8514 22.4591 19.2247 22.3438 19.5857C22.2374 19.9193 22.0674 20.4516 21.9347 20.6767C21.1013 20.9246 20.6327 21.9091 20.7127 22.764C20.7956 23.6504 21.4937 24.5113 22.865 24.4377C23.2719 24.4157 23.5849 24.4449 23.861 24.4707C24.311 24.5126 24.7764 24.5561 25.233 24.2772C25.7606 23.9549 25.9576 23.388 26.0921 22.8233C26.1481 22.5885 26.2045 22.3407 26.262 22.0888C26.333 21.7779 26.4222 21.387 26.5172 21.0059C26.5539 21.2088 26.5729 21.4173 26.563 21.6172C26.483 23.244 27.4566 25.0902 28.3805 25.7298C28.4201 25.7572 28.4612 25.783 28.5037 25.8071C28.5024 25.8071 28.5011 25.8073 28.4998 25.8073C28.451 25.8079 28.4031 25.8109 28.3558 25.8152C28.3444 25.8161 28.3331 25.8174 28.3219 25.8187C28.2742 25.8239 28.2271 25.8304 28.181 25.8395C27.953 25.8846 27.7469 25.9791 27.5725 26.113C27.45 26.2072 27.3426 26.3201 27.2566 26.4514C27.1587 26.5581 26.7767 26.7554 26.5472 26.8741C25.8441 27.2375 24.9689 27.6897 24.846 28.6168C24.7967 28.9879 24.8832 29.3529 25.1033 29.7073C23.9153 29.8408 23.4872 29.8273 23.3345 29.7962C23.1794 29.7418 23.0193 29.729 22.8667 29.7521C22.6087 29.7912 22.3728 29.9337 22.2178 30.1514C22.1711 30.217 22.1309 30.2888 22.1007 30.3675C21.9071 30.8709 22.1582 31.436 22.6616 31.6295C23.238 31.8512 23.9337 31.7736 24.5331 31.7268C25.5186 31.6498 26.4993 31.5061 27.4766 31.3617C27.8774 31.3024 28.2001 31.0018 28.2874 30.6062C28.3747 30.2105 28.2088 29.802 27.8702 29.5795C27.8242 29.5493 27.7793 29.5193 27.7354 29.4894C27.4279 29.2805 27.1689 29.0798 26.9475 28.8789C27.0649 28.8085 27.2059 28.7332 27.3288 28.6691C27.3697 28.6477 27.4087 28.6276 27.444 28.6093C27.892 28.3778 28.3524 28.1399 28.6856 27.7833C29.0451 27.8722 29.8775 28.257 31.7982 29.6002C32.4776 30.0774 33.1844 30.5153 33.8897 30.953C33.4773 31.4675 33.0367 31.9597 32.5726 32.4238C32.4078 32.5886 32.2288 32.7598 32.0252 32.947C31.8602 33.0988 31.7142 33.2292 31.579 33.3456C24.7786 39.1975 14.5558 39.0056 7.95735 33.0223C8.43843 32.2451 8.92829 31.3826 9.06726 30.4649C9.45194 27.9259 10.1911 26.3105 10.7152 25.884C11.7056 25.0778 12.6304 24.1106 12.6692 24.0699C12.7362 23.9997 12.8022 23.9039 12.844 23.8164C13.0402 23.4051 13.1563 23.225 13.2194 23.1464C13.3455 23.1824 13.6403 23.3087 14.2785 23.7395C14.7092 24.03 15.2871 23.9306 15.5988 23.5236C15.6108 23.5079 15.6232 23.4929 15.6343 23.4764C15.9361 23.0293 15.8183 22.4224 15.3712 22.1206C14.3214 21.412 13.5061 21.0174 12.6877 21.2407C11.9149 21.4512 11.4972 22.1253 11.152 22.8287C10.9565 23.028 10.5043 23.4802 9.9838 23.9417C9.81943 24.0875 9.65253 24.2306 9.48221 24.3692C7.9722 25.5982 7.33848 28.837 7.13613 30.1723C7.06054 30.6713 6.78495 31.1539 6.53982 31.5845C3.86247 28.5455 2.3171 24.7377 2.1211 20.6831Z"/>
<path d="M34.6817 29.1458C34.6811 29.1454 34.6804 29.1449 34.6797 29.1445C34.6865 29.1487 34.6879 29.1496 34.6817 29.1458Z"/>
<path d="M11.4102 11.4399C11.4503 11.4399 11.4907 11.4374 11.5314 11.4323C12.5617 11.3049 13.3771 10.9134 13.955 10.2687C14.3151 9.86714 14.2814 9.24973 13.8797 8.88966C13.874 8.88449 13.8677 8.88019 13.8618 8.87511C13.46 8.53144 12.8555 8.56904 12.5006 8.96486C12.2396 9.25598 11.8554 9.42406 11.2915 9.49388C10.7828 9.55687 10.4149 10.0005 10.4364 10.504C10.4376 10.5302 10.4389 10.5565 10.4422 10.5831C10.5034 11.0777 10.9244 11.4399 11.4102 11.4399Z" />
<path d="M23.4526 12.6486C23.1825 12.1907 22.5944 12.0317 22.1301 12.2953C21.3912 12.7148 21.025 12.6325 20.7393 12.4813C20.2626 12.2289 19.6716 12.4108 19.4192 12.8874C19.362 12.9954 19.3282 13.1094 19.314 13.224C19.2656 13.6147 19.4568 14.0124 19.8254 14.2075C20.27 14.4429 20.7267 14.5607 21.2007 14.5607C21.8006 14.5607 22.4281 14.3721 23.0942 13.994C23.5632 13.7278 23.7277 13.1317 23.4615 12.6626C23.4587 12.6578 23.4554 12.6534 23.4526 12.6486Z" />
<path d="M18.4093 27.7542C18.5891 27.8975 18.8039 27.967 19.0172 27.967C19.2867 27.967 19.5529 27.8545 19.7442 27.6407C19.7567 27.6268 19.7698 27.6137 19.7817 27.5988C20.1177 27.1769 20.0482 26.5625 19.6263 26.2265C19.2419 25.9203 18.8594 25.5205 18.4033 25.0142C18.0426 24.614 17.4263 24.5815 17.0255 24.9413C17.025 24.9417 17.0245 24.9421 17.024 24.9425C16.6233 25.3035 16.5912 25.921 16.9523 26.3217C17.4731 26.8998 17.9203 27.3646 18.4093 27.7542Z"/>
<path d="M20.0666 5.07615C21.6369 5.08845 23.1853 5.34715 24.6686 5.84502C24.7716 5.87959 24.8764 5.896 24.9794 5.896C25.3876 5.896 25.7682 5.63808 25.9052 5.22986C26.0768 4.71852 25.8014 4.16488 25.29 3.99329C23.611 3.4298 21.8588 3.13701 20.0819 3.12305C20.0793 3.12305 20.0767 3.12305 20.0741 3.12305C19.5383 3.12305 19.1019 3.55529 19.0977 4.09193C19.0935 4.63131 19.5273 5.07195 20.0666 5.07615Z" />
<path d="M27.7264 7.28185C28.2318 7.59475 28.724 7.94262 29.1893 8.31588C29.3696 8.46041 29.5854 8.53073 29.7997 8.53073C30.0858 8.53073 30.3693 8.40563 30.5621 8.16509C30.8997 7.74437 30.8321 7.1297 30.4114 6.79219C29.8844 6.36951 29.3268 5.97546 28.7544 5.62105C28.2958 5.33705 27.6938 5.47866 27.41 5.93737C27.1262 6.39608 27.2678 6.99805 27.7264 7.28185Z"/>
<path d="M41.7621 9.95036C41.5414 9.45815 40.9636 9.23813 40.4714 9.45874C39.9792 9.67945 39.7592 10.2573 39.9799 10.7494C43.6817 19.0056 41.8688 28.8526 35.4689 35.2525C26.9123 43.8091 12.9894 43.8091 4.43285 35.2525C4.05149 34.8711 3.43311 34.8711 3.05165 35.2525C2.67028 35.6338 2.67028 36.2522 3.05165 36.6337C7.56558 41.1476 13.5672 43.6336 19.9508 43.6336C26.3344 43.6336 32.336 41.1476 36.85 36.6337C40.3434 33.1402 42.6393 28.7304 43.4894 23.8809C44.3203 19.1409 43.723 14.3239 41.7621 9.95036Z" />
<path d="M37.8367 7.00991C38.0273 7.2771 38.3276 7.41949 38.6325 7.41949C38.8287 7.41949 39.027 7.36051 39.1989 7.23785C39.6379 6.92465 39.74 6.31476 39.4268 5.87569C38.6594 4.79986 37.7928 3.77678 36.8508 2.83485C36.4695 2.45349 35.8511 2.45349 35.4696 2.83485C35.0883 3.21621 35.0883 3.83459 35.4696 4.21605C36.3354 5.08181 37.1318 6.02178 37.8367 7.00991Z" />
<path d="M25.7423 48.0474H21.7931V46.377C21.7931 45.8376 21.3559 45.4004 20.8165 45.4004C20.2772 45.4004 19.8399 45.8376 19.8399 46.377V48.0474H15.8907C15.3513 48.0474 14.9141 48.4846 14.9141 49.024C14.9141 49.5633 15.3513 50.0006 15.8907 50.0006H25.7423C26.2817 50.0006 26.7189 49.5633 26.7189 49.024C26.7189 48.4846 26.2817 48.0474 25.7423 48.0474Z" />
</svg>
