<svg width="168" height="47" viewBox="0 0 168 47" fill="none" xmlns="http://www.w3.org/2000/svg">
<path d="M168 40.648C168 44.1555 164.676 47 160.575 47H7.42645C3.32564 47.0003 0 44.1557 0 40.648V6.35147C0 2.84425 3.32564 0 7.42645 0H160.575C164.675 0 168 2.84425 168 6.35147V40.648H168Z" fill="#F4F8FF"/>
<path d="M25 9V39L40 24.0001L25 9Z" fill="url(#paint0_linear_8903_24704)"/>
<path d="M44 20L37.9542 16.5L25 9V9.1083L39.9774 24L44 20Z" fill="url(#paint1_linear_8903_24704)"/>
<path d="M25 38.8917V39L37.9543 31.4996L44 27.9995L39.9776 24L25 38.8917Z" fill="url(#paint2_linear_8903_24704)"/>
<path d="M44.0478 20L40 24.0003L44.0475 28L51 24L44.0478 20Z" fill="url(#paint3_linear_8903_24704)"/>
<path d="M119.93 29.9064C119.365 29.9064 118.85 29.8032 118.383 29.597C117.916 29.3907 117.524 29.0732 117.207 28.6453H117.113C117.176 29.1467 117.207 29.6221 117.207 30.0711V33.6045H115.894V21.1628H116.963L117.144 22.3381H117.207C117.545 21.8677 117.939 21.5287 118.387 21.3197C118.835 21.1107 119.35 21.0062 119.93 21.0062C121.08 21.0062 121.968 21.3955 122.593 22.1737C123.219 22.9518 123.531 24.0437 123.531 25.4483C123.531 26.8587 123.213 27.954 122.578 28.7355C121.942 29.5162 121.06 29.9064 119.93 29.9064ZM119.74 22.1108C118.854 22.1108 118.213 22.354 117.817 22.8395C117.421 23.3252 117.218 24.0985 117.207 25.1588V25.4483C117.207 26.6552 117.411 27.5183 117.817 28.0382C118.224 28.5581 118.875 28.8174 119.772 28.8174C120.521 28.8174 121.109 28.5174 121.533 27.9167C121.958 27.3163 122.17 26.4884 122.17 25.4327C122.17 24.3624 121.958 23.5405 121.533 22.9687C121.109 22.3965 120.511 22.1108 119.74 22.1108ZM126.573 29.7495H125.26V17.5587H126.573V29.7495ZM134.127 29.7495L133.866 28.5273H133.802C133.37 29.0657 132.938 29.4303 132.508 29.6202C132.078 29.8113 131.541 29.9064 130.898 29.9064C130.038 29.9064 129.364 29.687 128.876 29.2484C128.387 28.8098 128.144 28.1859 128.144 27.376C128.144 25.6422 129.545 24.7332 132.346 24.6493L133.819 24.6022V24.0695C133.819 23.3956 133.672 22.8979 133.379 22.5771C133.087 22.2555 132.618 22.095 131.974 22.095C131.251 22.095 130.433 22.3144 129.521 22.753L129.117 21.758C129.545 21.5282 130.013 21.3481 130.522 21.2175C131.031 21.087 131.542 21.0216 132.054 21.0216C133.088 21.0216 133.854 21.2486 134.353 21.703C134.851 22.1575 135.101 22.8861 135.101 23.8892V29.7493H134.127V29.7495H134.127ZM131.159 28.8332C131.977 28.8332 132.619 28.6112 133.086 28.1674C133.553 27.7236 133.787 27.1018 133.787 26.3023V25.5268L132.472 25.5812C131.428 25.6185 130.675 25.7785 130.213 26.0639C129.751 26.3484 129.52 26.7912 129.52 27.3919C129.52 27.8617 129.664 28.2198 129.952 28.4647C130.24 28.7105 130.642 28.8332 131.159 28.8332ZM135.863 21.1628H137.272L139.171 26.0597C139.588 27.1776 139.847 27.9845 139.947 28.4809H140.011C140.079 28.214 140.223 27.7588 140.442 27.113C140.661 26.4678 141.377 24.4849 142.591 21.1628H144L140.272 30.9407C139.903 31.907 139.471 32.5926 138.977 32.9981C138.484 33.4025 137.879 33.6045 137.162 33.6045C136.76 33.6045 136.365 33.5602 135.974 33.4716V32.4297C136.264 32.4923 136.589 32.5238 136.948 32.5238C137.85 32.5238 138.493 32.0224 138.879 31.0194L139.361 29.7974L135.863 21.1628ZM95.5924 21.9607C96.0094 22.3024 96.8803 23.0201 96.8803 24.3859C96.8803 25.7141 96.1182 26.344 95.356 26.9358C95.1202 27.169 94.8479 27.4213 94.8479 27.8169C94.8479 28.2112 95.1199 28.427 95.3202 28.5888L95.9736 29.0907C96.7718 29.7555 97.4968 30.3666 97.4968 31.6062C97.4968 33.2944 95.8457 35 92.7256 35C90.0943 35 88.8249 33.7611 88.8249 32.4313C88.8249 31.785 89.15 30.8695 90.222 30.2402C91.3461 29.5577 92.8712 29.4688 93.6872 29.4136C93.4324 29.0907 93.1429 28.7493 93.1429 28.1935C93.1429 27.8886 93.2339 27.7088 93.3243 27.4922C93.1239 27.5104 92.9246 27.5284 92.743 27.5284C90.8204 27.5284 89.7319 26.1095 89.7319 24.7093C89.7319 23.8829 90.1133 22.9664 90.8926 22.3026C91.9271 21.4586 93.1608 21.3145 94.1414 21.3145H97.8781L96.7168 21.961H95.5924V21.9607H95.5924ZM94.3038 29.9356C94.1587 29.9168 94.0676 29.9168 93.887 29.9168C93.7238 29.9168 92.7427 29.9535 91.9816 30.2055C91.5825 30.3481 90.421 30.7791 90.421 32.055C90.421 33.3296 91.6736 34.2469 93.6151 34.2469C95.3558 34.2469 96.2821 33.419 96.2821 32.3065C96.2822 31.3887 95.6833 30.9058 94.3038 29.9356ZM94.8303 26.5225C95.247 26.1089 95.2828 25.5348 95.2828 25.2112C95.2828 23.9184 94.5031 21.9068 92.9975 21.9068C92.5252 21.9068 92.0177 22.14 91.7273 22.4997C91.4193 22.8767 91.3277 23.3612 91.3277 23.8287C91.3277 25.0319 92.0353 27.0257 93.5964 27.0257C94.05 27.0257 94.5389 26.8102 94.8303 26.5225ZM84.17 29.6481C81.2902 29.6481 79.7505 27.4244 79.7505 25.4158C79.7505 23.0664 81.6883 21.0591 84.4428 21.0591C87.1043 21.0591 88.771 23.1204 88.771 25.2906C88.7712 27.4057 87.1235 29.6481 84.17 29.6481ZM86.434 28.1958C86.8695 27.6215 86.9782 26.9045 86.9782 26.2046C86.9782 24.6261 86.2173 21.6142 83.971 21.6142C83.3734 21.6142 82.7758 21.8477 82.3412 22.225C81.6346 22.8517 81.5072 23.6411 81.5072 24.413C81.5072 26.1869 82.3949 29.1089 84.5873 29.1089C85.2936 29.1089 86.0183 28.7689 86.434 28.1958ZM74.3519 29.6481C71.4715 29.6481 69.9315 27.4244 69.9315 25.4158C69.9315 23.0664 71.8701 21.0591 74.6238 21.0591C77.2861 21.0591 78.9525 23.1204 78.9525 25.2906C78.9528 27.4057 77.3048 29.6481 74.3519 29.6481ZM76.6164 28.1958C77.051 27.6215 77.16 26.9045 77.16 26.2046C77.16 24.6261 76.3987 21.6142 74.1523 21.6142C73.555 21.6142 72.9569 21.8477 72.5225 22.225C71.8159 22.8517 71.6893 23.6411 71.6893 24.413C71.6893 26.1869 72.5764 29.1089 74.7691 29.1089C75.4757 29.1089 76.1999 28.7689 76.6164 28.1958ZM68.5478 29.3669L65.9432 29.9619C64.8865 30.1245 63.9398 30.2676 62.9386 30.2676C57.9115 30.2676 56 26.6077 56 23.7411C56 20.2442 58.7131 17 63.3577 17C64.3415 17 65.2877 17.1439 66.1435 17.3784C67.5093 17.7571 68.1467 18.2253 68.5476 18.4961L67.0354 19.9203L66.3984 20.0639L66.8535 19.3425C66.2346 18.7481 65.1045 17.6486 62.9563 17.6486C60.0786 17.6486 57.911 19.8129 57.911 22.9674C57.911 26.3557 60.3882 29.5467 64.3576 29.5467C65.5244 29.5467 66.1241 29.3128 66.6708 29.0959V26.1942L63.9214 26.3383L65.3777 25.5622H69.2389L68.7658 26.0128C68.6374 26.1215 68.6197 26.158 68.5834 26.3008C68.5645 26.4634 68.5473 26.9867 68.5473 27.1667V29.367H68.5478V29.3669Z" fill="#0E123D"/>
<path d="M101.664 29.1131C101.094 29.0551 100.975 28.9399 100.975 28.1864V17.2632C100.978 17.2216 100.981 17.179 100.984 17.1388C101.054 16.4636 101.226 16.3479 101.761 16H99.294L98 16.6949H99.3187V16.7036L99.3177 16.6966V28.6115C99.3177 28.9968 99.2497 29.0554 98.8524 29.6337H101.906L102.544 29.2102C102.251 29.1703 101.957 29.1516 101.664 29.1131ZM108.682 29.2906C108.495 29.4058 108.306 29.5405 108.118 29.6357C107.552 29.923 106.97 30 106.455 30C105.908 30 105.051 29.9604 104.177 29.2521C102.961 28.2929 102.43 26.6447 102.43 25.2077C102.43 22.2374 104.589 20.7809 106.353 20.7809C106.97 20.7809 107.604 20.953 108.118 21.3179C108.974 21.9492 109.196 22.7734 109.316 23.2144L105.291 25.0359L103.972 25.1508C104.4 27.5849 105.873 29.0021 107.501 29.0021C108.374 29.0021 109.008 28.6578 109.59 28.3325L108.682 29.2906ZM107.073 23.5782C107.398 23.4446 107.569 23.3291 107.569 23.061C107.569 22.2949 106.798 21.4128 105.873 21.4128C105.187 21.4128 103.903 22.0073 103.903 24.0767C103.903 24.4026 103.937 24.7474 103.955 25.0936L107.073 23.5782ZM110.336 20.912V22.1766H110.198V20.912H109.824V20.7808H110.709V20.912H110.336ZM111.877 22.1766V20.9003H111.87L111.522 22.1766H111.415L111.064 20.9003H111.059V22.1766H110.935V20.7809H111.148L111.466 21.9091H111.47L111.783 20.7809H112V22.1766H111.877Z" fill="#0E123D"/>
<path d="M59.6349 13.8947H58.7175C58.7175 13.7659 58.6305 13.4015 58.4565 12.801H57.1322C56.9526 13.3917 56.8627 13.7561 56.8627 13.8947H56C56 13.8187 56.2231 13.1948 56.6692 12.0233C57.1154 10.8517 57.3385 10.2063 57.3385 10.0877H58.4221C58.4221 10.1987 58.6241 10.8346 59.0283 11.9955C59.4326 13.1565 59.6349 13.7893 59.6349 13.8947ZM58.3105 12.2424C57.9837 11.2366 57.8204 10.6928 57.8204 10.6108H57.7745C57.7745 10.6868 57.6053 11.2306 57.2672 12.2424H58.3105ZM63.3311 13.8947H62.6232C62.6232 13.8147 62.3604 13.3927 61.8349 12.6287C61.2847 11.8235 60.9712 11.2731 60.8949 10.9767H60.849C60.8968 11.4035 60.9208 11.7895 60.9208 12.1346C60.9208 12.6162 60.9341 13.203 60.9608 13.895H60.2556C60.2841 13.2907 60.2985 12.6271 60.2985 11.9038C60.2985 11.1923 60.2841 10.5869 60.2556 10.088H61.1068C61.1068 10.1914 61.3426 10.6038 61.8147 11.3248C62.3172 12.0908 62.6059 12.6105 62.6803 12.8835H62.7233C62.6774 12.4488 62.6544 12.059 62.6544 11.7138C62.6544 11.1858 62.6411 10.6435 62.6144 10.088H63.3311C63.3042 10.5714 63.2911 11.1768 63.2911 11.9038C63.2908 12.6363 63.3041 13.2999 63.3311 13.8947ZM67.4855 11.8595C67.4855 12.4131 67.3115 12.8965 66.9638 13.3097C66.6159 13.7232 66.1286 13.9295 65.5018 13.9295C65.219 13.9295 64.8291 13.9178 64.3323 13.8944C64.3571 13.3057 64.3696 12.6417 64.3696 11.9033C64.3696 11.1939 64.3571 10.5885 64.3323 10.0874H64.8339C64.9161 10.0874 65.0383 10.0844 65.2008 10.0787C65.3631 10.073 65.4693 10.07 65.5189 10.07C66.2087 10.07 66.7087 10.2455 67.0196 10.5964C67.3302 10.9473 67.4855 11.3681 67.4855 11.8595ZM66.7031 11.9852C66.7031 11.6109 66.5961 11.2957 66.3821 11.039C66.1681 10.7829 65.8412 10.6547 65.4017 10.6547C65.3196 10.6547 65.2069 10.6634 65.0634 10.6811C65.0823 11.0711 65.0919 11.4783 65.0919 11.9033C65.0919 12.3693 65.1015 12.8312 65.1205 13.2893C65.2431 13.3145 65.3679 13.3273 65.493 13.3274C65.9039 13.3274 66.2081 13.1971 66.4058 12.9368C66.6036 12.6766 66.7031 12.3594 66.7031 11.9852ZM71.3165 13.8947H70.4679C70.2462 13.2047 70.0762 12.7787 69.9578 12.617C69.8393 12.455 69.6482 12.3742 69.3846 12.3742C69.2736 12.3742 69.1676 12.3753 69.0665 12.3772C69.0665 12.8783 69.075 13.384 69.0924 13.8947H68.2956C68.3204 13.3059 68.333 12.642 68.333 11.9035C68.333 11.1942 68.3204 10.5888 68.2956 10.0877H68.7914C68.8488 10.0877 68.9686 10.0847 69.1511 10.079C69.3336 10.0732 69.5023 10.0702 69.657 10.0702C70.5341 10.0702 70.9728 10.3762 70.9728 10.9884C70.9728 11.4737 70.7225 11.8118 70.2219 12.0032V12.047C70.4149 12.1014 70.584 12.2552 70.7292 12.5073C70.8741 12.7596 71.0699 13.2221 71.3165 13.8947ZM70.2417 11.2045C70.2417 10.8166 69.997 10.6225 69.5079 10.6225C69.3283 10.6225 69.1695 10.6362 69.0321 10.6634C69.0532 10.9655 69.0636 11.3594 69.0636 11.8447C69.1687 11.8488 69.2576 11.8504 69.3301 11.8504C69.9377 11.8507 70.2417 11.6354 70.2417 11.2045ZM75.4252 11.9209C75.4252 12.5192 75.2456 13.0154 74.8862 13.4093C74.5268 13.8029 74.0825 14 73.5534 14C73.0488 14 72.6264 13.8193 72.2864 13.4575C71.9462 13.096 71.7762 12.6363 71.7762 12.0791C71.7762 11.4808 71.9558 10.9846 72.3153 10.5907C72.6744 10.1971 73.1187 10 73.6481 10C74.1527 10 74.5748 10.1802 74.9151 10.5409C75.2553 10.9016 75.4252 11.3613 75.4252 11.9209ZM74.6343 12.0056C74.6343 11.5981 74.5321 11.2677 74.3277 11.0142C74.1231 10.7608 73.8709 10.6343 73.571 10.6343C73.2919 10.6343 73.0549 10.7619 72.8601 11.0172C72.6653 11.2726 72.5674 11.5951 72.5674 11.9852C72.5674 12.3905 72.6701 12.7204 72.8756 12.9749C73.0811 13.2294 73.3327 13.3566 73.631 13.3566C73.9099 13.3566 74.1471 13.2284 74.3419 12.9719C74.5367 12.7158 74.6343 12.3935 74.6343 12.0056ZM77.046 13.8947H76.2348C76.2596 13.2904 76.2722 12.6268 76.2722 11.9035C76.2722 11.192 76.2597 10.5866 76.2348 10.0877H77.046C77.0212 10.579 77.0087 11.1841 77.0087 11.9035C77.0087 12.6382 77.0212 13.3021 77.046 13.8947ZM81.2007 11.8595C81.2007 12.4131 81.0267 12.8965 80.679 13.3097C80.3311 13.7232 79.8438 13.9295 79.217 13.9295C78.9342 13.9295 78.5443 13.9178 78.0474 13.8944C78.0723 13.3057 78.0848 12.6417 78.0848 11.9033C78.0848 11.1939 78.0723 10.5885 78.0474 10.0874H78.5491C78.6313 10.0874 78.7535 10.0844 78.916 10.0787C79.0783 10.073 79.1845 10.07 79.2341 10.07C79.9239 10.07 80.4239 10.2455 80.7348 10.5964C81.0454 10.9473 81.2007 11.3681 81.2007 11.8595ZM80.4183 11.9852C80.4183 11.6109 80.3113 11.2957 80.0973 11.039C79.8833 10.7829 79.5564 10.6547 79.1169 10.6547C79.0347 10.6547 78.9221 10.6634 78.7786 10.6811C78.7975 11.0711 78.8071 11.4783 78.8071 11.9033C78.8071 12.3693 78.8167 12.8312 78.8357 13.2893C78.9583 13.3145 79.0831 13.3273 79.2082 13.3274C79.6191 13.3274 79.9233 13.1971 80.121 12.9368C80.3188 12.6766 80.4183 12.3594 80.4183 11.9852ZM86.7125 13.8947H85.7951C85.7951 13.7659 85.7081 13.4015 85.5339 12.801H84.2095C84.03 13.3917 83.94 13.7561 83.94 13.8947H83.0776C83.0776 13.8187 83.3007 13.1948 83.7468 12.0233C84.193 10.8517 84.4161 10.2063 84.4161 10.0877H85.4997C85.4997 10.1987 85.702 10.8346 86.106 11.9955C86.5099 13.1565 86.7125 13.7893 86.7125 13.8947ZM85.3882 12.2424C85.0613 11.2366 84.8977 10.6928 84.8977 10.6108H84.8518C84.8518 10.6868 84.6829 11.2306 84.3448 12.2424H85.3882ZM90.056 11.0845C90.056 11.5505 89.8862 11.8945 89.5471 12.1167C89.2079 12.3388 88.7919 12.4501 88.2988 12.4501C88.2089 12.4501 88.1451 12.4482 88.1067 12.4444C88.1067 12.811 88.1171 13.2942 88.1382 13.8947H87.3326C87.3574 13.3315 87.3699 12.6676 87.3699 11.9035C87.3699 11.2018 87.3574 10.5964 87.3326 10.0877H87.8313C87.902 10.0877 88.0375 10.0847 88.2382 10.079C88.4389 10.0732 88.6126 10.0702 88.7599 10.0702C89.1228 10.0702 89.4296 10.1541 89.6799 10.3217C89.9302 10.4894 90.056 10.7434 90.056 11.0845ZM89.3165 11.2453C89.3165 10.8283 89.0452 10.6196 88.5024 10.6196C88.3666 10.6196 88.2233 10.6342 88.0725 10.6634C88.0936 11.0319 88.104 11.449 88.104 11.915C88.1518 11.919 88.2073 11.9207 88.2703 11.9207C88.9678 11.9209 89.3165 11.6958 89.3165 11.2453ZM93.4939 11.0845C93.4939 11.5505 93.3242 11.8945 92.9853 12.1167C92.6461 12.3388 92.2299 12.4501 91.7368 12.4501C91.6468 12.4501 91.5831 12.4482 91.5446 12.4444C91.5446 12.811 91.5551 13.2942 91.5761 13.8947H90.7705C90.7954 13.3315 90.8079 12.6676 90.8079 11.9035C90.8079 11.2018 90.7954 10.5964 90.7705 10.0877H91.2693C91.34 10.0877 91.4755 10.0847 91.6762 10.079C91.8769 10.0732 92.0506 10.0702 92.1979 10.0702C92.5607 10.0702 92.8676 10.1541 93.1179 10.3217C93.3682 10.4894 93.4939 10.7434 93.4939 11.0845ZM92.7545 11.2453C92.7545 10.8283 92.4831 10.6196 91.9404 10.6196C91.8046 10.6196 91.6612 10.6342 91.5105 10.6634C91.5316 11.0319 91.542 11.449 91.542 11.915C91.5897 11.919 91.6453 11.9207 91.7082 11.9207C92.4057 11.9209 92.7545 11.6958 92.7545 11.2453ZM99.1148 11.9209C99.1148 12.5192 98.9352 13.0154 98.5758 13.4093C98.2164 13.8032 97.7721 14 97.243 14C96.7384 14 96.316 13.8193 95.976 13.4575C95.6361 13.096 95.4658 12.6363 95.4658 12.0791C95.4658 11.4808 95.6454 10.9846 96.0048 10.5907C96.3643 10.1968 96.8086 10 97.3377 10C97.8423 10 98.2647 10.1802 98.6046 10.5409C98.9446 10.9016 99.1148 11.3613 99.1148 11.9209ZM98.3236 12.0056C98.3236 11.5981 98.2214 11.2677 98.0171 11.0142C97.8127 10.7608 97.5602 10.6343 97.2603 10.6343C96.9812 10.6343 96.7442 10.7619 96.5494 11.0172C96.3547 11.2726 96.257 11.5951 96.257 11.9852C96.257 12.3905 96.3597 12.7204 96.5652 12.9749C96.7706 13.2294 97.0223 13.3566 97.3203 13.3566C97.5995 13.3566 97.8364 13.2284 98.0312 12.9719C98.2262 12.7158 98.3236 12.3935 98.3236 12.0056ZM103 13.8947H102.292C102.292 13.8147 102.029 13.3927 101.504 12.6287C100.954 11.8235 100.64 11.2731 100.564 10.9767H100.518C100.566 11.4035 100.59 11.7895 100.59 12.1346C100.59 12.6162 100.603 13.203 100.63 13.895H99.9244C99.953 13.2907 99.9674 12.6271 99.9674 11.9038C99.9674 11.1923 99.953 10.5869 99.9244 10.088H100.776C100.776 10.1914 101.012 10.6038 101.484 11.3248C101.986 12.0908 102.275 12.6105 102.349 12.8835H102.392C102.346 12.4488 102.323 12.059 102.323 11.7138C102.323 11.1858 102.31 10.6435 102.283 10.088H103C102.973 10.5714 102.96 11.1768 102.96 11.9038C102.96 12.6363 102.973 13.2999 103 13.8947Z" fill="#0E123D"/>
<defs>
<linearGradient id="paint0_linear_8903_24704" x1="32.5" y1="9.00004" x2="32.5" y2="39" gradientUnits="userSpaceOnUse">
<stop stop-color="#257CB0"/>
<stop offset="0.286" stop-color="#4A93B5"/>
<stop offset="0.767" stop-color="#78BCBB"/>
<stop offset="1" stop-color="#89CFBD"/>
</linearGradient>
<linearGradient id="paint1_linear_8903_24704" x1="25.0002" y1="16.4998" x2="44.0002" y2="16.4998" gradientUnits="userSpaceOnUse">
<stop stop-color="#52C1AD"/>
<stop offset="1" stop-color="#DEE89A"/>
</linearGradient>
<linearGradient id="paint2_linear_8903_24704" x1="34.5" y1="24" x2="34.5" y2="39" gradientUnits="userSpaceOnUse">
<stop stop-color="#EC413D"/>
<stop offset="0.167" stop-color="#DA4452"/>
<stop offset="0.575" stop-color="#B0487A"/>
<stop offset="0.862" stop-color="#954A92"/>
<stop offset="1" stop-color="#8A4A9D"/>
</linearGradient>
<linearGradient id="paint3_linear_8903_24704" x1="45.5001" y1="20" x2="45.5001" y2="27.9998" gradientUnits="userSpaceOnUse">
<stop stop-color="#F58879"/>
<stop offset="0.119" stop-color="#F69079"/>
<stop offset="0.713" stop-color="#FCB877"/>
<stop offset="1" stop-color="#FEC874"/>
</linearGradient>
</defs>
</svg>
