<svg width="22" height="22" viewBox="0 0 22 22" fill="none" xmlns="http://www.w3.org/2000/svg">
<g clip-path="url(#clip0_7197_21980)">
<mask id="mask0_7197_21980" style="mask-type:alpha" maskUnits="userSpaceOnUse" x="0" y="0" width="48" height="48">
<rect width="48" height="48" fill="#D9D9D9"/>
</mask>
<g mask="url(#mask0_7197_21980)">
<path d="M11.9617 20.1206V18.7456C12.6492 18.6539 13.3176 18.4744 13.9669 18.207C14.6162 17.9397 15.2235 17.5845 15.7888 17.1414L16.7284 18.1497C16.0256 18.7303 15.277 19.181 14.4826 19.5018C13.6881 19.8227 12.8478 20.0289 11.9617 20.1206ZM18.1263 16.7289L17.1409 15.7893C17.5534 15.2393 17.8971 14.6473 18.1721 14.0133C18.4471 13.3793 18.6381 12.6956 18.7451 11.9622H20.143C20.0207 12.8789 19.7878 13.7383 19.444 14.5404C19.1003 15.3424 18.661 16.072 18.1263 16.7289ZM18.7451 10.0372C18.6381 9.30391 18.4471 8.62404 18.1721 7.99766C17.8971 7.37127 17.5534 6.77543 17.1409 6.21016L18.1263 5.27057C18.7069 6.03446 19.1499 6.79071 19.4555 7.53932C19.761 8.28793 19.9902 9.12057 20.143 10.0372H18.7451ZM10.0138 20.1206C7.69158 19.8609 5.7513 18.864 4.19297 17.1299C2.63464 15.3959 1.85547 13.3525 1.85547 10.9997C1.85547 8.64696 2.63464 6.60356 4.19297 4.86953C5.7513 3.1355 7.69158 2.13863 10.0138 1.87891V3.25391C8.07352 3.51363 6.4579 4.38064 5.16693 5.85495C3.87595 7.32925 3.23047 9.04418 3.23047 10.9997C3.23047 12.9553 3.87595 14.6702 5.16693 16.1445C6.4579 17.6188 8.07352 18.4859 10.0138 18.7456V20.1206ZM15.8117 4.85807C15.2159 4.44557 14.5933 4.10564 13.944 3.83828C13.2947 3.57092 12.6492 3.37613 12.0076 3.25391V1.87891C12.8326 2.00113 13.6499 2.22266 14.4596 2.54349C15.2694 2.86432 16.0256 3.29974 16.7284 3.84974L15.8117 4.85807ZM10.9992 15.8352C9.70061 14.7352 8.73811 13.7154 8.11172 12.7758C7.48533 11.8362 7.17213 10.9692 7.17213 10.1747C7.17213 8.96779 7.5579 8.00911 8.32943 7.2987C9.10095 6.58828 9.99088 6.23307 10.9992 6.23307C12.0076 6.23307 12.8975 6.58828 13.669 7.2987C14.4405 8.00911 14.8263 8.96779 14.8263 10.1747C14.8263 10.9692 14.5131 11.8362 13.8867 12.7758C13.2603 13.7154 12.2978 14.7352 10.9992 15.8352ZM10.9992 11.0456C11.2895 11.0456 11.5339 10.9463 11.7326 10.7477C11.9312 10.549 12.0305 10.3046 12.0305 10.0143C12.0305 9.7546 11.9312 9.51779 11.7326 9.30391C11.5339 9.09002 11.2895 8.98307 10.9992 8.98307C10.7089 8.98307 10.4645 9.09002 10.2659 9.30391C10.0673 9.51779 9.96797 9.7546 9.96797 10.0143C9.96797 10.3046 10.0673 10.549 10.2659 10.7477C10.4645 10.9463 10.7089 11.0456 10.9992 11.0456Z" fill="#0E123D"/>
</g>
</g>
<defs>
<clipPath id="clip0_7197_21980">
<rect width="22" height="22" fill="white"/>
</clipPath>
</defs>
</svg>
