<svg width="20" height="20" viewBox="0 0 20 20" fill="currentColor" xmlns="http://www.w3.org/2000/svg">
<g clip-path="url(#clip0_9304_1991)">
<path d="M16.9692 6.96266H13.2431V4.53093C13.2431 4.23773 13.0054 4 12.7123 4H7.28767C6.99455 4 6.75689 4.23773 6.75689 4.53093V6.96266H3.03077C2.73763 6.96266 2.5 7.20039 2.5 7.4936V15.4691C2.5 15.7623 2.73766 16 3.03077 16C3.68986 16 16.406 16 16.9692 16C17.2623 16 17.5 15.7623 17.5 15.4691V7.4936C17.5 7.20039 17.2623 6.96266 16.9692 6.96266ZM5.73077 10.042H4.58767C4.29455 10.042 4.05689 9.8043 4.05689 9.51109C4.05689 9.21789 4.29452 8.98016 4.58767 8.98016H5.73074C6.02386 8.98016 6.26151 9.21786 6.26151 9.51109C6.26151 9.80433 6.02389 10.042 5.73077 10.042ZM12.1816 5.9716H11.2154C10.9223 5.9716 10.6846 6.20933 10.6846 6.50254C10.6846 6.79574 10.9222 7.03347 11.2154 7.03347H12.1816C12.1816 7.60323 12.1816 7.86871 12.1816 8.1307H11.2154C10.9223 8.1307 10.6846 8.36843 10.6846 8.66164C10.6846 8.95484 10.9222 9.19257 11.2154 9.19257H12.1816V10.2898H11.2154C10.9223 10.2898 10.6846 10.5275 10.6846 10.8207C10.6846 11.1139 10.9222 11.3517 11.2154 11.3517H12.1816V14.9382H11.6335V13.263C11.6335 12.9698 11.3959 12.7321 11.1027 12.7321H8.89729C8.60418 12.7321 8.36652 12.9698 8.36652 13.263V14.9382H7.81847V11.3516H8.78465C9.07776 11.3516 9.31542 11.1139 9.31542 10.8207C9.31542 10.5275 9.07779 10.2897 8.78465 10.2897H7.81847V9.19251H8.78465C9.07776 9.19251 9.31542 8.95481 9.31542 8.66158C9.31542 8.36837 9.07779 8.13065 8.78465 8.13065H7.81847C7.81847 7.75029 7.81847 7.41881 7.81847 7.03341H8.78465C9.07776 7.03341 9.31542 6.79571 9.31542 6.50248C9.31542 6.20927 9.07779 5.97154 8.78465 5.97154H7.81847V5.06184H12.1816V5.9716ZM15.4123 10.042H14.2693C13.9761 10.042 13.7385 9.8043 13.7385 9.51109C13.7385 9.21789 13.9761 8.98016 14.2693 8.98016H15.4123C15.7054 8.98016 15.9431 9.21786 15.9431 9.51109C15.9431 9.80433 15.7054 10.042 15.4123 10.042Z" fill="currentColor"/>
</g>
<defs>
<clipPath id="clip0_9304_1991">
<rect width="20" height="20" fill="white"/>
</clipPath>
</defs>
</svg>
