<svg width="43" height="35" viewBox="0 0 43 35" fill="none" xmlns="http://www.w3.org/2000/svg">
<mask id="path-1-inside-1_0_1" fill="white">
<path fill-rule="evenodd" clip-rule="evenodd" d="M6 0C2.68629 0 0 2.68629 0 6V29C0 32.3137 2.68629 35 6 35H33C36.3137 35 39 32.3137 39 29V22.3172L41.9758 19.3414C42.7569 18.5603 42.7569 17.294 41.9758 16.5129L39 13.5371V6C39 2.68629 36.3137 0 33 0H6Z"/>
</mask>
<path fill-rule="evenodd" clip-rule="evenodd" d="M6 0C2.68629 0 0 2.68629 0 6V29C0 32.3137 2.68629 35 6 35H33C36.3137 35 39 32.3137 39 29V22.3172L41.9758 19.3414C42.7569 18.5603 42.7569 17.294 41.9758 16.5129L39 13.5371V6C39 2.68629 36.3137 0 33 0H6Z" fill="white"/>
<path d="M39 22.3172L38.2929 21.6101L38 21.903V22.3172H39ZM41.9758 16.5129L41.2687 17.2201V17.2201L41.9758 16.5129ZM39 13.5371H38V13.9513L38.2929 14.2442L39 13.5371ZM1 6C1 3.23858 3.23858 1 6 1V-1C2.13401 -1 -1 2.13401 -1 6H1ZM1 29V6H-1V29H1ZM6 34C3.23858 34 1 31.7614 1 29H-1C-1 32.866 2.13401 36 6 36V34ZM33 34H6V36H33V34ZM38 29C38 31.7614 35.7614 34 33 34V36C36.866 36 40 32.866 40 29H38ZM38 22.3172V29H40V22.3172H38ZM41.2687 18.6343L38.2929 21.6101L39.7071 23.0243L42.6829 20.0485L41.2687 18.6343ZM41.2687 17.2201C41.6593 17.6106 41.6593 18.2437 41.2687 18.6343L42.6829 20.0485C43.8545 18.8769 43.8545 16.9774 42.6829 15.8058L41.2687 17.2201ZM38.2929 14.2442L41.2687 17.2201L42.6829 15.8058L39.7071 12.83L38.2929 14.2442ZM38 6V13.5371H40V6H38ZM33 1C35.7614 1 38 3.23858 38 6H40C40 2.13401 36.866 -1 33 -1V1ZM6 1H33V-1H6V1Z" fill="#F75847" mask="url(#path-1-inside-1_0_1)"/>
<g clip-path="url(#clip0_0_1)">
<path d="M11.5 16.125H15.25V24.25H11.5C11.3342 24.25 11.1753 24.1842 11.0581 24.0669C10.9408 23.9497 10.875 23.7908 10.875 23.625V16.75C10.875 16.5842 10.9408 16.4253 11.0581 16.3081C11.1753 16.1908 11.3342 16.125 11.5 16.125V16.125Z" stroke="#F75847" stroke-width="1.2" stroke-linecap="round" stroke-linejoin="round"/>
<path d="M15.25 16.125L18.375 9.875C19.038 9.875 19.6739 10.1384 20.1428 10.6072C20.6116 11.0761 20.875 11.712 20.875 12.375V14.25H25.7109C25.8882 14.2496 26.0635 14.2871 26.225 14.36C26.3866 14.4329 26.5306 14.5395 26.6476 14.6727C26.7645 14.8059 26.8516 14.9626 26.9029 15.1323C26.9543 15.3019 26.9687 15.4806 26.9453 15.6562L26.0078 23.1562C25.9699 23.4573 25.8237 23.7343 25.5966 23.9356C25.3695 24.1368 25.0769 24.2486 24.7734 24.25H15.25" stroke="#F75847" stroke-width="1.2" stroke-linecap="round" stroke-linejoin="round"/>
</g>
<defs>
<clipPath id="clip0_0_1">
<rect width="20" height="20" fill="white" transform="translate(9 8)"/>
</clipPath>
</defs>
</svg>
