<svg width="63" height="251" viewBox="0 0 63 251" fill="none" xmlns="http://www.w3.org/2000/svg">
<path fill-rule="evenodd" clip-rule="evenodd" d="M52.7756 6.33826L52.905 7.32983L53.0343 8.32144C54.6586 8.10956 56.316 8.00015 58 8.00015H62.4286V7.00015V6.00015H58C56.2293 6.00015 54.4855 6.1152 52.7756 6.33826ZM18 50.4168H19H20V46.0002C20 44.3162 20.1094 42.6588 20.3213 41.0345L19.3297 40.9051L18.3381 40.7758C18.1151 42.4857 18 44.2295 18 46.0002V50.4168ZM21.0352 30.6886L21.9589 31.0717L22.8827 31.4547C24.1633 28.3665 25.84 25.4829 27.8499 22.8674L27.0569 22.2581L26.264 21.6488C24.1489 24.4012 22.3837 27.4367 21.0352 30.6886ZM33.6486 14.2642L34.258 15.0571L34.8673 15.85C37.4828 13.8401 40.3664 12.1635 43.4546 10.8828L43.0715 9.95911L42.6885 9.03537C39.4366 10.3839 36.4011 12.149 33.6486 14.2642ZM18 59.2502H19H20V68.0836H19H18V59.2502ZM18 76.917H19H20V85.7504H19H18V76.917ZM18 94.5838H19H20V103.417H19H18V94.5838ZM18 112.251H19H20V121.084H19H18V112.251Z" fill="#ACAFD7"/>
<path fill-rule="evenodd" clip-rule="evenodd" d="M52.7756 246.746L52.905 245.754L53.0343 244.763C54.6586 244.974 56.316 245.084 58 245.084H62.4286V246.084V247.084H58C56.2293 247.084 54.4855 246.969 52.7756 246.746ZM18 202.667H19H20V207.084C20 208.768 20.1094 210.425 20.3213 212.05L19.3297 212.179L18.3381 212.308C18.1151 210.598 18 208.855 18 207.084V202.667ZM21.0352 222.395L21.9589 222.012L22.8827 221.629C24.1633 224.717 25.84 227.601 27.8499 230.217L27.0569 230.826L26.264 231.435C24.1489 228.683 22.3837 225.647 21.0352 222.395ZM33.6486 238.82L34.258 238.027L34.8673 237.234C37.4828 239.244 40.3664 240.921 43.4546 242.201L43.0715 243.125L42.6885 244.049C39.4366 242.7 36.4011 240.935 33.6486 238.82ZM18 193.834H19H20V185H19H18V193.834ZM18 176.167H19H20V167.334H19H18V176.167ZM18 158.5H19H20V149.667H19H18V158.5ZM18 140.833H19H20V132H19H18V140.833Z" fill="#ACAFD7"/>
<circle cx="57" cy="6" r="5" fill="#F96254" stroke="#F96254" stroke-width="2"/>
<circle cx="57" cy="245" r="5" fill="white" stroke="#F96254" stroke-width="2"/>
<circle cx="19.5" cy="126.5" r="19.5" fill="#3944B3"/>
<g clip-path="url(#clip0_420_1143)">
<path d="M28.625 124.625H27.6969L25.3078 119.254C25.2008 119.011 25.0251 118.804 24.8022 118.659C24.5793 118.514 24.319 118.437 24.0531 118.438H13.9469C13.681 118.437 13.4207 118.514 13.1978 118.659C12.9749 118.804 12.7992 119.011 12.6922 119.254L10.3031 124.625H9.375C9.19266 124.625 9.0178 124.697 8.88886 124.826C8.75993 124.955 8.6875 125.13 8.6875 125.313C8.6875 125.495 8.75993 125.67 8.88886 125.799C9.0178 125.928 9.19266 126 9.375 126H10.0625V132.875C10.0625 133.24 10.2074 133.589 10.4652 133.847C10.7231 134.105 11.0728 134.25 11.4375 134.25H13.5C13.8647 134.25 14.2144 134.105 14.4723 133.847C14.7301 133.589 14.875 133.24 14.875 132.875V131.5H23.125V132.875C23.125 133.24 23.2699 133.589 23.5277 133.847C23.7856 134.105 24.1353 134.25 24.5 134.25H26.5625C26.9272 134.25 27.2769 134.105 27.5348 133.847C27.7926 133.589 27.9375 133.24 27.9375 132.875V126H28.625C28.8073 126 28.9822 125.928 29.1111 125.799C29.2401 125.67 29.3125 125.495 29.3125 125.313C29.3125 125.13 29.2401 124.955 29.1111 124.826C28.9822 124.697 28.8073 124.625 28.625 124.625ZM14.875 128.75H13.5C13.3177 128.75 13.1428 128.678 13.0139 128.549C12.8849 128.42 12.8125 128.245 12.8125 128.063C12.8125 127.88 12.8849 127.705 13.0139 127.576C13.1428 127.447 13.3177 127.375 13.5 127.375H14.875C15.0573 127.375 15.2322 127.447 15.3611 127.576C15.4901 127.705 15.5625 127.88 15.5625 128.063C15.5625 128.245 15.4901 128.42 15.3611 128.549C15.2322 128.678 15.0573 128.75 14.875 128.75ZM23.125 128.75C22.9427 128.75 22.7678 128.678 22.6389 128.549C22.5099 128.42 22.4375 128.245 22.4375 128.063C22.4375 127.88 22.5099 127.705 22.6389 127.576C22.7678 127.447 22.9427 127.375 23.125 127.375H24.5C24.6823 127.375 24.8572 127.447 24.9861 127.576C25.1151 127.705 25.1875 127.88 25.1875 128.063C25.1875 128.245 25.1151 128.42 24.9861 128.549C24.8572 128.678 24.6823 128.75 24.5 128.75H23.125Z" fill="white"/>
</g>
<defs>
<clipPath id="clip0_420_1143">
<rect width="22" height="22" fill="white" transform="translate(8 115)"/>
</clipPath>
</defs>
</svg>
