<svg width="63" height="251" viewBox="0 0 63 251" fill="none" xmlns="http://www.w3.org/2000/svg">
<path fill-rule="evenodd" clip-rule="evenodd" d="M10.2244 6.33826L10.095 7.32983L9.9657 8.32144C8.34138 8.10956 6.68398 8.00015 5.00002 8.00015H0.571442V7.00015V6.00015H5.00002C6.7707 6.00015 8.51451 6.1152 10.2244 6.33826ZM45 50.4168H44H43V46.0002C43 44.3162 42.8906 42.6588 42.6787 41.0345L43.6703 40.9051L44.6619 40.7758C44.8849 42.4857 45 44.2295 45 46.0002V50.4168ZM41.9648 30.6886L41.0411 31.0717L40.1173 31.4547C38.8367 28.3665 37.16 25.4829 35.1501 22.8674L35.9431 22.2581L36.736 21.6488C38.8511 24.4012 40.6163 27.4367 41.9648 30.6886ZM29.3514 14.2642L28.742 15.0571L28.1327 15.85C25.5172 13.8401 22.6336 12.1635 19.5454 10.8828L19.9285 9.95911L20.3115 9.03537C23.5634 10.3839 26.5989 12.149 29.3514 14.2642ZM45 59.2502H44H43V68.0836H44H45V59.2502ZM45 76.917H44H43V85.7504H44H45V76.917ZM45 94.5838H44H43V103.417H44H45V94.5838ZM45 112.251H44H43V121.084H44H45V112.251Z" fill="#ACAFD7"/>
<path fill-rule="evenodd" clip-rule="evenodd" d="M10.2244 246.746L10.095 245.754L9.9657 244.763C8.34138 244.974 6.68398 245.084 5.00002 245.084H0.571442V246.084V247.084H5.00002C6.7707 247.084 8.51451 246.969 10.2244 246.746ZM45 202.667H44H43V207.084C43 208.768 42.8906 210.425 42.6787 212.05L43.6703 212.179L44.6619 212.308C44.8849 210.598 45 208.855 45 207.084V202.667ZM41.9648 222.395L41.0411 222.012L40.1173 221.629C38.8367 224.717 37.16 227.601 35.1501 230.217L35.9431 230.826L36.736 231.435C38.8511 228.683 40.6163 225.647 41.9648 222.395ZM29.3514 238.82L28.742 238.027L28.1327 237.234C25.5172 239.244 22.6336 240.921 19.5454 242.201L19.9285 243.125L20.3115 244.049C23.5634 242.7 26.5989 240.935 29.3514 238.82ZM45 193.834H44H43V185H44H45V193.834ZM45 176.167H44H43V167.334H44H45V176.167ZM45 158.5H44H43V149.667H44H45V158.5ZM45 140.833H44H43V132H44H45V140.833Z" fill="#ACAFD7"/>
<circle r="5" transform="matrix(-1 0 0 1 6 6)" fill="#F96254" stroke="#F96254" stroke-width="2"/>
<circle r="5" transform="matrix(-1 0 0 1 6 245)" fill="white" stroke="#F96254" stroke-width="2"/>
<circle r="19.5" transform="matrix(-1 0 0 1 43.5 126.5)" fill="#28C46F"/>
<path d="M48.1237 133.562C48.1237 133.744 48.0512 133.919 47.9223 134.048C47.7934 134.177 47.6185 134.249 47.4362 134.249H35.0612C34.8788 134.249 34.704 134.177 34.575 134.048C34.4461 133.919 34.3737 133.744 34.3737 133.562C34.3737 133.379 34.4461 133.205 34.575 133.076C34.704 132.947 34.8788 132.874 35.0612 132.874H47.4362C47.6185 132.874 47.7934 132.947 47.9223 133.076C48.0512 133.205 48.1237 133.379 48.1237 133.562ZM54.2338 122.691L52.6354 120.731C52.1682 120.157 51.5102 119.77 50.7813 119.641C50.0524 119.511 49.3013 119.648 48.6651 120.027L44.9869 122.184L39.9854 120.516C39.904 120.489 39.8154 120.492 39.7362 120.525L38.3182 121.135C38.1599 121.204 38.0213 121.311 37.9151 121.447C37.8089 121.582 37.7385 121.743 37.7103 121.913C37.6821 122.083 37.697 122.258 37.7536 122.42C37.8103 122.583 37.9069 122.729 38.0346 122.845L40.3205 124.908L38.4729 125.956L36.2299 124.994C36.1415 124.959 36.0433 124.959 35.9549 124.994L34.5198 125.613C34.3619 125.68 34.2233 125.785 34.1165 125.92C34.0098 126.054 33.9382 126.213 33.9083 126.382C33.8785 126.551 33.8912 126.725 33.9455 126.887C33.9997 127.05 34.0937 127.197 34.219 127.314L37.4588 130.348C37.9425 130.806 38.5617 131.094 39.2234 131.17C39.8851 131.246 40.5535 131.105 41.1284 130.769L54.1393 123.206C54.1824 123.181 54.2194 123.146 54.2476 123.104C54.2758 123.062 54.2946 123.015 54.3026 122.966C54.3108 122.918 54.3089 122.868 54.2971 122.821C54.2852 122.774 54.2637 122.729 54.2338 122.691V122.691Z" fill="white"/>
</svg>
