<svg width="63" height="251" viewBox="0 0 63 251" fill="none" xmlns="http://www.w3.org/2000/svg">
<path fill-rule="evenodd" clip-rule="evenodd" d="M52.7756 6.33826L52.905 7.32983L53.0343 8.32144C54.6586 8.10956 56.316 8.00015 58 8.00015H62.4286V7.00015V6.00015H58C56.2293 6.00015 54.4855 6.1152 52.7756 6.33826ZM18 50.4168H19H20V46.0002C20 44.3162 20.1094 42.6588 20.3213 41.0345L19.3297 40.9051L18.3381 40.7758C18.1151 42.4857 18 44.2295 18 46.0002V50.4168ZM21.0352 30.6886L21.9589 31.0717L22.8827 31.4547C24.1633 28.3665 25.84 25.4829 27.8499 22.8674L27.0569 22.2581L26.264 21.6488C24.1489 24.4012 22.3837 27.4367 21.0352 30.6886ZM33.6486 14.2642L34.258 15.0571L34.8673 15.85C37.4828 13.8401 40.3664 12.1635 43.4546 10.8828L43.0715 9.95911L42.6885 9.03537C39.4366 10.3839 36.4011 12.149 33.6486 14.2642ZM18 59.2502H19H20V68.0836H19H18V59.2502ZM18 76.917H19H20V85.7504H19H18V76.917ZM18 94.5838H19H20V103.417H19H18V94.5838ZM18 112.251H19H20V121.084H19H18V112.251Z" fill="#ACAFD7"/>
<path fill-rule="evenodd" clip-rule="evenodd" d="M52.7756 246.746L52.905 245.754L53.0343 244.763C54.6586 244.974 56.316 245.084 58 245.084H62.4286V246.084V247.084H58C56.2293 247.084 54.4855 246.969 52.7756 246.746ZM18 202.667H19H20V207.084C20 208.768 20.1094 210.425 20.3213 212.05L19.3297 212.179L18.3381 212.308C18.1151 210.598 18 208.855 18 207.084V202.667ZM21.0352 222.395L21.9589 222.012L22.8827 221.629C24.1633 224.717 25.84 227.601 27.8499 230.217L27.0569 230.826L26.264 231.435C24.1489 228.683 22.3837 225.647 21.0352 222.395ZM33.6486 238.82L34.258 238.027L34.8673 237.234C37.4828 239.244 40.3664 240.921 43.4546 242.201L43.0715 243.125L42.6885 244.049C39.4366 242.7 36.4011 240.935 33.6486 238.82ZM18 193.834H19H20V185H19H18V193.834ZM18 176.167H19H20V167.334H19H18V176.167ZM18 158.5H19H20V149.667H19H18V158.5ZM18 140.833H19H20V132H19H18V140.833Z" fill="#ACAFD7"/>
<circle cx="57" cy="6" r="5" fill="#F96254" stroke="#F96254" stroke-width="2"/>
<circle cx="57" cy="245" r="5" fill="white" stroke="#F96254" stroke-width="2"/>
<circle cx="19.5" cy="126.5" r="19.5" fill="#F75847"/>
<path d="M15.616 122.712L18.821 120.384C19.1808 120.121 19.6184 119.986 20.064 120C20.6076 120.014 21.1333 120.196 21.5683 120.522C22.0033 120.848 22.3258 121.302 22.491 121.82C22.677 122.403 22.847 122.797 23.001 123.002C23.4664 123.623 24.07 124.127 24.764 124.473C25.4579 124.82 26.2232 125.001 26.999 125V127C25.9663 127.001 24.9462 126.773 24.0121 126.333C23.0781 125.892 22.2532 125.25 21.597 124.453L20.9 128.408L22.961 130.138L25.184 136.246L23.304 136.93L21.264 131.326L17.874 128.481C17.5958 128.256 17.383 127.961 17.2576 127.626C17.1322 127.291 17.0988 126.929 17.161 126.577L17.67 123.692L16.993 124.184L14.866 127.112L13.248 125.936L15.599 122.7L15.616 122.712ZM21.499 119.5C20.9686 119.5 20.4599 119.289 20.0848 118.914C19.7098 118.539 19.499 118.03 19.499 117.5C19.499 116.97 19.7098 116.461 20.0848 116.086C20.4599 115.711 20.9686 115.5 21.499 115.5C22.0295 115.5 22.5382 115.711 22.9133 116.086C23.2883 116.461 23.499 116.97 23.499 117.5C23.499 118.03 23.2883 118.539 22.9133 118.914C22.5382 119.289 22.0295 119.5 21.499 119.5ZM18.527 132.681L15.313 136.511L13.781 135.226L16.757 131.68L17.503 129.5L19.294 131L18.527 132.681Z" fill="white"/>
</svg>
