<svg xmlns="http://www.w3.org/2000/svg" xmlns:xlink="http://www.w3.org/1999/xlink" viewBox="0,0,256,256" width="48px" height="48px" fill-rule="none"><g fill="#0077b5" fill-rule="none" stroke="none" stroke-width="1" stroke-linecap="butt" stroke-linejoin="miter" stroke-miterlimit="10" stroke-dasharray="" stroke-dashoffset="0" font-family="none" font-weight="none" font-size="none" text-anchor="none" style="mix-blend-mode: normal"><g transform="scale(4,4)"><path d="M37.5,27c3.59,0 6.5,2.91 6.5,6.5c0,0 0,4.79 0,7.179c0,0.729 -0.592,1.321 -1.321,1.321c-0.436,0 -0.921,0 -1.357,0c-0.73,0 -1.322,-0.592 -1.322,-1.321v-6.179c0,-1.925 -1.575,-3.5 -3.5,-3.5c-1.925,0 -3.5,1.575 -3.5,3.5c0,0 0,4.026 0,6.179c0,0.729 -0.592,1.321 -1.321,1.321c-0.436,0 -0.921,0 -1.357,0c-0.73,0 -1.322,-0.592 -1.322,-1.321c0,-2.843 0,-9.514 0,-12.357c0,-0.73 0.592,-1.322 1.321,-1.322c0.436,0 0.921,0 1.357,0c0.73,0 1.322,0.592 1.322,1.321v0.495c1.168,-1.122 2.752,-1.816 4.5,-1.816z" fill-rule="nonzero"></path><path d="M25,28.34c0,2.847 0,9.474 0,12.321c0,0.739 -0.6,1.339 -1.34,1.339c-0.425,0 -0.896,0 -1.321,0c-0.739,0 -1.339,-0.6 -1.339,-1.34c0,-2.847 0,-9.474 0,-12.321c0,-0.739 0.6,-1.339 1.34,-1.339c0.425,0 0.896,0 1.321,0c0.739,0 1.339,0.6 1.339,1.34z" fill-rule="nonzero"></path><path d="M23,20c1.104,0 2,0.896 2,2c0,1.104 -0.896,2 -2,2c-1.104,0 -2,-0.896 -2,-2c0,-1.104 0.896,-2 2,-2z" fill-rule="evenodd"></path><path d="M32,54c-12.131,0 -22,-9.869 -22,-22c0,-12.131 9.869,-22 22,-22c12.131,0 22,9.869 22,22c0,12.131 -9.869,22 -22,22zM32,14c-9.925,0 -18,8.075 -18,18c0,9.925 8.075,18 18,18c9.925,0 18,-8.075 18,-18c0,-9.925 -8.075,-18 -18,-18z" fill-rule="nonzero"></path></g></g></svg>