<svg width="20" height="20" viewBox="0 0 20 20" fill="currentColor" xmlns="http://www.w3.org/2000/svg">
<g clip-path="url(#clip0_9304_1939)">
<path fill-rule="evenodd" clip-rule="evenodd" d="M8.29397 4.27735C7.7848 4.27735 7.37044 4.67918 7.37044 5.17306L7.37042 6.04629H6.5686V5.17306C6.5686 4.25042 7.34265 3.5 8.29395 3.5H11.7083C12.6598 3.5 13.4337 4.25042 13.4337 5.17306V6.04629H12.632V5.17306C12.632 4.67916 12.2176 4.27735 11.7083 4.27735H8.29397ZM16.8182 6.70763H3.18181C2.80529 6.70763 2.5 7.00365 2.5 7.36878V9.5802L8.80681 10.9695V10.3336C8.80681 10.1511 8.95953 10.003 9.14772 10.003H10.8523C11.0406 10.003 11.1932 10.1511 11.1932 10.3336V10.9703L17.5 9.58565V7.36878C17.5 7.00365 17.1947 6.70763 16.8182 6.70763ZM11.1932 12.9782C11.1932 13.1607 11.0406 13.3088 10.8523 13.3088H9.14775C8.95956 13.3088 8.80684 13.1607 8.80684 12.9782V11.8169L2.5 10.4275V15.9638C2.5 16.329 2.80529 16.625 3.18181 16.625H16.8182C17.1947 16.625 17.5 16.329 17.5 15.9638V10.4331L11.1932 11.8177V12.9782Z" fill="currentColor"/>
</g>
<defs>
<clipPath id="clip0_9304_1939">
<rect width="20" height="20" fill="white"/>
</clipPath>
</defs>
</svg>
