<svg xmlns="http://www.w3.org/2000/svg" width="20.998" height="21" viewBox="222 17 20.998 21"><path d="M242.227 17.771a2.595 2.595 0 0 0-2.45-.7l-14 2.95a4.37 4.37 0 0 0-2.496 7.42l1.503 1.503a.875.875 0 0 1 .256.62v2.771c.002.39.092.774.263 1.125l-.007.006.022.022c.257.516.676.933 1.192 1.187l.023.023.006-.007c.35.17.735.26 1.125.262h2.772c.231 0 .454.092.618.256l1.503 1.502a4.343 4.343 0 0 0 4.484 1.058 4.316 4.316 0 0 0 2.926-3.488l2.953-14.03a2.603 2.603 0 0 0-.693-2.48Zm-16.204 9.937-1.504-1.502a2.573 2.573 0 0 1-.632-2.69 2.606 2.606 0 0 1 2.187-1.773l13.862-2.918-13.148 13.149v-2.41a2.606 2.606 0 0 0-.765-1.856Zm12.225 6.274a2.625 2.625 0 0 1-4.453 1.498l-1.505-1.505a2.606 2.606 0 0 0-1.854-.768h-2.411l13.149-13.145-2.926 13.92Z" fill="#fff" fill-rule="evenodd" data-name="paper-plane"/></svg>