 <svg width="26" height="26" viewBox="0 0 26 26" stroke="currentColor" fill="none" xmlns="http://www.w3.org/2000/svg">
      <path d="M13 22.75C18.3848 22.75 22.75 18.3848 22.75 13C22.75 7.61522 18.3848 3.25 13 3.25C7.61522 3.25 3.25 7.61522 3.25 13C3.25 18.3848 7.61522 22.75 13 22.75Z" stroke="currentColor" stroke-linecap="round" stroke-linejoin="round" />
      <path d="M13 19.5C13.6731 19.5 14.2188 18.9543 14.2188 18.2812C14.2188 17.6082 13.6731 17.0625 13 17.0625C12.3269 17.0625 11.7812 17.6082 11.7812 18.2812C11.7812 18.9543 12.3269 19.5 13 19.5Z" fill="none" />
      <path d="M13 14.625V13.8125C13.5624 13.8125 14.1123 13.6457 14.5799 13.3332C15.0476 13.0208 15.412 12.5766 15.6273 12.057C15.8425 11.5374 15.8988 10.9656 15.7891 10.414C15.6794 9.86233 15.4085 9.35562 15.0108 8.95792C14.6131 8.56021 14.1064 8.28937 13.5548 8.17964C13.0032 8.06992 12.4314 8.12623 11.9117 8.34147C11.3921 8.55671 10.948 8.9212 10.6355 9.38885C10.323 9.8565 10.1562 10.4063 10.1562 10.9688" stroke-linecap="round" stroke-linejoin="round" />
    </svg> 