<svg width="20" height="20" viewBox="0 0 20 20" fill="currentColor" xmlns="http://www.w3.org/2000/svg">
<g clip-path="url(#clip0_9304_1968)">
<path d="M16.7308 8.59375H16.5181L14.155 4.33496C14.0531 4.15083 13.7962 4 13.5846 4H6.41538C6.20385 4 5.94692 4.15083 5.845 4.33496L3.48154 8.59375H3.26923C2.84615 8.59375 2.5 8.93828 2.5 9.35938V13.1875C2.5 13.6086 2.84615 13.9531 3.26923 13.9531H4.03846V15.1016C4.03846 15.7332 4.55769 16.25 5.19231 16.25H5.57692C6.21154 16.25 6.73077 15.7332 6.73077 15.1016V13.9531H13.2692V15.1016C13.2692 15.7332 13.7885 16.25 14.4231 16.25H14.8077C15.4423 16.25 15.9615 15.7332 15.9615 15.1016V13.9531H16.7308C17.1538 13.9531 17.5 13.6086 17.5 13.1875V9.35938C17.5 8.93828 17.1538 8.59375 16.7308 8.59375ZM4.61538 11.6562C4.08423 11.6562 3.65385 11.2279 3.65385 10.6992C3.65385 10.1706 4.08423 9.74219 4.61538 9.74219C5.14654 9.74219 5.57692 10.1706 5.57692 10.6992C5.57692 11.2279 5.14654 11.6562 4.61538 11.6562ZM5.38462 8.59375L6.94346 5.49105C7.03808 5.30233 7.28846 5.14844 7.5 5.14844H12.5C12.7115 5.14844 12.9619 5.30233 13.0565 5.49105L14.6154 8.59375H5.38462ZM15.3846 11.6562C14.8535 11.6562 14.4231 11.2279 14.4231 10.6992C14.4231 10.1706 14.8535 9.74219 15.3846 9.74219C15.9158 9.74219 16.3462 10.1706 16.3462 10.6992C16.3462 11.2279 15.9158 11.6562 15.3846 11.6562Z" fill="currentColor"/>
</g>
<defs>
<clipPath id="clip0_9304_1968">
<rect width="20" height="20" fill="white"/>
</clipPath>
</defs>
</svg>
