<svg width="15" height="14" viewBox="0 0 15 14" stroke="currentColor" fill="none" xmlns="http://www.w3.org/2000/svg">
<path d="M7.75827 11.1736L10.7114 13.0486C11.0923 13.2888 11.561 12.9314 11.4497 12.492L10.5942 9.12868C10.5711 9.03545 10.5748 8.93759 10.6048 8.84636C10.6349 8.75514 10.6901 8.67426 10.7641 8.61305L13.4126 6.40407C13.7583 6.11696 13.5825 5.53688 13.1313 5.50758L9.67428 5.28493C9.57996 5.27944 9.48927 5.24659 9.41331 5.1904C9.33735 5.13421 9.2794 5.05711 9.24655 4.96852L7.95749 1.72243C7.92336 1.62862 7.8612 1.54758 7.77944 1.49032C7.69768 1.43306 7.60028 1.40234 7.50046 1.40234C7.40063 1.40234 7.30323 1.43306 7.22147 1.49032C7.13971 1.54758 7.07755 1.62862 7.04342 1.72243L5.75436 4.96852C5.72151 5.05711 5.66356 5.13421 5.5876 5.1904C5.51164 5.24659 5.42095 5.27944 5.32663 5.28493L1.8696 5.50758C1.41842 5.53688 1.24264 6.11696 1.58835 6.40407L4.23678 8.61305C4.31081 8.67426 4.36603 8.75514 4.3961 8.84636C4.42616 8.93759 4.42984 9.03545 4.40671 9.12868L3.61569 12.2459C3.48092 12.7732 4.04342 13.2009 4.4946 12.9138L7.24264 11.1736C7.3197 11.1246 7.40913 11.0986 7.50046 11.0986C7.59178 11.0986 7.68121 11.1246 7.75827 11.1736V11.1736Z" stroke-width="1.2" stroke-linecap="round" stroke-linejoin="round"/>
</svg>
