<svg xmlns="http://www.w3.org/2000/svg" width="224.645" height="54" viewBox="680.643 178 224.645 54"><g data-name="Group 316"><g data-name="Group 3"><path d="m726.586 225.637.234 1.942a.044.044 0 0 0 .02.031l1.62 1.109a.148.148 0 0 1-.022.264l-1.794.792a.045.045 0 0 0-.026.03l-.454 1.961a.148.148 0 0 1-.258.061l-1.36-1.602a.044.044 0 0 0-.039-.016l-2.06.17a.148.148 0 0 1-.138-.226l1.05-1.706a.045.045 0 0 0 .004-.04l-.704-1.842a.148.148 0 0 1 .173-.2l1.939.38c.013.002.026-.001.036-.009l1.534-1.201a.148.148 0 0 1 .245.102Z" fill="#ffb655" fill-rule="evenodd" data-name="Path 3"/></g><g data-name="Group 4"><path d="m849.424 205.58.235 1.942a.044.044 0 0 0 .02.032l1.619 1.108a.148.148 0 0 1-.022.264l-1.794.792a.045.045 0 0 0-.026.031l-.454 1.96a.148.148 0 0 1-.258.061l-1.36-1.602a.045.045 0 0 0-.038-.015l-2.061.17a.148.148 0 0 1-.138-.227l1.05-1.706a.045.045 0 0 0 .004-.04l-.704-1.841a.148.148 0 0 1 .173-.201l1.94.38c.012.003.025 0 .036-.009l1.534-1.2a.148.148 0 0 1 .244.101Z" fill="#ffb655" fill-rule="evenodd" data-name="Path 4"/></g><g data-name="Group 5"><path d="m867.869 227.711 1.029.833a.03.03 0 0 0 .024.006l1.309-.225a.1.1 0 0 1 .114.138l-.498 1.23a.03.03 0 0 0 .002.027l.703 1.166a.1.1 0 0 1-.096.152l-1.416-.137a.03.03 0 0 0-.026.01l-.92 1.054a.1.1 0 0 1-.174-.045l-.294-1.324a.03.03 0 0 0-.017-.02l-1.21-.563a.1.1 0 0 1-.01-.18l1.12-.728a.03.03 0 0 0 .014-.022l.179-1.306a.1.1 0 0 1 .167-.066Z" fill="#ffb655" fill-rule="evenodd" data-name="Path 5"/></g><g data-name="Group 6"><path d="m810.93 204.069.211 1.306a.03.03 0 0 0 .014.02l1.125.706a.1.1 0 0 1-.007.179l-1.191.584a.03.03 0 0 0-.017.022l-.253 1.338a.1.1 0 0 1-.173.049l-.964-1.047a.03.03 0 0 0-.026-.01l-1.389.172a.1.1 0 0 1-.1-.149l.664-1.183a.03.03 0 0 0 .002-.026l-.526-1.226a.1.1 0 0 1 .111-.141l1.321.204a.032.032 0 0 0 .025-.007l1.004-.854a.1.1 0 0 1 .168.063Z" fill="#ffb655" fill-rule="evenodd" data-name="Path 6"/></g><g data-name="Group 7"><path d="m706.274 207.59.8.972c.005.006.013.01.021.01l1.264.04a.095.095 0 0 1 .08.151l-.7 1.052a.03.03 0 0 0-.003.026l.434 1.222a.095.095 0 0 1-.119.122l-1.294-.398a.028.028 0 0 0-.026.005l-1.06.807a.095.095 0 0 1-.154-.075l-.02-1.29a.028.028 0 0 0-.013-.023l-1.02-.756a.095.095 0 0 1 .024-.17l1.184-.465a.029.029 0 0 0 .017-.018l.416-1.184a.095.095 0 0 1 .169-.029Z" fill="#ffb655" fill-rule="evenodd" data-name="Path 7"/></g><g data-name="Group 8"><path d="m754.501 219.13 1.14.538a.03.03 0 0 0 .024 0l1.159-.505a.095.095 0 0 1 .137.103l-.182 1.25a.03.03 0 0 0 .008.024l.915.92a.095.095 0 0 1-.055.16l-1.34.195a.028.028 0 0 0-.022.015l-.613 1.184a.095.095 0 0 1-.17-.003l-.572-1.157a.03.03 0 0 0-.02-.016l-1.247-.246a.095.095 0 0 1-.05-.163l.871-.928a.029.029 0 0 0 .008-.023l-.13-1.249a.095.095 0 0 1 .139-.098Z" fill="#ffb655" fill-rule="evenodd" data-name="Path 8"/></g><g data-name="Group 291"><g data-name="Group 275"><path d="M769.043 178h49.358a6.553 6.553 0 0 1 6.553 6.553 6.553 6.553 0 0 1-6.553 6.552h-49.358a6.553 6.553 0 0 1-6.553-6.552 6.553 6.553 0 0 1 6.553-6.553z" fill="#92b4ea" fill-rule="evenodd" data-name="Rectangle 6"/></g><g data-name="Group 278"><g data-name="Group 276"><path d="m772.749 180.047 1.364 2.402a.064.064 0 0 0 .042.03l2.715.562a.21.21 0 0 1 .116.356l-1.906 2.01a.064.064 0 0 0-.017.054l.478 2.803c.029.17-.15.3-.304.22l-2.646-1.346a.062.062 0 0 0-.058 0l-2.593 1.346a.209.209 0 0 1-.303-.22l.439-2.797a.063.063 0 0 0-.017-.053l-1.921-2.017a.209.209 0 0 1 .115-.356l2.735-.561a.064.064 0 0 0 .042-.031l1.344-2.402a.209.209 0 0 1 .375 0Z" fill="#ffb655" fill-rule="evenodd" data-name="Path 225"/></g><g data-name="Group 277"><path d="M769.4 183.22a.056.056 0 0 1-.011-.11l1.62-.336c.03-.006.06.014.066.044a.056.056 0 0 1-.043.066l-1.62.336a.069.069 0 0 1-.011 0Z" fill="#ffdd92" fill-rule="evenodd" data-name="Path 226"/></g></g><g data-name="Group 281"><g data-name="Group 279"><path d="m783.33 180.047 1.363 2.402a.064.064 0 0 0 .042.03l2.715.562a.21.21 0 0 1 .116.356l-1.906 2.01a.062.062 0 0 0-.016.054l.477 2.803c.029.17-.15.3-.303.22l-2.647-1.346a.062.062 0 0 0-.058 0l-2.593 1.346a.209.209 0 0 1-.303-.22l.439-2.797a.062.062 0 0 0-.017-.053l-1.921-2.017a.21.21 0 0 1 .116-.356l2.734-.561a.064.064 0 0 0 .043-.031l1.343-2.402a.209.209 0 0 1 .375 0Z" fill="#ffb655" fill-rule="evenodd" data-name="Path 227"/></g><g data-name="Group 280"><path d="M779.98 183.22a.056.056 0 0 1-.011-.11l1.62-.336a.056.056 0 1 1 .022.11l-1.619.336a.063.063 0 0 1-.011 0Z" fill="#ffdd92" fill-rule="evenodd" data-name="Path 228"/></g></g><g data-name="Group 284"><g data-name="Group 282"><path d="m793.91 180.047 1.363 2.402a.064.064 0 0 0 .042.03l2.715.562c.172.025.24.235.116.356l-1.906 2.01a.062.062 0 0 0-.016.054l.477 2.803c.03.17-.15.3-.303.22l-2.647-1.346a.062.062 0 0 0-.058 0l-2.593 1.346a.209.209 0 0 1-.303-.22l.44-2.797a.063.063 0 0 0-.018-.053l-1.921-2.017a.209.209 0 0 1 .116-.356l2.734-.561a.064.064 0 0 0 .042-.031l1.344-2.402a.209.209 0 0 1 .375 0Z" fill="#ffb655" fill-rule="evenodd" data-name="Path 229"/></g><g data-name="Group 283"><path d="M790.561 183.22a.056.056 0 0 1-.011-.11l1.62-.336a.056.056 0 1 1 .022.11l-1.62.336a.069.069 0 0 1-.01 0Z" fill="#ffdd92" fill-rule="evenodd" data-name="Path 230"/></g></g><g data-name="Group 287"><g data-name="Group 285"><path d="m804.49 180.047 1.363 2.402a.064.064 0 0 0 .043.03l2.714.562a.21.21 0 0 1 .116.356l-1.906 2.01a.062.062 0 0 0-.016.054l.477 2.803c.03.17-.15.3-.303.22l-2.647-1.346a.062.062 0 0 0-.058 0l-2.592 1.346a.209.209 0 0 1-.304-.22l.44-2.797a.063.063 0 0 0-.017-.053l-1.922-2.017a.21.21 0 0 1 .116-.356l2.734-.561a.064.064 0 0 0 .043-.031l1.344-2.402a.209.209 0 0 1 .375 0Z" fill="#ffb655" fill-rule="evenodd" data-name="Path 231"/></g><g data-name="Group 286"><path d="M801.141 183.22a.056.056 0 0 1-.011-.11l1.62-.336c.03-.006.06.014.066.044a.056.056 0 0 1-.044.066l-1.62.336a.064.064 0 0 1-.01 0Z" fill="#ffdd92" fill-rule="evenodd" data-name="Path 232"/></g></g><g data-name="Group 290"><g data-name="Group 288"><path d="m815.07 180.047 1.363 2.402a.064.064 0 0 0 .042.03l2.715.562a.21.21 0 0 1 .116.356l-1.906 2.01a.063.063 0 0 0-.016.054l.477 2.803c.03.17-.15.3-.303.22l-2.647-1.346a.062.062 0 0 0-.057 0l-2.593 1.346a.209.209 0 0 1-.303-.22l.439-2.797a.064.064 0 0 0-.017-.053l-1.922-2.017a.21.21 0 0 1 .116-.356l2.734-.561a.064.064 0 0 0 .043-.031l1.344-2.402a.209.209 0 0 1 .375 0Z" fill="#ffb655" fill-rule="evenodd" data-name="Path 233"/></g><g data-name="Group 289"><path d="M811.721 183.22a.055.055 0 0 1-.054-.044.056.056 0 0 1 .043-.065l1.62-.337a.056.056 0 0 1 .022.11l-1.619.336a.07.07 0 0 1-.012 0Z" fill="#ffdd92" fill-rule="evenodd" data-name="Path 234"/></g></g></g><g data-name="Group 292"><path d="M685.301 216.861a5.463 5.463 0 1 1 .086.051z" fill="#7ca1d6" fill-rule="evenodd" data-name="Ellipse 2"/></g><g data-name="Group 293"><path d="M694.155 210.678a5.463 5.463 0 1 1-10.585 2.712 5.463 5.463 0 0 1 10.585-2.712Z" fill="#92b4ea" fill-rule="evenodd" data-name="Path 235"/></g><g data-name="Group 294"><path d="M690.586 209.383c-.663-.186-1.475.587-1.945 1.782-.987-.822-2.07-1.109-2.563-.627-.561.549-.161 1.907.937 2.99.859.847 2.036 1.223 2.067 1.234.527.18.657.078.902-.232.02-.025.857-.846 1.219-2.075.435-1.48.14-2.861-.617-3.072Z" fill="#fff" fill-rule="evenodd" data-name="Path 236"/></g><g data-name="Group 295"><path d="M767.239 204.313a5.463 5.463 0 1 1 0 .1z" fill="#7ca1d6" fill-rule="evenodd" data-name="Ellipse 3"/></g><g data-name="Group 296"><path d="M766.718 202.859a5.463 5.463 0 1 0 10.585 2.712 5.463 5.463 0 0 0-10.585-2.712Z" fill="#92b4ea" fill-rule="evenodd" data-name="Path 237"/></g><g data-name="Group 297"><path d="M770.287 201.564c.663-.186 1.475.587 1.945 1.783.987-.823 2.07-1.11 2.563-.628.561.549.161 1.907-.937 2.99-.859.847-2.036 1.223-2.066 1.234-.528.181-.658.078-.903-.231-.02-.026-.856-.847-1.219-2.076-.435-1.48-.139-2.86.617-3.072Z" fill="#fff" fill-rule="evenodd" data-name="Path 238"/></g><g data-name="Group 298"><path d="M893.074 208.21a5.463 5.463 0 1 1 .05.086z" fill="#7ca1d6" fill-rule="evenodd" data-name="Ellipse 4"/></g><g data-name="Group 299"><path d="M892.375 208.019a5.463 5.463 0 1 1 .05.086z" fill="#92b4ea" fill-rule="evenodd" data-name="Ellipse 5"/></g><g data-name="Group 300"><path d="M895.42 202.702c.664-.186 1.476.587 1.946 1.783.987-.823 2.07-1.11 2.563-.628.561.549.161 1.907-.937 2.99-.859.847-2.036 1.224-2.067 1.234-.527.181-.657.078-.902-.231-.02-.026-.856-.846-1.219-2.076-.435-1.48-.14-2.86.617-3.072Z" fill="#fff" fill-rule="evenodd" data-name="Path 239"/></g><g data-name="Group 307"><g data-name="Group 301"><path d="M733.869 200.023s.561-4.639 1.995-4.615c1.434.024.898 4.778.898 4.778l-2.893-.163Z" fill="#ffb655" fill-rule="evenodd" data-name="Path 240"/></g><g data-name="Group 302"><path d="M731.715 198.076s-4.119-1.082-5.18-.254c-.701.547.468 1.663.468 1.663s-1.733-.097-1.613.792c.12.89.754 1.158.754 1.158s-1.447.24-.577 1.567c.792 1.21 6.885 3.445 8.561 3.625 1.677.181 2.716-6.253 2.618-6.8-.097-.548-5.03-1.751-5.03-1.751Z" fill="#ffb655" fill-rule="evenodd" data-name="Path 241"/></g><g data-name="Group 303"><path d="m733.951 207.642-5.34-1.276a.804.804 0 1 1 .374-1.565l5.34 1.276a.805.805 0 0 1-.374 1.565Z" fill="#5c69a5" fill-rule="evenodd" data-name="Path 242"/></g><g data-name="Group 304"><path d="M728.998 200.16a.134.134 0 0 1-.035-.004l-1.995-.543a.133.133 0 0 1 .07-.257l1.995.543a.133.133 0 0 1-.035.262Z" fill="#fff" fill-rule="evenodd" data-name="Path 243"/></g><g data-name="Group 305"><path d="M728.639 202.253a.136.136 0 0 1-.035-.005l-2.495-.685a.133.133 0 0 1 .07-.256l2.495.684a.133.133 0 0 1-.035.262Z" fill="#fff" fill-rule="evenodd" data-name="Path 244"/></g><g data-name="Group 306"><path d="M734.932 199.171a.132.132 0 0 1-.04-.006l-1.137-.359a.133.133 0 0 1 .08-.253l1.137.358a.133.133 0 0 1-.04.26Z" fill="#fff" fill-rule="evenodd" data-name="Path 245"/></g></g><g data-name="Group 314"><g data-name="Group 308"><path d="M870.252 208.633s-2.486-3.957-1.358-4.842c1.129-.884 3.708 3.145 3.708 3.145l-2.35 1.697Z" fill="#ffb655" fill-rule="evenodd" data-name="Path 246"/></g><g data-name="Group 309"><path d="M867.353 208.477s-3.88 1.755-4.183 3.066c-.2.867 1.41.997 1.41.997s-1.407 1.016-.753 1.631c.654.616 1.315.425 1.315.425s-.972 1.098.539 1.58c1.377.44 7.517-1.662 8.933-2.578 1.416-.915-1.83-6.567-2.252-6.93-.42-.365-5.01 1.81-5.01 1.81Z" fill="#ffb655" fill-rule="evenodd" data-name="Path 247"/></g><g data-name="Group 310"><path d="m875.116 214.498-4.952 2.373a.805.805 0 1 1-.695-1.452l4.951-2.373a.805.805 0 0 1 .696 1.452Z" fill="#5c69a5" fill-rule="evenodd" data-name="Path 248"/></g><g data-name="Group 311"><path d="M864.58 212.673c-.051 0-.1-.03-.121-.08a.133.133 0 0 1 .068-.175l1.89-.835a.133.133 0 1 1 .108.244l-1.891.834a.133.133 0 0 1-.054.012Z" fill="#fff" fill-rule="evenodd" data-name="Path 249"/></g><g data-name="Group 312"><path d="M865.142 214.729c-.051 0-.1-.03-.122-.08a.133.133 0 0 1 .068-.175l2.369-1.04a.133.133 0 0 1 .107.243l-2.368 1.04a.134.134 0 0 1-.054.012Z" fill="#fff" fill-rule="evenodd" data-name="Path 250"/></g><g data-name="Group 313"><path d="M869.348 207.769a.133.133 0 0 1-.049-.257l1.109-.438a.133.133 0 1 1 .098.248l-1.109.438a.132.132 0 0 1-.05.009Z" fill="#fff" fill-rule="evenodd" data-name="Path 251"/></g></g><g data-name="Group 315"><path d="m808.725 188.517-4.72 6.82 10.044-5.194-5.324-1.626Z" fill="#92b4ea" fill-rule="evenodd" data-name="Path 252"/></g></g></svg>