<svg width="20" height="20" viewBox="0 0 20 20" fill="currentColor" xmlns="http://www.w3.org/2000/svg">
<g clip-path="url(#clip0_9270_26055)">
<mask id="mask0_9270_26055" style="mask-type:alpha" maskUnits="userSpaceOnUse" x="0" y="0" width="20" height="20">
<rect width="20" height="20" fill="#D9D9D9"/>
</mask>
<g mask="url(#mask0_9270_26055)">
<path d="M9.16666 14.1667H10.8333V9.16675H9.16666V14.1667ZM9.99999 7.50008C10.2361 7.50008 10.4342 7.42008 10.5942 7.26008C10.7536 7.10064 10.8333 6.90286 10.8333 6.66675C10.8333 6.43064 10.7536 6.23258 10.5942 6.07258C10.4342 5.91314 10.2361 5.83341 9.99999 5.83341C9.76388 5.83341 9.5661 5.91314 9.40666 6.07258C9.24666 6.23258 9.16666 6.43064 9.16666 6.66675C9.16666 6.90286 9.24666 7.10064 9.40666 7.26008C9.5661 7.42008 9.76388 7.50008 9.99999 7.50008ZM9.99999 18.3334C8.84721 18.3334 7.76388 18.1145 6.74999 17.6767C5.7361 17.2395 4.85416 16.6459 4.10416 15.8959C3.35416 15.1459 2.76055 14.264 2.32332 13.2501C1.88555 12.2362 1.66666 11.1529 1.66666 10.0001C1.66666 8.8473 1.88555 7.76397 2.32332 6.75008C2.76055 5.73619 3.35416 4.85425 4.10416 4.10425C4.85416 3.35425 5.7361 2.76036 6.74999 2.32258C7.76388 1.88536 8.84721 1.66675 9.99999 1.66675C11.1528 1.66675 12.2361 1.88536 13.25 2.32258C14.2639 2.76036 15.1458 3.35425 15.8958 4.10425C16.6458 4.85425 17.2394 5.73619 17.6767 6.75008C18.1144 7.76397 18.3333 8.8473 18.3333 10.0001C18.3333 11.1529 18.1144 12.2362 17.6767 13.2501C17.2394 14.264 16.6458 15.1459 15.8958 15.8959C15.1458 16.6459 14.2639 17.2395 13.25 17.6767C12.2361 18.1145 11.1528 18.3334 9.99999 18.3334Z" fill="currentColor"/>
</g>
</g>
<defs>
<clipPath id="clip0_9270_26055">
<rect width="20" height="20" fill="white"/>
</clipPath>
</defs>
</svg>
