<svg width="20" height="20" viewBox="0 0 20 20" fill="currentColor" xmlns="http://www.w3.org/2000/svg">
<g clip-path="url(#clip0_9304_3536)">
<path d="M17.3595 9.28654L14.9488 11.9788C14.8984 12.0336 14.8373 12.0775 14.7693 12.1076C14.7014 12.1377 14.628 12.1534 14.5537 12.1538H10.0001V16.4615C10.0001 16.6043 9.94364 16.7413 9.84318 16.8423C9.74271 16.9433 9.60645 17 9.46436 17C9.32228 17 9.18602 16.9433 9.08555 16.8423C8.98509 16.7413 8.92864 16.6043 8.92864 16.4615V12.1538H3.57144C3.28728 12.1538 3.01475 12.0404 2.81382 11.8384C2.61288 11.6365 2.5 11.3625 2.5 11.0769V6.76923C2.5 6.48361 2.61288 6.20969 2.81382 6.00773C3.01475 5.80577 3.28728 5.69231 3.57144 5.69231H8.92864V3.53846C8.92864 3.39565 8.98509 3.25869 9.08555 3.15771C9.18602 3.05673 9.32228 3 9.46436 3C9.60645 3 9.74271 3.05673 9.84318 3.15771C9.94364 3.25869 10.0001 3.39565 10.0001 3.53846V5.69231H14.5537C14.628 5.69274 14.7014 5.70849 14.7693 5.73859C14.8373 5.7687 14.8984 5.81251 14.9488 5.86731L17.3595 8.55962C17.4499 8.65888 17.5 8.78854 17.5 8.92308C17.5 9.05761 17.4499 9.18728 17.3595 9.28654Z" fill="currentColor"/>
</g>
<defs>
<clipPath id="clip0_9304_3536">
<rect width="20" height="20" fill="white"/>
</clipPath>
</defs>
</svg>
