<svg width="20" height="20" viewBox="0 0 20 20" fill="currentColor" xmlns="http://www.w3.org/2000/svg">
<g clip-path="url(#clip0_9304_3735)">
<path d="M2.75 8.10733L4.09517 7.27108C4.38805 7.85398 4.8315 8.50477 5.43068 9.2322C6.25752 10.236 7.07292 11.0034 7.10725 11.0356L7.54206 11.4434L7.97686 11.0356C8.01119 11.0034 8.82659 10.236 9.65343 9.2322C10.2823 8.46873 10.7384 7.79023 11.0301 7.18553L13.1037 8.10733L17.4204 5.42373V14.8164L13.1037 17.5L7.06676 14.8164L2.75 17.5V8.10733ZM4.30053 5.74153C4.30053 3.95125 5.75184 2.5 7.54206 2.5C9.33227 2.5 10.7836 3.95125 10.7836 5.74153C10.7836 7.5318 7.54206 10.572 7.54206 10.572C7.54206 10.572 4.30053 7.53174 4.30053 5.74153ZM7.54206 7.10805C8.33184 7.10805 8.97214 6.46775 8.97214 5.67797C8.97214 4.88818 8.33184 4.24788 7.54206 4.24788C6.75227 4.24788 6.11197 4.88818 6.11197 5.67797C6.11197 6.46775 6.75227 7.10805 7.54206 7.10805Z" fill="currentColor"/>
</g>
<defs>
<clipPath id="clip0_9304_3735">
<rect width="20" height="20" fill="white"/>
</clipPath>
</defs>
</svg>
