<?xml version="1.0" standalone="no"?>
<!DOCTYPE svg PUBLIC "-//W3C//DTD SVG 20010904//EN"
 "http://www.w3.org/TR/2001/REC-SVG-20010904/DTD/svg10.dtd">
<svg version="1.0" xmlns="http://www.w3.org/2000/svg"
 width="512.000000pt" height="512.000000pt" viewBox="0 0 512.000000 512.000000"
 preserveAspectRatio="xMidYMid meet">

<g transform="translate(0.000000,512.000000) scale(0.100000,-0.100000)"
fill="#000000" stroke="none">
<path d="M2509 5105 c-18 -10 -62 -78 -142 -222 -126 -227 -141 -259 -151
-345 l-7 -58 -75 0 c-96 0 -140 -18 -160 -65 -8 -20 -12 -46 -8 -61 4 -14 62
-89 130 -167 70 -80 124 -150 124 -162 1 -35 -211 -2769 -216 -2792 l-4 -22
-391 -3 -391 -3 -30 -34 c-38 -43 -37 -54 32 -270 63 -200 72 -211 163 -211
l64 0 32 -86 c17 -47 31 -90 31 -95 0 -5 -144 -9 -336 -9 -211 0 -342 -4 -355
-10 -37 -21 -49 -63 -49 -180 l0 -110 -345 0 c-375 0 -389 -2 -413 -55 -15
-33 -15 -57 0 -90 26 -58 -65 -55 1578 -55 1093 0 1517 3 1533 11 75 39 75
139 0 178 -16 8 -322 11 -1087 11 l-1066 0 0 50 0 50 1550 0 1550 0 0 -50 0
-50 -116 0 -116 0 -34 -34 c-46 -46 -46 -86 0 -132 l34 -34 601 0 c653 0 644
-1 669 55 15 33 15 57 0 90 -24 54 -34 55 -453 55 l-385 0 0 121 c0 120 0 121
-29 150 l-29 29 -301 0 c-171 0 -301 4 -301 9 0 5 14 48 31 95 l32 86 64 0
c91 0 100 11 164 211 62 193 66 236 26 276 l-27 28 -390 3 -390 3 -4 22 c-5
23 -217 2757 -216 2793 0 11 39 65 86 120 147 169 164 192 164 230 0 23 -9 44
-29 66 -28 32 -32 33 -119 36 l-89 4 -12 70 c-6 38 -23 93 -38 121 -78 155
-218 396 -244 420 -33 30 -69 34 -110 12z m124 -425 c36 -63 68 -134 72 -157
l7 -43 -152 0 -152 0 7 43 c7 47 135 291 146 279 4 -4 37 -59 72 -122z m190
-414 c-4 -7 -22 -30 -40 -50 l-32 -36 -191 0 -190 0 -38 41 c-20 23 -38 45
-40 50 -2 5 116 9 268 9 226 0 270 -2 263 -14z m-122 -298 c0 -7 48 -629 107
-1383 l107 -1370 -177 -3 c-98 -1 -258 -1 -356 0 l-177 3 107 1370 c59 754
107 1376 107 1383 1 9 36 12 141 12 105 0 140 -3 141 -12z m1019 -2965 c0 -3
-8 -30 -17 -60 l-17 -53 -1127 0 -1128 0 -15 54 c-9 30 -16 57 -16 60 0 3 522
6 1160 6 638 0 1160 -3 1160 -7z m-293 -405 l-33 -93 -834 0 -834 0 -33 93
-33 92 900 0 900 0 -33 -92z"/>
<path d="M3534 190 c-54 -21 -72 -105 -34 -153 41 -52 136 -44 165 14 46 89
-37 177 -131 139z"/>
</g>
</svg>
