<svg width="26" height="26" viewBox="0 0 26 26" fill="none" stroke="currentColor" xmlns="http://www.w3.org/2000/svg">
<path d="M21.9375 8.125H4.0625C3.61377 8.125 3.25 8.48877 3.25 8.9375V12.1875C3.25 12.6362 3.61377 13 4.0625 13H21.9375C22.3862 13 22.75 12.6362 22.75 12.1875V8.9375C22.75 8.48877 22.3862 8.125 21.9375 8.125Z" stroke-linecap="round" stroke-linejoin="round"/>
<path d="M21.125 13V20.3125C21.125 20.528 21.0394 20.7347 20.887 20.887C20.7347 21.0394 20.528 21.125 20.3125 21.125H5.6875C5.47201 21.125 5.26535 21.0394 5.11298 20.887C4.9606 20.7347 4.875 20.528 4.875 20.3125V13" stroke-linecap="round" stroke-linejoin="round"/>
<path d="M13 8.125V21.125" stroke-linecap="round" stroke-linejoin="round"/>
<path d="M17.6008 6.97591C16.443 8.12356 13 8.12356 13 8.12356C13 8.12356 13 4.6806 14.1477 3.52278C14.6056 3.06487 15.2266 2.80762 15.8742 2.80762C16.5218 2.80762 17.1429 3.06487 17.6008 3.52278C18.0587 3.9807 18.3159 4.60176 18.3159 5.24935C18.3159 5.89693 18.0587 6.51799 17.6008 6.97591V6.97591Z" stroke-linecap="round" stroke-linejoin="round"/>
<path d="M8.39778 6.97591C9.55559 8.12356 12.9986 8.12356 12.9986 8.12356C12.9986 8.12356 12.9986 4.6806 11.8509 3.52278C11.393 3.06487 10.7719 2.80762 10.1243 2.80762C9.47676 2.80762 8.8557 3.06487 8.39778 3.52278C7.93987 3.9807 7.68262 4.60176 7.68262 5.24935C7.68262 5.89693 7.93987 6.51799 8.39778 6.97591V6.97591Z" stroke-linecap="round" stroke-linejoin="round"/>
</svg>
