<svg width="26" height="26" viewBox="0 0 26 26" fill="none" stroke="currentColor" xmlns="http://www.w3.org/2000/svg">
<path d="M10.5625 9.34375H15.4375" stroke-linecap="round" stroke-linejoin="round"/>
<path d="M23.3188 15.6698L18.8805 5.58463C18.4222 5.13125 17.8036 4.87695 17.159 4.87695C16.5144 4.87695 15.8958 5.13125 15.4375 5.58463V17.0612" stroke-linecap="round" stroke-linejoin="round"/>
<path d="M10.5619 17.0612V5.58463C10.1037 5.13125 9.48506 4.87695 8.84043 4.87695C8.1958 4.87695 7.5772 5.13125 7.11895 5.58463L2.68066 15.6698" stroke-linecap="round" stroke-linejoin="round"/>
<path d="M6.5 21.125C8.74366 21.125 10.5625 19.3062 10.5625 17.0625C10.5625 14.8188 8.74366 13 6.5 13C4.25634 13 2.4375 14.8188 2.4375 17.0625C2.4375 19.3062 4.25634 21.125 6.5 21.125Z" stroke-linecap="round" stroke-linejoin="round"/>
<path d="M19.5 21.125C21.7437 21.125 23.5625 19.3062 23.5625 17.0625C23.5625 14.8188 21.7437 13 19.5 13C17.2563 13 15.4375 14.8188 15.4375 17.0625C15.4375 19.3062 17.2563 21.125 19.5 21.125Z"  stroke-linecap="round" stroke-linejoin="round"/>
</svg>
