<svg width="26" height="26" viewBox="0 0 26 26" fill="none" stroke="currentColor" xmlns="http://www.w3.org/2000/svg">
<path d="M4.0625 6.5V19.5C4.0625 19.931 4.2337 20.3443 4.53845 20.649C4.8432 20.9538 5.25652 21.125 5.6875 21.125H21.9375C22.153 21.125 22.3597 21.0394 22.512 20.887C22.6644 20.7347 22.75 20.528 22.75 20.3125V8.9375C22.75 8.72201 22.6644 8.51535 22.512 8.36298C22.3597 8.2106 22.153 8.125 21.9375 8.125H5.6875C5.25652 8.125 4.8432 7.95379 4.53845 7.64905C4.2337 7.3443 4.0625 6.93098 4.0625 6.5ZM4.0625 6.5C4.0625 6.06902 4.2337 5.6557 4.53845 5.35095C4.8432 5.0462 5.25652 4.875 5.6875 4.875H19.5" stroke-linecap="round" stroke-linejoin="round"/>
<path d="M18.2812 15.8438C18.9543 15.8438 19.5 15.2981 19.5 14.625C19.5 13.9519 18.9543 13.4062 18.2812 13.4062C17.6082 13.4062 17.0625 13.9519 17.0625 14.625C17.0625 15.2981 17.6082 15.8438 18.2812 15.8438Z" fill="#3944B3"/>
</svg>
