<svg width="26" height="26" viewBox="0 0 26 26" fill="none" stroke="currentColor" xmlns="http://www.w3.org/2000/svg">
<path d="M5.6875 5.6875V11.2836C5.6875 15.3156 8.91719 18.657 12.9492 18.6875C13.9138 18.6942 14.8701 18.51 15.7632 18.1455C16.6563 17.781 17.4684 17.2435 18.1528 16.5638C18.8372 15.8841 19.3804 15.0757 19.7511 14.1852C20.1217 13.2946 20.3125 12.3396 20.3125 11.375V5.6875C20.3125 5.47201 20.2269 5.26535 20.0745 5.11298C19.9222 4.9606 19.7155 4.875 19.5 4.875H6.5C6.28451 4.875 6.07785 4.9606 5.92548 5.11298C5.7731 5.26535 5.6875 5.47201 5.6875 5.6875Z" stroke-linecap="round" stroke-linejoin="round"/>
<path d="M9.75 22.75H16.25" stroke-linecap="round" stroke-linejoin="round"/>
<path d="M13 18.6875V22.75" stroke-linecap="round" stroke-linejoin="round"/>
<path d="M20.1294 13H21.1247C21.9867 13 22.8133 12.6576 23.4228 12.0481C24.0323 11.4386 24.3747 10.612 24.3747 9.75V8.125C24.3747 7.90951 24.2891 7.70285 24.1367 7.55048C23.9844 7.3981 23.7777 7.3125 23.5622 7.3125H20.3122" stroke-linecap="round" stroke-linejoin="round"/>
<path d="M5.89004 13H4.86426C4.0023 13 3.17565 12.6576 2.56616 12.0481C1.95667 11.4386 1.61426 10.612 1.61426 9.75V8.125C1.61426 7.90951 1.69986 7.70285 1.85223 7.55048C2.00461 7.3981 2.21127 7.3125 2.42676 7.3125H5.67676" stroke-linecap="round" stroke-linejoin="round"/>
</svg>
